<svg xmlns="http://www.w3.org/2000/svg" viewBox="0 0 115.6 101.15"><defs><style>.cls-1{fill:#fff;}.cls-1,.cls-3{stroke:#ff931d;stroke-miterlimit:10;stroke-width:2px;}.cls-2{fill:#ff931d;}.cls-3{fill:none;}</style></defs><title>1</title><g id="Layer_2" data-name="Layer 2"><g id="objects"><g id="_1" data-name="1"><rect class="cls-1" x="1" y="24.06" width="113.6" height="76.1" rx="7.28" ry="7.28"/><path class="cls-1" d="M5.91,24.06H109.69A4.91,4.91,0,0,1,114.6,29V58.59a0,0,0,0,1,0,0H1a0,0,0,0,1,0,0V29A4.91,4.91,0,0,1,5.91,24.06Z"/><path class="cls-2" d="M64.09,68H51.51a3.4,3.4,0,0,1-3.38-3L46.67,53.35A3.4,3.4,0,0,1,50,49.52H65.56a3.4,3.4,0,0,1,3.38,3.83L67.47,65A3.4,3.4,0,0,1,64.09,68Z"/><path class="cls-3" d="M52.47,10.56H63.13a9.14,9.14,0,0,1,9.14,9.14v4.36a0,0,0,0,1,0,0H43.33a0,0,0,0,1,0,0V19.69A9.14,9.14,0,0,1,52.47,10.56Z"/><path class="cls-3" d="M51.41,1H64.19A17.84,17.84,0,0,1,82,18.84v4.77a0,0,0,0,1,0,0H33.57a0,0,0,0,1,0,0V18.84A17.84,17.84,0,0,1,51.41,1Z"/></g></g></g></svg>