<svg xmlns="http://www.w3.org/2000/svg" viewBox="0 0 80.75 79.43"><defs><style>.cls-1{fill:#f5ad94;}</style></defs><title>8</title><g id="Layer_2" data-name="Layer 2"><g id="objects"><g id="_8" data-name="8"><path class="cls-1" d="M35.37,1.39A.89.89,0,0,0,36.26.5a.88.88,0,0,0-.06-.28c-.57.06-1.14.13-1.71.22,0,0,0,0,0,.06A.89.89,0,0,0,35.37,1.39Z"/><path class="cls-1" d="M48.72,1.39a.87.87,0,0,0,.7-.37Q48.65.84,47.87.7A.88.88,0,0,0,48.72,1.39Z"/><path class="cls-1" d="M39.82,1.39A.89.89,0,0,0,40.71.5a.87.87,0,0,0-.17-.5h-.12c-.45,0-.9,0-1.34,0a.87.87,0,0,0-.15.47A.89.89,0,0,0,39.82,1.39Z"/><path class="cls-1" d="M31.66,1l-1.2.28a.86.86,0,0,0,.46.15A.88.88,0,0,0,31.66,1Z"/><path class="cls-1" d="M44.27,1.39A.89.89,0,0,0,45.16.5a.86.86,0,0,0,0-.22C44.57.22,44,.17,43.47.13a.88.88,0,0,0-.09.37A.89.89,0,0,0,44.27,1.39Z"/><circle class="cls-1" cx="39.82" cy="4.6" r="0.89"/><circle class="cls-1" cx="30.92" cy="4.6" r="0.89"/><path class="cls-1" d="M22,5.49a.89.89,0,0,0,.89-.89.87.87,0,0,0-.19-.53c-.52.25-1,.51-1.53.79A.88.88,0,0,0,22,5.49Z"/><circle class="cls-1" cx="26.47" cy="4.6" r="0.89"/><path class="cls-1" d="M56.73,4.6a.89.89,0,0,0,1.78,0,.87.87,0,0,0-.09-.38l-1-.48A.88.88,0,0,0,56.73,4.6Z"/><circle class="cls-1" cx="53.17" cy="4.6" r="0.89"/><circle class="cls-1" cx="44.27" cy="4.6" r="0.89"/><circle class="cls-1" cx="48.72" cy="4.6" r="0.89"/><circle class="cls-1" cx="35.37" cy="4.6" r="0.89"/><circle class="cls-1" cx="30.92" cy="8.71" r="0.89"/><circle class="cls-1" cx="62.07" cy="8.71" r="0.89"/><path class="cls-1" d="M66.52,9.6h0l-.9-.74A.88.88,0,0,0,66.52,9.6Z"/><path class="cls-1" d="M35.37,7.82a.89.89,0,1,0,.89.89A.89.89,0,0,0,35.37,7.82Z"/><circle class="cls-1" cx="26.47" cy="8.71" r="0.89"/><circle class="cls-1" cx="39.82" cy="8.71" r="0.89"/><circle class="cls-1" cx="48.72" cy="8.71" r="0.89"/><circle class="cls-1" cx="17.58" cy="8.71" r="0.89"/><circle class="cls-1" cx="22.03" cy="8.71" r="0.89"/><circle class="cls-1" cx="44.27" cy="8.71" r="0.89"/><circle class="cls-1" cx="53.17" cy="8.71" r="0.89"/><circle class="cls-1" cx="57.62" cy="8.71" r="0.89"/><circle class="cls-1" cx="44.27" cy="12.81" r="0.89"/><circle class="cls-1" cx="62.07" cy="12.81" r="0.89"/><circle class="cls-1" cx="53.17" cy="12.81" r="0.89"/><circle class="cls-1" cx="13.13" cy="12.81" r="0.89"/><circle class="cls-1" cx="39.82" cy="12.81" r="0.89"/><circle class="cls-1" cx="57.62" cy="12.81" r="0.89"/><circle class="cls-1" cx="17.58" cy="12.81" r="0.89"/><circle class="cls-1" cx="35.37" cy="12.81" r="0.89"/><path class="cls-1" d="M70.7,13.65,70.11,13A.87.87,0,0,0,70.7,13.65Z"/><circle class="cls-1" cx="48.72" cy="12.81" r="0.89"/><circle class="cls-1" cx="30.92" cy="12.81" r="0.89"/><circle class="cls-1" cx="26.47" cy="12.81" r="0.89"/><circle class="cls-1" cx="22.03" cy="12.81" r="0.89"/><circle class="cls-1" cx="66.52" cy="12.81" r="0.89"/><circle class="cls-1" cx="22.03" cy="16.93" r="0.89"/><circle class="cls-1" cx="66.52" cy="16.93" r="0.89"/><circle class="cls-1" cx="44.27" cy="16.93" r="0.89"/><circle class="cls-1" cx="48.72" cy="16.93" r="0.89"/><circle class="cls-1" cx="26.47" cy="16.93" r="0.89"/><circle class="cls-1" cx="57.62" cy="16.93" r="0.89"/><circle class="cls-1" cx="17.58" cy="16.93" r="0.89"/><circle class="cls-1" cx="39.82" cy="16.93" r="0.89"/><circle class="cls-1" cx="70.97" cy="16.93" r="0.89"/><circle class="cls-1" cx="35.37" cy="16.93" r="0.89"/><circle class="cls-1" cx="30.92" cy="16.93" r="0.89"/><circle class="cls-1" cx="62.07" cy="16.93" r="0.89"/><circle class="cls-1" cx="53.17" cy="16.93" r="0.89"/><circle class="cls-1" cx="13.13" cy="16.93" r="0.89"/><circle class="cls-1" cx="8.68" cy="16.93" r="0.89"/><path class="cls-1" d="M5.12,21a.85.85,0,0,0,0-.22c-.19.35-.38.71-.57,1.06A.89.89,0,0,0,5.12,21Z"/><path class="cls-1" d="M48.72,20.14a.89.89,0,1,0,.89.89A.89.89,0,0,0,48.72,20.14Z"/><path class="cls-1" d="M71,20.14a.89.89,0,1,0,.89.89A.89.89,0,0,0,71,20.14Z"/><path class="cls-1" d="M8.68,21.93a.89.89,0,1,0-.89-.9A.89.89,0,0,0,8.68,21.93Z"/><path class="cls-1" d="M66.52,20.14a.89.89,0,1,0,.89.89A.89.89,0,0,0,66.52,20.14Z"/><path class="cls-1" d="M22,20.14a.89.89,0,1,0,.89.89A.89.89,0,0,0,22,20.14Z"/><path class="cls-1" d="M74.52,21a.89.89,0,0,0,.89.9.87.87,0,0,0,.74-.42c-.24-.46-.5-.91-.76-1.36A.89.89,0,0,0,74.52,21Z"/><path class="cls-1" d="M53.17,20.14a.89.89,0,1,0,.89.89A.89.89,0,0,0,53.17,20.14Z"/><path class="cls-1" d="M39.82,20.14a.89.89,0,1,0,.89.89A.89.89,0,0,0,39.82,20.14Z"/><path class="cls-1" d="M30.92,20.14a.89.89,0,1,0,.89.89A.89.89,0,0,0,30.92,20.14Z"/><path class="cls-1" d="M26.47,20.14a.89.89,0,1,0,.89.89A.89.89,0,0,0,26.47,20.14Z"/><path class="cls-1" d="M13.13,20.14A.89.89,0,1,0,14,21,.89.89,0,0,0,13.13,20.14Z"/><path class="cls-1" d="M35.37,20.14a.89.89,0,1,0,.89.89A.89.89,0,0,0,35.37,20.14Z"/><path class="cls-1" d="M62.07,20.14A.89.89,0,1,0,63,21,.89.89,0,0,0,62.07,20.14Z"/><path class="cls-1" d="M57.62,20.14a.89.89,0,1,0,.89.89A.89.89,0,0,0,57.62,20.14Z"/><path class="cls-1" d="M44.27,20.14a.89.89,0,1,0,.89.89A.89.89,0,0,0,44.27,20.14Z"/><path class="cls-1" d="M17.58,20.14a.89.89,0,1,0,.89.89A.89.89,0,0,0,17.58,20.14Z"/><circle class="cls-1" cx="62.07" cy="25.14" r="0.89"/><circle class="cls-1" cx="4.23" cy="25.14" r="0.89"/><circle class="cls-1" cx="57.62" cy="25.14" r="0.89"/><circle class="cls-1" cx="66.52" cy="25.14" r="0.89"/><circle class="cls-1" cx="53.17" cy="25.14" r="0.89"/><circle class="cls-1" cx="70.97" cy="25.14" r="0.89"/><circle class="cls-1" cx="8.68" cy="25.14" r="0.89"/><circle class="cls-1" cx="39.82" cy="25.14" r="0.89"/><circle class="cls-1" cx="13.13" cy="25.14" r="0.89"/><circle class="cls-1" cx="30.92" cy="25.14" r="0.89"/><circle class="cls-1" cx="48.72" cy="25.14" r="0.89"/><circle class="cls-1" cx="17.58" cy="25.14" r="0.89"/><circle class="cls-1" cx="44.27" cy="25.14" r="0.89"/><circle class="cls-1" cx="35.37" cy="25.14" r="0.89"/><circle class="cls-1" cx="75.41" cy="25.14" r="0.89"/><circle class="cls-1" cx="22.03" cy="25.14" r="0.89"/><circle class="cls-1" cx="26.47" cy="25.14" r="0.89"/><path class="cls-1" d="M71,28.36a.89.89,0,1,0,.89.89A.89.89,0,0,0,71,28.36Z"/><path class="cls-1" d="M62.07,28.36a.89.89,0,1,0,.89.89A.89.89,0,0,0,62.07,28.36Z"/><path class="cls-1" d="M30.92,28.36a.89.89,0,1,0,.89.89A.89.89,0,0,0,30.92,28.36Z"/><path class="cls-1" d="M48.72,28.36a.89.89,0,1,0,.89.89A.89.89,0,0,0,48.72,28.36Z"/><path class="cls-1" d="M57.62,28.36a.89.89,0,1,0,.89.89A.89.89,0,0,0,57.62,28.36Z"/><path class="cls-1" d="M53.17,28.36a.89.89,0,1,0,.89.89A.89.89,0,0,0,53.17,28.36Z"/><path class="cls-1" d="M4.23,28.36a.89.89,0,1,0,.89.89A.89.89,0,0,0,4.23,28.36Z"/><path class="cls-1" d="M26.47,28.36a.89.89,0,1,0,.89.89A.89.89,0,0,0,26.47,28.36Z"/><path class="cls-1" d="M75.41,28.36a.89.89,0,1,0,.89.89A.89.89,0,0,0,75.41,28.36Z"/><path class="cls-1" d="M79.5,30.06q-.17-.65-.37-1.3a.87.87,0,0,0-.16.49A.89.89,0,0,0,79.5,30.06Z"/><path class="cls-1" d="M13.13,28.36a.89.89,0,1,0,.89.89A.89.89,0,0,0,13.13,28.36Z"/><path class="cls-1" d="M8.68,30.14a.89.89,0,1,0-.89-.89A.89.89,0,0,0,8.68,30.14Z"/><path class="cls-1" d="M66.52,28.36a.89.89,0,1,0,.89.89A.89.89,0,0,0,66.52,28.36Z"/><path class="cls-1" d="M35.37,28.36a.89.89,0,1,0,.89.89A.89.89,0,0,0,35.37,28.36Z"/><path class="cls-1" d="M44.27,28.36a.89.89,0,1,0,.89.89A.89.89,0,0,0,44.27,28.36Z"/><path class="cls-1" d="M22,28.36a.89.89,0,1,0,.89.89A.89.89,0,0,0,22,28.36Z"/><path class="cls-1" d="M17.58,28.36a.89.89,0,1,0,.89.89A.89.89,0,0,0,17.58,28.36Z"/><path class="cls-1" d="M39.82,28.36a.89.89,0,1,0,.89.89A.89.89,0,0,0,39.82,28.36Z"/><circle class="cls-1" cx="30.92" cy="33.35" r="0.89"/><circle class="cls-1" cx="35.37" cy="33.35" r="0.89"/><circle class="cls-1" cx="53.17" cy="33.35" r="0.89"/><circle class="cls-1" cx="4.23" cy="33.35" r="0.89"/><circle class="cls-1" cx="39.82" cy="33.35" r="0.89"/><circle class="cls-1" cx="75.41" cy="33.35" r="0.89"/><circle class="cls-1" cx="66.52" cy="33.35" r="0.89"/><circle class="cls-1" cx="13.13" cy="33.35" r="0.89"/><circle class="cls-1" cx="48.72" cy="33.35" r="0.89"/><circle class="cls-1" cx="44.27" cy="33.35" r="0.89"/><path class="cls-1" d="M79,33.35a.89.89,0,0,0,.89.89.87.87,0,0,0,.49-.17q-.12-.79-.28-1.57a.85.85,0,0,0-.21,0A.89.89,0,0,0,79,33.35Z"/><circle class="cls-1" cx="8.68" cy="33.35" r="0.89"/><circle class="cls-1" cx="17.58" cy="33.35" r="0.89"/><circle class="cls-1" cx="62.07" cy="33.35" r="0.89"/><circle class="cls-1" cx="26.47" cy="33.35" r="0.89"/><path class="cls-1" d="M.67,33.35a.83.83,0,0,0,0-.12c0,.18-.07.36-.1.55A.86.86,0,0,0,.67,33.35Z"/><circle class="cls-1" cx="22.03" cy="33.35" r="0.89"/><circle class="cls-1" cx="57.62" cy="33.35" r="0.89"/><circle class="cls-1" cx="70.97" cy="33.35" r="0.89"/><path class="cls-1" d="M35.37,36.57a.89.89,0,1,0,.89.89A.89.89,0,0,0,35.37,36.57Z"/><path class="cls-1" d="M22,36.57a.89.89,0,1,0,.89.89A.89.89,0,0,0,22,36.57Z"/><path class="cls-1" d="M17.58,36.57a.89.89,0,1,0,.89.89A.89.89,0,0,0,17.58,36.57Z"/><path class="cls-1" d="M26.47,36.57a.89.89,0,1,0,.89.89A.89.89,0,0,0,26.47,36.57Z"/><path class="cls-1" d="M30.92,36.57a.89.89,0,1,0,.89.89A.89.89,0,0,0,30.92,36.57Z"/><path class="cls-1" d="M4.23,36.57a.89.89,0,1,0,.89.89A.89.89,0,0,0,4.23,36.57Z"/><path class="cls-1" d="M44.27,36.57a.89.89,0,1,0,.89.89A.89.89,0,0,0,44.27,36.57Z"/><path class="cls-1" d="M57.62,36.57a.89.89,0,1,0,.89.89A.89.89,0,0,0,57.62,36.57Z"/><path class="cls-1" d="M62.07,36.57a.89.89,0,1,0,.89.89A.89.89,0,0,0,62.07,36.57Z"/><path class="cls-1" d="M79.86,36.57a.89.89,0,1,0,.87,1l0-.25A.87.87,0,0,0,79.86,36.57Z"/><path class="cls-1" d="M.17,36.67c0,.54-.1,1.08-.12,1.62a.88.88,0,0,0,.62-.84A.88.88,0,0,0,.17,36.67Z"/><path class="cls-1" d="M48.72,36.57a.89.89,0,1,0,.89.89A.89.89,0,0,0,48.72,36.57Z"/><path class="cls-1" d="M75.41,36.57a.89.89,0,1,0,.89.89A.89.89,0,0,0,75.41,36.57Z"/><path class="cls-1" d="M8.68,38.35a.89.89,0,1,0-.89-.89A.89.89,0,0,0,8.68,38.35Z"/><path class="cls-1" d="M39.82,36.57a.89.89,0,1,0,.89.89A.89.89,0,0,0,39.82,36.57Z"/><path class="cls-1" d="M66.52,36.57a.89.89,0,1,0,.89.89A.89.89,0,0,0,66.52,36.57Z"/><path class="cls-1" d="M13.13,36.57a.89.89,0,1,0,.89.89A.89.89,0,0,0,13.13,36.57Z"/><path class="cls-1" d="M53.17,36.57a.89.89,0,1,0,.89.89A.89.89,0,0,0,53.17,36.57Z"/><path class="cls-1" d="M71,36.57a.89.89,0,1,0,.89.89A.89.89,0,0,0,71,36.57Z"/><path class="cls-1" d="M35.37,40.67a.89.89,0,1,0,.89.89A.89.89,0,0,0,35.37,40.67Z"/><path class="cls-1" d="M13.13,40.67a.89.89,0,1,0,.89.89A.89.89,0,0,0,13.13,40.67Z"/><path class="cls-1" d="M66.52,40.67a.89.89,0,1,0,.89.89A.89.89,0,0,0,66.52,40.67Z"/><path class="cls-1" d="M57.62,40.67a.89.89,0,1,0,.89.89A.89.89,0,0,0,57.62,40.67Z"/><path class="cls-1" d="M8.68,42.45a.89.89,0,1,0-.89-.89A.89.89,0,0,0,8.68,42.45Z"/><path class="cls-1" d="M53.17,40.67a.89.89,0,1,0,.89.89A.89.89,0,0,0,53.17,40.67Z"/><path class="cls-1" d="M30.92,40.67a.89.89,0,1,0,.89.89A.89.89,0,0,0,30.92,40.67Z"/><path class="cls-1" d="M44.27,40.67a.89.89,0,1,0,.89.89A.89.89,0,0,0,44.27,40.67Z"/><path class="cls-1" d="M48.72,40.67a.89.89,0,1,0,.89.89A.89.89,0,0,0,48.72,40.67Z"/><path class="cls-1" d="M75.41,40.67a.89.89,0,1,0,.89.89A.89.89,0,0,0,75.41,40.67Z"/><path class="cls-1" d="M39.82,40.67a.89.89,0,1,0,.89.89A.89.89,0,0,0,39.82,40.67Z"/><path class="cls-1" d="M22,40.67a.89.89,0,1,0,.89.89A.89.89,0,0,0,22,40.67Z"/><path class="cls-1" d="M71,40.67a.89.89,0,1,0,.89.89A.89.89,0,0,0,71,40.67Z"/><path class="cls-1" d="M17.58,40.67a.89.89,0,1,0,.89.89A.89.89,0,0,0,17.58,40.67Z"/><path class="cls-1" d="M.67,41.56A.88.88,0,0,0,0,40.72c0,.56,0,1.12,0,1.68A.88.88,0,0,0,.67,41.56Z"/><path class="cls-1" d="M79.86,40.67a.89.89,0,1,0,.89.89A.89.89,0,0,0,79.86,40.67Z"/><path class="cls-1" d="M62.07,40.67a.89.89,0,1,0,.89.89A.89.89,0,0,0,62.07,40.67Z"/><path class="cls-1" d="M26.47,40.67a.89.89,0,1,0,.89.89A.89.89,0,0,0,26.47,40.67Z"/><path class="cls-1" d="M4.23,40.67a.89.89,0,1,0,.89.89A.89.89,0,0,0,4.23,40.67Z"/><path class="cls-1" d="M.25,44.94q.08.68.17,1.35a.88.88,0,0,0,.25-.61A.88.88,0,0,0,.25,44.94Z"/><path class="cls-1" d="M79.86,44.79a.89.89,0,0,0,0,1.78.87.87,0,0,0,.55-.21c.06-.4.11-.8.15-1.2A.87.87,0,0,0,79.86,44.79Z"/><circle class="cls-1" cx="62.07" cy="45.68" r="0.89"/><circle class="cls-1" cx="66.52" cy="45.68" r="0.89"/><circle class="cls-1" cx="70.97" cy="45.68" r="0.89"/><circle class="cls-1" cx="35.37" cy="45.68" r="0.89"/><circle class="cls-1" cx="30.92" cy="45.68" r="0.89"/><circle class="cls-1" cx="26.47" cy="45.68" r="0.89"/><circle class="cls-1" cx="22.03" cy="45.68" r="0.89"/><circle class="cls-1" cx="17.58" cy="45.68" r="0.89"/><circle class="cls-1" cx="57.62" cy="45.68" r="0.89"/><circle class="cls-1" cx="53.17" cy="45.68" r="0.89"/><circle class="cls-1" cx="48.72" cy="45.68" r="0.89"/><circle class="cls-1" cx="44.27" cy="45.68" r="0.89"/><circle class="cls-1" cx="39.82" cy="45.68" r="0.89"/><circle class="cls-1" cx="8.68" cy="45.68" r="0.89"/><circle class="cls-1" cx="75.41" cy="45.68" r="0.89"/><circle class="cls-1" cx="4.23" cy="45.68" r="0.89"/><circle class="cls-1" cx="13.13" cy="45.68" r="0.89"/><path class="cls-1" d="M17.58,48.9a.88.88,0,0,0-.89.88.89.89,0,1,0,1.78,0A.88.88,0,0,0,17.58,48.9Z"/><path class="cls-1" d="M53.17,48.9a.88.88,0,0,0-.89.88.89.89,0,1,0,1.78,0A.88.88,0,0,0,53.17,48.9Z"/><path class="cls-1" d="M39.82,48.9a.88.88,0,0,0-.89.88.89.89,0,1,0,1.78,0A.88.88,0,0,0,39.82,48.9Z"/><path class="cls-1" d="M44.27,48.9a.88.88,0,0,0-.89.88.89.89,0,1,0,1.78,0A.88.88,0,0,0,44.27,48.9Z"/><path class="cls-1" d="M48.72,48.9a.88.88,0,0,0-.89.88.89.89,0,1,0,1.78,0A.88.88,0,0,0,48.72,48.9Z"/><path class="cls-1" d="M75.41,48.9a.88.88,0,0,0-.89.88.89.89,0,1,0,1.78,0A.88.88,0,0,0,75.41,48.9Z"/><path class="cls-1" d="M66.52,48.9a.88.88,0,0,0-.89.88.89.89,0,1,0,1.78,0A.88.88,0,0,0,66.52,48.9Z"/><path class="cls-1" d="M71,48.9a.88.88,0,0,0-.89.88.89.89,0,1,0,1.78,0A.88.88,0,0,0,71,48.9Z"/><path class="cls-1" d="M26.47,48.9a.88.88,0,0,0-.89.88.89.89,0,1,0,1.78,0A.88.88,0,0,0,26.47,48.9Z"/><path class="cls-1" d="M62.07,48.9a.88.88,0,0,0-.89.88.89.89,0,1,0,1.78,0A.88.88,0,0,0,62.07,48.9Z"/><path class="cls-1" d="M4.23,48.9a.88.88,0,0,0-.89.88.89.89,0,1,0,1.78,0A.88.88,0,0,0,4.23,48.9Z"/><path class="cls-1" d="M22,48.9a.88.88,0,0,0-.89.88.89.89,0,1,0,1.78,0A.88.88,0,0,0,22,48.9Z"/><path class="cls-1" d="M30.92,48.9a.88.88,0,0,0-.89.88.89.89,0,1,0,1.78,0A.88.88,0,0,0,30.92,48.9Z"/><path class="cls-1" d="M57.62,48.9a.88.88,0,0,0-.89.88.89.89,0,1,0,1.78,0A.88.88,0,0,0,57.62,48.9Z"/><path class="cls-1" d="M79.86,48.9a.89.89,0,0,0-.31,1.72c.15-.56.27-1.13.4-1.7Z"/><path class="cls-1" d="M8.68,50.68a.89.89,0,0,0,.89-.9.89.89,0,0,0-1.78,0A.89.89,0,0,0,8.68,50.68Z"/><path class="cls-1" d="M35.37,48.9a.88.88,0,0,0-.89.88.89.89,0,1,0,1.78,0A.88.88,0,0,0,35.37,48.9Z"/><path class="cls-1" d="M13.13,48.9a.88.88,0,0,0-.89.88.89.89,0,1,0,1.78,0A.88.88,0,0,0,13.13,48.9Z"/><circle class="cls-1" cx="17.58" cy="53.89" r="0.89"/><circle class="cls-1" cx="8.68" cy="53.89" r="0.89"/><circle class="cls-1" cx="22.03" cy="53.89" r="0.89"/><circle class="cls-1" cx="66.52" cy="53.89" r="0.89"/><circle class="cls-1" cx="4.23" cy="53.89" r="0.89"/><circle class="cls-1" cx="13.13" cy="53.89" r="0.89"/><circle class="cls-1" cx="44.27" cy="53.89" r="0.89"/><circle class="cls-1" cx="53.17" cy="53.89" r="0.89"/><circle class="cls-1" cx="70.97" cy="53.89" r="0.89"/><circle class="cls-1" cx="35.37" cy="53.89" r="0.89"/><circle class="cls-1" cx="26.47" cy="53.89" r="0.89"/><circle class="cls-1" cx="62.07" cy="53.89" r="0.89"/><circle class="cls-1" cx="57.62" cy="53.89" r="0.89"/><circle class="cls-1" cx="39.82" cy="53.89" r="0.89"/><circle class="cls-1" cx="48.72" cy="53.89" r="0.89"/><circle class="cls-1" cx="30.92" cy="53.89" r="0.89"/><circle class="cls-1" cx="75.41" cy="53.89" r="0.89"/><path class="cls-1" d="M5.12,58a.89.89,0,0,0-.89-.89.88.88,0,0,0-.54.2q.36.78.75,1.54A.88.88,0,0,0,5.12,58Z"/><path class="cls-1" d="M26.47,57.11a.89.89,0,1,0,.89.89A.89.89,0,0,0,26.47,57.11Z"/><path class="cls-1" d="M71,57.11a.89.89,0,1,0,.89.89A.89.89,0,0,0,71,57.11Z"/><path class="cls-1" d="M57.62,57.11a.89.89,0,1,0,.89.89A.89.89,0,0,0,57.62,57.11Z"/><path class="cls-1" d="M39.82,57.11a.89.89,0,1,0,.89.89A.89.89,0,0,0,39.82,57.11Z"/><path class="cls-1" d="M44.27,57.11a.89.89,0,1,0,.89.89A.89.89,0,0,0,44.27,57.11Z"/><path class="cls-1" d="M66.52,57.11a.89.89,0,1,0,.89.89A.89.89,0,0,0,66.52,57.11Z"/><path class="cls-1" d="M30.92,57.11a.89.89,0,1,0,.89.89A.89.89,0,0,0,30.92,57.11Z"/><path class="cls-1" d="M35.37,57.11a.89.89,0,1,0,.89.89A.89.89,0,0,0,35.37,57.11Z"/><path class="cls-1" d="M75.41,57.11a.89.89,0,1,0,.89.89A.89.89,0,0,0,75.41,57.11Z"/><path class="cls-1" d="M22,57.11a.89.89,0,1,0,.89.89A.89.89,0,0,0,22,57.11Z"/><path class="cls-1" d="M8.68,58.89A.89.89,0,1,0,7.79,58,.89.89,0,0,0,8.68,58.89Z"/><path class="cls-1" d="M53.17,57.11a.89.89,0,1,0,.89.89A.89.89,0,0,0,53.17,57.11Z"/><path class="cls-1" d="M62.07,57.11A.89.89,0,1,0,63,58,.89.89,0,0,0,62.07,57.11Z"/><path class="cls-1" d="M13.13,57.11A.89.89,0,1,0,14,58,.89.89,0,0,0,13.13,57.11Z"/><path class="cls-1" d="M48.72,57.11a.89.89,0,1,0,.89.89A.89.89,0,0,0,48.72,57.11Z"/><path class="cls-1" d="M17.58,57.11a.89.89,0,1,0,.89.89A.89.89,0,0,0,17.58,57.11Z"/><circle class="cls-1" cx="48.72" cy="62.1" r="0.89"/><circle class="cls-1" cx="17.58" cy="62.1" r="0.89"/><circle class="cls-1" cx="22.03" cy="62.1" r="0.89"/><circle class="cls-1" cx="39.82" cy="62.1" r="0.89"/><circle class="cls-1" cx="66.52" cy="62.1" r="0.89"/><circle class="cls-1" cx="70.97" cy="62.1" r="0.89"/><circle class="cls-1" cx="26.47" cy="62.1" r="0.89"/><circle class="cls-1" cx="8.68" cy="62.1" r="0.89"/><circle class="cls-1" cx="62.07" cy="62.1" r="0.89"/><circle class="cls-1" cx="44.27" cy="62.1" r="0.89"/><circle class="cls-1" cx="35.37" cy="62.1" r="0.89"/><circle class="cls-1" cx="57.62" cy="62.1" r="0.89"/><circle class="cls-1" cx="53.17" cy="62.1" r="0.89"/><circle class="cls-1" cx="13.13" cy="62.1" r="0.89"/><path class="cls-1" d="M74.52,62.1v0c.18-.28.36-.55.53-.84A.89.89,0,0,0,74.52,62.1Z"/><circle class="cls-1" cx="30.92" cy="62.1" r="0.89"/><path class="cls-1" d="M17.58,65.32a.89.89,0,1,0,.89.89A.89.89,0,0,0,17.58,65.32Z"/><path class="cls-1" d="M30.92,65.32a.89.89,0,1,0,.89.89A.89.89,0,0,0,30.92,65.32Z"/><path class="cls-1" d="M22,65.32a.89.89,0,1,0,.89.89A.89.89,0,0,0,22,65.32Z"/><path class="cls-1" d="M71,65.32a.88.88,0,0,0-.15,1.75c.33-.38.66-.76,1-1.15A.88.88,0,0,0,71,65.32Z"/><path class="cls-1" d="M8.68,65.32l-.09,0c.3.39.61.77.92,1.14a.86.86,0,0,0,.05-.27A.89.89,0,0,0,8.68,65.32Z"/><path class="cls-1" d="M57.62,65.32a.89.89,0,1,0,.89.89A.89.89,0,0,0,57.62,65.32Z"/><path class="cls-1" d="M26.47,65.32a.89.89,0,1,0,.89.89A.89.89,0,0,0,26.47,65.32Z"/><path class="cls-1" d="M35.37,65.32a.89.89,0,1,0,.89.89A.89.89,0,0,0,35.37,65.32Z"/><path class="cls-1" d="M39.82,65.32a.89.89,0,1,0,.89.89A.89.89,0,0,0,39.82,65.32Z"/><path class="cls-1" d="M44.27,65.32a.89.89,0,1,0,.89.89A.89.89,0,0,0,44.27,65.32Z"/><path class="cls-1" d="M53.17,65.32a.89.89,0,1,0,.89.89A.89.89,0,0,0,53.17,65.32Z"/><path class="cls-1" d="M13.13,67.1a.89.89,0,1,0-.89-.89A.89.89,0,0,0,13.13,67.1Z"/><path class="cls-1" d="M48.72,65.32a.89.89,0,1,0,.89.89A.89.89,0,0,0,48.72,65.32Z"/><path class="cls-1" d="M62.07,65.32a.89.89,0,1,0,.89.89A.89.89,0,0,0,62.07,65.32Z"/><path class="cls-1" d="M66.52,65.32a.89.89,0,1,0,.89.89A.89.89,0,0,0,66.52,65.32Z"/><path class="cls-1" d="M39.82,69.42a.89.89,0,1,0,.89.89A.89.89,0,0,0,39.82,69.42Z"/><path class="cls-1" d="M48.72,69.42a.89.89,0,1,0,.89.89A.89.89,0,0,0,48.72,69.42Z"/><path class="cls-1" d="M35.37,69.42a.89.89,0,0,0,0,1.78.89.89,0,1,0,0-1.78Z"/><path class="cls-1" d="M44.27,69.42a.89.89,0,1,0,.89.89A.89.89,0,0,0,44.27,69.42Z"/><path class="cls-1" d="M53.17,69.42a.89.89,0,1,0,.89.89A.89.89,0,0,0,53.17,69.42Z"/><path class="cls-1" d="M26.47,69.42a.89.89,0,1,0,.89.89A.89.89,0,0,0,26.47,69.42Z"/><path class="cls-1" d="M17.58,69.42a.89.89,0,1,0,.89.89A.89.89,0,0,0,17.58,69.42Z"/><path class="cls-1" d="M13.13,69.42a.88.88,0,0,0-.61.25q.64.61,1.3,1.19a.87.87,0,0,0,.2-.54A.89.89,0,0,0,13.13,69.42Z"/><path class="cls-1" d="M62.07,69.42a.89.89,0,1,0,.89.89A.89.89,0,0,0,62.07,69.42Z"/><path class="cls-1" d="M30.92,69.42a.89.89,0,1,0,.89.89A.89.89,0,0,0,30.92,69.42Z"/><path class="cls-1" d="M57.62,69.42a.89.89,0,1,0,.89.89A.89.89,0,0,0,57.62,69.42Z"/><path class="cls-1" d="M66.52,69.42a.89.89,0,1,0,0,1.78.85.85,0,0,0,.15,0l.69-.6a.87.87,0,0,0,.05-.26A.89.89,0,0,0,66.52,69.42Z"/><path class="cls-1" d="M22,69.42a.89.89,0,1,0,0,1.78.89.89,0,0,0,0-1.78Z"/><circle class="cls-1" cx="53.17" cy="74.42" r="0.89"/><path class="cls-1" d="M17.58,73.53a.86.86,0,0,0-.27.06l1.15.77A.89.89,0,0,0,17.58,73.53Z"/><circle class="cls-1" cx="57.62" cy="74.42" r="0.89"/><circle class="cls-1" cx="44.27" cy="74.42" r="0.89"/><circle class="cls-1" cx="30.92" cy="74.42" r="0.89"/><circle class="cls-1" cx="35.37" cy="74.42" r="0.89"/><circle class="cls-1" cx="48.72" cy="74.42" r="0.89"/><circle class="cls-1" cx="22.03" cy="74.42" r="0.89"/><circle class="cls-1" cx="26.47" cy="74.42" r="0.89"/><path class="cls-1" d="M62.07,73.53a.89.89,0,0,0-.89.89.88.88,0,0,0,.22.57c.5-.3,1-.62,1.47-.94A.88.88,0,0,0,62.07,73.53Z"/><circle class="cls-1" cx="39.82" cy="74.42" r="0.89"/><path class="cls-1" d="M48.72,77.65a.89.89,0,1,0,.89.89A.89.89,0,0,0,48.72,77.65Z"/><path class="cls-1" d="M44.27,77.65a.89.89,0,1,0,.89.89A.89.89,0,0,0,44.27,77.65Z"/><path class="cls-1" d="M39.82,77.65a.89.89,0,1,0,.89.89A.89.89,0,0,0,39.82,77.65Z"/><path class="cls-1" d="M26.47,77.65a.88.88,0,0,0-.75.44q.8.31,1.61.59a.84.84,0,0,0,0-.15A.89.89,0,0,0,26.47,77.65Z"/><path class="cls-1" d="M53.17,77.65a.89.89,0,0,0-.89.89.87.87,0,0,0,.18.5c.54-.17,1.07-.35,1.6-.54A.88.88,0,0,0,53.17,77.65Z"/><path class="cls-1" d="M35.37,77.65a.89.89,0,1,0,.89.89A.89.89,0,0,0,35.37,77.65Z"/><path class="cls-1" d="M30,78.54a.89.89,0,0,0,1.78,0,.89.89,0,1,0-1.78,0Z"/></g></g></g></svg>