<svg xmlns="http://www.w3.org/2000/svg" viewBox="0 0 24.97 20.81"><defs><style>.cls-1{fill:#f48020;}</style></defs><title>Asset 3</title><g id="Layer_2" data-name="Layer 2"><g id="Layer_1-2" data-name="Layer 1"><path class="cls-1" d="M25,4.66a.52.52,0,0,0,0-.1.52.52,0,0,0,0-.1v0L22.79.28A.52.52,0,0,0,22.33,0H11a.52.52,0,0,0-.46.28L8.38,4.45v0a.52.52,0,0,0,0,.1.52.52,0,0,0,0,.1v6.28a11.29,11.29,0,0,0-2.27.38,1.56,1.56,0,0,0-1.19-1.1L.62,9.38a.53.53,0,0,0-.43.11.52.52,0,0,0-.19.4v8.32a.52.52,0,0,0,.52.52H3.78a1.55,1.55,0,0,0,1.42-1c1.16.56,6.55,3.06,8.84,3.06,2,0,6.17-2,8.92-3.39.72-.35,1.31-.64,1.7-.81a.52.52,0,0,0,.31-.48V4.66ZM17.66,14.92c-.14-1.49-2.05-2-4-2.42a8.93,8.93,0,0,1-2.22-.82,6.6,6.6,0,0,0-2-.71V5.2h4.16V7.8a.52.52,0,0,0,.52.52h5.2a.52.52,0,0,0,.52-.52V5.2h4.16v9.33A4.2,4.2,0,0,0,21.85,14,21.12,21.12,0,0,0,17.66,14.92ZM18.73,5.2V7.28H14.57V5.2Zm-4-1L15.49,1H17.8l.78,3.12Zm8.89,0H19.66L18.88,1H22ZM11.29,1h3.13l-.78,3.12H9.7ZM3.78,17.69H1V10.52l3.62.72a.52.52,0,0,1,.41.58L4.3,17.24A.52.52,0,0,1,3.78,17.69Zm18.73-1.21C20,17.71,15.82,19.77,14,19.77S7.19,17.56,5.43,16.7h0L6,12.41A10,10,0,0,1,8.85,12a4.69,4.69,0,0,1,2.11.65,9.93,9.93,0,0,0,2.47.9c2.26.46,3.23.93,3.23,1.57a.31.31,0,0,1-.14.28c-.33.25-1.62.66-6.48-.78a.52.52,0,0,0-.3,1,21.09,21.09,0,0,0,5.53,1.06,3.12,3.12,0,0,0,1.87-.45l.09-.09h.1a24.47,24.47,0,0,1,4.53-1,2.4,2.4,0,0,1,2,.74Z"/></g></g></svg>