<svg id="Layer_1" data-name="Layer 1" xmlns="http://www.w3.org/2000/svg" viewBox="0 0 70.09 70.09"><defs><style>.cls-1{fill:#343c49;}.cls-2{fill:#f48020;}</style></defs><title>about-OurStory-5_1</title><path class="cls-1" d="M410.06,214a35,35,0,1,1,35-35A35.08,35.08,0,0,1,410.06,214Zm0-66.48A31.44,31.44,0,1,0,441.5,179,31.46,31.46,0,0,0,410.06,147.54Z" transform="translate(-375.02 -143.93)"/><path class="cls-2" d="M415.1,202.87H405v-4.41a19.87,19.87,0,0,1-5.19-2.16l-3.12,3.12-7.12-7.12,3.12-3.12a19.87,19.87,0,0,1-2.16-5.19h-4.41V173.94h4.41a19.87,19.87,0,0,1,2.16-5.19l-3.12-3.12,7.12-7.12,3.12,3.12a19.87,19.87,0,0,1,5.19-2.16v-4.41H415.1v4.41a19.87,19.87,0,0,1,5.19,2.16l3.12-3.12,7.12,7.12-3.12,3.12a19.87,19.87,0,0,1,2.16,5.19H434V184h-4.41a19.87,19.87,0,0,1-2.16,5.19l3.12,3.12-7.12,7.12-3.12-3.12a19.87,19.87,0,0,1-5.19,2.16v4.41Z" transform="translate(-375.02 -143.93)"/></svg>