<svg xmlns="http://www.w3.org/2000/svg" viewBox="0 0 20.25 27"><defs><style>.cls-1{fill:#f48020;}</style></defs><title>Asset 4</title><g id="Layer_2" data-name="Layer 2"><g id="Layer_1-2" data-name="Layer 1"><path class="cls-1" d="M19.89,3.41,10.33,0A.57.57,0,0,0,10,0L.39,3.41A.58.58,0,0,0,0,3.94v6.75c0,8.73,1.31,11.93,9.89,16.25a.56.56,0,0,0,.51,0c8.58-4.32,9.85-7.52,9.85-16.25V3.94A.55.55,0,0,0,19.89,3.41Zm-.75,7.28c0,8.36-1.07,11.07-9,15.11-7.93-4-9-6.75-9-15.11V4.34l9-3.17,9,3.17Z"/><path class="cls-1" d="M7.87,8.44v2.81H5.06a.56.56,0,0,0-.56.56v3.37a.56.56,0,0,0,.56.56H7.87v2.81a.56.56,0,0,0,.56.56h3.37a.56.56,0,0,0,.56-.56V15.75h2.81a.56.56,0,0,0,.56-.56V11.81a.56.56,0,0,0-.56-.56H12.37V8.44a.56.56,0,0,0-.56-.56H8.44A.56.56,0,0,0,7.87,8.44ZM9,11.81V9h2.25v2.81a.56.56,0,0,0,.56.56h2.81v2.25H11.81a.56.56,0,0,0-.56.56V18H9V15.19a.56.56,0,0,0-.56-.56H5.62V12.37H8.44A.56.56,0,0,0,9,11.81Z"/></g></g></svg>