<svg id="Layer_1" data-name="Layer 1" xmlns="http://www.w3.org/2000/svg" viewBox="0 0 392.24 259.72"><defs><style>.cls-1,.cls-10,.cls-8,.cls-9{fill:none;}.cls-1{stroke:#2a3741;stroke-linejoin:round;stroke-width:8px;stroke-dasharray:18 6;}.cls-2{fill:#2a3741;}.cls-3{fill:#5bd2f3;}.cls-4{fill:#f0a21a;}.cls-5{fill:#f48020;}.cls-6{fill:#8ad7f8;}.cls-7{fill:#f3705a;}.cls-8{stroke:#aef0ff;}.cls-10,.cls-8,.cls-9{stroke-miterlimit:10;}.cls-8,.cls-9{stroke-width:8.9px;}.cls-9{stroke:#fff2d9;}.cls-10{stroke:#fffabe;stroke-width:7.52px;}</style></defs><title>about-OurStory-4_4</title><line class="cls-1" x1="202.66" y1="218.41" x2="151.01" y2="218.41"/><polygon class="cls-2" points="186.72 204.84 200.29 218.41 186.72 231.97 198.24 231.97 211.8 218.41 198.24 204.84 186.72 204.84"/><rect class="cls-3" x="33.75" width="129.94" height="81.61" rx="40.8" ry="40.8"/><rect class="cls-4" x="277.07" width="78.3" height="78.3"/><polygon class="cls-5" points="145.23 253.99 45.23 253.99 71.05 175.68 171.04 175.68 145.23 253.99"/><line class="cls-1" x1="250.78" y1="39.15" x2="163.69" y2="39.15"/><polygon class="cls-2" points="234.84 25.59 248.41 39.15 234.84 52.71 246.36 52.71 259.92 39.15 246.36 25.59 234.84 25.59"/><path class="cls-1" d="M362.43,261.58v36.87a14.49,14.49,0,0,1-14.49,14.49H64.7a14.49,14.49,0,0,0-14.49,14.49v59.76A14.49,14.49,0,0,0,64.7,401.68H89.84" transform="translate(-46.21 -183.28)"/><polygon class="cls-2" points="27.69 231.97 41.26 218.41 27.69 204.84 39.21 204.84 52.77 218.41 39.21 231.97 27.69 231.97"/><polygon class="cls-6" points="253.81 177.09 263.34 196.51 284.88 199.69 269.35 214.88 273.23 236.42 253.81 226.18 234.74 236.42 238.27 214.88 222.73 199.69 244.28 196.51 253.81 177.09"/><polygon class="cls-6" points="361.16 177.09 370.7 196.51 392.24 199.69 376.7 214.88 380.23 236.42 361.16 226.18 341.74 236.42 345.62 214.88 330.09 199.69 351.63 196.51 361.16 177.09"/><polygon class="cls-7" points="307.49 177.09 320.9 204.28 350.92 208.87 329.38 230.06 334.32 259.72 307.49 245.6 280.65 259.72 285.59 230.06 264.05 208.87 294.07 204.28 307.49 177.09"/><line class="cls-8" x1="67.45" y1="20.33" x2="129.98" y2="20.33"/><line class="cls-8" x1="67.45" y1="40.87" x2="129.98" y2="40.87"/><line class="cls-9" x1="85.68" y1="192.26" x2="148.2" y2="192.26"/><line class="cls-9" x1="75.38" y1="214.64" x2="137.9" y2="214.64"/><line class="cls-9" x1="61.91" y1="237.02" x2="124.43" y2="237.02"/><line class="cls-8" x1="67.45" y1="61.4" x2="129.98" y2="61.4"/><line class="cls-10" x1="293.91" y1="18.61" x2="338.53" y2="18.61"/><line class="cls-10" x1="293.91" y1="39.15" x2="338.53" y2="39.15"/><line class="cls-10" x1="293.91" y1="59.69" x2="338.53" y2="59.69"/></svg>