<svg id="Layer_1" data-name="Layer 1" xmlns="http://www.w3.org/2000/svg" viewBox="0 0 116 115.98"><defs><style>.cls-1{fill:#cbcac8;}</style></defs><title>about-OurStory-5_3</title><polygon class="cls-1" points="40.3 1.27 37.05 0 33.61 9.41 43 12.66 44.27 9.22 38.31 7.24 40.3 1.27"/><polygon class="cls-1" points="106.59 33.8 103.34 43.19 106.78 44.27 108.76 38.31 114.73 40.47 116 37.05 106.59 33.8"/><path class="cls-1" d="M413.5,231.73l.36,3.61a25.88,25.88,0,0,1,3.61-.36l-.55-3.61C415.85,231.55,414.58,231.55,413.5,231.73Z" transform="translate(-352.06 -120.98)"/><path class="cls-1" d="M420.55,230.46l.72,3.61a15.93,15.93,0,0,0,3.8-1.08L424,229.55A21.52,21.52,0,0,1,420.55,230.46Z" transform="translate(-352.06 -120.98)"/><path class="cls-1" d="M406.46,235.52h3.61v-3.61h-3.44Z" transform="translate(-352.06 -120.98)"/><path class="cls-1" d="M399.22,234.62c1.08.19,2.34.36,3.61.55l.36-3.61c-1.08-.19-2.34-.36-3.44-.55Z" transform="translate(-352.06 -120.98)"/><path class="cls-1" d="M384.77,230.29a28.37,28.37,0,0,0,3.44,1.45l1.27-3.44a23.06,23.06,0,0,1-3.25-1.27Z" transform="translate(-352.06 -120.98)"/><path class="cls-1" d="M391.81,233c1.27.36,2.34.55,3.61.91l.91-3.44a20.31,20.31,0,0,1-3.44-.91Z" transform="translate(-352.06 -120.98)"/><path class="cls-1" d="M423.8,227.76l3.53,1.17,1.17,3.16.47-.17-1.38,3.78L431,237l3.25-9.39-9.22-3.25Z" transform="translate(-352.06 -120.98)"/><path class="cls-1" d="M406.46,126.4l-.36-3.61a29.1,29.1,0,0,0-3.61.36l.55,3.61A25.7,25.7,0,0,1,406.46,126.4Z" transform="translate(-352.06 -120.98)"/><path class="cls-1" d="M428.31,125.13c-1.27-.36-2.34-.55-3.61-.91l-.91,3.44a20.31,20.31,0,0,1,3.44.91Z" transform="translate(-352.06 -120.98)"/><path class="cls-1" d="M421.08,123.34c-1.08-.19-2.34-.36-3.61-.55l-.36,3.61c1.08.19,2.34.36,3.44.55Z" transform="translate(-352.06 -120.98)"/><path class="cls-1" d="M399.58,127.5l-.72-3.61a28,28,0,0,0-3.61.91l.91,3.44A24.94,24.94,0,0,1,399.58,127.5Z" transform="translate(-352.06 -120.98)"/><path class="cls-1" d="M413.86,122.62h-3.8v3.61h3.44Z" transform="translate(-352.06 -120.98)"/><path class="cls-1" d="M430.49,129.65a23.06,23.06,0,0,1,3.25,1.27l1.45-3.25a25.51,25.51,0,0,0-3.44-1.44Z" transform="translate(-352.06 -120.98)"/><path class="cls-1" d="M466.44,175.18a29.1,29.1,0,0,0-.36-3.61l-3.61.55c.19,1.08.19,2.34.36,3.44Z" transform="translate(-352.06 -120.98)"/><path class="cls-1" d="M460.66,196.13l3.44,1.08c.36-1.08.55-2.34.91-3.61l-3.44-.91A19.41,19.41,0,0,1,460.66,196.13Z" transform="translate(-352.06 -120.98)"/><path class="cls-1" d="M458.13,202.82l3.25,1.44c.55-1.27.91-2.34,1.45-3.44l-3.44-1.27A26.52,26.52,0,0,1,458.13,202.82Z" transform="translate(-352.06 -120.98)"/><path class="cls-1" d="M466.44,179h-3.61v3.44l3.61.19a4.22,4.22,0,0,0,0-2.17Z" transform="translate(-352.06 -120.98)"/><path class="cls-1" d="M460.83,165.07a24.94,24.94,0,0,1,.91,3.44l3.44-.91a28,28,0,0,0-.91-3.61Z" transform="translate(-352.06 -120.98)"/><path class="cls-1" d="M462.09,189.46l3.61.55c.19-1.27.36-2.53.55-3.61l-3.61-.36C462.45,187.1,462.28,188.37,462.09,189.46Z" transform="translate(-352.06 -120.98)"/><path class="cls-1" d="M359.49,161.82l-3.44-1.08c-.36,1.27-.55,2.34-.91,3.61l3.44.91C358.94,164,359.3,162.9,359.49,161.82Z" transform="translate(-352.06 -120.98)"/><path class="cls-1" d="M362,155.3l-3.25-1.45a25.51,25.51,0,0,0-1.44,3.44l3.44,1.27C361.11,157.48,361.64,156.4,362,155.3Z" transform="translate(-352.06 -120.98)"/><path class="cls-1" d="M359.49,192.88a24.94,24.94,0,0,1-.91-3.44l-3.61.72a28,28,0,0,0,.91,3.61Z" transform="translate(-352.06 -120.98)"/><path class="cls-1" d="M357.13,177.71v-2.17l-3.61-.19v3.8l3.61-.19Z" transform="translate(-352.06 -120.98)"/><path class="cls-1" d="M358,168.68l-3.61-.55c-.19,1.08-.36,2.34-.55,3.61l3.61.36A20.54,20.54,0,0,1,358,168.68Z" transform="translate(-352.06 -120.98)"/><path class="cls-1" d="M353.88,182.94a29.1,29.1,0,0,0,.36,3.61l3.61-.55c-.19-1.08-.19-2.34-.36-3.44Z" transform="translate(-352.06 -120.98)"/><polygon class="cls-1" points="7.24 77.69 1.27 75.7 0 79.14 9.41 82.39 12.66 73 9.22 71.73 7.24 77.69"/></svg>