<svg xmlns="http://www.w3.org/2000/svg" viewBox="0 0 20.13 25.16"><defs><style>.cls-1{fill:#fff;}</style></defs><title>Asset 1</title><g id="Layer_2" data-name="Layer 2"><g id="Layer_1-2" data-name="Layer 1"><path class="cls-1" d="M3.77,17.92v1H2.52v2.52H3.77v3.77H16.36V21.39h1.26V18.87H16.36v-1a10.06,10.06,0,1,0-12.58,0Zm10.06,4.73H6.29V21.39h7.55Zm-5-12.58a1.26,1.26,0,1,1,1.26,1.26A1.26,1.26,0,0,1,8.81,10.06Zm1.26-7.55a7.55,7.55,0,0,1,4.31,13.74l-.54.37v2.24H11.32V13.61a3.77,3.77,0,1,0-2.52,0v5.26H6.29V16.63l-.54-.37A7.55,7.55,0,0,1,10.06,2.52Z"/></g></g></svg>