<svg id="Layer_1" data-name="Layer 1" xmlns="http://www.w3.org/2000/svg" viewBox="0 0 89.42 85.45"><defs><style>.cls-1{fill:#d3d7da;}.cls-2{fill:#fff;}.cls-3{fill:#f48020;}.cls-4{fill:#343c49;}.cls-5{fill:#193651;}.cls-6{fill:none;stroke:#cbcac8;stroke-linecap:square;stroke-miterlimit:10;stroke-width:2px;stroke-dasharray:2.42 5;}</style></defs><title>about-OurStory-1_1</title><path id="SVGCleanerId_0" data-name="SVGCleanerId 0" class="cls-1" d="M157.29,253.42a26.4,26.4,0,1,1,26.4-26.4A26.48,26.48,0,0,1,157.29,253.42Z" transform="translate(-112.58 -183.62)"/><path id="SVGCleanerId_1" data-name="SVGCleanerId 1" class="cls-2" d="M169.58,230l4-.83v-4.19l-4-.83a11.85,11.85,0,0,0-1.53-3.64l2.24-3.49L167.34,214l-3.49,2.24a11.7,11.7,0,0,0-3.64-1.53l-.83-4h-4.19l-.83,4a11.85,11.85,0,0,0-3.64,1.53L147.22,214,144.28,217l2.24,3.49A11.7,11.7,0,0,0,145,224.1l-4,.83v4.19l4,.83a11.85,11.85,0,0,0,1.53,3.64l-2.24,3.49,2.94,2.94,3.49-2.24a11.7,11.7,0,0,0,3.64,1.53l.83,4h4.19l.83-4a11.85,11.85,0,0,0,3.64-1.53l3.49,2.24,2.94-2.94L168,233.6A10.64,10.64,0,0,0,169.58,230Z" transform="translate(-112.58 -183.62)"/><circle class="cls-2" cx="44.71" cy="43.4" r="5.3"/><path class="cls-2" d="M190.82,192.23V208h-7.54a4.43,4.43,0,0,1-1.4-.28l-6-3.21a4.32,4.32,0,0,0-1.26-.28h-9.37a3.41,3.41,0,0,1-3.36-3.36,3.36,3.36,0,0,1,.95-2.31l-14.64,5a3.11,3.11,0,0,1-3.92-1.68,3.21,3.21,0,0,1,1.4-4.19L166,186.91a5.91,5.91,0,0,1,4.32-.42l17.18,5.73h3.36Z" transform="translate(-112.58 -183.62)"/><path id="SVGCleanerId_0-2" data-name="SVGCleanerId 0" class="cls-3" d="M157.29,253.42a26.4,26.4,0,1,1,26.4-26.4A26.48,26.48,0,0,1,157.29,253.42Z" transform="translate(-112.58 -183.62)"/><path id="SVGCleanerId_1-2" data-name="SVGCleanerId 1" class="cls-2" d="M169.58,230l4-.83v-4.19l-4-.83a11.85,11.85,0,0,0-1.53-3.64l2.24-3.49L167.34,214l-3.49,2.24a11.7,11.7,0,0,0-3.64-1.53l-.83-4h-4.19l-.83,4a11.85,11.85,0,0,0-3.64,1.53L147.22,214,144.28,217l2.24,3.49A11.7,11.7,0,0,0,145,224.1l-4,.83v4.19l4,.83a11.85,11.85,0,0,0,1.53,3.64l-2.24,3.49,2.94,2.94,3.49-2.24a11.7,11.7,0,0,0,3.64,1.53l.83,4h4.19l.83-4a11.85,11.85,0,0,0,3.64-1.53l3.49,2.24,2.94-2.94L168,233.6A10.64,10.64,0,0,0,169.58,230Z" transform="translate(-112.58 -183.62)"/><path class="cls-4" d="M189.42,187.59v2h-1.81L170.7,184a6.91,6.91,0,0,0-5.3.42L145,195a4.43,4.43,0,0,0-2,6,4.68,4.68,0,0,0,5.6,2.38l11.73-4c0,.15,2.09,5,4.75,5h9.37a1.22,1.22,0,0,1,.7.15l5.87,3.21.15.15a4.13,4.13,0,0,0,1.81.28h6.43v2.51H202V187.59Zm0,17.75h-6.28a1.68,1.68,0,0,1-.83-.15L176.43,202h-.28a6.63,6.63,0,0,0-1.68-.28h-9.37a2,2,0,0,1,0-3.92h7.54a4,4,0,0,0,3.92-3.92h-2.79a1.2,1.2,0,0,1-1.13,1.11H165a4.34,4.34,0,0,0-2.66.83l-14.66,5.06a1.9,1.9,0,0,1-2.24-1,1.85,1.85,0,0,1,.83-2.38l20.27-10.75a4.28,4.28,0,0,1,3.21-.28l17.46,5.87h2.24v13Zm9.79,2.37h-7V190.4h7Z" transform="translate(-112.58 -183.62)"/><path class="cls-2" d="M168.89,256.36l-20.27,10.75a5.91,5.91,0,0,1-4.32.42l-17.18-5.73h-3.36V246h7.54a4.43,4.43,0,0,1,1.4.28l6,3.21a4.32,4.32,0,0,0,1.26.28h9.37a3.41,3.41,0,0,1,3.36,3.36,3.36,3.36,0,0,1-.95,2.31l14.64-5a3.11,3.11,0,0,1,3.92,1.68A3.22,3.22,0,0,1,168.89,256.36Z" transform="translate(-112.58 -183.62)"/><path class="cls-4" d="M171.54,251.76a4.68,4.68,0,0,0-5.6-2.38l-11.72,4v-.28a4.7,4.7,0,0,0-4.75-4.75h-9.37a1.22,1.22,0,0,1-.7-.15l-5.87-3.07-.15-.15a4.13,4.13,0,0,0-1.81-.28h-6.43v-2.51H112.58v22.91h12.58v-2H127l16.91,5.6a5.47,5.47,0,0,0,2.09.28,6.55,6.55,0,0,0,3.21-.83l20.4-10.48A4.54,4.54,0,0,0,171.54,251.76Zm-56.17-6.71h7v17.33h-7Zm52.82,10.2L147.92,266a4.28,4.28,0,0,1-3.21.28l-17.46-5.87h-2.09v-13h6.28a1.68,1.68,0,0,1,.83.15l5.87,3.21.15.15a6.63,6.63,0,0,0,1.68.28h9.37a1.91,1.91,0,0,1,2,2,2.19,2.19,0,0,1-.56,1.4l-1.53.56H141.8a4,4,0,0,0-3.92,3.92h2.79a1.19,1.19,0,0,1,1.11-1.11h7.69a4.34,4.34,0,0,0,2.66-.83L166.79,252a1.9,1.9,0,0,1,2.24,1A1.73,1.73,0,0,1,168.19,255.25Z" transform="translate(-112.58 -183.62)"/><path class="cls-2" d="M160.5,244.76h-6.43l-1-4.32a12,12,0,0,1-2.38-1l-3.77,2.38-4.47-4.47,2.38-3.77a15.73,15.73,0,0,1-1-2.38l-4.32-1v-6.43l4.32-1a12,12,0,0,1,1-2.38l-2.38-3.77,4.47-4.47,3.77,2.38a15.73,15.73,0,0,1,2.38-1l1-4.32h6.43l1,4.32a12,12,0,0,1,2.38,1l3.77-2.38,4.47,4.47-2.38,3.77a15.73,15.73,0,0,1,1,2.38l4.32,1v6.43l-4.32,1a12,12,0,0,1-1,2.38l2.38,3.77-4.47,4.47-3.77-2.38a15.73,15.73,0,0,1-2.38,1ZM156.31,242h2l.83-3.77.83-.15a9.38,9.38,0,0,0,3.21-1.4l.7-.42,3.36,2.09,1.4-1.4-2.09-3.36.42-.7a13.75,13.75,0,0,0,1.4-3.21l.15-.83,3.77-.83v-2l-3.77-.83-.15-.83a9.38,9.38,0,0,0-1.4-3.21l-.42-.7,2.09-3.36-1.4-1.4-3.36,2.09-.7-.42a13.75,13.75,0,0,0-3.21-1.4l-.83-.15-.83-3.77h-2l-.83,3.77-.83.15a9.38,9.38,0,0,0-3.21,1.4l-.7.42-3.36-2.09-1.4,1.4,2.09,3.36-.42.7a13.75,13.75,0,0,0-1.4,3.21l-.15.83-3.77.83v2l3.77.83.15.83a9.38,9.38,0,0,0,1.4,3.21l.42.7L146,236.91l1.4,1.4,3.35-2.09.7.42a13.75,13.75,0,0,0,3.21,1.4l.83.15Z" transform="translate(-112.58 -183.62)"/><circle class="cls-1" cx="44.71" cy="43.4" r="5.3"/><path class="cls-5" d="M157.29,233.73a6.71,6.71,0,0,1-6.71-6.71,6.79,6.79,0,0,1,6.71-6.71,6.71,6.71,0,0,1,0,13.41Zm0-10.62A3.92,3.92,0,1,0,161.2,227,3.83,3.83,0,0,0,157.29,223.11Z" transform="translate(-112.58 -183.62)"/><path id="SVGCleanerId_0-3" data-name="SVGCleanerId 0" class="cls-6" d="M124.59,232.15a33.07,33.07,0,0,1,13.15-31.89" transform="translate(-112.58 -183.62)"/><path id="SVGCleanerId_0-4" data-name="SVGCleanerId 0" class="cls-6" d="M189.95,221.63a33.08,33.08,0,0,1-13.1,32.14" transform="translate(-112.58 -183.62)"/></svg>