<svg xmlns="http://www.w3.org/2000/svg" xmlns:xlink="http://www.w3.org/1999/xlink" viewBox="0 0 116.76 60.83"><defs><style>.cls-1{fill:none;}.cls-2{clip-path:url(#clip-path);}.cls-3{fill:#f48020;}</style><clipPath id="clip-path" transform="translate(0 -24.08)"><circle class="cls-1" cx="58.38" cy="49.07" r="49.07"/></clipPath></defs><title>Asset 12</title><g id="Layer_2" data-name="Layer 2"><g id="Layer_1-2" data-name="Layer 1"><g class="cls-2"><path class="cls-3" d="M38.85,62.53l4.82,2.33-2.75,5.63-2.75.42-.42,2.19-5.63,4.81-2.61,4.93,1.93,2.07-3.16-.83-1.1-2.75,3.16-12.76-2.61-2.33L26.5,61.3,28,58.89l-1.34.21-1.93-2.47-1.65-.82-3.84-1.37-3.17-4.94-1.91-3.57v-4.8L11,35.76,7,33.28,4.52,34.65,0,36.86l2.88-2.33-1.79-.42L.42,31.77l2.05-1.65L.42,29.85l.4-1.51H2.33L1,26.29l3.7-2.21,6.73,3.71,2.48-2.33,5.35,3.16,10.29-1.1v5.22l-4.12.81-.82,2.21,4,4.26,1-.14.68-5.35,2.63-.14,1.09,3,1.37-.83,3,6.73-4.26,1.91L30.76,47l-2.61,3.57v1.79l-1,.14-.68-1.93-3.7.54L22,53.46l1,1.38,1.37-1.1,1.38.13-.69,2,1.65.11L27.18,58l1.1.38L29.11,57l5.49.54,3.71,2.75Zm65-1.23-.29,2.33-2-.73.36-1.25-2.16-.17L97,64.08l-3,1.09.71,4L94.5,70l1.09.63,4.4-1.09,1.72,1,.81-.45.53,1.63,2.25.63,1.62-1,.91-4.86-2.44-2.43ZM93,59l2.34.45,1.08-3.32-.63-.55-3.14,2Zm7.2-.89,2.43,2.51,1.4.1.59-.55,2,1.26-.79-1.7-3.7-1.8Zm4.41-20.43H104l-.1,3.24-1.62,3.42-2.07,1.52-.08,1.35L103.86,45l.18-2.34,1.26-1.16-1-.8.54-1.9Zm9.71,32.67.27,2.51-2.78,2.61,1.79.16,1.62-2.43,1.26-1.7-.81-.08ZM54.15,32.51v2.63l1.82-.8.52-.81-2-3.78-1.16.81.07,1-1.1,1.33-.07,1.38h1.31ZM70.62,63.38l-.09,2.92,1.17.52,1.18-3.5-.31-1.45Zm40.44-30.52.1,2.07-2.35,2.88-.08-3.24,3-3.69-1.88.28-2.43,2-3-.18-2.25,2.17,1.62,1.17L102,41.51l-1.62.26-1,1.44.45,1.9-1.16.61L98.29,44l-1-1.35L95.94,44.1,97,47.16,95.5,50l-3.34.18-.71,1.16L93,53.54,91.35,54.9l-1.66-1.72-.06,1.62,1.45,1.62.63,2.89,1.8.63,2.43,1-4.5-.81-1.9-1.8-1.7-2.43,2.33,1.18-1.07-2-.23-2.69-1,.26L86.59,50,83.07,52.4v1.55l-1.25,1.24-1.61-4L78.41,49l-4.33-.81L72.82,47.1l-.63.35.89,2.17,1.44-.73,1.9,1.44-5.57,3.33L68,48l-.61.11,2.95,6.73,2.88-1.35-.89,3.15-2.88,2.6.45,3.87-1.62,1.26-3,5.58-3,.53-2.61-6.29.63-2.88-1.62-5-5.49.36-3.06-3,.53-4.86,3-3.6,5.77-1,.36,1.54,2.33,1.52L63,46l3.57.92.94-.56.4-1.35-2.47-.4-.79-1.38-.59-.29-.5,1.75-1.1-1.4.07-1.16L61.07,41l-.86-.43.07,1.16,1.83,1.24-1,1.09-1.31-1.74-.95-1.1-2.18,1.1-1.53,2.4-2.33-.36-.14-2.9,3,.21-.94-1.52-.59-1.24,2.26-.74,1.23-1.66,1-.09-.21-.95.66-.87.5,1.45,2.85.07L63.26,34l1.1.38L64,33l1.69-.54-.52-.61-1.53.42L63.09,31H63l0-.09-.23-.56.61-.43L64,28.52l-.57-.08-.95,1.16-.8,1.74.88,1-.88,2.33-1.31.5-.73-2.32-1.52.87-.73-.44L57.44,31l1.33-1,1.09-2.69,2.78-1.52L69.54,27,92,24.65,115.85,28l.91,2.51-3.25,1.81ZM70.1,42l-3.78-2-1.16,2,.5.94,2.21-.35,1.59.43Zm4,2.47-.35-2.26L73,41.1l.88-.36V39.65l-2.26,1.23.8,2-.35,1.38ZM41.48,26.75l-2-.56L37,28.87l3.21,8.39,1.54.38.11-2.72,1-.63.06-1,1.08-2-.75-1.51Zm0,0" transform="translate(0 -24.08)"/></g></g></g></svg>