<svg xmlns="http://www.w3.org/2000/svg" viewBox="0 0 20.85 20.97"><defs><style>.cls-1{fill:#f48020;}</style></defs><title>Asset 2</title><g id="Layer_2" data-name="Layer 2"><g id="Layer_1-2" data-name="Layer 1"><path class="cls-1" d="M3.49,21H17.36a.62.62,0,0,0,.62-.62V9.73h2.26a.62.62,0,0,0,.4-1.08L10.83.15a.62.62,0,0,0-.81,0L.21,8.65a.62.62,0,0,0,.4,1.08H2.87V20.35A.62.62,0,0,0,3.49,21ZM2.27,8.5l8.15-7.06L18.58,8.5H17.36a.62.62,0,0,0-.62.62V19.73H4.11V9.11a.62.62,0,0,0-.62-.62Z"/><path class="cls-1" d="M7.39,17.38h6.07a.62.62,0,0,0,.62-.62V10.42a.62.62,0,0,0-.62-.62H7.39a.62.62,0,0,0-.62.62v6.35A.62.62,0,0,0,7.39,17.38ZM8,11h4.84v5.11H8Z"/></g></g></svg>