<?xml version="1.0" standalone="no"?>
<!DOCTYPE svg PUBLIC "-//W3C//DTD SVG 20010904//EN"
 "http://www.w3.org/TR/2001/REC-SVG-20010904/DTD/svg10.dtd">
<svg version="1.0" xmlns="http://www.w3.org/2000/svg"
 width="578.000000pt" height="84.000000pt" viewBox="0 0 578.000000 84.000000"
 preserveAspectRatio="xMidYMid meet">
<metadata>
Created by potrace 1.15, written by Peter Selinger 2001-2017
</metadata>
<g transform="translate(0.000000,84.000000) scale(0.100000,-0.100000)"
fill="#000000" stroke="none">
<path d="M1344 816 c-80 -36 -87 -133 -14 -171 114 -59 233 55 153 145 -33 37
-91 48 -139 26z"/>
<path d="M2306 758 c-3 -7 -4 -175 -3 -373 l2 -360 93 -3 92 -3 0 59 c0 53 3
61 34 91 l33 32 74 -90 74 -90 113 0 c61 -1 112 1 112 3 0 2 -54 70 -119 152
l-120 149 115 115 c63 63 114 119 114 123 0 4 -51 7 -113 7 l-112 0 -95 -95
c-52 -52 -98 -95 -102 -95 -5 0 -8 88 -8 195 l0 195 -90 0 c-64 0 -92 -4 -94
-12z"/>
<path d="M23 723 c-21 -4 -23 -10 -23 -74 l0 -69 194 0 c180 0 195 -1 220 -21
28 -22 34 -55 13 -83 -19 -27 -83 -35 -264 -36 l-163 0 0 -70 0 -71 208 3
c185 2 212 0 235 -15 38 -25 38 -79 0 -104 -23 -15 -56 -18 -235 -21 l-208 -4
0 -69 0 -69 223 0 c232 0 305 9 367 46 50 29 73 66 78 129 6 70 -9 105 -66
155 l-45 40 36 39 c82 91 50 217 -66 266 -60 25 -417 45 -504 28z"/>
<path d="M3050 720 c0 -3 83 -147 183 -320 l183 -315 45 -3 45 -3 154 278 c85
153 165 297 178 321 l24 42 -75 0 -75 0 -93 -147 c-51 -82 -108 -172 -127
-201 l-34 -54 -123 203 -124 203 -80 0 c-45 1 -81 -1 -81 -4z"/>
<path d="M4740 620 l0 -70 -40 0 -40 0 0 -75 0 -75 40 0 40 0 0 -122 c0 -103
3 -128 21 -165 25 -53 82 -88 155 -98 60 -8 177 12 171 29 -3 6 -13 37 -22 68
l-18 57 -44 -6 c-67 -9 -73 1 -73 128 l0 109 60 0 60 0 0 75 0 75 -60 0 -60 0
0 70 0 70 -95 0 -95 0 0 -70z"/>
<path d="M817 563 c-4 -3 -7 -127 -7 -275 l0 -268 95 0 95 0 0 140 c0 156 10
196 56 226 15 10 48 19 73 20 l46 2 3 82 3 83 -47 -6 c-29 -3 -62 -16 -90 -36
l-44 -31 0 35 0 35 -88 0 c-49 0 -92 -3 -95 -7z"/>
<path d="M1300 295 l0 -275 95 0 95 0 0 275 0 275 -95 0 -95 0 0 -275z"/>
<path d="M1825 557 c-67 -22 -101 -44 -139 -89 -117 -136 -67 -347 100 -428
40 -20 65 -24 139 -24 79 -1 97 2 147 27 48 24 118 89 118 111 0 3 -30 21 -68
40 l-67 34 -32 -28 c-60 -54 -137 -49 -188 12 -20 23 -25 41 -25 82 0 83 46
126 134 126 39 0 50 -5 80 -36 l35 -36 66 36 c36 21 65 40 65 45 0 18 -76 93
-114 113 -51 27 -190 35 -251 15z"/>
<path d="M4127 551 c-90 -30 -92 -33 -56 -103 24 -47 34 -58 47 -52 103 43
166 46 211 8 17 -14 31 -34 31 -44 0 -16 -12 -18 -112 -22 -98 -3 -119 -7
-157 -28 -109 -62 -109 -212 0 -268 87 -44 196 -38 259 14 l30 26 0 -31 0 -31
86 0 86 0 -4 197 c-3 194 -4 199 -30 244 -19 32 -42 54 -80 74 -47 26 -64 30
-153 32 -77 2 -113 -1 -158 -16z m243 -332 c0 -12 -15 -36 -34 -55 -36 -36
-70 -43 -109 -23 -42 22 -48 48 -17 79 16 16 33 20 90 20 64 0 70 -2 70 -21z"/>
<path d="M5355 556 c-124 -39 -184 -117 -193 -252 -5 -79 12 -132 63 -193 63
-74 212 -115 331 -91 57 11 136 49 150 71 3 6 -15 33 -41 59 l-47 48 -49 -25
c-39 -21 -56 -24 -93 -19 -50 8 -109 43 -114 69 -3 15 15 17 190 19 l193 3 -1
70 c-2 84 -24 134 -83 188 -67 61 -205 85 -306 53z m150 -130 c28 -12 65 -58
65 -81 0 -3 -47 -5 -105 -5 -103 0 -105 0 -105 23 0 13 10 33 23 44 39 36 70
41 122 19z"/>
<path d="M3048 225 l3 -205 89 0 90 0 0 56 c0 52 -5 65 -79 188 -44 72 -86
139 -93 149 -11 15 -13 -16 -10 -188z"/>
<path d="M3772 280 c-78 -133 -82 -142 -82 -200 l0 -60 85 0 85 0 0 200 c0
110 -1 200 -3 200 -1 0 -39 -63 -85 -140z"/>
</g>
</svg>
