<svg id="Objects" xmlns="http://www.w3.org/2000/svg" viewBox="0 0 641.22 227.82">
    <defs>
        <style>
            .cls-1 {
                opacity: 0.6;
            }

            .cls-2,
            .cls-4,
            .cls-5,
            .cls-6,
            .cls-7,
            .cls-8,
            .cls-9 {
                fill: none;
                stroke: #515f8d;
                stroke-miterlimit: 10;
            }

            .cls-2 {
                stroke-width: 1.77px;
            }

            .cls-3 {
                fill: #515f8d;
            }

            .cls-4 {
                stroke-width: 1.57px;
            }

            .cls-5 {
                stroke-width: 1.71px;
            }

            .cls-6 {
                stroke-width: 1.21px;
            }

            .cls-8 {
                stroke-width: 1.48px;
            }

            .cls-9 {
                stroke-width: 1.21px;
            }
        </style>
    </defs>
    <title>services-seo-2</title>
    <g class="cls-1">
        <rect class="cls-2" x="96.11" y="32.09" width="107.4" height="82.62" />
        <rect class="cls-2" x="104.14" y="39.71" width="44.08" height="30.16" />
        <rect class="cls-2" x="104.14" y="73.4" width="18.02" height="14.49" />
        <rect class="cls-2" x="130.19" y="73.4" width="18.02" height="14.49" />
        <rect class="cls-3" x="152.68" y="39.71" width="28.2" height="2.5" />
        <rect class="cls-3" x="152.68" y="45.77" width="38.01" height="2.5" />
        <rect class="cls-3" x="152.68" y="56.12" width="43.19" height="2.5" />
        <rect class="cls-3" x="152.68" y="61.66" width="43.19" height="2.5" />
        <rect class="cls-3" x="152.68" y="67.19" width="43.19" height="2.5" />
        <rect class="cls-3" x="152.68" y="72.72" width="43.19" height="2.5" />
        <rect class="cls-3" x="152.68" y="78.25" width="43.19" height="2.5" />
        <rect class="cls-3" x="162.49" y="87.89" width="23.56" height="2.5" />
        <rect class="cls-3" x="162.49" y="93.78" width="23.56" height="2.5" />
        <rect class="cls-3" x="162.49" y="99.67" width="23.56" height="2.5" />
        <rect class="cls-3" x="155" y="87.89" width="3.03" height="2.5" />
        <rect class="cls-3" x="155" y="93.78" width="3.03" height="2.5" />
        <rect class="cls-3" x="155" y="99.67" width="3.03" height="2.5" />
    </g>
    <g class="cls-1">
        <rect class="cls-4" x="203.51" y="144.68" width="108.88" height="82.36" />
        <rect class="cls-4" x="211.07" y="163.35" width="28.54" height="17.7" />
        <rect class="cls-4" x="243.68" y="163.35" width="28.54" height="17.7" />
        <rect class="cls-4" x="276.3" y="163.35" width="28.54" height="17.7" />
        <rect class="cls-4" x="211.07" y="194.46" width="28.54" height="17.7" />
        <rect class="cls-4" x="243.68" y="194.46" width="28.54" height="17.7" />
        <rect class="cls-4" x="276.3" y="194.46" width="28.54" height="17.7" />
        <rect class="cls-3" x="211.07" y="183.53" width="28.54" height="1.65" />
        <rect class="cls-3" x="211.07" y="188" width="28.54" height="1.65" />
        <rect class="cls-3" x="243.68" y="183.53" width="28.54" height="1.65" />
        <rect class="cls-3" x="243.68" y="188" width="28.54" height="1.65" />
        <rect class="cls-3" x="276.3" y="183.53" width="28.54" height="1.65" />
        <rect class="cls-3" x="276.3" y="188" width="28.54" height="1.65" />
        <rect class="cls-3" x="243.68" y="152.88" width="28.54" height="1.65" />
        <rect class="cls-3" x="251.54" y="157.35" width="12.82" height="1.65" />
        <rect class="cls-3" x="211.07" y="215.29" width="28.54" height="1.65" />
        <rect class="cls-3" x="211.07" y="219.75" width="28.54" height="1.65" />
        <rect class="cls-3" x="243.68" y="215.29" width="28.54" height="1.65" />
        <rect class="cls-3" x="243.68" y="219.75" width="28.54" height="1.65" />
        <rect class="cls-3" x="276.3" y="215.29" width="28.54" height="1.65" />
        <rect class="cls-3" x="276.3" y="219.75" width="28.54" height="1.65" />
    </g>
    <g class="cls-1">
        <rect class="cls-5" x="523.29" y="34.7" width="117.07" height="87.8" />
        <rect class="cls-5" x="541.55" y="42.47" width="80.55" height="46.88" />
        <polygon class="cls-6" points="536.93 77.67 526.75 65.91 536.93 54.15 536.93 77.67" />
        <polygon class="cls-6" points="626.73 77.67 636.91 65.91 626.73 54.15 626.73 77.67" />
        <rect class="cls-6" x="532.48" y="94.53" width="20.99" height="20.99" />
        <rect class="cls-6" x="558.38" y="94.53" width="20.99" height="20.99" />
        <rect class="cls-6" x="584.28" y="94.53" width="20.99" height="20.99" />
        <rect class="cls-6" x="610.18" y="94.53" width="20.99" height="20.99" />
    </g>
    <g class="cls-1">
        <rect class="cls-7" x="222.49" y="0.5" width="83.75" height="63.18" />
        <rect class="cls-7" x="228.55" y="5.8" width="15.3" height="17.27" />
        <rect class="cls-3" x="248.09" y="5.8" width="21.21" height="3.03" />
        <rect class="cls-3" x="248.09" y="11.41" width="27.42" height="1.52" />
        <rect class="cls-3" x="248.09" y="18.83" width="50.91" height="1.52" />
        <rect class="cls-3" x="248.09" y="22.32" width="50.91" height="1.52" />
        <rect class="cls-3" x="248.09" y="25.8" width="50.91" height="1.52" />
        <rect class="cls-3" x="248.09" y="29.29" width="50.91" height="1.52" />
        <rect class="cls-3" x="248.09" y="32.77" width="50.91" height="1.52" />
        <rect class="cls-3" x="248.09" y="36.26" width="50.91" height="1.52" />
        <rect class="cls-3" x="248.09" y="39.75" width="35.19" height="1.52" />
        <rect class="cls-3" x="248.09" y="48.16" width="50.91" height="1.52" />
        <rect class="cls-3" x="248.09" y="51.41" width="50.91" height="1.52" />
        <rect class="cls-3" x="248.09" y="54.66" width="50.91" height="1.52" />
        <rect class="cls-3" x="248.09" y="57.91" width="24.12" height="1.52" />
    </g>
    <g class="cls-1">
        <rect class="cls-8" x="0.74" y="131.32" width="123.58" height="93.23" />
        <rect class="cls-8" x="9.68" y="139.15" width="22.58" height="25.49" />
        <rect class="cls-3" x="38.52" y="139.15" width="31.3" height="4.47" />
        <rect class="cls-3" x="38.52" y="147.42" width="40.46" height="2.24" />
        <rect class="cls-3" x="38.52" y="158.38" width="75.12" height="2.24" />
        <rect class="cls-3" x="38.52" y="163.52" width="75.12" height="2.24" />
        <rect class="cls-3" x="38.52" y="168.66" width="75.12" height="2.24" />
        <rect class="cls-3" x="38.52" y="173.8" width="75.12" height="2.24" />
        <rect class="cls-3" x="38.52" y="178.95" width="75.12" height="2.24" />
        <rect class="cls-3" x="38.52" y="184.09" width="75.12" height="2.24" />
        <rect class="cls-3" x="38.52" y="189.23" width="51.93" height="2.24" />
        <rect class="cls-3" x="38.52" y="201.65" width="75.12" height="2.24" />
        <rect class="cls-3" x="38.52" y="206.45" width="75.12" height="2.24" />
        <rect class="cls-3" x="38.52" y="211.25" width="75.12" height="2.24" />
        <rect class="cls-3" x="38.52" y="216.05" width="35.59" height="2.24" />
    </g>
    <g class="cls-1">
        <rect class="cls-9" x="391.73" y="137.07" width="101.21" height="76.36" />
        <rect class="cls-3" x="391.73" y="155.44" width="101.21" height="1.05" />
        <rect class="cls-3" x="391.73" y="180.13" width="101.21" height="1.05" />
        <rect class="cls-3" x="431.34" y="188.12" width="21.99" height="2.37" />
        <rect class="cls-3" x="431.34" y="195.47" width="21.99" height="0.74" />
        <rect class="cls-3" x="431.34" y="200.4" width="21.99" height="2.37" />
        <rect class="cls-3" x="400.52" y="188.12" width="21.99" height="2.37" />
        <rect class="cls-3" x="400.52" y="195.47" width="21.99" height="0.74" />
        <rect class="cls-3" x="400.52" y="200.4" width="21.99" height="2.37" />
        <rect class="cls-3" x="462" y="188.12" width="21.99" height="2.37" />
        <rect class="cls-3" x="462" y="195.47" width="21.99" height="0.74" />
        <rect class="cls-3" x="462" y="200.4" width="21.99" height="2.37" />
    </g>
</svg>