<svg id="Layer_1" data-name="Layer 1" xmlns="http://www.w3.org/2000/svg" viewBox="0 0 208.92 205.56">
    <defs>
        <style>
            .cls-1 {
                fill: #1d77b6;
            }

            .cls-2 {
                opacity: 0.3;
            }

            .cls-3 {
                fill: #fff;
            }

            .cls-4 {
                fill: #7adc9c;
            }

            .cls-5 {
                fill: #faa426;
            }

            .cls-6 {
                fill: #2da0d1;
            }

            .cls-7 {
                fill: #f9ca8b;
            }
        </style>
    </defs>
    <title>services-agile-2</title>
    

    <!-- Arrow 5 -->
    <path class="cls-7" d="M-789.67,968.13A60,60,0,0,1-841.26,940l-11.94,22.55-26.29.73a104.78,104.78,0,0,0,91.66,49.54l12.14-22.45Z"
        transform="translate(893.72 -807.33)" />
    <path class="cls-2" d="M-841.26,940l-3.07,5.79A64.53,64.53,0,0,0-786.6,973l-3.07-4.9A60,60,0,0,1-841.26,940Z" transform="translate(893.72 -807.33)"
    />
    <path class="cls-7" d="M-876.67,967.9H-792a59.41,59.41,0,0,1-33.22-10.7,55.24,55.24,0,0,1-18.92-23.11,55.22,55.22,0,0,1-4.12-29.43L-872,915.14l-21-15.61a99.94,99.94,0,0,0,7.6,52.57A100.18,100.18,0,0,0-876.67,967.9Z"
        transform="translate(893.72 -807.33)" />
    <path class="cls-2" d="M-825.19,957.19a55.24,55.24,0,0,1-18.92-23.11,55.22,55.22,0,0,1-4.12-29.43l-5.35,2.37a61.59,61.59,0,0,0,5,29A61.74,61.74,0,0,0-825.81,963a63.84,63.84,0,0,0,9,4.93H-792A59.41,59.41,0,0,1-825.19,957.19Z"
        transform="translate(893.72 -807.33)" />
    <path class="cls-3" d="M-860.34,959.24a2.61,2.61,0,0,1,1.17-1.93,2.77,2.77,0,0,1,2.26-.6,3.51,3.51,0,0,1,2.06,1.49l1.24,1.68,2.1-1.56.69.93-6.75,5-1.93-2.6A3.59,3.59,0,0,1-860.34,959.24Zm3.32-1.44a1.7,1.7,0,0,0-1.47.37,1.65,1.65,0,0,0-.75,1.27,2.59,2.59,0,0,0,.62,1.61l1.22,1.63,3-2.19-1.21-1.64A2.55,2.55,0,0,0-857,957.8Z"
        transform="translate(893.72 -807.33)" />
    <path class="cls-3" d="M-861.49,954.39a2.64,2.64,0,0,1-1-1l.92-.57a2.13,2.13,0,0,0,1.26,1.06,2.13,2.13,0,0,0,1.59-.19l2.84-1.78.59.94-5.38,3.37-.59-.94,1.16-.73A2.29,2.29,0,0,1-861.49,954.39Z"
        transform="translate(893.72 -807.33)" />
    <path class="cls-3" d="M-864.77,947.49a3.57,3.57,0,0,1,1.78-1.8l.32-.16,2.35,4.43a2.17,2.17,0,0,0,.86-1.27,2.12,2.12,0,0,0-.23-1.5,2.66,2.66,0,0,0-.67-.83,2.5,2.5,0,0,0-.91-.48l.27-.84a3.2,3.2,0,0,1,1.22.63,3.75,3.75,0,0,1,.93,1.16,3.38,3.38,0,0,1,.42,1.66,2.83,2.83,0,0,1-.47,1.53,3.41,3.41,0,0,1-1.29,1.14,3.37,3.37,0,0,1-1.66.42,2.92,2.92,0,0,1-1.53-.46,3.25,3.25,0,0,1-1.14-1.26A2.8,2.8,0,0,1-864.77,947.49Zm1.81-.68a1.94,1.94,0,0,0-.93,1.15,2,2,0,0,0,.21,1.46,2,2,0,0,0,1.1,1,2.11,2.11,0,0,0,1.51,0Z"
        transform="translate(893.72 -807.33)" />
    <path class="cls-3" d="M-866.12,946.67l-.47-1.09,4-3.84-5.56.35-.45-1,6.81-.26.46,1.07Z" transform="translate(893.72 -807.33)"
    />
    <path class="cls-3" d="M-871.53,939.63a.72.72,0,0,1,.42-.36.71.71,0,0,1,.55,0,.67.67,0,0,1,.36.4.67.67,0,0,1,0,.54.71.71,0,0,1-.42.36.71.71,0,0,1-.55,0,.66.66,0,0,1-.36-.4A.67.67,0,0,1-871.53,939.63Zm2.55.18-.38-1,6-2.19.38,1Z"
        transform="translate(893.72 -807.33)" />
    <path class="cls-3" d="M-870.75,931.63a3.57,3.57,0,0,1,2.11-1.41l.35-.09,1.42,4.81a2.16,2.16,0,0,0,1.1-1.07,2.11,2.11,0,0,0,.08-1.52,2.68,2.68,0,0,0-.49-.95,2.53,2.53,0,0,0-.79-.65l.44-.77a3.2,3.2,0,0,1,1.07.86,3.73,3.73,0,0,1,.68,1.33,3.37,3.37,0,0,1,.09,1.71,2.82,2.82,0,0,1-.77,1.4,3.41,3.41,0,0,1-1.49.86,3.37,3.37,0,0,1-1.71.08,2.91,2.91,0,0,1-1.41-.75,3.25,3.25,0,0,1-.86-1.46A2.8,2.8,0,0,1-870.75,931.63Zm1.91-.3a1.94,1.94,0,0,0-1.14.94,2,2,0,0,0-.08,1.48,2,2,0,0,0,.88,1.2,2.11,2.11,0,0,0,1.49.25Z"
        transform="translate(893.72 -807.33)" />
    <path class="cls-3" d="M-872,930.48l-.21-1.15,4.84-2.69-5.47-.78-.21-1.14,4.84-2.68-5.47-.78-.21-1.13,6.66,1.16.21,1.15-4.6,2.62,5.23.83.21,1.14Z"
        transform="translate(893.72 -807.33)" />
</svg>