<svg id="Objects" xmlns="http://www.w3.org/2000/svg" xmlns:xlink="http://www.w3.org/1999/xlink" viewBox="0 0 204.8 204.28"><defs><style>.cls-1{fill:url(#linear-gradient);}.cls-2{fill:#fff;}</style><linearGradient id="linear-gradient" x1="-642.14" y1="-86.25" x2="-871.14" y2="132.75" gradientUnits="userSpaceOnUse"><stop offset="0.12" stop-color="#c6cfd6"/><stop offset="0.91" stop-color="#f5f6f8"/></linearGradient></defs><title>services-system-5</title><g id="socially"><path class="cls-1" d="M-807.32,159.74l14.57-4.05A102.91,102.91,0,0,0-794,139.75L-809,138.46a87.12,87.12,0,0,0-2.94-10.92l12.12-9a102.09,102.09,0,0,0-6.91-14.23l-14.41,4.19a88.46,88.46,0,0,0-6.9-9.33l8-12.78a103.07,103.07,0,0,0-11.51-10.67l-11.93,9.12a87.77,87.77,0,0,0-10-6.32l2.86-14.8A101.5,101.5,0,0,0-865.09,58l-7.84,12.83a87.81,87.81,0,0,0-11.76-2.21l-2.68-14.81q-3.86-.29-7.79-.29t-7.79.29l-2.68,14.81a87.81,87.81,0,0,0-11.76,2.21L-925.21,58a101.49,101.49,0,0,0-14.51,5.7l2.86,14.8a87.81,87.81,0,0,0-10,6.32l-11.93-9.12a103,103,0,0,0-11.51,10.67l8,12.78a88.4,88.4,0,0,0-6.9,9.33l-14.41-4.19a102,102,0,0,0-6.91,14.23l12.12,9a87.21,87.21,0,0,0-2.94,10.92l-14.94,1.29a103,103,0,0,0-1.27,15.94l14.57,4.05a88.34,88.34,0,0,0,1.15,10.9l-13.48,6.61a101.6,101.6,0,0,0,4.6,15.48l15.05-1.49a87.4,87.4,0,0,0,4.87,9.46l-10.19,11a102.87,102.87,0,0,0,10,12.91l13.49-6.82a88.35,88.35,0,0,0,7.72,6.91l-5.52,14a102.23,102.23,0,0,0,14,8.56l10.1-11.22a87.46,87.46,0,0,0,9.53,3.64l-.09,15.06a101.82,101.82,0,0,0,16.2,3l5.37-14.11q2.51.14,5.06.15t5.06-.15l5.37,14.11a101.83,101.83,0,0,0,16.2-3l-.09-15.06a87.48,87.48,0,0,0,9.53-3.64L-849,247.3a102.2,102.2,0,0,0,14-8.56l-5.52-14a88.27,88.27,0,0,0,7.72-6.91l13.49,6.82a102.78,102.78,0,0,0,10-12.91l-10.19-11a87.4,87.4,0,0,0,4.87-9.46l15.05,1.49a101.6,101.6,0,0,0,4.6-15.48l-13.48-6.61A88.53,88.53,0,0,0-807.32,159.74Zm-87.83,67.36a71.47,71.47,0,0,1-71.47-71.47,71.48,71.48,0,0,1,71.47-71.47,71.47,71.47,0,0,1,71.47,71.47A71.47,71.47,0,0,1-895.15,227.1Z" transform="translate(997.54 -53.49)"/><path class="cls-2" d="M-950.32,226.07l-5,12.67.54.38,5-12.62Z" transform="translate(997.54 -53.49)"/><path class="cls-2" d="M-853.43,80.23a87.77,87.77,0,0,1,10,6.32l11.93-9.12a103,103,0,0,1,10.84,10l.66-1.06a103.07,103.07,0,0,0-11.51-10.67l-11.93,9.12a87.86,87.86,0,0,0-9.71-6.15Z" transform="translate(997.54 -53.49)"/><path class="cls-2" d="M-982.07,170.76l-13.23,6.49c.11.53.25,1,.37,1.57l13.12-6.43C-981.92,171.85-982,171.31-982.07,170.76Z" transform="translate(997.54 -53.49)"/><path class="cls-2" d="M-971.41,201.38-981,211.75c.22.34.46.67.69,1l9.5-10.29C-971,202.1-971.2,201.74-971.41,201.38Z" transform="translate(997.54 -53.49)"/><path class="cls-2" d="M-823.69,156.5a71.46,71.46,0,0,1-71.45,70.6,71.46,71.46,0,0,1-71.45-70.6c0,.29,0,.58,0,.88a71.47,71.47,0,0,0,71.47,71.47,71.47,71.47,0,0,0,71.47-71.47C-823.67,157.08-823.69,156.79-823.69,156.5Z" transform="translate(997.54 -53.49)"/><path class="cls-2" d="M-811.45,128.95l-.46.34A87.12,87.12,0,0,1-809,140.21L-794,141.5a102.91,102.91,0,0,1,1.23,14.2h0A102.91,102.91,0,0,0-794,139.75L-809,138.46A87.22,87.22,0,0,0-811.45,128.95Z" transform="translate(997.54 -53.49)"/><path class="cls-2" d="M-827.38,99.89l-.62,1a88.46,88.46,0,0,1,6.9,9.33l14.41-4.19a102.21,102.21,0,0,1,6.35,12.9l.56-.41a102.09,102.09,0,0,0-6.91-14.23l-14.41,4.19A88.19,88.19,0,0,0-827.38,99.89Z" transform="translate(997.54 -53.49)"/><polygon class="cls-2" points="75.85 187.98 75.77 201.3 75.78 201.3 75.86 187.99 75.85 187.98"/><path class="cls-2" d="M-819.51,202.46l9.5,10.29c.23-.34.46-.67.69-1l-9.57-10.37C-819.09,201.74-819.29,202.1-819.51,202.46Z" transform="translate(997.54 -53.49)"/><path class="cls-2" d="M-840.49,226.5l5,12.62.54-.38-5-12.67Z" transform="translate(997.54 -53.49)"/><polygon class="cls-2" points="128.94 187.99 129.02 201.3 129.03 201.3 128.95 187.98 128.94 187.99"/><path class="cls-2" d="M-808.47,172.39l13.12,6.43c.12-.52.25-1,.37-1.57l-13.23-6.49C-808.3,171.31-808.38,171.85-808.47,172.39Z" transform="translate(997.54 -53.49)"/><path class="cls-2" d="M-983.6,106l14.41,4.19a88.4,88.4,0,0,1,6.9-9.33l-.62-1a88.12,88.12,0,0,0-6.28,8.57l-14.41-4.19a102,102,0,0,0-6.91,14.23l.56.41A102.14,102.14,0,0,1-983.6,106Z" transform="translate(997.54 -53.49)"/><path class="cls-2" d="M-958.8,77.43l11.93,9.12a87.81,87.81,0,0,1,10-6.32l-.31-1.58a87.91,87.91,0,0,0-9.71,6.15l-11.93-9.12a103,103,0,0,0-11.51,10.67l.66,1.06A102.94,102.94,0,0,1-958.8,77.43Z" transform="translate(997.54 -53.49)"/><path class="cls-2" d="M-996.28,141.5l14.94-1.29a87.21,87.21,0,0,1,2.94-10.92l-.46-.34a87.22,87.22,0,0,0-2.49,9.51l-14.94,1.29a103,103,0,0,0-1.27,15.94h0A103,103,0,0,1-996.28,141.5Z" transform="translate(997.54 -53.49)"/><path class="cls-2" d="M-925.21,59.72l7.84,12.83a87.81,87.81,0,0,1,11.76-2.21l2.68-14.81q3.86-.29,7.79-.29t7.79.29l2.68,14.81a87.81,87.81,0,0,1,11.76,2.21l7.84-12.83a101.48,101.48,0,0,1,14.2,5.56l.31-1.61A101.5,101.5,0,0,0-865.09,58l-7.84,12.83a87.81,87.81,0,0,0-11.76-2.21l-2.68-14.81q-3.86-.29-7.79-.29t-7.79.29l-2.68,14.81a87.81,87.81,0,0,0-11.76,2.21L-925.21,58a101.49,101.49,0,0,0-14.51,5.7l.31,1.61A101.48,101.48,0,0,1-925.21,59.72Z" transform="translate(997.54 -53.49)"/></g></svg>