<svg xmlns="http://www.w3.org/2000/svg" xmlns:xlink="http://www.w3.org/1999/xlink" viewBox="0 0 1149.23 681.26"><defs><style>.cls-1,.cls-3,.cls-5,.cls-6{fill:none;}.cls-2{isolation:isolate;}.cls-3,.cls-5,.cls-6{stroke:#d9e6ff;stroke-miterlimit:10;}.cls-3{stroke-width:20px;stroke-dasharray:0 12;}.cls-19,.cls-21,.cls-23,.cls-25,.cls-3,.cls-5,.cls-6,.cls-7{fill-rule:evenodd;}.cls-34,.cls-35,.cls-36,.cls-37,.cls-38,.cls-39,.cls-4,.cls-40,.cls-41,.cls-42,.cls-43,.cls-44,.cls-45,.cls-46,.cls-47,.cls-48,.cls-49,.cls-50,.cls-51,.cls-52,.cls-7{fill:#d9e6ff;}.cls-4{opacity:0.2;}.cls-5{stroke-width:14.76px;}.cls-5,.cls-6,.cls-7{opacity:0.1;}.cls-6{stroke-width:12.61px;}.cls-60,.cls-8{fill:#32495b;}.cls-9{fill:#fff;}.cls-10,.cls-19{fill:#5f7283;}.cls-11{fill:#ffd360;}.cls-12{fill:#fc513f;}.cls-13{fill:#4bd4c0;}.cls-14{fill:#415b6d;}.cls-15{fill:#cecece;}.cls-16{fill:#404040;}.cls-17{clip-path:url(#clip-path);}.cls-18{fill:#f76666;}.cls-20{fill:#fb5547;}.cls-21{fill:#ff7e78;}.cls-22{fill:#35b4a3;}.cls-23,.cls-29{fill:#4ad5c0;}.cls-24{fill:#ffce64;}.cls-25{fill:#fccf6b;}.cls-26{clip-path:url(#clip-path-2);}.cls-27{fill:#686868;}.cls-28{fill:#dbdbdb;}.cls-30{fill:url(#linear-gradient);}.cls-31{mix-blend-mode:multiply;fill:url(#linear-gradient-2);}.cls-32{fill:#ccd1d9;}.cls-33{fill:#efefef;}.cls-34{opacity:0.19;}.cls-35{opacity:0.18;}.cls-36{opacity:0.17;}.cls-37{opacity:0.16;}.cls-38{opacity:0.15;}.cls-39{opacity:0.14;}.cls-40{opacity:0.13;}.cls-41{opacity:0.12;}.cls-42{opacity:0.11;}.cls-43{opacity:0.09;}.cls-44{opacity:0.08;}.cls-45{opacity:0.07;}.cls-46{opacity:0.06;}.cls-47{opacity:0.05;}.cls-48{opacity:0.04;}.cls-49{opacity:0.03;}.cls-50{opacity:0.02;}.cls-51{opacity:0.01;}.cls-52{opacity:0;}.cls-53{clip-path:url(#clip-path-3);}.cls-54{fill:#ededed;}.cls-55{fill:#f4f4f4;}.cls-56{fill:#2ab29e;}.cls-57{clip-path:url(#clip-path-4);}.cls-58{fill:#1d917e;}.cls-59{fill:#4bd6c1;}.cls-60{font-size:34.96px;font-family:Montserrat-Bold, Montserrat;font-weight:700;}.cls-61{fill:#333;}</style><clipPath id="clip-path" transform="translate(1152.74 -8.3)"><circle class="cls-1" cx="-701.72" cy="352.75" r="18.94" transform="translate(-861.37 -416.25) rotate(-75.04)"/></clipPath><clipPath id="clip-path-2" transform="translate(1152.74 -8.3)"><circle class="cls-1" cx="-307.15" cy="152.85" r="50.07" transform="translate(-133.59 -143.09) rotate(-33.15)"/></clipPath><linearGradient id="linear-gradient" x1="-125.02" y1="963.49" x2="-125.02" y2="1017.07" gradientTransform="translate(406.07 -325.2) rotate(28.55)" gradientUnits="userSpaceOnUse"><stop offset="0" stop-color="#f2f2f2"/><stop offset="0.26" stop-color="#f0f0f0"/><stop offset="0.4" stop-color="#e8e8e8"/><stop offset="0.51" stop-color="#dadada"/><stop offset="0.6" stop-color="#c7c7c7"/><stop offset="0.69" stop-color="#aeaeae"/><stop offset="0.77" stop-color="#8f8f8f"/><stop offset="0.85" stop-color="#6a6a6a"/><stop offset="0.92" stop-color="#3f3f3f"/><stop offset="0.98" stop-color="#101010"/><stop offset="1"/></linearGradient><linearGradient id="linear-gradient-2" x1="-102.72" y1="951.09" x2="-64.96" y2="951.09" gradientTransform="translate(406.07 -325.2) rotate(28.55)" gradientUnits="userSpaceOnUse"><stop offset="0" stop-color="#fff"/><stop offset="0.25" stop-color="#fdfdfd"/><stop offset="0.39" stop-color="#f5f5f5"/><stop offset="0.5" stop-color="#e7e7e7"/><stop offset="0.6" stop-color="#d4d4d4"/><stop offset="0.68" stop-color="#bbb"/><stop offset="0.76" stop-color="#9c9c9c"/><stop offset="0.83" stop-color="#777"/><stop offset="0.9" stop-color="#4c4c4c"/><stop offset="0.97" stop-color="#1d1d1d"/><stop offset="1"/></linearGradient><clipPath id="clip-path-3" transform="translate(1152.74 -8.3)"><circle class="cls-1" cx="-1091.75" cy="279.09" r="39.71" transform="translate(-1079.57 -847.7) rotate(-75.04)"/></clipPath><clipPath id="clip-path-4" transform="translate(1152.74 -8.3)"><path class="cls-1" d="M-764.89,462.34l-13.54-12.4a4.16,4.16,0,0,1-.21-5.93l35.86-37.87a4.19,4.19,0,0,1,5.84-.21l13.54,12.4a4.16,4.16,0,0,1,.21,5.94l-35.86,37.87A4.19,4.19,0,0,1-764.89,462.34Z"/></clipPath></defs><title>services-seo-3</title><g class="cls-2"><g id="Objects"><path class="cls-3" d="M-887.88,649.6a417,417,0,0,1-100-271.5" transform="translate(1152.74 -8.3)"/><circle class="cls-4" cx="583.59" cy="369.79" r="271.5"/><path class="cls-5" d="M-874.24,556C-972.49,387.48-915.54,171.24-747,73c109.26-63.71,238.6-62.16,342.82-7.25A351.52,351.52,0,0,1-264,200.2c98.25,168.5,41.29,384.74-127.21,483" transform="translate(1152.74 -8.3)"/><path class="cls-6" d="M-267.42,378.09c0,166.64-135.09,301.72-301.72,301.72S-870.87,544.73-870.87,378.09" transform="translate(1152.74 -8.3)"/><path class="cls-7" d="M-868.44,378.09c0-165.3,134-299.3,299.3-299.3s299.3,134,299.3,299.3" transform="translate(1152.74 -8.3)"/><path class="cls-8" d="M-536.48,460.45h-57.46S-589.3,542-617.85,542h105.28C-541.12,542-536.48,460.45-536.48,460.45Z" transform="translate(1152.74 -8.3)"/><path class="cls-8" d="M-382.65,251.77H-747.77a10.5,10.5,0,0,0-10.5,10.5v234a9.15,9.15,0,0,0,9.15,9.16H-381.3a9.15,9.15,0,0,0,9.15-9.16v-234A10.5,10.5,0,0,0-382.65,251.77Z" transform="translate(1152.74 -8.3)"/><rect class="cls-9" x="406.98" y="255.59" width="361.09" height="193.87"/><rect class="cls-10" x="406.85" y="447.84" width="361.35" height="11.31"/><circle class="cls-10" cx="587.53" cy="477.66" r="9.49"/><rect class="cls-8" x="533.8" y="532.05" width="107.45" height="3.65"/><path class="cls-8" d="M555.81,310.67h63.42a11.24,11.24,0,0,1,11.24,11.24v85.52a0,0,0,0,1,0,0H544.58a0,0,0,0,1,0,0V321.9A11.24,11.24,0,0,1,555.81,310.67Z"/><rect class="cls-9" x="547.06" y="326.31" width="80.93" height="78.29"/><path class="cls-11" d="M-596,324.27a1.69,1.69,0,0,1-2.39,2.39A1.69,1.69,0,0,1-596,324.27Z" transform="translate(1152.74 -8.3)"/><circle class="cls-12" cx="550.59" cy="317.16" r="1.63"/><path class="cls-13" d="M-591.1,324.27a1.69,1.69,0,0,1-2.39,2.39A1.69,1.69,0,0,1-591.1,324.27Z" transform="translate(1152.74 -8.3)"/><path class="cls-14" d="M-530,327.74h-54.25a2.28,2.28,0,0,1-2.27-2.27h0a2.28,2.28,0,0,1,2.27-2.27H-530a2.28,2.28,0,0,1,2.27,2.27h0A2.28,2.28,0,0,1-530,327.74Z" transform="translate(1152.74 -8.3)"/><path class="cls-8" d="M-577.81,359.19l-1.63,1a6.48,6.48,0,0,0-1.49-1.07l.44-1.86a.32.32,0,0,0-.24-.38l-2.54-.6a.32.32,0,0,0-.38.24l-.44,1.86a6.48,6.48,0,0,0-1.81.29l-1-1.63a.32.32,0,0,0-.44-.1l-2.23,1.37a.32.32,0,0,0-.1.44l1,1.63a6.48,6.48,0,0,0-1.07,1.49l-1.86-.44a.32.32,0,0,0-.38.24l-.6,2.54a.32.32,0,0,0,.24.38l1.86.44a6.48,6.48,0,0,0,.29,1.81l-1.63,1a.32.32,0,0,0-.1.44l1.37,2.23a.32.32,0,0,0,.44.1l1.63-1a6.48,6.48,0,0,0,1.49,1.07l-.44,1.86a.32.32,0,0,0,.24.38l2.54.6a.32.32,0,0,0,.38-.24l.44-1.86a6.48,6.48,0,0,0,1.81-.29l1,1.63a.32.32,0,0,0,.44.1l2.23-1.37a.32.32,0,0,0,.1-.44l-1-1.63a6.48,6.48,0,0,0,1.07-1.49l1.86.44a.32.32,0,0,0,.38-.24l.6-2.54a.32.32,0,0,0-.24-.38l-1.86-.44a6.48,6.48,0,0,0-.29-1.81l1.63-1a.32.32,0,0,0,.1-.44l-1.37-2.23A.32.32,0,0,0-577.81,359.19Zm-4.08,9.07a4,4,0,0,1-5.45-1.3,4,4,0,0,1,1.3-5.45,4,4,0,0,1,5.45,1.3A4,4,0,0,1-581.89,368.27Z" transform="translate(1152.74 -8.3)"/><path class="cls-8" d="M-578.2,346.39l-.93.57a3.7,3.7,0,0,0-.85-.61l.25-1.06a.18.18,0,0,0-.13-.22l-1.45-.35a.18.18,0,0,0-.22.13l-.25,1.06a3.71,3.71,0,0,0-1,.17l-.57-.93a.18.18,0,0,0-.25-.06l-1.27.78a.18.18,0,0,0-.06.25l.57.93a3.71,3.71,0,0,0-.61.85l-1.06-.25a.18.18,0,0,0-.22.13l-.35,1.45a.18.18,0,0,0,.13.22l1.06.25a3.71,3.71,0,0,0,.17,1l-.93.57a.18.18,0,0,0-.06.25l.78,1.27a.18.18,0,0,0,.25.06l.93-.57a3.71,3.71,0,0,0,.85.61l-.25,1.06a.18.18,0,0,0,.13.22l1.45.35a.18.18,0,0,0,.22-.13l.25-1.06a3.71,3.71,0,0,0,1-.17l.57.93a.18.18,0,0,0,.25.06l1.27-.78a.18.18,0,0,0,.06-.25l-.57-.93a3.71,3.71,0,0,0,.61-.85l1.06.25a.18.18,0,0,0,.22-.13l.35-1.45a.18.18,0,0,0-.13-.22l-1.06-.25a3.71,3.71,0,0,0-.17-1l.93-.57a.18.18,0,0,0,.06-.25l-.78-1.27A.18.18,0,0,0-578.2,346.39Zm-2.33,5.19a2.27,2.27,0,0,1-3.12-.74,2.27,2.27,0,0,1,.74-3.12,2.27,2.27,0,0,1,3.12.74A2.27,2.27,0,0,1-580.53,351.58Z" transform="translate(1152.74 -8.3)"/><path class="cls-13" d="M-589.93,347.45l-1.28.79a5.12,5.12,0,0,0-1.18-.85l.35-1.47a.25.25,0,0,0-.19-.3l-2-.48a.25.25,0,0,0-.3.19l-.35,1.47a5.12,5.12,0,0,0-1.43.23l-.79-1.28a.25.25,0,0,0-.35-.08l-1.76,1.08a.25.25,0,0,0-.08.34l.79,1.28a5.12,5.12,0,0,0-.85,1.18l-1.47-.35a.25.25,0,0,0-.3.19l-.48,2a.25.25,0,0,0,.19.3l1.47.35a5.12,5.12,0,0,0,.23,1.43l-1.28.79a.25.25,0,0,0-.08.34l1.08,1.76a.25.25,0,0,0,.35.08l1.28-.79a5.12,5.12,0,0,0,1.18.85l-.35,1.47a.25.25,0,0,0,.19.3l2,.48a.25.25,0,0,0,.3-.19l.35-1.47a5.12,5.12,0,0,0,1.43-.23l.79,1.28a.25.25,0,0,0,.34.08l1.76-1.08a.25.25,0,0,0,.08-.34l-.79-1.28a5.12,5.12,0,0,0,.85-1.18l1.47.35a.25.25,0,0,0,.3-.19l.48-2a.25.25,0,0,0-.19-.3l-1.47-.35a5.12,5.12,0,0,0-.23-1.43l1.28-.79a.25.25,0,0,0,.08-.34l-1.08-1.76A.25.25,0,0,0-589.93,347.45Zm-3.22,7.17a3.13,3.13,0,0,1-4.31-1,3.13,3.13,0,0,1,1-4.31,3.13,3.13,0,0,1,4.31,1A3.13,3.13,0,0,1-593.15,354.62Z" transform="translate(1152.74 -8.3)"/><path class="cls-15" d="M-556.76,358.12l-6.77-5.74c-.71.8-4,4.52-4.24,4.7l-.18-.23c.19-.14,2.67-2.93,4.29-4.77l.1-.11,6.77,5.74,3.85-4.27,2.27,1.92,6.05-5.81,8,5.87,6.77-7.51.22.19-7,7.72-8-5.53-6.05,5.46-2.27-1.92Z" transform="translate(1152.74 -8.3)"/><ellipse class="cls-16" cx="-567.83" cy="356.96" rx="0.59" ry="0.57" transform="translate(1127.58 -45.49) rotate(-3.84)"/><ellipse class="cls-16" cx="-563.59" cy="352.26" rx="0.59" ry="0.57" transform="translate(1127.91 -45.22) rotate(-3.84)"/><ellipse class="cls-16" cx="-556.94" cy="357.81" rx="0.59" ry="0.57" transform="translate(1127.55 -44.76) rotate(-3.84)"/><ellipse class="cls-16" cx="-553.09" cy="353.54" rx="0.59" ry="0.57" transform="translate(1127.88 -44.47) rotate(-3.83)"/><ellipse class="cls-16" cx="-550.68" cy="355.24" rx="0.59" ry="0.57" transform="translate(1127.74 -44.35) rotate(-3.84)"/><ellipse class="cls-16" cx="-544.66" cy="349.81" rx="0.59" ry="0.57" transform="translate(1128.15 -43.91) rotate(-3.83)"/><ellipse class="cls-16" cx="-529.87" cy="347.99" rx="0.59" ry="0.57" transform="matrix(1, -0.07, 0.07, 1, 1128.27, -42.97)"/><ellipse class="cls-16" cx="-536.7" cy="355.44" rx="0.59" ry="0.57" transform="translate(1127.75 -43.41) rotate(-3.84)"/><polygon class="cls-12" points="584.63 361.45 590.26 359.89 593.61 358.35 599.3 361.37 602.54 356.48 607.74 357.03 611.11 352.44 616.59 353.68 623.42 350.24 623.42 366.46 584.74 366.46 584.63 361.45"/><path class="cls-15" d="M-562.41,392.58H-601a.57.57,0,0,1-.57-.57h0a.57.57,0,0,1,.57-.57h38.63a.57.57,0,0,1,.57.57h0A.57.57,0,0,1-562.41,392.58Z" transform="translate(1152.74 -8.3)"/><path class="cls-15" d="M-562.41,394.84H-601a.57.57,0,0,1-.57-.57h0a.57.57,0,0,1,.57-.57h38.63a.57.57,0,0,1,.57.57h0A.57.57,0,0,1-562.41,394.84Z" transform="translate(1152.74 -8.3)"/><path class="cls-15" d="M-562.41,400.79H-601a.57.57,0,0,1-.57-.57h0a.57.57,0,0,1,.57-.57h38.63a.57.57,0,0,1,.57.57h0A.57.57,0,0,1-562.41,400.79Z" transform="translate(1152.74 -8.3)"/><path class="cls-15" d="M-562.41,403.06H-601a.57.57,0,0,1-.57-.57h0a.57.57,0,0,1,.57-.57h38.63a.57.57,0,0,1,.57.57h0A.57.57,0,0,1-562.41,403.06Z" transform="translate(1152.74 -8.3)"/><rect class="cls-15" x="599.78" y="381.88" width="23.64" height="17.16" rx="5.49" ry="5.49"/><path class="cls-8" d="M433.16,296.75h84.19A11.24,11.24,0,0,1,528.58,308V416.9a0,0,0,0,1,0,0H421.92a0,0,0,0,1,0,0V308A11.24,11.24,0,0,1,433.16,296.75Z"/><rect class="cls-9" x="425" y="316.18" width="100.5" height="97.21"/><path class="cls-11" d="M-715.75,311.64a2.1,2.1,0,0,1-3,3A2.1,2.1,0,0,1-715.75,311.64Z" transform="translate(1152.74 -8.3)"/><circle class="cls-12" cx="429.38" cy="304.82" r="2.02"/><path class="cls-13" d="M-709.63,311.64a2.1,2.1,0,0,1-3,3A2.1,2.1,0,0,1-709.63,311.64Z" transform="translate(1152.74 -8.3)"/><path class="cls-14" d="M-633.75,315.94h-67.36a2.83,2.83,0,0,1-2.82-2.82h0a2.83,2.83,0,0,1,2.82-2.82h67.36a2.83,2.83,0,0,1,2.82,2.82h0A2.83,2.83,0,0,1-633.75,315.94Z" transform="translate(1152.74 -8.3)"/><g class="cls-17"><circle class="cls-13" cx="-701.72" cy="352.75" r="18.94" transform="translate(291.36 -424.55) rotate(-75.04)"/><polygon class="cls-18" points="451.01 344.44 467.81 319.87 435.11 324.12 451.01 344.44"/><polygon class="cls-9" points="478.45 353.61 450.91 344.18 476.16 332.37 478.45 353.61"/><polygon class="cls-12" points="451.01 344.44 467.81 319.87 435.11 324.12 451.01 344.44"/><polygon class="cls-8" points="478.45 353.61 451.01 344.44 467.81 319.87 478.45 353.61"/></g><rect class="cls-12" x="506.8" y="343.18" width="4.49" height="20.21" rx="1.5" ry="1.5"/><rect class="cls-8" x="499.66" y="346.39" width="4.49" height="17" rx="1.5" ry="1.5"/><rect class="cls-13" x="513.94" y="339.36" width="4.49" height="24.04" rx="1.5" ry="1.5"/><path class="cls-15" d="M-640.27,332.33h-21.11a1.45,1.45,0,0,0-1.45,1.45v7.74a1.45,1.45,0,0,0,1.45,1.45h14.93c1.23,2.43,2.93,5.52,2.93,5.52V343h3.25a1.45,1.45,0,0,0,1.45-1.45v-7.74A1.45,1.45,0,0,0-640.27,332.33Z" transform="translate(1152.74 -8.3)"/><path class="cls-15" d="M-658.26,368.22H-675.6a.87.87,0,0,1-.87-.87h0a.87.87,0,0,1,.87-.87h17.34a.87.87,0,0,1,.87.87h0A.87.87,0,0,1-658.26,368.22Z" transform="translate(1152.74 -8.3)"/><path class="cls-15" d="M-658.26,371.69H-675.6a.87.87,0,0,1-.87-.87h0a.87.87,0,0,1,.87-.87h17.34a.87.87,0,0,1,.87.87h0A.87.87,0,0,1-658.26,371.69Z" transform="translate(1152.74 -8.3)"/><path class="cls-15" d="M-658.26,361.76H-675.6a.87.87,0,0,1-.87-.87h0a.87.87,0,0,1,.87-.87h17.34a.87.87,0,0,1,.87.87h0A.87.87,0,0,1-658.26,361.76Z" transform="translate(1152.74 -8.3)"/><path class="cls-15" d="M-658.26,365.24H-675.6a.87.87,0,0,1-.87-.87h0a.87.87,0,0,1,.87-.87h17.34a.87.87,0,0,1,.87.87h0A.87.87,0,0,1-658.26,365.24Z" transform="translate(1152.74 -8.3)"/><circle class="cls-13" cx="441.05" cy="376.76" r="2.14"/><circle class="cls-13" cx="449.6" cy="376.76" r="2.14"/><circle class="cls-13" cx="458.15" cy="376.76" r="2.14"/><circle class="cls-13" cx="466.7" cy="376.76" r="2.14"/><circle class="cls-13" cx="475.25" cy="376.76" r="2.14"/><circle class="cls-13" cx="483.8" cy="376.76" r="2.14"/><circle class="cls-13" cx="492.35" cy="376.76" r="2.14"/><circle class="cls-13" cx="500.9" cy="376.76" r="2.14"/><circle class="cls-15" cx="509.45" cy="376.76" r="2.14"/><circle class="cls-12" cx="441.05" cy="385.4" r="2.14"/><circle class="cls-12" cx="449.6" cy="385.4" r="2.14"/><circle class="cls-12" cx="458.15" cy="385.4" r="2.14"/><circle class="cls-12" cx="466.7" cy="385.4" r="2.14"/><circle class="cls-12" cx="475.25" cy="385.4" r="2.14"/><circle class="cls-15" cx="483.8" cy="385.4" r="2.14"/><circle class="cls-15" cx="492.35" cy="385.4" r="2.14"/><circle class="cls-15" cx="500.9" cy="385.4" r="2.14"/><circle class="cls-15" cx="509.45" cy="385.4" r="2.14"/><circle class="cls-8" cx="441.05" cy="394.04" r="2.14"/><circle class="cls-8" cx="449.6" cy="394.04" r="2.14"/><circle class="cls-8" cx="458.15" cy="394.04" r="2.14"/><circle class="cls-8" cx="466.7" cy="394.04" r="2.14"/><circle class="cls-8" cx="475.25" cy="394.04" r="2.14"/><circle class="cls-8" cx="483.8" cy="394.04" r="2.14"/><circle class="cls-15" cx="492.35" cy="394.04" r="2.14"/><circle class="cls-15" cx="500.9" cy="394.04" r="2.14"/><circle class="cls-15" cx="509.45" cy="394.04" r="2.14"/><circle class="cls-11" cx="441.05" cy="402.68" r="2.14"/><circle class="cls-11" cx="449.6" cy="402.68" r="2.14"/><circle class="cls-15" cx="458.15" cy="402.68" r="2.14"/><circle class="cls-15" cx="466.7" cy="402.68" r="2.14"/><circle class="cls-15" cx="475.25" cy="402.68" r="2.14"/><circle class="cls-15" cx="483.8" cy="402.68" r="2.14"/><circle class="cls-15" cx="492.35" cy="402.68" r="2.14"/><circle class="cls-15" cx="500.9" cy="402.68" r="2.14"/><circle class="cls-15" cx="509.45" cy="402.68" r="2.14"/><path class="cls-8" d="M657.71,296.75H741.9A11.24,11.24,0,0,1,753.13,308V416.9a0,0,0,0,1,0,0H646.47a0,0,0,0,1,0,0V308A11.24,11.24,0,0,1,657.71,296.75Z"/><rect class="cls-9" x="649.55" y="316.18" width="100.5" height="97.21"/><path class="cls-11" d="M-491.2,311.64a2.1,2.1,0,0,1-3,3A2.1,2.1,0,0,1-491.2,311.64Z" transform="translate(1152.74 -8.3)"/><circle class="cls-12" cx="653.94" cy="304.82" r="2.02"/><path class="cls-13" d="M-485.08,311.64a2.1,2.1,0,0,1-3,3A2.1,2.1,0,0,1-485.08,311.64Z" transform="translate(1152.74 -8.3)"/><path class="cls-14" d="M-409.2,315.94h-67.36a2.83,2.83,0,0,1-2.82-2.82h0a2.83,2.83,0,0,1,2.82-2.82h67.36a2.83,2.83,0,0,1,2.82,2.82h0A2.83,2.83,0,0,1-409.2,315.94Z" transform="translate(1152.74 -8.3)"/><rect class="cls-12" x="-490.5" y="399.91" width="20.02" height="6.02" rx="2.37" ry="2.37" transform="translate(269.33 -85.88) rotate(-90)"/><rect class="cls-8" x="-487.31" y="393.91" width="32.01" height="6.02" rx="2.37" ry="2.37" transform="translate(284.51 -82.69) rotate(-90)"/><rect class="cls-12" x="-474.46" y="397.57" width="24.69" height="6.02" rx="2.37" ry="2.37" transform="translate(290.04 -69.84) rotate(-90)"/><rect class="cls-8" x="-470.75" y="392.1" width="35.63" height="6.02" rx="2.37" ry="2.37" transform="translate(304.69 -66.13) rotate(-90)"/><rect class="cls-12" x="-459.82" y="393.84" width="32.15" height="6.02" rx="2.37" ry="2.37" transform="translate(312.14 -55.2) rotate(-90)"/><rect class="cls-8" x="-455.79" y="388.68" width="42.46" height="6.02" rx="2.37" ry="2.37" transform="translate(326.48 -51.17) rotate(-90)"/><rect class="cls-12" x="-448.42" y="386.87" width="46.09" height="6.02" rx="2.37" ry="2.37" transform="translate(337.48 -43.8) rotate(-90)"/><circle class="cls-15" cx="662.12" cy="332.92" r="7.86"/><path class="cls-12" d="M-490.59,341.92V331.31a9.72,9.72,0,0,0-9.72,9.72,9.72,9.72,0,0,0,9.72,9.72,9.72,9.72,0,0,0,9.68-8.83Z" transform="translate(1152.74 -8.3)"/><circle class="cls-15" cx="687.85" cy="332.92" r="7.86"/><path class="cls-8" d="M-464.86,331.31a9.72,9.72,0,0,0-9.72,9.72,9.72,9.72,0,0,0,9.72,9.72Z" transform="translate(1152.74 -8.3)"/><circle class="cls-15" cx="713.59" cy="332.92" r="7.86"/><path class="cls-13" d="M-446,347.91l6.87-6.87v-9.72a9.72,9.72,0,0,0-9.72,9.72A9.69,9.69,0,0,0-446,347.91Z" transform="translate(1152.74 -8.3)"/><circle class="cls-15" cx="739.32" cy="332.92" r="7.86"/><path class="cls-11" d="M-413.39,331.31a9.69,9.69,0,0,0-6.87,2.85l6.87,6.87Z" transform="translate(1152.74 -8.3)"/><path class="cls-15" d="M-450.72,362.31h-48a.71.71,0,0,1-.7-.7h0a.71.71,0,0,1,.7-.7h48a.71.71,0,0,1,.7.7h0A.71.71,0,0,1-450.72,362.31Z" transform="translate(1152.74 -8.3)"/><path class="cls-15" d="M-450.72,365.13h-48a.71.71,0,0,1-.7-.7h0a.71.71,0,0,1,.7-.7h48a.71.71,0,0,1,.7.7h0A.71.71,0,0,1-450.72,365.13Z" transform="translate(1152.74 -8.3)"/><g id="_12" data-name="12"><rect class="cls-8" x="-803.93" y="117.02" width="57.34" height="33.5" transform="translate(245.15 -650.04) rotate(-89.89)"/><polygon class="cls-19" points="389.37 88.48 365.56 88.37 360.78 96.77 394.28 96.83 389.37 88.48"/><rect class="cls-20" x="-779.83" y="104.86" width="82.66" height="33.5" transform="translate(294.01 -625.41) rotate(-89.89)"/><polygon class="cls-21" points="426.22 63.81 402.36 63.55 397.57 71.95 431.07 72.01 426.22 63.81"/><rect class="cls-22" x="-765.47" y="82.42" width="128.36" height="33.49" transform="translate(353.59 -610.62) rotate(-89.89)"/><polygon class="cls-23" points="463.46 18.31 439.61 18.26 434.82 26.65 468.31 26.71 463.46 18.31"/><rect class="cls-24" x="-716.58" y="93.76" width="105.69" height="33.5" transform="translate(379.73 -561.73) rotate(-89.89)"/><polygon class="cls-25" points="500.97 41.23 477.14 40.94 472.35 49.33 505.85 49.39 500.97 41.23"/></g><g class="cls-26"><circle class="cls-8" cx="-307.15" cy="152.85" r="50.07" transform="translate(1019.15 -151.39) rotate(-33.15)"/><polygon class="cls-27" points="845.86 143.84 830.04 219.26 883.4 211.01 845.86 143.84"/><polygon class="cls-16" points="845.58 144.55 808.2 87.31 850.15 76.49 845.58 144.55"/><polygon class="cls-18" points="845.58 144.55 922 125.84 850.15 76.49 845.58 144.55"/><polygon class="cls-9" points="883.4 211.01 845.86 143.84 916.38 165.18 883.4 211.01"/><polygon class="cls-28" points="915.29 165.65 922 125.84 845.58 144.55 915.29 165.65"/><polygon class="cls-22" points="845.58 144.55 830.04 219.26 883.4 211.01 845.58 144.55"/><polygon class="cls-10" points="845.58 144.55 808.2 87.31 850.15 76.49 845.58 144.55"/><polygon class="cls-20" points="845.58 144.55 922 125.84 850.15 76.49 845.58 144.55"/><polygon class="cls-29" points="883.4 211.01 845.58 144.55 916.38 165.18 883.4 211.01"/><polygon class="cls-24" points="915.29 165.65 922 125.84 845.58 144.55 915.29 165.65"/></g><g id="_Gruppo_" data-name="&lt;Gruppo&gt;"><path class="cls-30" d="M-107.66,423.65l-55.71-30.32a9.9,9.9,0,0,0-13.39,4L-213,463.92a9.9,9.9,0,0,0,4,13.39l55.71,30.32a9.91,9.91,0,0,0,13.4-4L-103.71,437A9.9,9.9,0,0,0-107.66,423.65Z" transform="translate(1152.74 -8.3)"/><path class="cls-31" d="M-107.66,423.65l-55.71-30.32a9.9,9.9,0,0,0-13.39,4L-213,463.92a9.9,9.9,0,0,0,4,13.39l55.71,30.32a9.91,9.91,0,0,0,13.4-4L-103.71,437A9.9,9.9,0,0,0-107.66,423.65Z" transform="translate(1152.74 -8.3)"/><path class="cls-8" d="M-103.5,425.92l-64-34.85a5.15,5.15,0,0,0-7,2.06l-40.79,75a5.15,5.15,0,0,0,2.06,7l64,34.85a5.15,5.15,0,0,0,7-2.06l40.79-75A5.15,5.15,0,0,0-103.5,425.92Z" transform="translate(1152.74 -8.3)"/><path class="cls-14" d="M-101.24,432.51a4.72,4.72,0,0,0-1.88-6.38l-64.79-35.26a4.72,4.72,0,0,0-6.39,1.89l-12.91,23.72,73.06,39.76Z" transform="translate(1152.74 -8.3)"/><path class="cls-32" d="M-116.14,427.65l-46-25a7.23,7.23,0,0,0-9.78,2.89l-2.8,5.15a7.23,7.23,0,0,0,2.89,9.78l46,25a7.23,7.23,0,0,0,9.78-2.89l2.8-5.15A7.24,7.24,0,0,0-116.14,427.65Z" transform="translate(1152.74 -8.3)"/><path class="cls-9" d="M-116.71,428l-45.2-24.6a6.82,6.82,0,0,0-9.22,2.72l-2.64,4.86a6.82,6.82,0,0,0,2.72,9.22l45.19,24.6a6.82,6.82,0,0,0,9.22-2.72l2.64-4.86A6.82,6.82,0,0,0-116.71,428Z" transform="translate(1152.74 -8.3)"/><path class="cls-1" d="M-139.67,488.73h0Z" transform="translate(1152.74 -8.3)"/><rect class="cls-10" x="-185.81" y="426.41" width="13.21" height="20.85" rx="5.27" ry="5.27" transform="translate(675.5 62.31) rotate(-61.44)"/><rect class="cls-10" x="-163.86" y="438.35" width="13.21" height="20.85" rx="5.27" ry="5.27" transform="translate(676.46 87.83) rotate(-61.45)"/><rect class="cls-10" x="-194.02" y="441.5" width="13.21" height="20.85" rx="5.27" ry="5.27" transform="translate(657.96 62.98) rotate(-61.44)"/><path class="cls-10" d="M-157.78,460.53l-9.06-4.93a5.27,5.27,0,0,0-7.15,2.11l-1.28,2.35a5.27,5.27,0,0,0,2.11,7.15l9.06,4.93a5.27,5.27,0,0,0,7.15-2.11l1.28-2.35A5.27,5.27,0,0,0-157.78,460.53Z" transform="translate(1152.74 -8.3)"/><rect class="cls-10" x="-149.93" y="465.49" width="13.21" height="20.86" rx="5.27" ry="5.27" transform="translate(659.9 114.23) rotate(-61.44)"/><rect class="cls-10" x="-202.13" y="456.4" width="13.21" height="20.85" rx="5.27" ry="5.27" transform="translate(640.64 63.63) rotate(-61.44)"/><path class="cls-10" d="M-165.89,475.43l-9.06-4.93a5.27,5.27,0,0,0-7.15,2.11l-1.28,2.35a5.27,5.27,0,0,0,2.11,7.15l9.06,4.93a5.27,5.27,0,0,0,7.15-2.11l1.28-2.35A5.27,5.27,0,0,0-165.89,475.43Z" transform="translate(1152.74 -8.3)"/><rect class="cls-10" x="-158.04" y="480.39" width="13.21" height="20.86" rx="5.27" ry="5.27" transform="translate(642.58 114.89) rotate(-61.44)"/><rect class="cls-12" x="-141.72" y="450.4" width="13.21" height="20.86" rx="5.27" ry="5.27" transform="translate(677.43 113.57) rotate(-61.44)"/><rect class="cls-9" x="-144.1" y="473.33" width="1.66" height="5.32" rx="0.21" ry="0.21" transform="translate(659.87 114.32) rotate(-61.44)"/><path class="cls-9" d="M-145.08,478a.21.21,0,0,1-.09-.28l2.34-4.3a.21.21,0,0,1,.29-.09l1.09.59a.21.21,0,0,1,.08.29l-2.34,4.3a.21.21,0,0,1-.28.08Z" transform="translate(1152.74 -8.3)"/><path class="cls-9" d="M-173.42,481.49a.22.22,0,0,1-.26-.14l-1.39-4.7a.21.21,0,0,1,.14-.26l1.19-.35a.21.21,0,0,1,.26.14l1.39,4.7a.21.21,0,0,1-.14.26Z" transform="translate(1152.74 -8.3)"/><rect class="cls-9" x="-176.24" y="477.94" width="5.32" height="1.66" rx="0.21" ry="0.21" transform="translate(1010 -37.86) rotate(-16.46)"/><path class="cls-9" d="M-198.38,466.91a.21.21,0,0,1,.14-.26l4.7-1.39a.22.22,0,0,1,.26.14l.35,1.19a.21.21,0,0,1-.14.26l-4.7,1.39a.22.22,0,0,1-.26-.14Z" transform="translate(1152.74 -8.3)"/><rect class="cls-9" x="-152.19" y="488.2" width="1.66" height="5.32" rx="0.21" ry="0.21" transform="translate(642.58 114.98) rotate(-61.44)"/><path class="cls-9" d="M-138.14,459.2a3.36,3.36,0,0,1,2.33-1.7h0a.66.66,0,0,1,.77.52h0a.65.65,0,0,1-.52.77h0a2,2,0,0,0-1.42,1h0a2.05,2.05,0,0,0,.82,2.78h0a2.05,2.05,0,0,0,2.78-.82h0a2,2,0,0,0,.1-1.75h0a.65.65,0,0,1,.36-.85h0a.65.65,0,0,1,.86.36h0a3.36,3.36,0,0,1-.16,2.87h0a3.37,3.37,0,0,1-4.56,1.35h0a3.37,3.37,0,0,1-1.35-4.56Z" transform="translate(1152.74 -8.3)"/><path class="cls-9" d="M-135.8,460.66l1.53-2.81a.66.66,0,0,1,.89-.26h0a.66.66,0,0,1,.26.89h0l-1.53,2.81a.65.65,0,0,1-.89.26h0a.66.66,0,0,1-.27-.89Z" transform="translate(1152.74 -8.3)"/><path class="cls-9" d="M-181.14,439.1l1.84-3.37-1.26.05.44-.8a4.76,4.76,0,0,0,2-.31l.33.18-2.56,4.7Z" transform="translate(1152.74 -8.3)"/><path class="cls-9" d="M-190.33,453.43l.13-.24,2.67-1.38a2.41,2.41,0,0,0,1-.86c.19-.36.08-.65-.35-.88a1,1,0,0,0-1.06.09l-.32-.75a1.56,1.56,0,0,1,.83-.27,1.64,1.64,0,0,1,.91.2,2,2,0,0,1,.95.94,1.26,1.26,0,0,1-.09,1.13,3,3,0,0,1-1.24,1l-1.75.94,1.76,1-.4.74Z" transform="translate(1152.74 -8.3)"/><path class="cls-9" d="M-159.72,449.81l.76-.42a1.25,1.25,0,0,0,.59.83.77.77,0,0,0,1.2-.31.82.82,0,0,0,.07-.68,1,1,0,0,0-.51-.55l-.14-.08.37-.68.12.07q.72.39,1-.21a.65.65,0,0,0-.33-1,1.09,1.09,0,0,0-.85,0l-.08-.78a1.38,1.38,0,0,1,.64-.07,1.84,1.84,0,0,1,.71.21,1.92,1.92,0,0,1,.92.91,1.24,1.24,0,0,1-.09,1.11,1.3,1.3,0,0,1-1.16.72,1.38,1.38,0,0,1,.11,1.58,1.45,1.45,0,0,1-1,.8,2.13,2.13,0,0,1-1.42-.3A2,2,0,0,1-159.72,449.81Z" transform="translate(1152.74 -8.3)"/><path class="cls-9" d="M-165.28,465.39l-.67,1.22-.8-.44.67-1.22-2.13-1.16.26-.48,4.2-1.61.37.2-1.53,2.82.47.26-.36.66Zm.32-2.5-2,.76,1.2.65Z" transform="translate(1152.74 -8.3)"/></g><rect class="cls-10" x="-102.72" y="169.52" width="93.15" height="49.26" transform="translate(1064.12 -13.63) rotate(-25.38)"/><polygon class="cls-8" points="1043.95 183.55 1096.59 185.85 1065.06 228.06 1043.95 183.55"/><polygon class="cls-8" points="1128.11 143.63 1096.59 185.85 1149.22 188.14 1128.11 143.63"/><polygon class="cls-8" points="1043.95 183.55 1072.73 135.55 1128.11 143.63 1043.95 183.55"/><polygon class="cls-33" points="1043.95 183.55 1040.74 176.79 1124.9 136.87 1128.11 143.63 1096.59 185.85 1043.95 183.55"/><path class="cls-15" d="M-42.17,162.65-89.39,185a1.67,1.67,0,0,1-2.22-.79h0a1.67,1.67,0,0,1,.79-2.22l47.22-22.4a1.67,1.67,0,0,1,2.22.79h0A1.68,1.68,0,0,1-42.17,162.65Z" transform="translate(1152.74 -8.3)"/><path class="cls-15" d="M-39.21,168.88l-47.22,22.4a1.67,1.67,0,0,1-2.22-.79h0a1.67,1.67,0,0,1,.79-2.22l47.22-22.4a1.67,1.67,0,0,1,2.22.79h0A1.67,1.67,0,0,1-39.21,168.88Z" transform="translate(1152.74 -8.3)"/><path class="cls-4" d="M-929.15,431h-223.59V202.67a23.55,23.55,0,0,1,23.55-23.55H-952.7a23.55,23.55,0,0,1,23.55,23.55Z" transform="translate(1152.74 -8.3)"/><path class="cls-34" d="M-914.84,428.86h-214.62V209.69a22.61,22.61,0,0,1,22.61-22.61h169.4a22.61,22.61,0,0,1,22.61,22.61Z" transform="translate(1152.74 -8.3)"/><path class="cls-35" d="M-900.53,426.72h-205.65v-210a21.66,21.66,0,0,1,21.66-21.66H-922.2a21.66,21.66,0,0,1,21.66,21.66Z" transform="translate(1152.74 -8.3)"/><path class="cls-36" d="M-886.22,424.59h-196.69V223.74A20.72,20.72,0,0,1-1062.19,203h155.25a20.72,20.72,0,0,1,20.72,20.72Z" transform="translate(1152.74 -8.3)"/><path class="cls-37" d="M-871.91,422.45h-187.72V230.76A19.78,19.78,0,0,1-1039.86,211h148.17a19.78,19.78,0,0,1,19.78,19.78Z" transform="translate(1152.74 -8.3)"/><path class="cls-38" d="M-857.61,420.32h-178.75V237.78A18.83,18.83,0,0,1-1017.53,219h141.09a18.83,18.83,0,0,1,18.83,18.83Z" transform="translate(1152.74 -8.3)"/><path class="cls-39" d="M-843.3,418.19h-169.79V244.81a17.89,17.89,0,0,1,17.89-17.89h134a17.89,17.89,0,0,1,17.89,17.89Z" transform="translate(1152.74 -8.3)"/><path class="cls-40" d="M-829,416.05H-989.81V251.83a16.94,16.94,0,0,1,16.94-16.94h126.94A16.94,16.94,0,0,1-829,251.83Z" transform="translate(1152.74 -8.3)"/><path class="cls-41" d="M-814.68,413.92H-966.53V258.85a16,16,0,0,1,16-16h119.86a16,16,0,0,1,16,16Z" transform="translate(1152.74 -8.3)"/><path class="cls-42" d="M-800.37,411.78H-943.26V265.88a15.05,15.05,0,0,1,15.05-15.05h112.78a15.05,15.05,0,0,1,15.05,15.05Z" transform="translate(1152.74 -8.3)"/><path class="cls-43" d="M-786.07,409.65H-920V272.9a14.11,14.11,0,0,1,14.11-14.11h105.7a14.11,14.11,0,0,1,14.11,14.11Z" transform="translate(1152.74 -8.3)"/><path class="cls-44" d="M-771.76,407.51H-896.71V279.92a13.16,13.16,0,0,1,13.16-13.16h98.62a13.16,13.16,0,0,1,13.16,13.16Z" transform="translate(1152.74 -8.3)"/><path class="cls-45" d="M-757.45,405.38h-116V286.94a12.22,12.22,0,0,1,12.22-12.22h91.55a12.22,12.22,0,0,1,12.22,12.22Z" transform="translate(1152.74 -8.3)"/><path class="cls-46" d="M-743.14,403.25h-107V294a11.27,11.27,0,0,1,11.27-11.27h84.47A11.27,11.27,0,0,1-743.14,294Z" transform="translate(1152.74 -8.3)"/><path class="cls-47" d="M-728.83,401.11h-98V301a10.33,10.33,0,0,1,10.33-10.33h77.39A10.33,10.33,0,0,1-728.83,301Z" transform="translate(1152.74 -8.3)"/><path class="cls-48" d="M-714.53,399h-89.08V308a9.38,9.38,0,0,1,9.38-9.38h70.31a9.38,9.38,0,0,1,9.38,9.38Z" transform="translate(1152.74 -8.3)"/><path class="cls-49" d="M-700.22,396.84h-80.11V315a8.44,8.44,0,0,1,8.44-8.44h63.23a8.44,8.44,0,0,1,8.44,8.44Z" transform="translate(1152.74 -8.3)"/><path class="cls-50" d="M-685.91,394.71h-71.15V322.06a7.49,7.49,0,0,1,7.49-7.49h56.16a7.49,7.49,0,0,1,7.49,7.49Z" transform="translate(1152.74 -8.3)"/><path class="cls-51" d="M-671.6,392.57h-62.18V329.08a6.55,6.55,0,0,1,6.55-6.55h49.08a6.55,6.55,0,0,1,6.55,6.55Z" transform="translate(1152.74 -8.3)"/><path class="cls-52" d="M-657.29,390.44h-53.21V336.1a5.61,5.61,0,0,1,5.61-5.61h42a5.61,5.61,0,0,1,5.61,5.61Z" transform="translate(1152.74 -8.3)"/><path class="cls-8" d="M23.55,170.81H200a23.55,23.55,0,0,1,23.55,23.55V422.69a0,0,0,0,1,0,0H0a0,0,0,0,1,0,0V194.37A23.55,23.55,0,0,1,23.55,170.81Z"/><rect class="cls-9" x="6.46" y="211.53" width="210.68" height="203.79"/><path class="cls-11" d="M-1121.15,192.92c3.46,4.54-1.67,9.67-6.21,6.21C-1130.82,194.59-1125.69,189.46-1121.15,192.92Z" transform="translate(1152.74 -8.3)"/><circle class="cls-12" cx="15.65" cy="187.72" r="4.24"/><path class="cls-13" d="M-1108.32,192.92c3.46,4.54-1.67,9.67-6.21,6.21C-1118,194.59-1112.86,189.46-1108.32,192.92Z" transform="translate(1152.74 -8.3)"/><path class="cls-14" d="M-949.26,201.94h-141.21a5.93,5.93,0,0,1-5.92-5.92h0a5.93,5.93,0,0,1,5.92-5.92h141.21a5.93,5.93,0,0,1,5.92,5.92h0A5.93,5.93,0,0,1-949.26,201.94Z" transform="translate(1152.74 -8.3)"/><g class="cls-53"><circle class="cls-13" cx="-1091.75" cy="279.09" r="39.71" transform="translate(73.17 -856) rotate(-75.04)"/><polygon class="cls-18" points="60.99 270.79 96.2 219.28 27.65 228.19 60.99 270.79"/><polygon class="cls-9" points="118.51 290.01 60.78 270.23 113.71 245.49 118.51 290.01"/><polygon class="cls-12" points="60.99 270.79 96.2 219.28 27.65 228.19 60.99 270.79"/><polygon class="cls-8" points="118.51 290.01 60.99 270.79 96.2 219.28 118.51 290.01"/></g><rect class="cls-12" x="177.94" y="268.14" width="9.42" height="42.37" rx="3.14" ry="3.14"/><rect class="cls-8" x="162.98" y="274.87" width="9.42" height="35.65" rx="3.14" ry="3.14"/><rect class="cls-13" x="192.9" y="260.13" width="9.42" height="50.39" rx="3.14" ry="3.14"/><path class="cls-15" d="M-962.92,236.3h-44.26a3,3,0,0,0-3,3v16.23a3,3,0,0,0,3,3h31.31c2.58,5.1,6.15,11.57,6.15,11.57V258.6h6.8a3,3,0,0,0,3-3V239.33A3,3,0,0,0-962.92,236.3Z" transform="translate(1152.74 -8.3)"/><path class="cls-15" d="M-1000.64,311.53H-1037a1.83,1.83,0,0,1-1.82-1.82h0a1.83,1.83,0,0,1,1.82-1.82h36.36a1.83,1.83,0,0,1,1.82,1.82h0A1.83,1.83,0,0,1-1000.64,311.53Z" transform="translate(1152.74 -8.3)"/><path class="cls-15" d="M-1000.64,318.82H-1037a1.83,1.83,0,0,1-1.82-1.82h0a1.83,1.83,0,0,1,1.82-1.82h36.36a1.83,1.83,0,0,1,1.82,1.82h0A1.83,1.83,0,0,1-1000.64,318.82Z" transform="translate(1152.74 -8.3)"/><path class="cls-15" d="M-1000.64,298H-1037a1.83,1.83,0,0,1-1.82-1.82h0a1.83,1.83,0,0,1,1.82-1.82h36.36a1.83,1.83,0,0,1,1.82,1.82h0A1.83,1.83,0,0,1-1000.64,298Z" transform="translate(1152.74 -8.3)"/><path class="cls-15" d="M-1000.64,305.28H-1037a1.83,1.83,0,0,1-1.82-1.82h0a1.83,1.83,0,0,1,1.82-1.82h36.36a1.83,1.83,0,0,1,1.82,1.82h0A1.83,1.83,0,0,1-1000.64,305.28Z" transform="translate(1152.74 -8.3)"/><circle class="cls-13" cx="40.11" cy="338.53" r="4.48"/><circle class="cls-13" cx="58.03" cy="338.53" r="4.48"/><circle class="cls-13" cx="75.95" cy="338.53" r="4.48"/><circle class="cls-13" cx="93.87" cy="338.53" r="4.48"/><circle class="cls-13" cx="111.79" cy="338.53" r="4.48"/><circle class="cls-13" cx="129.72" cy="338.53" r="4.48"/><circle class="cls-13" cx="147.64" cy="338.53" r="4.48"/><circle class="cls-13" cx="165.56" cy="338.53" r="4.48"/><circle class="cls-15" cx="183.48" cy="338.53" r="4.48"/><circle class="cls-12" cx="40.11" cy="356.65" r="4.48"/><circle class="cls-12" cx="58.03" cy="356.65" r="4.48"/><circle class="cls-12" cx="75.95" cy="356.65" r="4.48"/><circle class="cls-12" cx="93.87" cy="356.65" r="4.48"/><circle class="cls-12" cx="111.79" cy="356.65" r="4.48"/><circle class="cls-15" cx="129.72" cy="356.65" r="4.48"/><circle class="cls-15" cx="147.64" cy="356.65" r="4.48"/><circle class="cls-15" cx="165.56" cy="356.65" r="4.48"/><circle class="cls-15" cx="183.48" cy="356.65" r="4.48"/><circle class="cls-8" cx="40.11" cy="374.76" r="4.48"/><circle class="cls-8" cx="58.03" cy="374.76" r="4.48"/><circle class="cls-8" cx="75.95" cy="374.76" r="4.48"/><circle class="cls-8" cx="93.87" cy="374.76" r="4.48"/><circle class="cls-8" cx="111.79" cy="374.76" r="4.48"/><circle class="cls-8" cx="129.72" cy="374.76" r="4.48"/><circle class="cls-15" cx="147.64" cy="374.76" r="4.48"/><circle class="cls-15" cx="165.56" cy="374.76" r="4.48"/><circle class="cls-15" cx="183.48" cy="374.76" r="4.48"/><circle class="cls-11" cx="40.11" cy="392.88" r="4.48"/><circle class="cls-11" cx="58.03" cy="392.88" r="4.48"/><circle class="cls-15" cx="75.95" cy="392.88" r="4.48"/><circle class="cls-15" cx="93.87" cy="392.88" r="4.48"/><circle class="cls-15" cx="111.79" cy="392.88" r="4.48"/><circle class="cls-15" cx="129.72" cy="392.88" r="4.48"/><circle class="cls-15" cx="147.64" cy="392.88" r="4.48"/><circle class="cls-15" cx="165.56" cy="392.88" r="4.48"/><circle class="cls-15" cx="183.48" cy="392.88" r="4.48"/><circle class="cls-54" cx="-686.02" cy="365.61" r="66.65" transform="translate(1130.11 -47.92) rotate(-3.36)"/><circle class="cls-55" cx="-679.94" cy="365.25" r="51" transform="translate(1130.14 -47.56) rotate(-3.36)"/><circle class="cls-9" cx="-666.06" cy="364.43" r="23.03" transform="translate(1130.21 -46.75) rotate(-3.36)"/><path class="cls-56" d="M-762.31,459.62l-13.54-12.4a4.16,4.16,0,0,1-.21-5.94l35.86-37.87a4.19,4.19,0,0,1,5.84-.21l13.54,12.4a4.16,4.16,0,0,1,.21,5.94l-35.86,37.87A4.19,4.19,0,0,1-762.31,459.62Z" transform="translate(1152.74 -8.3)"/><g class="cls-57"><path class="cls-58" d="M-638.87,316a73.57,73.57,0,0,0-102.76,3.71,70.68,70.68,0,0,0,3.54,101.07,73.57,73.57,0,0,0,102.76-3.71A70.68,70.68,0,0,0-638.87,316Zm-85,89.81a50.49,50.49,0,0,1-2.53-72.19A52.55,52.55,0,0,1-653,331a50.49,50.49,0,0,1,2.53,72.19A52.55,52.55,0,0,1-723.92,405.85Z" transform="translate(1152.74 -8.3)"/></g><polygon class="cls-56" points="361.42 497.27 332.24 470.55 363.43 437.61 392.61 464.33 361.42 497.27"/><path class="cls-59" d="M-836.13,495.36A4.65,4.65,0,0,0-836,502l22.26,20.39a4.84,4.84,0,0,0,6.74-.3l15.63-16.51-29.18-26.72Z" transform="translate(1152.74 -8.3)"/><path class="cls-59" d="M-745,449.81l-22.26-20.39a4.8,4.8,0,0,0-6.69.24l-15.38,16.25,29.18,26.72,15.38-16.25A4.61,4.61,0,0,0-745,449.81Z" transform="translate(1152.74 -8.3)"/><polygon class="cls-58" points="392.04 464.94 362.86 438.21 363.43 437.61 392.61 464.33 392.04 464.94"/><polygon class="cls-58" points="361.25 497.44 332.08 470.72 332.65 470.11 361.83 496.84 361.25 497.44"/><path class="cls-59" d="M-636.41,313.22a73.57,73.57,0,0,0-102.76,3.71A70.68,70.68,0,0,0-735.63,418a73.57,73.57,0,0,0,102.76-3.71A70.68,70.68,0,0,0-636.41,313.22Zm-61.46,110.14a59,59,0,0,1-45.9-69.6,59,59,0,0,1,69.6-45.9,59,59,0,0,1,45.9,69.6A59,59,0,0,1-697.87,423.35Z" transform="translate(1152.74 -8.3)"/><path class="cls-58" d="M-727.17,409.06a58.69,58.69,0,0,1-2.94-83.84,61.1,61.1,0,0,1,85.24-3.07A58.69,58.69,0,0,1-641.93,406,61.1,61.1,0,0,1-727.17,409.06Zm80.36-84.86A58.22,58.22,0,0,0-728,327.13a55.92,55.92,0,0,0,2.8,79.88A58.22,58.22,0,0,0-644,404.08,55.92,55.92,0,0,0-646.81,324.2Z" transform="translate(1152.74 -8.3)"/><text class="cls-60" transform="translate(431.79 369.55)">SEO</text><path class="cls-3" d="M-357.23,16.92C-233.5,89.67-150.46,224.19-150.46,378.09a417.29,417.29,0,0,1-117,290.27" transform="translate(1152.74 -8.3)"/><path class="cls-9" d="M-61.43,302.14a20.09,20.09,0,0,1-20,20.19l-237.81,1.18a20.09,20.09,0,0,1-20.19-20h0a20.09,20.09,0,0,1,20-20.19l237.81-1.18a20.09,20.09,0,0,1,20.19,20Z" transform="translate(1152.74 -8.3)"/><path class="cls-61" d="M-83.52,293.29a9.69,9.69,0,0,0-13.69.07A9.68,9.68,0,0,0-97.14,307a9.65,9.65,0,0,0,12.6.83l6.2,6.14,2-2-6.2-6.14A9.66,9.66,0,0,0-83.52,293.29ZM-85.42,305a6.92,6.92,0,0,1-9.78,0,6.92,6.92,0,0,1,0-9.78,6.92,6.92,0,0,1,9.78-.05A6.93,6.93,0,0,1-85.42,305Z" transform="translate(1152.74 -8.3)"/></g></g></svg>