<svg id="Layer_1" data-name="Layer 1" xmlns="http://www.w3.org/2000/svg" viewBox="0 0 157.65 44.91"><defs><style>.cls-1{fill:#f9ca8b;}.cls-2{opacity:0.3;}.cls-3{fill:#fff;}</style></defs><title>services-agile-8</title><path class="cls-1" d="M-638.42,973.56l-.4-.66-3-5h-62.12a106,106,0,0,1-44,35.93l-.28.13a106.49,106.49,0,0,1-38,8.85h144.44l13.21-23Z" transform="translate(786.26 -967.9)"/><path class="cls-2" d="M-708.14,973.44h69.65l-.32-.54-3-5h-62.12Q-705.94,970.73-708.14,973.44Z" transform="translate(786.26 -967.9)"/><path class="cls-3" d="M-701.8,986.76h1.15v7.36H-697v1h-4.82Z" transform="translate(786.26 -967.9)"/><path class="cls-3" d="M-691.74,995.16v-.89a2.6,2.6,0,0,1-2.22.94,2.53,2.53,0,0,1-1.16-.25,1.85,1.85,0,0,1-.77-.7,1.88,1.88,0,0,1-.27-1,1.63,1.63,0,0,1,.63-1.35,2.82,2.82,0,0,1,1.76-.51h2v-.3a1.31,1.31,0,0,0-.41-1,1.77,1.77,0,0,0-1.21-.37,3.45,3.45,0,0,0-2,.68l-.47-.77a5.8,5.8,0,0,1,1.27-.64,4.29,4.29,0,0,1,1.39-.2,2.66,2.66,0,0,1,1.84.58,2.11,2.11,0,0,1,.66,1.63v4.18Zm-.67-1.25a1.49,1.49,0,0,0,.65-1v-.64h-1.86a2.17,2.17,0,0,0-1.12.23.79.79,0,0,0-.37.72.94.94,0,0,0,.37.78,1.58,1.58,0,0,0,1,.29A2.27,2.27,0,0,0-692.41,993.91Z" transform="translate(786.26 -967.9)"/><path class="cls-3" d="M-683,988.81v6.35h-1.13v-1.34a2.39,2.39,0,0,1-2.35,1.38,2.27,2.27,0,0,1-1.73-.65,2.51,2.51,0,0,1-.62-1.81v-3.92h1.13v3.62a1.72,1.72,0,0,0,.44,1.25,1.61,1.61,0,0,0,1.21.45,1.79,1.79,0,0,0,1.41-.63,2.36,2.36,0,0,0,.52-1.58v-3.12Z" transform="translate(786.26 -967.9)"/><path class="cls-3" d="M-675.58,989.43a2.48,2.48,0,0,1,.64,1.81v3.92h-1.12v-3.62a1.69,1.69,0,0,0-.45-1.25,1.68,1.68,0,0,0-1.24-.45,1.92,1.92,0,0,0-1.39.55,2.15,2.15,0,0,0-.61,1.39v3.4h-1.12v-6.35h1.12v1.34a2.45,2.45,0,0,1,2.41-1.38A2.33,2.33,0,0,1-675.58,989.43Z" transform="translate(786.26 -967.9)"/><path class="cls-3" d="M-670.31,989.77a2.21,2.21,0,0,0-1.11.28,2,2,0,0,0-.76.78,2.39,2.39,0,0,0-.28,1.16,2.42,2.42,0,0,0,.27,1.16,2,2,0,0,0,.74.79,2.09,2.09,0,0,0,1.09.28,2.86,2.86,0,0,0,1.1-.2,2.11,2.11,0,0,0,.82-.59l.64.65a2.81,2.81,0,0,1-1.1.83,3.75,3.75,0,0,1-1.51.29,3.27,3.27,0,0,1-1.64-.41,2.88,2.88,0,0,1-1.12-1.13,3.37,3.37,0,0,1-.4-1.66,3.41,3.41,0,0,1,.4-1.67,2.87,2.87,0,0,1,1.12-1.14,3.27,3.27,0,0,1,1.64-.41A4,4,0,0,1-669,989a2.79,2.79,0,0,1,1.07.71l-.61.77A2.51,2.51,0,0,0-670.31,989.77Z" transform="translate(786.26 -967.9)"/><path class="cls-3" d="M-660.86,989.43a2.48,2.48,0,0,1,.64,1.81v3.92h-1.12v-3.62a1.69,1.69,0,0,0-.45-1.25,1.68,1.68,0,0,0-1.24-.45,1.89,1.89,0,0,0-1.46.62A2.31,2.31,0,0,0-665,992v3.12h-1.12v-8.9H-665v3.92a2.45,2.45,0,0,1,2.42-1.4A2.33,2.33,0,0,1-660.86,989.43Z" transform="translate(786.26 -967.9)"/></svg>