<svg id="Layer_1" data-name="Layer 1" xmlns="http://www.w3.org/2000/svg" viewBox="0 0 76.75 68.88"><defs><style>.cls-1,.cls-2{fill:#fff;}.cls-1{fill-rule:evenodd;}</style></defs><title>services-agile-10</title><path class="cls-1" d="M-501.43,917.58s3.88,0,3.88-3.89v-35c0-3.88-3.88-3.88-3.88-3.88H-515s-3.88,0-3.88,3.88v35c0,3.89,3.88,3.89,3.88,3.89Zm-6.79-1.62a1.94,1.94,0,0,1-1.93-1.94,1.94,1.94,0,0,1,1.93-1.94,1.94,1.94,0,0,1,1.94,1.94,1.94,1.94,0,0,1-1.94,1.94Zm-2.91-38.75c0-.24.11-.42.26-.42h5.3c.14,0,.27.19.27.42v.11c0,.25-.12.43-.27.43h-5.3c-.14,0-.26-.19-.26-.43Zm-5.81,2.48h17.45v31h-17.45Zm0,0" transform="translate(546.59 -874.85)"/><path class="cls-2" d="M-546.59,933.73h2.76l2.45,7.1,2.46-7.1h2.63l-3.84,9.81h-2.66Z" transform="translate(546.59 -874.85)"/><path class="cls-2" d="M-535.36,933.73h7.74v2h-5.18v1.83h4.68v2h-4.68v1.85h5.32v2h-7.88Z" transform="translate(546.59 -874.85)"/><path class="cls-2" d="M-520,943.55l-1.43-2.72h-1.9v2.72h-2.56v-9.81h4.41a4.55,4.55,0,0,1,3,.9,3.14,3.14,0,0,1,1.07,2.54,3.87,3.87,0,0,1-.45,1.91,3.1,3.1,0,0,1-1.3,1.25l2,3.21Zm-3.33-4.76h1.86a1.72,1.72,0,0,0,1.21-.39,1.46,1.46,0,0,0,.43-1.13,1.4,1.4,0,0,0-.43-1.1,1.75,1.75,0,0,0-1.21-.38h-1.86Z" transform="translate(546.59 -874.85)"/><path class="cls-2" d="M-510.68,935.93a5,5,0,0,0-1.49-.29,1.38,1.38,0,0,0-.75.17.57.57,0,0,0-.27.51.7.7,0,0,0,.24.54,1.83,1.83,0,0,0,.59.35q.35.13,1,.34a13.65,13.65,0,0,1,1.69.59,3,3,0,0,1,1.14.9,2.51,2.51,0,0,1,.48,1.59,2.72,2.72,0,0,1-.52,1.67,3.13,3.13,0,0,1-1.42,1,5.52,5.52,0,0,1-2,.35,7.25,7.25,0,0,1-2.43-.43,6.63,6.63,0,0,1-2.09-1.17l1-2a6.17,6.17,0,0,0,1.76,1.08,4.79,4.79,0,0,0,1.8.42,1.66,1.66,0,0,0,.9-.21.68.68,0,0,0,.33-.62.73.73,0,0,0-.24-.56,1.81,1.81,0,0,0-.62-.36q-.37-.13-1-.31a12.83,12.83,0,0,1-1.67-.57,2.93,2.93,0,0,1-1.13-.87,2.39,2.39,0,0,1-.47-1.55,2.7,2.7,0,0,1,.48-1.6,3.07,3.07,0,0,1,1.37-1.06,5.34,5.34,0,0,1,2.06-.37,7.51,7.51,0,0,1,2.1.3,6.93,6.93,0,0,1,1.82.8l-1,2A8.64,8.64,0,0,0-510.68,935.93Z" transform="translate(546.59 -874.85)"/><path class="cls-2" d="M-506.73,933.73h2.56v9.81h-2.56Z" transform="translate(546.59 -874.85)"/><path class="cls-2" d="M-494.88,934.24A4.93,4.93,0,0,1-493,936a4.89,4.89,0,0,1,.69,2.58,5,5,0,0,1-.69,2.6,5,5,0,0,1-1.9,1.83,5.48,5.48,0,0,1-2.71.67,5.53,5.53,0,0,1-2.71-.67,4.91,4.91,0,0,1-1.9-1.83,5,5,0,0,1-.69-2.61,4.89,4.89,0,0,1,.69-2.58,4.92,4.92,0,0,1,1.9-1.81,5.57,5.57,0,0,1,2.71-.66A5.57,5.57,0,0,1-494.88,934.24Zm-4,1.89a2.72,2.72,0,0,0-1,1,3,3,0,0,0-.36,1.46,3,3,0,0,0,.37,1.48,2.85,2.85,0,0,0,1,1,2.48,2.48,0,0,0,1.34.38,2.45,2.45,0,0,0,1.34-.38,2.71,2.71,0,0,0,1-1,3.13,3.13,0,0,0,.35-1.48,3.1,3.1,0,0,0-.35-1.46,2.66,2.66,0,0,0-1-1,2.49,2.49,0,0,0-1.34-.38A2.56,2.56,0,0,0-498.91,936.13Z" transform="translate(546.59 -874.85)"/><path class="cls-2" d="M-484.3,933.73h2.38v9.81h-2.24l-4.45-5.87v5.87H-491v-9.81h2.25l4.47,5.91Z" transform="translate(546.59 -874.85)"/><path class="cls-2" d="M-469.84,941.49v2.06h-7.48v-1.69l3.57-3.67a5,5,0,0,0,.69-.87,1.49,1.49,0,0,0,.27-.74.73.73,0,0,0-.29-.62,1.37,1.37,0,0,0-.83-.22,3.2,3.2,0,0,0-1.31.33,5.77,5.77,0,0,0-1.39.92l-1-1.89a6.92,6.92,0,0,1,4.07-1.47,4.55,4.55,0,0,1,1.76.32,2.83,2.83,0,0,1,1.22.91,2.18,2.18,0,0,1,.44,1.34,3,3,0,0,1-.5,1.56,9.7,9.7,0,0,1-1.41,1.71l-2,2Z" transform="translate(546.59 -874.85)"/></svg>