<svg id="Layer_1" data-name="Layer 1" xmlns="http://www.w3.org/2000/svg" viewBox="0 0 179.14 50.39"><defs><style>.cls-1{fill:#ef5c63;}.cls-2{opacity:0.3;}.cls-3{fill:#fff;}</style></defs><title>services-agile-3</title><path class="cls-1" d="M-200.92,962.35l-.64.3a61.64,61.64,0,0,1-23.65,5.18H-359.35l3,5,.4.66,9.8,16.28-13.21,23h137.79a106.49,106.49,0,0,0,38-8.85l.28-.13,3.06-26.27Z" transform="translate(359.35 -962.35)"/><path class="cls-2" d="M-200.92,962.35l-.64.3a61.64,61.64,0,0,1-23.65,5.18q-1,0-2,0H-359.35l3.41,5.54h126.41a65.09,65.09,0,0,0,8,0,65.72,65.72,0,0,0,22.31-5.4c1.24-.54,2.45-1.13,3.64-1.74Z" transform="translate(359.35 -962.35)"/><path class="cls-3" d="M-288.13,987.43a5.7,5.7,0,0,0-1.72-.34,1.58,1.58,0,0,0-.86.2.66.66,0,0,0-.32.59.81.81,0,0,0,.27.62,2.11,2.11,0,0,0,.68.4q.4.15,1.19.4a15.71,15.71,0,0,1,1.95.68,3.4,3.4,0,0,1,1.32,1,2.89,2.89,0,0,1,.55,1.83,3.13,3.13,0,0,1-.6,1.93,3.63,3.63,0,0,1-1.64,1.2,6.38,6.38,0,0,1-2.32.4,8.38,8.38,0,0,1-2.8-.49,7.67,7.67,0,0,1-2.41-1.35l1.15-2.31a7.14,7.14,0,0,0,2,1.24,5.52,5.52,0,0,0,2.08.48,1.93,1.93,0,0,0,1-.24.79.79,0,0,0,.38-.71.84.84,0,0,0-.28-.65,2.09,2.09,0,0,0-.71-.41q-.43-.15-1.2-.36a14.88,14.88,0,0,1-1.92-.65,3.39,3.39,0,0,1-1.3-1,2.75,2.75,0,0,1-.54-1.78,3.12,3.12,0,0,1,.56-1.84A3.55,3.55,0,0,1-292,985.1a6.14,6.14,0,0,1,2.38-.43,8.64,8.64,0,0,1,2.42.35,8,8,0,0,1,2.1.93l-1.11,2.36A9.93,9.93,0,0,0-288.13,987.43Z" transform="translate(359.35 -962.35)"/><path class="cls-3" d="M-275.91,987.94a3.74,3.74,0,0,1,1.43,1.58,5.26,5.26,0,0,1,.51,2.37,5.21,5.21,0,0,1-.49,2.33,3.64,3.64,0,0,1-1.4,1.55,4,4,0,0,1-2.11.55,3.47,3.47,0,0,1-1.49-.31,3.11,3.11,0,0,1-1.14-.91v4.26h-2.87V987.48h2.87v1.13a3.08,3.08,0,0,1,2.57-1.23A4,4,0,0,1-275.91,987.94Zm-1.48,5.45a2.29,2.29,0,0,0,.52-1.57,2.32,2.32,0,0,0-.52-1.57,1.72,1.72,0,0,0-1.36-.61,1.68,1.68,0,0,0-1.34.61,2.34,2.34,0,0,0-.52,1.57,2.31,2.31,0,0,0,.52,1.57,1.69,1.69,0,0,0,1.34.6A1.73,1.73,0,0,0-277.39,993.39Z" transform="translate(359.35 -962.35)"/><path class="cls-3" d="M-268.45,987.77a3.28,3.28,0,0,1,1.64-.4V990l-.44,0a2.66,2.66,0,0,0-1.65.48,1.83,1.83,0,0,0-.73,1.3v4.46h-2.87v-8.73h2.87v1.45A3.14,3.14,0,0,1-268.45,987.77Z" transform="translate(359.35 -962.35)"/><path class="cls-3" d="M-263.05,983.88a1.5,1.5,0,0,1,.43,1.11,1.5,1.5,0,0,1-.43,1.1,1.46,1.46,0,0,1-1.09.44,1.46,1.46,0,0,1-1.09-.44,1.5,1.5,0,0,1-.43-1.1,1.5,1.5,0,0,1,.43-1.11,1.48,1.48,0,0,1,1.09-.43A1.48,1.48,0,0,1-263.05,983.88Zm-2.49,3.59h2.86v8.73h-2.86Z" transform="translate(359.35 -962.35)"/><path class="cls-3" d="M-252.43,988.27a3.38,3.38,0,0,1,.86,2.44v5.51h-2.86v-4.68a1.64,1.64,0,0,0-.4-1.17,1.42,1.42,0,0,0-1.08-.43,1.66,1.66,0,0,0-1.17.47,1.91,1.91,0,0,0-.54,1.2v4.62h-2.87v-8.73h2.87v1.42a3.1,3.1,0,0,1,1.2-1.15,3.55,3.55,0,0,1,1.69-.39A3,3,0,0,1-252.43,988.27Z" transform="translate(359.35 -962.35)"/><path class="cls-3" d="M-243.93,995.76a4.28,4.28,0,0,1-1.11.43,5.35,5.35,0,0,1-1.28.15,3,3,0,0,1-2.09-.74,2.66,2.66,0,0,1-.8-2.05V989.8h-1.21V987.9h1.21v-2.42h2.86v2.42h2.26v1.91h-2.26v3.29q0,.92.76.92a2.81,2.81,0,0,0,1.11-.29Z" transform="translate(359.35 -962.35)"/><path class="cls-3" d="M-231.7,990.55a2.8,2.8,0,0,1,.83,2.09,3.36,3.36,0,0,1-.57,1.92,3.73,3.73,0,0,1-1.6,1.31,5.81,5.81,0,0,1-2.42.47,8.08,8.08,0,0,1-2.45-.38,6.54,6.54,0,0,1-2-1l1.1-2.08a5.26,5.26,0,0,0,1.52.9,4.52,4.52,0,0,0,1.61.31,2.42,2.42,0,0,0,1.44-.36,1.21,1.21,0,0,0,.5-1,1.19,1.19,0,0,0-.5-1,2.5,2.5,0,0,0-1.45-.35h-1.91v-1.62l2.62-2.52h-4.33v-2.26h7.91v1.71l-3.08,2.83.6.11A3.81,3.81,0,0,1-231.7,990.55Z" transform="translate(359.35 -962.35)"/></svg>