<svg id="Objects" xmlns="http://www.w3.org/2000/svg" viewBox="0 0 924.84 280.06"><defs><style>.cls-1{fill:#feb101;}.cls-2{fill:#fff;}.cls-3{fill:#515153;}.cls-4{fill:#5e6c75;}.cls-5{fill:#a30d19;}.cls-6{fill:#fffeff;}.cls-7{fill:#02abbe;}.cls-8{fill:#5f8b8c;}</style></defs><title>services-system-3</title><g id="Ecommerce"><circle class="cls-1" cx="382.37" cy="205.82" r="74.24"/><polygon class="cls-2" points="385.53 220.66 386.1 213.7 370.33 213.7 370.9 220.66 385.53 220.66"/><polygon class="cls-2" points="388.5 211.52 402.85 211.52 405.86 199.77 389.45 199.77 388.5 211.52"/><polygon class="cls-2" points="354.16 213.7 355.97 220.66 368.68 220.66 368.11 213.7 354.16 213.7"/><polygon class="cls-2" points="402.27 213.7 388.32 213.7 387.75 220.66 400.46 220.66 402.27 213.7"/><path class="cls-2" d="M-666.66,256.5a3.24,3.24,0,0,0-1.81.58,3.72,3.72,0,0,0-.82.65l-9,9a2.79,2.79,0,0,0-.72,1.06h-11l-.62,7.4h16.81l1.27-4.7c2.4-2.4,4.79-4.88,7.19-7.05h5.76c4.35,0,4.35-7,0-7Z" transform="translate(1080.31 -77.62)"/><polygon class="cls-2" points="369.02 197.59 387.41 197.59 388.03 190.19 368.4 190.19 369.02 197.59"/><polygon class="cls-2" points="367.93 211.52 366.98 199.77 350.57 199.77 353.58 211.52 367.93 211.52"/><polygon class="cls-2" points="348.02 190.19 349.99 197.59 366.8 197.59 366.18 190.19 348.02 190.19"/><polygon class="cls-2" points="387.23 199.77 369.2 199.77 370.15 211.52 386.28 211.52 387.23 199.77"/><path class="cls-2" d="M-717.63,300.25a5.86,5.86,0,0,1,5.86,5.86,5.86,5.86,0,0,1-5.86,5.86,5.86,5.86,0,0,1-5.86-5.86,5.86,5.86,0,0,1,5.86-5.86" transform="translate(1080.31 -77.62)"/><path class="cls-2" d="M-686.56,300.25a5.86,5.86,0,0,1,5.86,5.86,5.86,5.86,0,0,1-5.86,5.86,5.86,5.86,0,0,1-5.86-5.86,5.86,5.86,0,0,1,5.86-5.86" transform="translate(1080.31 -77.62)"/></g><g id="seo"><circle class="cls-3" cx="27.42" cy="130.94" r="27.42"/><path class="cls-2" d="M-1063.26,224.39l.75.56a2.63,2.63,0,0,0,3.69-.52l7.1-9.44a2.64,2.64,0,0,0,.37-.69,10.69,10.69,0,0,0,8.07-.47,10.44,10.44,0,0,0,5.15-13.82,10.44,10.44,0,0,0-14-4.76,10.45,10.45,0,0,0-5.15,13.82,9.85,9.85,0,0,0,1,1.7,2.61,2.61,0,0,0-.47.48l-7.1,9.44A2.64,2.64,0,0,0-1063.26,224.39Zm12.59-26.16a7.14,7.14,0,0,1,9.57,3.19,7.14,7.14,0,0,1-3.59,9.43,7.14,7.14,0,0,1-9.57-3.19A7.14,7.14,0,0,1-1050.67,198.23Z" transform="translate(1080.31 -77.62)"/></g><g id="money"><circle class="cls-4" cx="711.55" cy="134.64" r="24.74"/><path class="cls-2" d="M-371,229.14a15.08,15.08,0,0,1-4.38-1.28,12.41,12.41,0,0,1-3.48-2.38l1.52-2.26a1.57,1.57,0,0,1,.53-.49,1.35,1.35,0,0,1,.69-.19,1.81,1.81,0,0,1,.94.31l1.14.73a15.46,15.46,0,0,0,1.46.84,6.85,6.85,0,0,0,1.94.62l.76-8.94q-1.42-.4-2.8-.94a9.39,9.39,0,0,1-2.49-1.43,6.63,6.63,0,0,1-1.79-2.25,7.6,7.6,0,0,1-.68-3.4,7.64,7.64,0,0,1,.61-3,7.91,7.91,0,0,1,1.77-2.59,9.32,9.32,0,0,1,2.85-1.88,9.65,9.65,0,0,1,3.89-.74l.22-2.54a1.4,1.4,0,0,1,.4-.87,1.22,1.22,0,0,1,.94-.38h1.82l-.34,3.92a11,11,0,0,1,3.65,1.2,13.18,13.18,0,0,1,2.67,1.94l-1.2,1.82a2.47,2.47,0,0,1-.56.6,1.14,1.14,0,0,1-.68.2,1.72,1.72,0,0,1-.71-.19l-.94-.46q-.53-.27-1.17-.55a8,8,0,0,0-1.42-.46l-.7,8.27q1.44.44,2.84,1a10.35,10.35,0,0,1,2.54,1.37,6.57,6.57,0,0,1,1.82,2.09,6.31,6.31,0,0,1,.7,3.12,9.73,9.73,0,0,1-.62,3.48,8.51,8.51,0,0,1-1.81,2.88,9.16,9.16,0,0,1-2.92,2,11.68,11.68,0,0,1-4,.94l-.24,2.94a1.42,1.42,0,0,1-.4.85,1.22,1.22,0,0,1-.94.39h-1.82Zm-2-21.52a3.23,3.23,0,0,0,.26,1.34,3.2,3.2,0,0,0,.73,1,5.22,5.22,0,0,0,1.11.8,10.31,10.31,0,0,0,1.4.63l.62-7.39a7.13,7.13,0,0,0-1.88.47,4.17,4.17,0,0,0-1.28.81,3,3,0,0,0-.73,1.07A3.42,3.42,0,0,0-373,207.62Zm9.7,13.06a3.07,3.07,0,0,0-.27-1.33,3.17,3.17,0,0,0-.76-1,4.93,4.93,0,0,0-1.15-.76,12,12,0,0,0-1.44-.58l-.68,8.1a5.2,5.2,0,0,0,3.2-1.43A4.19,4.19,0,0,0-363.32,220.68Z" transform="translate(1080.31 -77.62)"/></g><g id="design"><circle class="cls-5" cx="563.17" cy="55" r="55"/><g id="idea"><path class="cls-6" d="M-507.1,131.28a1,1,0,0,1-1-1,10.86,10.86,0,0,0-10.85-10.84,1,1,0,0,1-1-1,1,1,0,0,1,1-1,12.8,12.8,0,0,1,12.79,12.78A1,1,0,0,1-507.1,131.28Z" transform="translate(1080.31 -77.62)"/><polygon class="cls-6" points="565.08 78 563.62 77.76 566.51 60.31 567.97 60.55 565.08 78 565.08 78"/><polygon class="cls-6" points="557.71 78 554.82 60.55 556.28 60.31 559.17 77.76 557.71 78 557.71 78"/><path class="cls-6" d="M-513.16,140.39c-.61,0-.87-.59-1.06-1-.08-.18-.25-.55-.34-.55s-.26.37-.34.55c-.19.43-.46,1-1.06,1s-.87-.59-1.06-1c-.08-.18-.24-.55-.34-.55s-.26.37-.34.55c-.19.43-.46,1-1.06,1s-.87-.59-1.06-1c-.08-.18-.24-.55-.34-.55s-.26.37-.34.55c-.19.43-.45,1-1.06,1s-.87-.59-1.06-1c-.08-.18-.25-.55-.34-.55s-.26.37-.34.55c-.19.43-.46,1-1.06,1v-.79c.09,0,.26-.37.34-.55.2-.43.46-1,1.06-1s.87.59,1.06,1c.08.18.25.55.34.55s.26-.37.34-.55c.19-.43.45-1,1.06-1s.87.59,1.06,1c.08.18.25.55.34.55s.26-.37.34-.55c.19-.43.45-1,1.06-1s.87.59,1.05,1c.08.18.25.55.34.55s.26-.37.34-.55c.19-.43.45-1,1.06-1s.87.59,1.06,1c.08.18.25.55.34.55v.79Z" transform="translate(1080.31 -77.62)"/><path class="cls-6" d="M-518.92,108.9a1,1,0,0,1-1-1V97.78a1,1,0,0,1,1-1,1,1,0,0,1,1,1v10.16A1,1,0,0,1-518.92,108.9Z" transform="translate(1080.31 -77.62)"/><path class="cls-6" d="M-507.32,112a1,1,0,0,1-.48-.13,1,1,0,0,1-.35-1.32l5.08-8.8a1,1,0,0,1,1.32-.35,1,1,0,0,1,.35,1.32l-5.07,8.8A1,1,0,0,1-507.32,112Z" transform="translate(1080.31 -77.62)"/><path class="cls-6" d="M-498.82,120.49a1,1,0,0,1-.84-.48,1,1,0,0,1,.36-1.32l8.79-5.08a1,1,0,0,1,1.32.36,1,1,0,0,1-.36,1.32l-8.79,5.08A1,1,0,0,1-498.82,120.49Z" transform="translate(1080.31 -77.62)"/><path class="cls-6" d="M-485.23,132.1h-10.48a1,1,0,0,1-1-1,1,1,0,0,1,1-1h10.48a1,1,0,0,1,1,1A1,1,0,0,1-485.23,132.1Z" transform="translate(1080.31 -77.62)"/><path class="cls-6" d="M-490,148.78a1,1,0,0,1-.48-.13l-8.8-5.08a1,1,0,0,1-.35-1.32,1,1,0,0,1,1.32-.35l8.8,5.08a1,1,0,0,1,.35,1.32A1,1,0,0,1-490,148.78Z" transform="translate(1080.31 -77.62)"/><path class="cls-6" d="M-530.52,112a1,1,0,0,1-.84-.48l-5.08-8.79a1,1,0,0,1,.36-1.32,1,1,0,0,1,1.32.36l5.07,8.8a1,1,0,0,1-.35,1.32A1,1,0,0,1-530.52,112Z" transform="translate(1080.31 -77.62)"/><path class="cls-6" d="M-539,120.51a1,1,0,0,1-.48-.13l-8.8-5.08a1,1,0,0,1-.35-1.32,1,1,0,0,1,1.32-.35l8.8,5.08a1,1,0,0,1,.35,1.32A1,1,0,0,1-539,120.51Z" transform="translate(1080.31 -77.62)"/><path class="cls-6" d="M-542.12,132.11h-10.15a1,1,0,0,1-1-1,1,1,0,0,1,1-1h10.15a1,1,0,0,1,1,1A1,1,0,0,1-542.12,132.11Z" transform="translate(1080.31 -77.62)"/><path class="cls-6" d="M-547.8,148.79a1,1,0,0,1-.84-.48,1,1,0,0,1,.35-1.32l8.8-5.08a1,1,0,0,1,1.32.35,1,1,0,0,1-.35,1.32l-8.8,5.08A1,1,0,0,1-547.8,148.79Z" transform="translate(1080.31 -77.62)"/><path class="cls-6" d="M-510.33,155.92h-17.21a1.62,1.62,0,0,1-1.62-1.61,1.88,1.88,0,0,1,0-.21c.1-1.16,0-4.68-1.19-6.26-6.89-8.88-7.09-17.43-7.09-17.51a18.51,18.51,0,0,1,18.49-18.5,18.51,18.51,0,0,1,18.49,18.5c0,.08-.19,8.63-7.1,17.53-1.23,1.62-1.28,5.16-1.22,6.17a1.87,1.87,0,0,1,0,.28A1.61,1.61,0,0,1-510.33,155.92Zm-17.21-3.23a1.61,1.61,0,0,0-1.59,1.37A1.61,1.61,0,0,1-527.53,152.69Zm17.47,0a1.65,1.65,0,0,1,.62.25A1.63,1.63,0,0,0-510.06,152.71Zm-15.83,0H-512c0-.73.09-1.34.09-1.36a10.82,10.82,0,0,1,1.79-5.44c6.21-8,6.44-15.5,6.44-15.57a15.28,15.28,0,0,0-15.27-15.27,15.28,15.28,0,0,0-15.26,15.27c0,.07.23,7.58,6.42,15.55a10.75,10.75,0,0,1,1.78,5.46S-525.92,152-525.89,152.69Z" transform="translate(1080.31 -77.62)"/><path class="cls-6" d="M-510.88,159.37h-16.07a1.61,1.61,0,0,1-1.62-1.61,1.61,1.61,0,0,1,1.62-1.61h16.07a1.61,1.61,0,0,1,1.62,1.61A1.61,1.61,0,0,1-510.88,159.37Z" transform="translate(1080.31 -77.62)"/><path class="cls-6" d="M-512.07,162.82h-13.69a1.62,1.62,0,0,1-1.62-1.61,1.62,1.62,0,0,1,1.62-1.62h13.69a1.61,1.61,0,0,1,1.61,1.62A1.61,1.61,0,0,1-512.07,162.82Z" transform="translate(1080.31 -77.62)"/><path class="cls-6" d="M-514.08,166.18h-9.67a1.62,1.62,0,0,1-1.61-1.61,1.61,1.61,0,0,1,1.61-1.61h9.67a1.61,1.61,0,0,1,1.62,1.61A1.62,1.62,0,0,1-514.08,166.18Z" transform="translate(1080.31 -77.62)"/></g></g><g id="analysis"><circle class="cls-7" cx="864.74" cy="187.05" r="60.1"/><polygon class="cls-2" points="844.8 211.12 844.8 187.94 832.47 200.12 831.36 198.99 831.36 211.12 844.8 211.12"/><polygon class="cls-2" points="860.62 211.12 860.62 191.76 850.9 181.07 847.17 184.75 847.17 211.12 860.62 211.12"/><polygon class="cls-2" points="876.44 211.12 876.44 185.89 865 196.41 862.99 194.24 862.99 211.12 876.44 211.12"/><polygon class="cls-2" points="892.25 211.12 892.25 171.34 878.81 183.71 878.81 211.12 892.25 211.12"/><path class="cls-2" d="M-188.35,235.65l-26.43,24L-227.1,247a3,3,0,0,0-2.12-.9,3,3,0,0,0-2.12.89l-17.56,17.89v6.21l1.13,1.1,18.53-18.89,12.2,12.55a3,3,0,0,0,4.11.13l24.87-22.57V236Z" transform="translate(1080.31 -77.62)"/></g><g id="socially"><circle class="cls-8" cx="185.16" cy="77.72" r="51.08"/><path class="cls-2" d="M-905.7,159.16h0c-1.52-.63-5.11-1.88-7.32-2.54-.19-.06-.22-.07-.22-.86a4.55,4.55,0,0,1,.53-1.86,9.43,9.43,0,0,0,.74-2.53,5.65,5.65,0,0,0,1.09-2.63,3.47,3.47,0,0,0,0-2.21,1,1,0,0,1,0-.14,14.45,14.45,0,0,1,.24-3.11,5.68,5.68,0,0,0-1.2-4.1A6.12,6.12,0,0,0-916.6,137H-918a6.09,6.09,0,0,0-4.64,2.24,5.69,5.69,0,0,0-1.2,4.1,14.51,14.51,0,0,1,.25,3.1l-.05.14a3.47,3.47,0,0,0,0,2.21,5.69,5.69,0,0,0,1.09,2.63,9.59,9.59,0,0,0,.74,2.53,4.47,4.47,0,0,1,.3,1.89c0,.79,0,.8-.21.85-2.3.68-5.95,2-7.31,2.59l0,0V165h23.39Z" transform="translate(1080.31 -77.62)"/><path class="cls-2" d="M-861.2,159.16h0c-1.52-.63-5.11-1.88-7.32-2.54-.19-.06-.22-.07-.22-.86a4.54,4.54,0,0,1,.53-1.86,9.45,9.45,0,0,0,.74-2.53,5.66,5.66,0,0,0,1.09-2.63,3.47,3.47,0,0,0,0-2.21,1.21,1.21,0,0,1-.05-.14,14.53,14.53,0,0,1,.24-3.11,5.68,5.68,0,0,0-1.19-4.1,6.12,6.12,0,0,0-4.68-2.24h-1.4a6.09,6.09,0,0,0-4.64,2.24,5.69,5.69,0,0,0-1.2,4.1,14.68,14.68,0,0,1,.25,3.1l-.05.14a3.45,3.45,0,0,0,0,2.21,5.66,5.66,0,0,0,1.09,2.63,9.56,9.56,0,0,0,.74,2.53,4.47,4.47,0,0,1,.3,1.89c0,.79,0,.8-.21.85-2.3.68-6,2-7.31,2.59l0,0V165h23.39Z" transform="translate(1080.31 -77.62)"/><path class="cls-2" d="M-878.91,167.22h0c-2.13-.89-7.18-2.64-10.3-3.56-.27-.09-.31-.1-.31-1.21a6.39,6.39,0,0,1,.74-2.62,13.25,13.25,0,0,0,1-3.55,8,8,0,0,0,1.53-3.7,4.87,4.87,0,0,0,0-3.11,1.55,1.55,0,0,1-.07-.2,20.25,20.25,0,0,1,.34-4.36,8,8,0,0,0-1.68-5.77,8.62,8.62,0,0,0-6.58-3.15h-2a8.57,8.57,0,0,0-6.52,3.15,8,8,0,0,0-1.68,5.77,20.46,20.46,0,0,1,.35,4.36c0,.07,0,.14-.07.2a4.87,4.87,0,0,0,0,3.11,8,8,0,0,0,1.53,3.7,13.37,13.37,0,0,0,1,3.55,6.29,6.29,0,0,1,.43,2.66c0,1.11,0,1.12-.29,1.2-3.23,1-8.36,2.81-10.28,3.65l0-.05v8.1h32.88Z" transform="translate(1080.31 -77.62)"/></g></svg>