<svg id="Web_and_Development" data-name="Web and Development" xmlns="http://www.w3.org/2000/svg" viewBox="0 0 2310.24 1859.23"><defs><style>.cls-1,.cls-2,.cls-41,.cls-43,.cls-45,.cls-46,.cls-48,.cls-49{fill:none;}.cls-1,.cls-2{stroke:#ddf1f0;}.cls-1,.cls-2,.cls-41,.cls-42,.cls-43,.cls-45,.cls-46,.cls-47,.cls-48,.cls-49{stroke-linejoin:round;}.cls-1{stroke-width:24.65px;stroke-dasharray:5.21 16.08;}.cls-2{stroke-width:22.44px;stroke-dasharray:4.74 14.63;}.cls-3,.cls-35,.cls-37,.cls-39{fill:#fff;}.cls-4{fill:#eaeaea;}.cls-5,.cls-6{fill:#4b4c4b;}.cls-31,.cls-35,.cls-5{opacity:0.5;}.cls-34,.cls-7{opacity:0.1;}.cls-8{fill:#ddd;}.cls-9{fill:#e74c3c;}.cls-10{fill:#ff614f;}.cls-11{fill:#0e78c1;}.cls-12,.cls-15{fill:#f1c40f;}.cls-13{fill:#e2e1e0;}.cls-14{fill:#ededed;}.cls-15{opacity:0.7;}.cls-16{opacity:0.06;}.cls-17{opacity:0.3;}.cls-18{fill:#333;}.cls-18,.cls-19,.cls-24,.cls-25,.cls-26{fill-rule:evenodd;}.cls-19{fill:#ffdc4a;}.cls-20{fill:#ff63a4;}.cls-21{fill:#00aecb;}.cls-22{fill:#00f345;}.cls-23{fill:#ffac13;}.cls-24{fill:#f9b710;}.cls-25,.cls-39{opacity:0.2;}.cls-26{fill:#ef6f00;}.cls-27{fill:#008ccf;}.cls-28{fill:#f2f2f2;}.cls-29{fill:#033d6d;}.cls-30{fill:#1e1e1e;}.cls-31,.cls-34{fill:#231f20;}.cls-32{fill:#f68817;}.cls-33{fill:#f99841;}.cls-36{fill:#0c4670;}.cls-37{opacity:0.6;}.cls-38{fill:#ed3393;}.cls-40{fill:#ffcb31;}.cls-41{stroke:#231f20;stroke-width:14.93px;}.cls-42{fill:#f1f2f2;stroke-width:21.74px;}.cls-42,.cls-47,.cls-48{stroke:#008ccf;}.cls-43,.cls-49{stroke:#fff;}.cls-43{stroke-width:17.59px;}.cls-44{fill:#e6e7e8;}.cls-45,.cls-46{stroke:#ffcb31;}.cls-45,.cls-46,.cls-47,.cls-48,.cls-49{stroke-width:14.4px;}.cls-46{stroke-dasharray:25.54 25.54;}.cls-47{fill:#bcbec0;}</style></defs><title>services-uxui-3</title><path id="Background_2" data-name="Background 2" class="cls-1" d="M5590.06,5208.76c0,506.61-410.68,917.29-917.29,917.29s-917.29-410.68-917.29-917.29,410.68-917.29,917.29-917.29" transform="translate(-3511.12 -4279.14)"/><path id="Background_2-2" data-name="Background 2" class="cls-2" d="M3837.88,5208.76c0-461.09,373.79-834.88,834.88-834.88s834.88,373.79,834.88,834.88-373.79,834.88-834.88,834.88" transform="translate(-3511.12 -4279.14)"/><circle id="Background_2-3" data-name="Background 2" class="cls-3" cx="1161.65" cy="929.62" r="786.35"/><g id="Mouse"><ellipse class="cls-4" cx="1819.04" cy="1161.71" rx="98.99" ry="144.42"/><ellipse class="cls-3" cx="1819.04" cy="1161.71" rx="93.7" ry="136.71"/><path class="cls-5" d="M5340.75,5389.73a12.21,12.21,0,0,1-12.21,12.21h0a12.21,12.21,0,0,1-12.2-12.21v-33.07a12.21,12.21,0,0,1,12.2-12.21h0a12.21,12.21,0,0,1,12.21,12.21Z" transform="translate(-3511.12 -4279.14)"/><path class="cls-6" d="M5339.41,5387.93a10.87,10.87,0,0,1-10.87,10.87h0a10.87,10.87,0,0,1-10.87-10.87v-29.45a10.86,10.86,0,0,1,10.87-10.87h0a10.86,10.86,0,0,1,10.87,10.87Z" transform="translate(-3511.12 -4279.14)"/><path class="cls-7" d="M5429.15,5440.86c0-79.77-44.32-144.42-99-144.42v288.84C5384.83,5585.27,5429.15,5520.61,5429.15,5440.86Z" transform="translate(-3511.12 -4279.14)"/></g><g id="Web"><path class="cls-8" d="M5189.42,5119.55a20.26,20.26,0,0,1-20.25,20.26h-487.8a20.26,20.26,0,0,1-20.25-20.26V4760a20.26,20.26,0,0,1,20.25-20.26h487.8a20.26,20.26,0,0,1,20.25,20.26Z" transform="translate(-3511.12 -4279.14)"/><path class="cls-9" d="M5169.17,4739.77h-487.8a20.26,20.26,0,0,0-20.25,20.26v78.49h528.3V4760A20.26,20.26,0,0,0,5169.17,4739.77Z" transform="translate(-3511.12 -4279.14)"/><circle class="cls-10" cx="1584.35" cy="478.64" r="10.13"/><circle class="cls-11" cx="1617.82" cy="478.64" r="10.13"/><circle class="cls-12" cx="1652.71" cy="478.64" r="10.13"/><path class="cls-13" d="M5057.77,4773.47a15.68,15.68,0,0,1-15.68,15.68H4733.35a15.68,15.68,0,0,1-15.68-15.68h0a15.68,15.68,0,0,1,15.68-15.68h308.74a15.68,15.68,0,0,1,15.68,15.68Z" transform="translate(-3511.12 -4279.14)"/><rect class="cls-14" x="1176.16" y="577.94" width="315.07" height="159.79"/><rect class="cls-15" x="1176.16" y="766.99" width="476.55" height="29.25"/><rect class="cls-15" x="1175.87" y="809.74" width="476.55" height="29.26"/><path class="cls-16" d="M5169.17,4739.77H4925.56v400h243.62a20.26,20.26,0,0,0,20.25-20.26V4760A20.26,20.26,0,0,0,5169.17,4739.77Z" transform="translate(-3511.12 -4279.14)"/></g><g id="Keyboard"><rect class="cls-8" x="661.02" y="967.17" width="911.8" height="343.13"/><g id="Keyboard-2" data-name="Keyboard" class="cls-17"><path class="cls-18" d="M4221.73,5288.65h40.46c2.4,0,4.28,2.55,4.28,5.62v43.58c0,3.09-1.89,5.64-4.28,5.64h-40.46c-2.41,0-4.38-2.55-4.38-5.64v-43.58c0-3.07,2-5.62,4.38-5.62Z" transform="translate(-3511.12 -4279.14)"/><path class="cls-18" d="M4287.38,5288.65h40.46c2.4,0,4.37,2.55,4.37,5.62v43.58c0,3.09-2,5.64-4.37,5.64h-40.46c-2.39,0-4.38-2.55-4.38-5.64v-43.58c0-3.07,2-5.62,4.38-5.62Z" transform="translate(-3511.12 -4279.14)"/><path class="cls-18" d="M4353.12,5288.65h40.37c2.4,0,4.38,2.55,4.38,5.62v43.58c0,3.09-2,5.64-4.38,5.64h-40.37c-2.4,0-4.4-2.55-4.4-5.64v-43.58c0-3.07,2-5.62,4.4-5.62Z" transform="translate(-3511.12 -4279.14)"/><path class="cls-18" d="M4418.75,5288.65h40.39c2.47,0,4.37,2.55,4.37,5.62v43.58c0,3.09-1.9,5.64-4.37,5.64h-40.39c-2.4,0-4.37-2.55-4.37-5.64v-43.58c0-3.07,2-5.62,4.37-5.62Z" transform="translate(-3511.12 -4279.14)"/><path class="cls-18" d="M4484.41,5288.65h40.46c2.39,0,4.37,2.55,4.37,5.62v43.58c0,3.09-2,5.64-4.37,5.64h-40.46c-2.4,0-4.38-2.55-4.38-5.64v-43.58c0-3.07,2-5.62,4.38-5.62Z" transform="translate(-3511.12 -4279.14)"/><path class="cls-18" d="M4550.14,5288.65h40.38c2.4,0,4.37,2.55,4.37,5.62v43.58c0,3.09-2,5.64-4.37,5.64h-40.38c-2.4,0-4.38-2.55-4.38-5.64v-43.58c0-3.07,2-5.62,4.38-5.62Z" transform="translate(-3511.12 -4279.14)"/><path class="cls-18" d="M4615.79,5288.65h40.37c2.48,0,4.39,2.55,4.39,5.62v43.58c0,3.09-1.9,5.64-4.39,5.64h-40.37c-2.4,0-4.37-2.55-4.37-5.64v-43.58c0-3.07,2-5.62,4.37-5.62Z" transform="translate(-3511.12 -4279.14)"/><path class="cls-18" d="M4681.42,5288.65h40.49c2.38,0,4.37,2.55,4.37,5.62v43.58c0,3.09-2,5.64-4.37,5.64h-40.49c-2.38,0-4.36-2.55-4.36-5.64v-43.58c0-3.07,2-5.62,4.36-5.62Z" transform="translate(-3511.12 -4279.14)"/><path class="cls-18" d="M4747.17,5288.65h40.37c2.41,0,4.39,2.55,4.39,5.62v43.58c0,3.09-2,5.64-4.39,5.64h-40.37c-2.48,0-4.37-2.55-4.37-5.64v-43.58c0-3.07,1.89-5.62,4.37-5.62Z" transform="translate(-3511.12 -4279.14)"/><path class="cls-18" d="M4812.82,5288.65h40.38c2.48,0,4.38,2.55,4.38,5.62v43.58c0,3.09-1.9,5.64-4.38,5.64h-40.38c-2.4,0-4.38-2.55-4.38-5.64v-43.58c0-3.07,2-5.62,4.38-5.62Z" transform="translate(-3511.12 -4279.14)"/><path class="cls-18" d="M4878.47,5288.65h40.47c2.39,0,4.36,2.55,4.36,5.62v43.58c0,3.09-2,5.64-4.36,5.64h-40.47c-2.39,0-4.37-2.55-4.37-5.64v-43.58c0-3.07,2-5.62,4.37-5.62Z" transform="translate(-3511.12 -4279.14)"/><path class="cls-18" d="M4320.32,5364.76h40.39c2.4,0,4.37,2.54,4.37,5.62V5414c0,3.09-2,5.63-4.37,5.63h-40.39c-2.39,0-4.37-2.54-4.37-5.63v-43.58c0-3.08,2-5.62,4.37-5.62Z" transform="translate(-3511.12 -4279.14)"/><path class="cls-18" d="M4386,5364.76h40.47c2.4,0,4.38,2.54,4.38,5.62V5414c0,3.09-2,5.63-4.38,5.63H4386c-2.4,0-4.37-2.54-4.37-5.63v-43.58c0-3.08,2-5.62,4.37-5.62Z" transform="translate(-3511.12 -4279.14)"/><path class="cls-18" d="M4451.63,5364.76h40.46c2.39,0,4.37,2.54,4.37,5.62V5414c0,3.09-2,5.63-4.37,5.63h-40.46c-2.4,0-4.3-2.54-4.3-5.63v-43.58c0-3.08,1.9-5.62,4.3-5.62Z" transform="translate(-3511.12 -4279.14)"/><path class="cls-18" d="M4517.35,5364.76h40.38c2.4,0,4.38,2.54,4.38,5.62V5414c0,3.09-2,5.63-4.38,5.63h-40.38c-2.39,0-4.37-2.54-4.37-5.63v-43.58c0-3.08,2-5.62,4.37-5.62Z" transform="translate(-3511.12 -4279.14)"/><path class="cls-18" d="M4583,5364.76h40.47c2.4,0,4.3,2.54,4.3,5.62V5414c0,3.09-1.9,5.63-4.3,5.63H4583c-2.39,0-4.36-2.54-4.36-5.63v-43.58c0-3.08,2-5.62,4.36-5.62Z" transform="translate(-3511.12 -4279.14)"/><path class="cls-18" d="M4648.66,5364.76h40.46c2.4,0,4.38,2.54,4.38,5.62V5414c0,3.09-2,5.63-4.38,5.63h-40.46c-2.4,0-4.38-2.54-4.38-5.63v-43.58c0-3.08,2-5.62,4.38-5.62Z" transform="translate(-3511.12 -4279.14)"/><path class="cls-18" d="M4714.38,5364.76h40.39c2.4,0,4.37,2.54,4.37,5.62V5414c0,3.09-2,5.63-4.37,5.63h-40.39c-2.39,0-4.37-2.54-4.37-5.63v-43.58c0-3.08,2-5.62,4.37-5.62Z" transform="translate(-3511.12 -4279.14)"/><path class="cls-18" d="M4780,5364.76h40.47c2.39,0,4.3,2.54,4.3,5.62V5414c0,3.09-1.9,5.63-4.3,5.63H4780c-2.39,0-4.37-2.54-4.37-5.63v-43.58c0-3.08,2-5.62,4.37-5.62Z" transform="translate(-3511.12 -4279.14)"/><path class="cls-18" d="M4845.68,5364.76h40.47c2.4,0,4.37,2.54,4.37,5.62V5414c0,3.09-2,5.63-4.37,5.63h-40.47c-2.39,0-4.38-2.54-4.38-5.63v-43.58c0-3.08,2-5.62,4.38-5.62Z" transform="translate(-3511.12 -4279.14)"/><path class="cls-18" d="M4911.4,5364.76h40.4c2.39,0,4.37,2.54,4.37,5.62V5414c0,3.09-2,5.63-4.37,5.63h-40.4c-2.38,0-4.37-2.54-4.37-5.63v-43.58c0-3.08,2-5.62,4.37-5.62Z" transform="translate(-3511.12 -4279.14)"/><path class="cls-18" d="M4944.2,5288.65h40.37c2.39,0,4.38,2.55,4.38,5.62v43.58c0,3.09-2,5.64-4.38,5.64H4944.2c-2.47,0-4.39-2.55-4.39-5.64v-43.58c0-3.07,1.92-5.62,4.39-5.62Z" transform="translate(-3511.12 -4279.14)"/><path class="cls-18" d="M5009.85,5288.65h40.39c2.39,0,4.37,2.55,4.37,5.62v43.58c0,3.09-2,5.64-4.37,5.64h-40.39c-2.39,0-4.37-2.55-4.37-5.64v-43.58c0-3.07,2-5.62,4.37-5.62Z" transform="translate(-3511.12 -4279.14)"/><path class="cls-18" d="M4978.14,5364.76h72.09c2.39,0,4.37,2.54,4.37,5.62V5414c0,3.09-2,5.63-4.37,5.63h-72.09c-2.39,0-4.39-2.54-4.39-5.63v-43.58c0-3.08,2-5.62,4.39-5.62Z" transform="translate(-3511.12 -4279.14)"/><path class="cls-18" d="M4222.39,5364.76h74.82c2.39,0,4.37,2.54,4.37,5.62V5414c0,3.09-2,5.63-4.37,5.63h-74.82c-2.48,0-4.37-2.54-4.37-5.63v-43.58c0-3.08,1.89-5.62,4.37-5.62Z" transform="translate(-3511.12 -4279.14)"/><path class="cls-18" d="M4222.39,5440.85h89.36c2.39,0,4.37,2.56,4.37,5.63v43.58c0,3.09-2,5.63-4.37,5.63h-89.36c-2.48,0-4.37-2.54-4.37-5.63v-43.58c0-3.07,1.89-5.63,4.37-5.63Z" transform="translate(-3511.12 -4279.14)"/><path class="cls-18" d="M4222.39,5517h40.3c2.39,0,4.37,2.56,4.37,5.63v43.58c0,3.09-2,5.63-4.37,5.63h-40.3c-2.48,0-4.37-2.54-4.37-5.63v-43.58c0-3.07,1.89-5.63,4.37-5.63Z" transform="translate(-3511.12 -4279.14)"/><path class="cls-18" d="M4288,5517h40.29c2.39,0,4.38,2.56,4.38,5.63v43.58c0,3.09-2,5.63-4.38,5.63H4288c-2.39,0-4.38-2.54-4.38-5.63v-43.58c0-3.07,2-5.63,4.38-5.63Z" transform="translate(-3511.12 -4279.14)"/><path class="cls-18" d="M4353.51,5517h40.31c2.48,0,4.38,2.56,4.38,5.63v43.58c0,3.09-1.9,5.63-4.38,5.63h-40.31c-2.39,0-4.36-2.54-4.36-5.63v-43.58c0-3.07,2-5.63,4.36-5.63Z" transform="translate(-3511.12 -4279.14)"/><path class="cls-18" d="M4419.09,5517H4839c2.47,0,4.39,2.56,4.39,5.63v43.58c0,3.09-1.92,5.63-4.39,5.63h-419.9c-2.39,0-4.38-2.54-4.38-5.63v-43.58c0-3.07,2-5.63,4.38-5.63Z" transform="translate(-3511.12 -4279.14)"/><path class="cls-18" d="M4336,5441.6h40.38c2.41,0,4.38,2.55,4.38,5.64v43.58c0,3.08-2,5.63-4.38,5.63H4336c-2.4,0-4.38-2.55-4.38-5.63v-43.58c0-3.09,2-5.64,4.38-5.64Z" transform="translate(-3511.12 -4279.14)"/><path class="cls-18" d="M4401.65,5441.6h40.48c2.39,0,4.37,2.55,4.37,5.64v43.58c0,3.08-2,5.63-4.37,5.63h-40.48c-2.39,0-4.37-2.55-4.37-5.63v-43.58c0-3.09,2-5.64,4.37-5.64Z" transform="translate(-3511.12 -4279.14)"/><path class="cls-18" d="M4467.31,5441.6h40.47c2.38,0,4.37,2.55,4.37,5.64v43.58c0,3.08-2,5.63-4.37,5.63h-40.47c-2.4,0-4.3-2.55-4.3-5.63v-43.58c0-3.09,1.9-5.64,4.3-5.64Z" transform="translate(-3511.12 -4279.14)"/><path class="cls-18" d="M4533,5441.6h40.39c2.39,0,4.37,2.55,4.37,5.64v43.58c0,3.08-2,5.63-4.37,5.63H4533c-2.4,0-4.37-2.55-4.37-5.63v-43.58c0-3.09,2-5.64,4.37-5.64Z" transform="translate(-3511.12 -4279.14)"/><path class="cls-18" d="M4598.69,5441.6h40.47c2.39,0,4.29,2.55,4.29,5.64v43.58c0,3.08-1.9,5.63-4.29,5.63h-40.47c-2.39,0-4.37-2.55-4.37-5.63v-43.58c0-3.09,2-5.64,4.37-5.64Z" transform="translate(-3511.12 -4279.14)"/><path class="cls-18" d="M4664.34,5441.6h40.46c2.39,0,4.39,2.55,4.39,5.64v43.58c0,3.08-2,5.63-4.39,5.63h-40.46c-2.4,0-4.37-2.55-4.37-5.63v-43.58c0-3.09,2-5.64,4.37-5.64Z" transform="translate(-3511.12 -4279.14)"/><path class="cls-18" d="M4730.07,5441.6h40.38c2.39,0,4.38,2.55,4.38,5.64v43.58c0,3.08-2,5.63-4.38,5.63h-40.38c-2.41,0-4.38-2.55-4.38-5.63v-43.58c0-3.09,2-5.64,4.38-5.64Z" transform="translate(-3511.12 -4279.14)"/><path class="cls-18" d="M4795.72,5441.6h40.46c2.39,0,4.31,2.55,4.31,5.64v43.58c0,3.08-1.91,5.63-4.31,5.63h-40.46c-2.4,0-4.37-2.55-4.37-5.63v-43.58c0-3.09,2-5.64,4.37-5.64Z" transform="translate(-3511.12 -4279.14)"/><path class="cls-18" d="M4861.36,5441.6h75.23c2.4,0,4.39,2.55,4.39,5.64v43.58c0,3.08-2,5.63-4.39,5.63h-75.23c-2.4,0-4.36-2.55-4.36-5.63v-43.58c0-3.09,2-5.64,4.36-5.64Z" transform="translate(-3511.12 -4279.14)"/><path class="cls-18" d="M4960.37,5440.85h89.44c2.39,0,4.37,2.56,4.37,5.63v43.58c0,3.09-2,5.63-4.37,5.63h-89.44c-2.4,0-4.36-2.54-4.36-5.63v-43.58c0-3.07,2-5.63,4.36-5.63Z" transform="translate(-3511.12 -4279.14)"/><path class="cls-18" d="M4968.39,5517h33.69a1.79,1.79,0,0,1,1.58,1.9V5534a1.8,1.8,0,0,1-1.58,1.91h-33.69a1.74,1.74,0,0,1-1.47-1.91v-15.11a1.73,1.73,0,0,1,1.47-1.9Z" transform="translate(-3511.12 -4279.14)"/><path class="cls-18" d="M4968.39,5549.8h33.69a1.79,1.79,0,0,1,1.58,1.92v15a1.79,1.79,0,0,1-1.58,1.91h-33.69a1.74,1.74,0,0,1-1.47-1.91v-15a1.74,1.74,0,0,1,1.47-1.92Z" transform="translate(-3511.12 -4279.14)"/><path class="cls-18" d="M4918.44,5549.8h33.69a1.79,1.79,0,0,1,1.56,1.92v15a1.79,1.79,0,0,1-1.56,1.91h-33.69a1.74,1.74,0,0,1-1.49-1.91v-15a1.73,1.73,0,0,1,1.49-1.92Z" transform="translate(-3511.12 -4279.14)"/><path class="cls-18" d="M5018.28,5549.8H5052a1.74,1.74,0,0,1,1.47,1.92v15a1.74,1.74,0,0,1-1.47,1.91h-33.69a1.8,1.8,0,0,1-1.59-1.91v-15a1.8,1.8,0,0,1,1.59-1.92Z" transform="translate(-3511.12 -4279.14)"/><path class="cls-18" d="M4859.79,5517h40.47c2.4,0,4.39,2.56,4.39,5.63v43.58c0,3.09-2,5.63-4.39,5.63h-40.47c-2.39,0-4.37-2.54-4.37-5.63v-43.58c0-3.07,2-5.63,4.37-5.63Z" transform="translate(-3511.12 -4279.14)"/></g><g id="Keyboard-3" data-name="Keyboard"><path class="cls-18" d="M4217.09,5282.57h40.47c2.4,0,4.29,2.55,4.29,5.62v43.58c0,3.09-1.89,5.64-4.29,5.64h-40.47c-2.4,0-4.37-2.55-4.37-5.64v-43.58c0-3.07,2-5.62,4.37-5.62Z" transform="translate(-3511.12 -4279.14)"/><path class="cls-18" d="M4282.74,5282.57h40.46c2.4,0,4.37,2.55,4.37,5.62v43.58c0,3.09-2,5.64-4.37,5.64h-40.46c-2.39,0-4.38-2.55-4.38-5.64v-43.58c0-3.07,2-5.62,4.38-5.62Z" transform="translate(-3511.12 -4279.14)"/><path class="cls-18" d="M4348.48,5282.57h40.37c2.39,0,4.37,2.55,4.37,5.62v43.58c0,3.09-2,5.64-4.37,5.64h-40.37c-2.4,0-4.39-2.55-4.39-5.64v-43.58c0-3.07,2-5.62,4.39-5.62Z" transform="translate(-3511.12 -4279.14)"/><path class="cls-18" d="M4414.12,5282.57h40.39c2.47,0,4.36,2.55,4.36,5.62v43.58c0,3.09-1.89,5.64-4.36,5.64h-40.39c-2.4,0-4.37-2.55-4.37-5.64v-43.58c0-3.07,2-5.62,4.37-5.62Z" transform="translate(-3511.12 -4279.14)"/><path class="cls-18" d="M4479.78,5282.57h40.45c2.4,0,4.37,2.55,4.37,5.62v43.58c0,3.09-2,5.64-4.37,5.64h-40.45c-2.4,0-4.38-2.55-4.38-5.64v-43.58c0-3.07,2-5.62,4.38-5.62Z" transform="translate(-3511.12 -4279.14)"/><path class="cls-18" d="M4545.5,5282.57h40.39c2.4,0,4.37,2.55,4.37,5.62v43.58c0,3.09-2,5.64-4.37,5.64H4545.5c-2.4,0-4.38-2.55-4.38-5.64v-43.58c0-3.07,2-5.62,4.38-5.62Z" transform="translate(-3511.12 -4279.14)"/><path class="cls-18" d="M4611.15,5282.57h40.39c2.48,0,4.37,2.55,4.37,5.62v43.58c0,3.09-1.9,5.64-4.37,5.64h-40.39c-2.4,0-4.37-2.55-4.37-5.64v-43.58c0-3.07,2-5.62,4.37-5.62Z" transform="translate(-3511.12 -4279.14)"/><path class="cls-18" d="M4676.79,5282.57h40.48c2.4,0,4.37,2.55,4.37,5.62v43.58c0,3.09-2,5.64-4.37,5.64h-40.48c-2.4,0-4.36-2.55-4.36-5.64v-43.58c0-3.07,2-5.62,4.36-5.62Z" transform="translate(-3511.12 -4279.14)"/><path class="cls-18" d="M4742.54,5282.57h40.37c2.4,0,4.37,2.55,4.37,5.62v43.58c0,3.09-2,5.64-4.37,5.64h-40.37c-2.49,0-4.39-2.55-4.39-5.64v-43.58c0-3.07,1.9-5.62,4.39-5.62Z" transform="translate(-3511.12 -4279.14)"/><path class="cls-18" d="M4808.18,5282.57h40.38c2.48,0,4.38,2.55,4.38,5.62v43.58c0,3.09-1.9,5.64-4.38,5.64h-40.38c-2.39,0-4.38-2.55-4.38-5.64v-43.58c0-3.07,2-5.62,4.38-5.62Z" transform="translate(-3511.12 -4279.14)"/><path class="cls-18" d="M4873.83,5282.57h40.48c2.4,0,4.36,2.55,4.36,5.62v43.58c0,3.09-2,5.64-4.36,5.64h-40.48c-2.38,0-4.37-2.55-4.37-5.64v-43.58c0-3.07,2-5.62,4.37-5.62Z" transform="translate(-3511.12 -4279.14)"/><path class="cls-18" d="M4315.68,5358.67h40.39c2.39,0,4.37,2.54,4.37,5.63v43.57c0,3.09-2,5.63-4.37,5.63h-40.39c-2.39,0-4.37-2.54-4.37-5.63V5364.3c0-3.09,2-5.63,4.37-5.63Z" transform="translate(-3511.12 -4279.14)"/><path class="cls-18" d="M4381.33,5358.67h40.48c2.4,0,4.38,2.54,4.38,5.63v43.57c0,3.09-2,5.63-4.38,5.63h-40.48c-2.38,0-4.37-2.54-4.37-5.63V5364.3c0-3.09,2-5.63,4.37-5.63Z" transform="translate(-3511.12 -4279.14)"/><path class="cls-18" d="M4447,5358.67h40.45c2.4,0,4.39,2.54,4.39,5.63v43.57c0,3.09-2,5.63-4.39,5.63H4447c-2.41,0-4.31-2.54-4.31-5.63V5364.3c0-3.09,1.9-5.63,4.31-5.63Z" transform="translate(-3511.12 -4279.14)"/><path class="cls-18" d="M4512.72,5358.67h40.38c2.4,0,4.38,2.54,4.38,5.63v43.57c0,3.09-2,5.63-4.38,5.63h-40.38c-2.39,0-4.37-2.54-4.37-5.63V5364.3c0-3.09,2-5.63,4.37-5.63Z" transform="translate(-3511.12 -4279.14)"/><path class="cls-18" d="M4578.36,5358.67h40.48c2.39,0,4.28,2.54,4.28,5.63v43.57c0,3.09-1.9,5.63-4.28,5.63h-40.48c-2.39,0-4.36-2.54-4.36-5.63V5364.3c0-3.09,2-5.63,4.36-5.63Z" transform="translate(-3511.12 -4279.14)"/><path class="cls-18" d="M4644,5358.67h40.46c2.4,0,4.38,2.54,4.38,5.63v43.57c0,3.09-2,5.63-4.38,5.63H4644c-2.4,0-4.38-2.54-4.38-5.63V5364.3c0-3.09,2-5.63,4.38-5.63Z" transform="translate(-3511.12 -4279.14)"/><path class="cls-18" d="M4709.75,5358.67h40.38c2.4,0,4.37,2.54,4.37,5.63v43.57c0,3.09-2,5.63-4.37,5.63h-40.38c-2.4,0-4.37-2.54-4.37-5.63V5364.3c0-3.09,2-5.63,4.37-5.63Z" transform="translate(-3511.12 -4279.14)"/><path class="cls-18" d="M4775.4,5358.67h40.46c2.4,0,4.3,2.54,4.3,5.63v43.57c0,3.09-1.9,5.63-4.3,5.63H4775.4c-2.4,0-4.37-2.54-4.37-5.63V5364.3c0-3.09,2-5.63,4.37-5.63Z" transform="translate(-3511.12 -4279.14)"/><path class="cls-18" d="M4841,5358.67h40.48c2.38,0,4.37,2.54,4.37,5.63v43.57c0,3.09-2,5.63-4.37,5.63H4841c-2.39,0-4.38-2.54-4.38-5.63V5364.3c0-3.09,2-5.63,4.38-5.63Z" transform="translate(-3511.12 -4279.14)"/><path class="cls-18" d="M4906.78,5358.67h40.39c2.39,0,4.37,2.54,4.37,5.63v43.57c0,3.09-2,5.63-4.37,5.63h-40.39c-2.4,0-4.37-2.54-4.37-5.63V5364.3c0-3.09,2-5.63,4.37-5.63Z" transform="translate(-3511.12 -4279.14)"/><path class="cls-18" d="M4939.57,5282.57h40.37c2.39,0,4.38,2.55,4.38,5.62v43.58c0,3.09-2,5.64-4.38,5.64h-40.37c-2.47,0-4.39-2.55-4.39-5.64v-43.58c0-3.07,1.92-5.62,4.39-5.62Z" transform="translate(-3511.12 -4279.14)"/><path class="cls-18" d="M5005.21,5282.57h40.39c2.4,0,4.37,2.55,4.37,5.62v43.58c0,3.09-2,5.64-4.37,5.64h-40.39c-2.39,0-4.37-2.55-4.37-5.64v-43.58c0-3.07,2-5.62,4.37-5.62Z" transform="translate(-3511.12 -4279.14)"/><path class="cls-18" d="M4973.51,5358.67h72.08c2.4,0,4.37,2.54,4.37,5.63v43.57c0,3.09-2,5.63-4.37,5.63h-72.08c-2.39,0-4.39-2.54-4.39-5.63V5364.3c0-3.09,2-5.63,4.39-5.63Z" transform="translate(-3511.12 -4279.14)"/><path class="cls-18" d="M4217.74,5358.67h74.82c2.4,0,4.37,2.54,4.37,5.63v43.57c0,3.09-2,5.63-4.37,5.63h-74.82c-2.48,0-4.37-2.54-4.37-5.63V5364.3c0-3.09,1.89-5.63,4.37-5.63Z" transform="translate(-3511.12 -4279.14)"/><path class="cls-18" d="M4217.74,5434.77h89.36c2.39,0,4.39,2.56,4.39,5.64V5484c0,3.09-2,5.64-4.39,5.64h-89.36c-2.48,0-4.37-2.55-4.37-5.64v-43.58c0-3.08,1.89-5.64,4.37-5.64Z" transform="translate(-3511.12 -4279.14)"/><path class="cls-18" d="M4217.74,5510.88h40.31c2.39,0,4.37,2.55,4.37,5.63v43.58c0,3.09-2,5.64-4.37,5.64h-40.31c-2.48,0-4.37-2.54-4.37-5.64v-43.58c0-3.08,1.89-5.63,4.37-5.63Z" transform="translate(-3511.12 -4279.14)"/><path class="cls-18" d="M4283.32,5510.88h40.29c2.39,0,4.37,2.55,4.37,5.63v43.58c0,3.09-2,5.64-4.37,5.64h-40.29c-2.39,0-4.38-2.54-4.38-5.64v-43.58c0-3.08,2-5.63,4.38-5.63Z" transform="translate(-3511.12 -4279.14)"/><path class="cls-18" d="M4348.88,5510.88h40.3c2.48,0,4.38,2.55,4.38,5.63v43.58c0,3.09-1.9,5.64-4.38,5.64h-40.3c-2.4,0-4.37-2.54-4.37-5.64v-43.58c0-3.08,2-5.63,4.37-5.63Z" transform="translate(-3511.12 -4279.14)"/><path class="cls-18" d="M4414.45,5510.88h419.9c2.47,0,4.39,2.55,4.39,5.63v43.58c0,3.09-1.92,5.64-4.39,5.64h-419.9c-2.39,0-4.37-2.54-4.37-5.64v-43.58c0-3.08,2-5.63,4.37-5.63Z" transform="translate(-3511.12 -4279.14)"/><path class="cls-18" d="M4331.38,5435.51h40.39c2.4,0,4.37,2.55,4.37,5.65v43.58c0,3.08-2,5.64-4.37,5.64h-40.39c-2.4,0-4.38-2.56-4.38-5.64v-43.58c0-3.09,2-5.65,4.38-5.65Z" transform="translate(-3511.12 -4279.14)"/><path class="cls-18" d="M4397,5435.51h40.48c2.39,0,4.37,2.55,4.37,5.65v43.58c0,3.08-2,5.64-4.37,5.64H4397c-2.38,0-4.37-2.56-4.37-5.64v-43.58c0-3.09,2-5.65,4.37-5.65Z" transform="translate(-3511.12 -4279.14)"/><path class="cls-18" d="M4462.68,5435.51h40.46c2.39,0,4.39,2.55,4.39,5.65v43.58c0,3.08-2,5.64-4.39,5.64h-40.46c-2.4,0-4.3-2.56-4.3-5.64v-43.58c0-3.09,1.9-5.65,4.3-5.65Z" transform="translate(-3511.12 -4279.14)"/><path class="cls-18" d="M4528.41,5435.51h40.38c2.4,0,4.38,2.55,4.38,5.65v43.58c0,3.08-2,5.64-4.38,5.64h-40.38c-2.4,0-4.39-2.56-4.39-5.64v-43.58c0-3.09,2-5.65,4.39-5.65Z" transform="translate(-3511.12 -4279.14)"/><path class="cls-18" d="M4594.06,5435.51h40.48c2.38,0,4.28,2.55,4.28,5.65v43.58c0,3.08-1.9,5.64-4.28,5.64h-40.48c-2.39,0-4.37-2.56-4.37-5.64v-43.58c0-3.09,2-5.65,4.37-5.65Z" transform="translate(-3511.12 -4279.14)"/><path class="cls-18" d="M4659.7,5435.51h40.46c2.4,0,4.39,2.55,4.39,5.65v43.58c0,3.08-2,5.64-4.39,5.64H4659.7c-2.39,0-4.37-2.56-4.37-5.64v-43.58c0-3.09,2-5.65,4.37-5.65Z" transform="translate(-3511.12 -4279.14)"/><path class="cls-18" d="M4725.44,5435.51h40.38c2.4,0,4.39,2.55,4.39,5.65v43.58c0,3.08-2,5.64-4.39,5.64h-40.38c-2.4,0-4.38-2.56-4.38-5.64v-43.58c0-3.09,2-5.65,4.38-5.65Z" transform="translate(-3511.12 -4279.14)"/><path class="cls-18" d="M4791.08,5435.51h40.48c2.39,0,4.3,2.55,4.3,5.65v43.58c0,3.08-1.91,5.64-4.3,5.64h-40.48c-2.39,0-4.36-2.56-4.36-5.64v-43.58c0-3.09,2-5.65,4.36-5.65Z" transform="translate(-3511.12 -4279.14)"/><path class="cls-18" d="M4856.72,5435.51H4932c2.41,0,4.39,2.55,4.39,5.65v43.58c0,3.08-2,5.64-4.39,5.64h-75.24c-2.38,0-4.36-2.56-4.36-5.64v-43.58c0-3.09,2-5.65,4.36-5.65Z" transform="translate(-3511.12 -4279.14)"/><path class="cls-18" d="M4955.74,5434.77h89.45c2.39,0,4.38,2.56,4.38,5.64V5484c0,3.09-2,5.64-4.38,5.64h-89.45c-2.39,0-4.36-2.55-4.36-5.64v-43.58c0-3.08,2-5.64,4.36-5.64Z" transform="translate(-3511.12 -4279.14)"/><path class="cls-18" d="M4963.76,5510.88h33.69a1.78,1.78,0,0,1,1.57,1.9v15.11a1.79,1.79,0,0,1-1.57,1.91h-33.69a1.74,1.74,0,0,1-1.48-1.91v-15.11a1.73,1.73,0,0,1,1.48-1.9Z" transform="translate(-3511.12 -4279.14)"/><path class="cls-18" d="M4963.76,5543.73h33.69a1.79,1.79,0,0,1,1.57,1.92v15a1.79,1.79,0,0,1-1.57,1.91h-33.69a1.74,1.74,0,0,1-1.48-1.91v-15a1.73,1.73,0,0,1,1.48-1.92Z" transform="translate(-3511.12 -4279.14)"/><path class="cls-18" d="M4913.81,5543.73h33.69a1.79,1.79,0,0,1,1.57,1.92v15a1.79,1.79,0,0,1-1.57,1.91h-33.69a1.74,1.74,0,0,1-1.49-1.91v-15a1.73,1.73,0,0,1,1.49-1.92Z" transform="translate(-3511.12 -4279.14)"/><path class="cls-18" d="M5013.64,5543.73h33.69a1.73,1.73,0,0,1,1.47,1.92v15a1.73,1.73,0,0,1-1.47,1.91h-33.69a1.8,1.8,0,0,1-1.58-1.91v-15a1.79,1.79,0,0,1,1.58-1.92Z" transform="translate(-3511.12 -4279.14)"/><path class="cls-18" d="M4855.16,5510.88h40.48c2.4,0,4.39,2.55,4.39,5.63v43.58c0,3.09-2,5.64-4.39,5.64h-40.48c-2.39,0-4.37-2.54-4.37-5.64v-43.58c0-3.08,2-5.63,4.37-5.63Z" transform="translate(-3511.12 -4279.14)"/></g></g><g id="Brush"><path class="cls-19" d="M4925.24,4820.3c-50.7-12.7-65,9.81-28.06,33.7,32,20.66-14.48,24.83-14.48,24.83-39.57-.51-68.19,34.39-48.93,71.11,11.08,21.11,44.5,40.43,86.23,31.56C4997.08,4965.12,5028,4846,4925.24,4820.3Zm-31.64,99.13c-8.57-4.75-13.39-12.5-10.7-17.3s11.75-4.87,20.32-.11,13.36,12.48,10.7,17.29S4902.18,4924.16,4893.6,4919.43Z" transform="translate(-3511.12 -4279.14)"/><path class="cls-20" d="M4909.09,4964.71c-3.93.79-8.21-4.13-9.6-11s.7-13.06,4.63-13.83,8.22,4.14,9.59,11S4913,4963.94,4909.09,4964.71Z" transform="translate(-3511.12 -4279.14)"/><path class="cls-21" d="M4972.48,4917.26c-1.09,3.84-7.44,5.4-14.17,3.48s-11.29-6.61-10.19-10.46,7.46-5.4,14.18-3.48S4973.58,4913.41,4972.48,4917.26Z" transform="translate(-3511.12 -4279.14)"/><path class="cls-22" d="M4956.76,4895.48c-3.78,1.34-8.72-2.93-11.06-9.53s-1.15-13,2.61-14.36,8.72,2.93,11.05,9.53S4960.53,4894.15,4956.76,4895.48Z" transform="translate(-3511.12 -4279.14)"/><path class="cls-23" d="M4919.6,4855.4c-3.58-1.79-3.94-8.32-.81-14.57s8.57-9.87,12.15-8.08,3.94,8.33.81,14.59S4923.18,4857.2,4919.6,4855.4Z" transform="translate(-3511.12 -4279.14)"/><path class="cls-24" d="M4981.15,4835.5s24.2,29.2-7.9,53.47-37.7,32.59-37.7,32.59-24.15-74.83,35.28-93l5-.81Z" transform="translate(-3511.12 -4279.14)"/><path class="cls-25" d="M4934.49,4917.78c4.65-19.22,16.75-59.18,42.15-88.85l-.81-1.17-5,.81C4919.4,4844.29,4930.55,4902.41,4934.49,4917.78Z" transform="translate(-3511.12 -4279.14)"/><path class="cls-26" d="M5257.57,4420.72c-53.51,58.43-191.07,210.15-247.19,286.27-70.42,95.52-40,123.13-40,123.13l3.61,2,6.7,4.87s38.05,16.58,102.22-83c51.14-79.35,143.16-260.38,178.41-330.61l7.58-15.12Z" transform="translate(-3511.12 -4279.14)"/><path class="cls-25" d="M5010.37,4707c-70.42,95.52-40,123.13-40,123.13l1.19.67,297.34-422.46-11.36,12.39C5204.05,4479.15,5066.5,4630.87,5010.37,4707Z" transform="translate(-3511.12 -4279.14)"/></g><g id="Line"><polygon class="cls-27" points="404.68 234.21 404.68 863.27 860 863.27 860 339.96 758.76 234.21 404.68 234.21"/><polygon class="cls-7" points="760.66 336.81 863.43 439.58 863.43 336.81 788.93 294.85 760.66 336.81"/><polygon class="cls-28" points="860 339.96 758.76 341.54 758.76 234.21 860 339.96"/><path class="cls-29" d="M4036.5,4733.26l27.91,20.61L4085,4726l-27.91-20.61Zm40.7-6.11-14,18.9-18.92-14,14-18.91Z" transform="translate(-3511.12 -4279.14)"/><path class="cls-29" d="M4187.72,4845l27.9,20.61,20.61-27.9-27.9-20.62Zm40.69-6.11-14,18.91-18.92-14,14-18.91Z" transform="translate(-3511.12 -4279.14)"/><path class="cls-30" d="M4197.4,4852.12a89.42,89.42,0,0,1-141.13-104.25l-7.83-5.78a99,99,0,0,0,156.78,115.81Z" transform="translate(-3511.12 -4279.14)"/><path class="cls-30" d="M4069.06,4714.18l7.82,5.78A89.43,89.43,0,0,1,4218,4824.21l7.83,5.77a99,99,0,0,0-156.79-115.81Z" transform="translate(-3511.12 -4279.14)"/></g><g id="Pen"><path class="cls-31" d="M4156.08,4786.49l-7-5-38.84,52.38c3.14,14.19-8.68,14.83-10.18,14.85l-2.06-1.57h0l-2.17-1.65c-.37-1.44-2.9-13,11.63-13.75l40.17-51.36-6.69-5.46s-33.28,26.87-60.73,17.57c0,0-17.08,56.06-31.84,61.81l.26.2c-1.33-1-3.65-.19-5.19,1.82s-1.7,4.49-.36,5.5l1.76,1.34-181,239a13.05,13.05,0,0,0-15.93,4l-1.45,1.94a13,13,0,0,0,2.66,18.26l23.7,17.68h0l21.6,16.12a13,13,0,0,0,18.25-2.65l1.45-1.95a13,13,0,0,0,1-13.95l181.24-239.23,2,1.5c1.34,1,3.67.21,5.21-1.81s1.7-4.48.36-5.5l-.17-.12.44.33c1.63-15.76,51.13-47.11,51.13-47.11C4139,4825.7,4156.08,4786.49,4156.08,4786.49Z" transform="translate(-3511.12 -4279.14)"/><path class="cls-29" d="M4147.68,4849.7c-16.25-24,.81-63.21.81-63.21l-7-5-38.83,52.38c3.14,14.19-8.68,14.83-10.18,14.85l-4.22-3.22c-.38-1.44-2.9-13,11.63-13.75L4140,4780.4l-6.69-5.46s-33.27,26.87-60.72,17.57c0,0-17.08,56.06-31.84,61.81l23.32,17.88h0l7.87,6h0l24.63,18.62C4098.18,4881,4147.68,4849.7,4147.68,4849.7Z" transform="translate(-3511.12 -4279.14)"/><path class="cls-32" d="M4091.07,4899.33l-51.61-39.09-183.28,241.91a13.05,13.05,0,0,0-15.93,4l-1.44,1.94a13,13,0,0,0,2.65,18.26l45.29,33.8a13,13,0,0,0,18.26-2.65l1.44-1.95a13,13,0,0,0,1-13.95Z" transform="translate(-3511.12 -4279.14)"/><path class="cls-33" d="M4095.91,4902.1c-1.54,2-3.87,2.83-5.21,1.81l-55.24-42.07c-1.33-1-1.17-3.49.36-5.5h0c1.54-2,3.87-2.83,5.21-1.82l55.24,42.08c1.33,1,1.17,3.49-.36,5.5Z" transform="translate(-3511.12 -4279.14)"/><path class="cls-34" d="M4148.49,4786.49l-7-5-38.83,52.38c3.14,14.19-8.68,14.83-10.18,14.85l-2.06-1.57-225.23,296.93,21.6,16.12a13,13,0,0,0,18.26-2.65l1.44-1.95a13,13,0,0,0,1-13.95l181.24-239.23,2,1.5c1.34,1,3.67.21,5.21-1.81s1.69-4.48.36-5.5l-.23-.18.52.39c1.62-15.76,51.13-47.11,51.13-47.11C4131.43,4825.7,4148.49,4786.49,4148.49,4786.49Z" transform="translate(-3511.12 -4279.14)"/><path class="cls-35" d="M3881.05,5095.42a5.22,5.22,0,0,1-7.27,1.22h0a5.22,5.22,0,0,1-.78-7.34l157.64-207.82a5.22,5.22,0,0,1,7.27-1.22h0a5.22,5.22,0,0,1,.78,7.34Z" transform="translate(-3511.12 -4279.14)"/></g><g id="Glass"><path class="cls-36" d="M3807.36,5372.26s-84.07,18.22-91.21,45.63,8.39,24.32,19.25,9.84,56.47-37,72-40.76S3807.36,5372.26,3807.36,5372.26Z" transform="translate(-3511.12 -4279.14)"/><path class="cls-36" d="M3865.7,5372.26s84.07,18.22,91.21,45.63-8.39,24.32-19.25,9.84-56.47-37-72-40.76S3865.7,5372.26,3865.7,5372.26Z" transform="translate(-3511.12 -4279.14)"/><path class="cls-36" d="M4033.44,5387a14.71,14.71,0,0,1-14.71,14.71H3657.95a14.71,14.71,0,0,1-14.71-14.71h0a14.72,14.72,0,0,1,14.71-14.71h360.78a14.72,14.72,0,0,1,14.71,14.71Z" transform="translate(-3511.12 -4279.14)"/><path class="cls-37" d="M3760.77,5458.25h-74.51c-52.78-7.76-35.71-82.27-35.71-82.27,31.82-45,116.62-36.06,148.45-3.46C3799,5372.52,3802.68,5455.15,3760.77,5458.25Z" transform="translate(-3511.12 -4279.14)"/><path class="cls-36" d="M3807.27,5369.32c-35.09-35.94-128.2-46-164,2.94a10.45,10.45,0,0,0-18.29,6.9v14a10.45,10.45,0,0,0,14.69,9.55c.15,24.65,7.36,56.56,42.54,61.74h82.68C3811.37,5461,3807.27,5369.32,3807.27,5369.32Zm-46.5,88.93h-74.51c-52.78-7.76-35.71-82.27-35.71-82.27,31.82-45,116.62-36.06,148.45-3.46C3799,5372.52,3802.68,5455.15,3760.77,5458.25Z" transform="translate(-3511.12 -4279.14)"/><path class="cls-37" d="M3905.42,5458.77h74.5c52.78-7.76,35.7-82.27,35.7-82.27-31.83-45-116.61-36.06-148.44-3.46C3867.19,5373,3863.5,5455.67,3905.42,5458.77Z" transform="translate(-3511.12 -4279.14)"/><path class="cls-36" d="M3901.32,5465H3984c35.19-5.18,42.4-37.09,42.55-61.74a10.45,10.45,0,0,0,14.69-9.55v-14a10.45,10.45,0,0,0-18.3-6.9c-35.82-48.9-128.94-38.89-164-2.94C3858.9,5369.84,3854.82,5461.53,3901.32,5465ZM3867.19,5373c31.82-32.6,116.61-41.55,148.44,3.46,0,0,17.08,74.5-35.7,82.27h-74.5C3863.5,5455.67,3867.19,5373,3867.19,5373Z" transform="translate(-3511.12 -4279.14)"/><path class="cls-38" d="M3640.26,5390.25a6.11,6.11,0,0,1-6.11,6.11h0a6.11,6.11,0,0,1-6.11-6.11v-7.76a6.11,6.11,0,0,1,6.11-6.11h0a6.11,6.11,0,0,1,6.11,6.11Z" transform="translate(-3511.12 -4279.14)"/><path class="cls-38" d="M4036.55,5390.25a6.12,6.12,0,0,1-6.12,6.11h0a6.12,6.12,0,0,1-6.11-6.11v-7.76a6.11,6.11,0,0,1,6.11-6.11h0a6.11,6.11,0,0,1,6.12,6.11Z" transform="translate(-3511.12 -4279.14)"/><path class="cls-39" d="M3815.87,5383.75s17.08-12.42,33.38,0v10.61h-33.38Z" transform="translate(-3511.12 -4279.14)"/></g><polygon class="cls-40" points="61.44 420.08 255.56 420.08 255.56 554.47 158.5 554.47 158.5 599.93 105.72 554.47 61.44 554.47 61.44 420.08"/><line class="cls-41" x1="91.3" y1="468.61" x2="158.5" y2="468.61"/><line class="cls-41" x1="177.16" y1="468.61" x2="229.42" y2="468.61"/><line class="cls-41" x1="91.3" y1="513.41" x2="229.42" y2="513.41"/><path class="cls-3" d="M5718.08,5230.32V5197.9c5.44-1.87,12.45-4.31,18-7.28l23.16,22.93a5.69,5.69,0,0,0,8,0l32.91-32.86a5.55,5.55,0,0,0,0-7.86l-22.92-22.39a117.45,117.45,0,0,0,7.29-17H5817c3.07,0,4.38-3.58,4.38-6.67v-46.46c0-3.07-1.32-6.67-4.38-6.67h-32.44a117.1,117.1,0,0,0-7.27-17L5800.2,5034a5.4,5.4,0,0,0,0-7.73l-32.87-32.78a5.52,5.52,0,0,0-7.86,0l-23.38,22.94c-5.57-3-12.58-5.39-18-7.28v-32.42c0-3.07-1.58-6.38-4.66-6.38h-46.47c-3.07,0-3.23,3.31-3.23,6.38v32.42c-10.87,1.89-13.17,4.34-18.71,7.29l-23.53-22.92a5.89,5.89,0,0,0-8.16,0l-33,32.85a5.58,5.58,0,0,0-.07,7.87l22.92,22.39a117.63,117.63,0,0,0-7.34,17H5563.4c-3.08,0-3,3.59-3,6.67v46.46c0,3.08-.12,6.67,3,6.67h32.42a117.58,117.58,0,0,0,7.3,17l-23,22.67a5.39,5.39,0,0,0,0,7.72l32.87,32.79a5.54,5.54,0,0,0,7.87,0l24.12-22.95c5.54,3,7.84,5.4,18.71,7.27v32.43c0,3.07.16,6.38,3.23,6.38h46.47C5716.5,5236.7,5718.08,5233.4,5718.08,5230.32Z" transform="translate(-3511.12 -4279.14)"/><path class="cls-42" d="M5689,5146.75a41.69,41.69,0,1,1,41.69-41.69A41.69,41.69,0,0,1,5689,5146.75Z" transform="translate(-3511.12 -4279.14)"/><rect class="cls-40" x="1899.62" y="248.71" width="96.76" height="439.8"/><line class="cls-43" x1="1939.21" y1="657.72" x2="1991.98" y2="657.72"/><line class="cls-43" x1="1956.8" y1="622.54" x2="1991.98" y2="622.54"/><line class="cls-43" x1="1939.21" y1="587.36" x2="1991.98" y2="587.36"/><line class="cls-43" x1="1956.8" y1="543.38" x2="1991.98" y2="543.38"/><line class="cls-43" x1="1939.21" y1="512.59" x2="1991.98" y2="512.59"/><line class="cls-43" x1="1956.8" y1="473.01" x2="1991.98" y2="473.01"/><line class="cls-43" x1="1939.21" y1="429.03" x2="1991.98" y2="429.03"/><line class="cls-43" x1="1956.8" y1="393.84" x2="1991.98" y2="393.84"/><line class="cls-43" x1="1939.21" y1="354.26" x2="1991.98" y2="354.26"/><line class="cls-43" x1="1956.8" y1="319.08" x2="1991.98" y2="319.08"/><line class="cls-43" x1="1939.21" y1="279.5" x2="1991.98" y2="279.5"/><line class="cls-43" x1="1996.38" y1="688.51" x2="1996.38" y2="248.71"/><polygon class="cls-40" points="111.95 860.21 134.56 841.47 227.64 765.06 0.48 765.06 90.18 841.47 111.95 860.21"/><polygon class="cls-3" points="0 765.54 0 912.78 89.69 841.71 0 765.54"/><polygon class="cls-3" points="134.22 841.71 227.3 912.78 227.3 765.54 134.22 841.71"/><polygon class="cls-44" points="111.95 860.21 90.18 841.79 0.48 912.95 227.64 912.95 134.56 841.79 111.95 860.21"/><path class="cls-45" d="M4507.06,4617.54q-5.37-3.31-10.47-7" transform="translate(-3511.12 -4279.14)"/><path class="cls-46" d="M4477.12,4594a167.71,167.71,0,1,1,226.82,8" transform="translate(-3511.12 -4279.14)"/><path class="cls-45" d="M4693.93,4610q-5.07,3.72-10.43,7.06" transform="translate(-3511.12 -4279.14)"/><path class="cls-40" d="M4715,4466.81c0-66.53-54.55-120.45-121.07-120.45s-118.46,53.92-118.46,120.45c0,52.92,33.18,97.84,83.58,114v84.28h75.61v-84.28C4677.87,4564.65,4715,4519.73,4715,4466.81Z" transform="translate(-3511.12 -4279.14)"/><rect class="cls-47" x="1047.94" y="385.95" width="75.61" height="50.41"/><line class="cls-48" x1="1083.94" y1="385.95" x2="1083.94" y2="184.33"/><line class="cls-48" x1="1055.14" y1="184.33" x2="1116.35" y2="184.33"/><path class="cls-49" d="M4539.56,4405.28s-40.79,28.5-25.25,82.89" transform="translate(-3511.12 -4279.14)"/></svg>