<svg id="Objects" xmlns="http://www.w3.org/2000/svg" xmlns:xlink="http://www.w3.org/1999/xlink" viewBox="0 0 260.2 259.82"><defs><style>.cls-1{fill:url(#linear-gradient);}.cls-2{fill:#fff;}</style><linearGradient id="linear-gradient" x1="-472.77" y1="18.04" x2="-699.26" y2="285.03" gradientUnits="userSpaceOnUse"><stop offset="0.12" stop-color="#c6cfd6"/><stop offset="0.91" stop-color="#f5f6f8"/></linearGradient></defs><title>services-system-6</title><g id="Ecommerce"><path class="cls-1" d="M-567.84,284.06c0-.15,0-.29,0-.44a131.43,131.43,0,0,0-1.2-17.69l-13.82-1a115.29,115.29,0,0,0-2.72-12.46l12.07-6.92A129.17,129.17,0,0,0-580,228.7l-13.5,3.13a116.92,116.92,0,0,0-6.38-11.25l9.48-10.16a130.85,130.85,0,0,0-11.13-14.13l-12,7a117.39,117.39,0,0,0-9.53-8.95l6.07-12.5a130.41,130.41,0,0,0-14.75-10.18l-9.39,10.19A116.29,116.29,0,0,0-652.95,176l2.11-13.73A129.09,129.09,0,0,0-667.9,157l-6,12.52a116.38,116.38,0,0,0-13.1-2l-2-13.73c-3-.2-5.93-.31-8.93-.31s-6,.11-8.94.31l-2,13.73a116.43,116.43,0,0,0-13.09,2L-728,157A129.15,129.15,0,0,0-745,162.32l2.12,13.73a116.09,116.09,0,0,0-11.86,5.78l-9.4-10.19a130.41,130.41,0,0,0-14.75,10.18l6.07,12.5a117.29,117.29,0,0,0-9.53,8.95l-12-7a130.71,130.71,0,0,0-11.13,14.13l9.49,10.16a116.54,116.54,0,0,0-6.38,11.24l-13.5-3.13a129.08,129.08,0,0,0-6.48,16.87l12.07,6.92A115.62,115.62,0,0,0-813,264.95l-13.82,1a131,131,0,0,0-1.2,17.69c0,.15,0,.29,0,.44l13.57,3.05a117.18,117.18,0,0,0,1,12.51l-12.92,5a129.24,129.24,0,0,0,4.18,17.77l13.87-1.09a116.14,116.14,0,0,0,4.63,11.48l-10.87,8.61a130.09,130.09,0,0,0,9.3,15.81l12.94-5.13a116.79,116.79,0,0,0,7.68,9.48L-792.45,373a130.54,130.54,0,0,0,13.58,12.46l10.84-8.7a116.91,116.91,0,0,0,10,6.76l-4.13,13.25a129.24,129.24,0,0,0,16.66,8l7.79-11.51a115.38,115.38,0,0,0,11.48,3.5l0,13.88a129.92,129.92,0,0,0,18.3,2.72l4.05-13.29q3,.15,6,.15t6-.15l4.05,13.29a129.92,129.92,0,0,0,18.3-2.72l0-13.88a115.06,115.06,0,0,0,11.48-3.5l7.79,11.51a129.18,129.18,0,0,0,16.66-8l-4.13-13.25a116.91,116.91,0,0,0,10-6.76l10.84,8.7A130.54,130.54,0,0,0-603.42,373l-7.85-11.43a117.52,117.52,0,0,0,7.68-9.48l12.94,5.13a130.33,130.33,0,0,0,9.3-15.81l-10.87-8.61a115.46,115.46,0,0,0,4.63-11.48l13.87,1.09a129.23,129.23,0,0,0,4.18-17.77l-12.92-5a117.23,117.23,0,0,0,1-12.51Zm-130.1,95.8a96.43,96.43,0,0,1-96.44-96.44A96.43,96.43,0,0,1-697.94,187a96.43,96.43,0,0,1,96.44,96.43A96.44,96.44,0,0,1-697.94,379.87Z" transform="translate(828.04 -153.52)"/><path class="cls-2" d="M-813.63,299.71l-12.71,4.94c.09.55.2,1.09.29,1.64l12.63-4.91C-813.49,300.82-813.56,300.26-813.63,299.71Z" transform="translate(828.04 -153.52)"/><path class="cls-2" d="M-785.28,362.57-792.45,373l.71.72,7.14-10.4Z" transform="translate(828.04 -153.52)"/><path class="cls-2" d="M-804.23,333.28l-10.28,8.15c.21.42.43.83.64,1.24l10.22-8.1C-803.85,334.14-804,333.71-804.23,333.28Z" transform="translate(828.04 -153.52)"/><path class="cls-2" d="M-623,196.07a117.39,117.39,0,0,1,9.53,8.95l12-7a130.8,130.8,0,0,1,10.42,13.14l.7-.75a130.85,130.85,0,0,0-11.13-14.13l-12,7a117.21,117.21,0,0,0-8.93-8.43Z" transform="translate(828.04 -153.52)"/><path class="cls-2" d="M-599.2,221.63l-.65.7a116.92,116.92,0,0,1,6.38,11.25l13.5-3.13a129.23,129.23,0,0,1,6,15.39l.48-.27A129.17,129.17,0,0,0-580,228.7l-13.5,3.13Q-596.08,226.58-599.2,221.63Z" transform="translate(828.04 -153.52)"/><path class="cls-2" d="M-652.95,177.8a116.29,116.29,0,0,1,11.86,5.78l9.39-10.19a130.3,130.3,0,0,1,14.13,9.7l.62-1.27a130.41,130.41,0,0,0-14.75-10.18l-9.39,10.19a116.24,116.24,0,0,0-11.61-5.67Z" transform="translate(828.04 -153.52)"/><path class="cls-2" d="M-601.51,284.31a96.43,96.43,0,0,1-96.42,95.56,96.43,96.43,0,0,1-96.42-95.56c0,.29,0,.58,0,.88a96.43,96.43,0,0,0,96.44,96.44,96.44,96.44,0,0,0,96.44-96.44C-601.5,284.89-601.51,284.6-601.51,284.31Z" transform="translate(828.04 -153.52)"/><path class="cls-2" d="M-758.49,385l-3.68,11.78.47.25,3.67-11.75Z" transform="translate(828.04 -153.52)"/><polygon class="cls-2" points="101.81 244.97 101.77 257.1 101.78 257.1 101.81 244.97 101.81 244.97"/><path class="cls-2" d="M-585.17,254l-.4.23a115.29,115.29,0,0,1,2.72,12.46l13.82,1a131.64,131.64,0,0,1,1.18,16.38h0c0-.15,0-.29,0-.44a131.43,131.43,0,0,0-1.2-17.69l-13.82-1C-583.45,261.24-584.23,257.59-585.17,254Z" transform="translate(828.04 -153.52)"/><path class="cls-2" d="M-637.84,385.29l3.67,11.75.47-.25L-637.39,385Z" transform="translate(828.04 -153.52)"/><path class="cls-2" d="M-611.27,363.34l7.14,10.4.71-.72-7.17-10.45Z" transform="translate(828.04 -153.52)"/><path class="cls-2" d="M-592.22,334.57l10.22,8.1c.21-.42.44-.82.64-1.24l-10.28-8.15C-591.83,333.71-592,334.14-592.22,334.57Z" transform="translate(828.04 -153.52)"/><path class="cls-2" d="M-728,158.76l6,12.52a116.43,116.43,0,0,1,13.09-2l2-13.73c3-.2,5.93-.31,8.94-.31s6,.11,8.93.31l2,13.73a116.38,116.38,0,0,1,13.1,2l6-12.52A129.12,129.12,0,0,1-651.09,164l.25-1.66A129.09,129.09,0,0,0-667.9,157l-6,12.52a116.38,116.38,0,0,0-13.1-2l-2-13.73c-3-.2-5.93-.31-8.93-.31s-6,.11-8.94.31l-2,13.73a116.43,116.43,0,0,0-13.09,2L-728,157A129.15,129.15,0,0,0-745,162.32l.26,1.66A129.14,129.14,0,0,1-728,158.76Z" transform="translate(828.04 -153.52)"/><path class="cls-2" d="M-582.45,301.38l12.62,4.91c.1-.55.21-1.09.29-1.64l-12.71-4.94C-582.31,300.26-582.38,300.82-582.45,301.38Z" transform="translate(828.04 -153.52)"/><polygon class="cls-2" points="158.39 244.97 158.43 257.1 158.43 257.1 158.4 244.97 158.39 244.97"/><path class="cls-2" d="M-794.37,198l12,7a117.29,117.29,0,0,1,9.53-8.95l-.6-1.23a117.1,117.1,0,0,0-8.93,8.43l-12-7a130.71,130.71,0,0,0-11.13,14.13l.7.75A130.65,130.65,0,0,1-794.37,198Z" transform="translate(828.04 -153.52)"/><path class="cls-2" d="M-764.18,173.39l9.4,10.19a116.09,116.09,0,0,1,11.86-5.78l-.25-1.64a116,116,0,0,0-11.61,5.67l-9.4-10.19a130.41,130.41,0,0,0-14.75,10.18l.62,1.27A130.39,130.39,0,0,1-764.18,173.39Z" transform="translate(828.04 -153.52)"/><path class="cls-2" d="M-815.9,230.45l13.5,3.13A116.54,116.54,0,0,1-796,222.34l-.65-.7a116.9,116.9,0,0,0-5.73,10.2l-13.5-3.13a129.08,129.08,0,0,0-6.48,16.87l.48.27A129.21,129.21,0,0,1-815.9,230.45Z" transform="translate(828.04 -153.52)"/><path class="cls-2" d="M-828,284.07a131.17,131.17,0,0,1,1.18-16.38l13.82-1a115.62,115.62,0,0,1,2.72-12.46l-.4-.23c-.94,3.58-1.72,7.23-2.32,10.94l-13.82,1a131,131,0,0,0-1.2,17.69c0,.15,0,.29,0,.44Z" transform="translate(828.04 -153.52)"/></g></svg>