<svg id="Capa_1" data-name="Capa 1" xmlns="http://www.w3.org/2000/svg" viewBox="0 0 1246.88 379.98"><defs><style>.cls-1{fill:#bbd655;}.cls-2{fill:#e5e5e5;}.cls-3{fill:#fff;}.cls-11,.cls-4{fill:#05c0d0;}.cls-10,.cls-5,.cls-6,.cls-9{fill:none;}.cls-6{stroke:#e5e5e5;stroke-width:3px;}.cls-10,.cls-6,.cls-9{stroke-miterlimit:10;}.cls-7{fill:#a0a0a0;}.cls-11,.cls-8{opacity:0.2;}.cls-10,.cls-9{stroke:#a0a0a0;}.cls-10{stroke-width:0.95px;}</style></defs><title>services-web-2</title><path class="cls-1" d="M563.21,264a11.44,11.44,0,0,1-1.54-5.87,11.84,11.84,0,0,1,12.11-11.57l.51,0c1.3-2.83,4.81-4.83,8.92-4.78,4.62,0,8.43,2.68,9.16,6.08a19.1,19.1,0,0,1,2.45-.13,17.81,17.81,0,0,1,7.42,1.67,9.41,9.41,0,0,1,16.54,1,13,13,0,0,1,6.92-1.88,12.45,12.45,0,0,1,12.56,12.34,12,12,0,0,1-4.79,9.4,9.32,9.32,0,0,1,1.78,5.57c-.06,5.38-4.75,9.69-10.46,9.63a19.83,19.83,0,0,1-3.08-.47c-4.48,7.18-17.06,3.8-16,2.53-14.21,16.71-29.59,14.62-30,14.48,6.06-1.45,9.32-6.38,11.86-12.42a16,16,0,0,1-5.27.81,14.87,14.87,0,0,1-11.94-5.85,14.08,14.08,0,0,1-4.85.79c-6.88-.08-12.39-5-12.33-10.9C553.29,269.27,557.56,265,563.21,264Z" transform="translate(193.1 -86.83)"/><rect class="cls-2" x="619.53" y="6.77" width="87.5" height="116.66" rx="2.87" ry="2.87"/><rect class="cls-3" x="626.38" y="14.06" width="73.61" height="103.29"/><path class="cls-4" d="M476.39,97.42s.24-8.52-6.45-8.52-6.22,8.52-6.22,8.52H452.49v11h34.9v-11Zm-6.45-6.06c3.91,0,3.77,5.34,3.75,6.06l-7.39,0C466.08,91,469.94,91.37,469.94,91.37Z" transform="translate(193.1 -86.83)"/><rect class="cls-2" x="650.13" y="36.62" width="40.37" height="1.19"/><rect class="cls-2" x="650.13" y="54.43" width="40.37" height="1.19"/><rect class="cls-2" x="650.13" y="71.05" width="40.37" height="1.19"/><rect class="cls-2" x="650.13" y="88.86" width="40.37" height="1.19"/><path class="cls-1" d="M450,120l-4.26,3.58-1.43-1.7a1.11,1.11,0,0,0-1.7,1.43l2.15,2.56a1.11,1.11,0,0,0,1.57.14l5.11-4.29A1.11,1.11,0,1,0,450,120Z" transform="translate(193.1 -86.83)"/><path class="cls-1" d="M450,138.19l-4.26,3.58-1.43-1.7a1.11,1.11,0,0,0-1.7,1.43l2.15,2.56a1.11,1.11,0,0,0,1.57.14l5.11-4.29a1.11,1.11,0,1,0-1.43-1.7Z" transform="translate(193.1 -86.83)"/><path class="cls-1" d="M450,154.93l-4.26,3.58-1.43-1.7a1.11,1.11,0,1,0-1.7,1.43l2.15,2.56a1.11,1.11,0,0,0,1.57.14l5.11-4.29a1.11,1.11,0,1,0-1.43-1.7Z" transform="translate(193.1 -86.83)"/><path class="cls-1" d="M449.86,171.88l-4.26,3.58-1.43-1.7a1.11,1.11,0,1,0-1.7,1.43l2.15,2.56a1.11,1.11,0,0,0,1.57.14l5.11-4.29a1.11,1.11,0,1,0-1.43-1.7Z" transform="translate(193.1 -86.83)"/><path class="cls-2" d="M207.73,318.9l-91.38-.05a10.39,10.39,0,0,0-10.4,10.41l-.08,127.08a10.4,10.4,0,0,0,10.39,10.42l91.38.05A10.41,10.41,0,0,0,218,456.4l.08-127.08A10.4,10.4,0,0,0,207.73,318.9Z" transform="translate(193.1 -86.83)"/><path class="cls-3" d="M162,462.88a6.18,6.18,0,1,1,6.19-6.18A6.18,6.18,0,0,1,162,462.88Z" transform="translate(193.1 -86.83)"/><rect class="cls-3" x="309.54" y="244.56" width="91.12" height="113.71"/><path id="MobileMe" class="cls-1" d="M372.42,194.35a13.87,13.87,0,0,1-13.82,13.92H315.86a13.93,13.93,0,0,1-2.17-27.67,8.82,8.82,0,0,1,8.62-10.32,8.66,8.66,0,0,1,5.66,2.09c2.72-6.17,6.2-11.8,16-11.8,11.86,0,17.47,9.21,17.47,18.93,0,.41,0,.81,0,1.21A13.9,13.9,0,0,1,372.42,194.35Z" transform="translate(193.1 -86.83)"/><rect class="cls-5" x="856.1" y="134.17" width="6" height="6"/><circle class="cls-2" cx="859.56" cy="137.1" r="3"/><rect class="cls-5" x="856.1" y="145.17" width="6" height="6"/><circle class="cls-2" cx="859.52" cy="147.9" r="3"/><rect class="cls-5" x="856.1" y="156.17" width="6" height="6"/><circle class="cls-2" cx="859.48" cy="158.7" r="3"/><rect class="cls-5" x="856.1" y="166.17" width="6" height="6"/><circle class="cls-2" cx="859.44" cy="169.5" r="3"/><rect class="cls-5" x="856.1" y="177.17" width="6" height="6"/><circle class="cls-2" cx="859.39" cy="180.3" r="3"/><rect class="cls-5" x="856.1" y="188.17" width="6" height="6"/><circle class="cls-2" cx="859.35" cy="191.1" r="3"/><rect class="cls-5" x="856.1" y="199.17" width="6" height="6"/><circle class="cls-2" cx="859.31" cy="201.9" r="3"/><rect class="cls-5" x="856.1" y="210.17" width="6" height="6"/><circle class="cls-2" cx="859.27" cy="212.7" r="3"/><rect class="cls-5" x="856.1" y="220.17" width="6" height="6"/><circle class="cls-2" cx="859.23" cy="223.5" r="3"/><rect class="cls-5" x="856.1" y="231.17" width="6" height="6"/><circle class="cls-2" cx="859.19" cy="234.3" r="3"/><rect class="cls-5" x="856.1" y="242.17" width="6" height="6"/><circle class="cls-2" cx="859.14" cy="245.1" r="3"/><rect class="cls-5" x="856.1" y="253.17" width="6" height="6"/><circle class="cls-2" cx="859.1" cy="255.9" r="3"/><rect class="cls-5" x="845.1" y="253.17" width="6" height="6"/><circle class="cls-2" cx="848.57" cy="256.17" r="3"/><rect class="cls-5" x="835.1" y="253.17" width="6" height="6"/><circle class="cls-2" cx="837.77" cy="256.17" r="3"/><rect class="cls-5" x="824.1" y="253.17" width="6" height="6"/><circle class="cls-2" cx="826.97" cy="256.17" r="3"/><rect class="cls-5" x="813.1" y="253.17" width="6" height="6"/><circle class="cls-2" cx="816.17" cy="256.17" r="3"/><rect class="cls-5" x="802.1" y="253.17" width="6" height="6"/><circle class="cls-2" cx="805.37" cy="256.17" r="3"/><rect class="cls-5" x="791.1" y="253.17" width="6" height="6"/><circle class="cls-2" cx="794.57" cy="256.17" r="3"/><rect class="cls-5" x="781.1" y="253.17" width="6" height="6"/><circle class="cls-2" cx="783.77" cy="256.17" r="3"/><rect class="cls-5" x="770.1" y="253.17" width="6" height="6"/><circle class="cls-2" cx="772.97" cy="256.17" r="3"/><rect class="cls-5" x="759.1" y="253.17" width="6" height="6"/><circle class="cls-2" cx="762.17" cy="256.17" r="3"/><rect class="cls-5" x="748.1" y="253.17" width="6" height="6"/><circle class="cls-2" cx="751.37" cy="256.17" r="3"/><rect class="cls-5" x="737.1" y="253.17" width="6" height="6"/><circle class="cls-2" cx="740.57" cy="256.17" r="3"/><rect class="cls-5" x="727.1" y="253.17" width="6" height="6"/><circle class="cls-2" cx="729.77" cy="256.17" r="3"/><path class="cls-2" d="M520.56,261.43H284.51c-3.23,0-6.47,1.86-6.47,5.09v162.9c0,3.23,3.23,5.67,6.47,5.67h88.17s.06,15.05.08,15.05H360.6a5.21,5.21,0,1,0,0,10.42h86.82a5.21,5.21,0,1,0,0-10.42H434.86s-.12-15.05-.12-15.05h85.84c3.23,0,6.38-2.44,6.38-5.67V266.53C527,263.3,523.8,261.43,520.56,261.43Z" transform="translate(193.1 -86.83)"/><rect class="cls-3" x="483.1" y="185.17" width="227" height="141" rx="6.14" ry="6.14"/><path class="cls-2" d="M691.86,92.37h-50.8a8.79,8.79,0,0,0-8.78,8.8V204.3a8.79,8.79,0,0,0,8.78,8.79h50.8a8.79,8.79,0,0,0,8.79-8.79V101.16A8.8,8.8,0,0,0,691.86,92.37Z" transform="translate(193.1 -86.83)"/><rect class="cls-3" x="831.97" y="20.38" width="55.19" height="82.97"/><polygon class="cls-3" points="871.35 14.46 847.79 14.46 847.79 11.9 871.35 11.9 871.35 14.46 871.35 14.46"/><circle class="cls-3" cx="879.17" cy="13.29" r="2.25"/><rect class="cls-3" x="848.84" y="110.29" width="21.45" height="6.6"/><path class="cls-6" d="M156,147.5H364s25.5-1,25.5,25V261" transform="translate(193.1 -86.83)"/><rect class="cls-2" x="345.53" y="51.67" width="6" height="16"/><rect class="cls-2" x="468.6" y="198.67" width="6" height="16"/><path class="cls-2" d="M571.09,157.47V138.82h0a18.64,18.64,0,0,0-13.16,31.84l13.19-13.19Z" transform="translate(193.1 -86.83)"/><path class="cls-2" d="M559.5,172.89a18.64,18.64,0,0,0,31.8-13.19H572.69Z" transform="translate(193.1 -86.83)"/><path class="cls-4" d="M573.58,138.82v18.65h18.64A18.64,18.64,0,0,0,573.58,138.82Z" transform="translate(193.1 -86.83)"/><path class="cls-1" d="M-39.3,248.5l10.47,18.14a20.87,20.87,0,0,1-9.34,2.21,21,21,0,0,1-21-21,21,21,0,0,1,19.7-20.94v20.94A1.31,1.31,0,0,0-39.3,248.5Z" transform="translate(193.1 -86.83)"/><path class="cls-2" d="M-37,226.9v19.84h19.82A20.67,20.67,0,0,0-37,226.9Zm3,3a17.9,17.9,0,0,1,13.81,13.83H-34Z" transform="translate(193.1 -86.83)"/><path class="cls-2" d="M-26.55,265.34a21,21,0,0,0,9.32-16.18H-35.89Z" transform="translate(193.1 -86.83)"/><path class="cls-2" d="M57.56,262A16,16,0,0,1,65.88,253l6.79,14.58Z" transform="translate(193.1 -86.83)"/><path class="cls-2" d="M69.49,256.36l6.79,14.58-15.11-5.51a16.08,16.08,0,1,0,8.32-9.07Z" transform="translate(193.1 -86.83)"/><polygon class="cls-4" points="993.33 168.41 993.33 172.03 935.37 172.03 935.37 114.06 938.99 114.06 938.99 168.41 993.33 168.41"/><polygon class="cls-1" points="961.28 134.18 976.08 137.88 981.2 129.35 985.84 132.13 986.08 117.69 973.45 124.7 978.09 127.49 974.35 133.72 960.17 130.17 944.95 145.39 947.51 147.95 961.28 134.18"/><polygon class="cls-4" points="957.1 164.78 964.35 164.78 964.35 138.68 962.39 138.19 957.1 143.48 957.1 164.78"/><polygon class="cls-4" points="946.23 151.79 946.23 164.78 953.48 164.78 953.48 147.11 947.51 153.07 946.23 151.79"/><polygon class="cls-4" points="978.84 140.33 978.84 164.78 986.08 164.78 986.08 136.5 982.44 134.32 978.84 140.33"/><polygon class="cls-4" points="975.22 164.78 975.22 141.4 967.97 139.59 967.97 164.78 975.22 164.78"/><path class="cls-6" d="M275.5,293.5H187c-26,0-25,25.5-25,25.5v18.51" transform="translate(193.1 -86.83)"/><rect class="cls-4" x="499.1" y="206.17" width="194" height="29"/><rect class="cls-4" x="835.1" y="25.17" width="48.5" height="52.06"/><rect class="cls-1" x="835.1" y="81.47" width="48.5" height="18.6"/><rect class="cls-7" x="498.1" y="302.17" width="145" height="10"/><rect class="cls-7" x="650.1" y="302.17" width="42" height="10"/><rect class="cls-1" x="499.1" y="240.66" width="42.84" height="29.82"/><rect class="cls-1" x="356.05" y="306.25" width="38.68" height="30.31"/><rect class="cls-1" x="549.49" y="240.66" width="42.84" height="29.82"/><rect class="cls-1" x="599.87" y="240.66" width="42.84" height="29.82"/><rect class="cls-1" x="650.26" y="240.66" width="42.84" height="29.82"/><rect class="cls-2" x="315.33" y="254.66" width="79.54" height="10.42"/><rect class="cls-7" x="316.28" y="341.78" width="79.54" height="3.79"/><rect class="cls-7" x="316.28" y="349.35" width="79.54" height="3.79"/><rect class="cls-4" x="315.33" y="269.81" width="37.88" height="31.25"/><polygon class="cls-1" points="521.23 120.17 538.72 120.17 529.98 129.92 521.23 120.17"/><polygon class="cls-1" points="521.23 138.17 538.72 138.17 529.98 147.92 521.23 138.17"/><polygon class="cls-1" points="521.23 156.17 538.72 156.17 529.98 165.92 521.23 156.17"/><path class="cls-4" d="M307.18,100.69h-9.84v12.69a3.36,3.36,0,0,1-3.35,3.35H278.84V121a1.91,1.91,0,0,0,1.91,1.91h14.88l6.22,5.19c.81.68,1.25.4,1-.62l-1.21-4.54v0h5.57a1.91,1.91,0,0,0,1.91-1.91V102.6A1.91,1.91,0,0,0,307.18,100.69Z" transform="translate(193.1 -86.83)"/><path class="cls-4" d="M267.57,115.29h2.93v0l-1.21,4.54c-.17.64-.06,1,.25,1a1.3,1.3,0,0,0,.73-.37l6.22-5.19H294a1.91,1.91,0,0,0,1.91-1.91V95A1.91,1.91,0,0,0,294,93.09H267.57A1.91,1.91,0,0,0,265.65,95v18.38A1.91,1.91,0,0,0,267.57,115.29Z" transform="translate(193.1 -86.83)"/><g class="cls-8"><path class="cls-4" d="M-112.77,301.62h-19v24.55a6.49,6.49,0,0,1-6.48,6.48h-29.3v8.22a3.7,3.7,0,0,0,3.7,3.7h28.79l12,10c1.57,1.31,2.41.77,1.89-1.2l-2.35-8.78,0-.06h10.78a3.7,3.7,0,0,0,3.7-3.7V305.33A3.7,3.7,0,0,0-112.77,301.62Z" transform="translate(193.1 -86.83)"/><path class="cls-4" d="M-189.4,329.88h5.66l0,.06-2.35,8.78c-.33,1.25-.12,1.92.47,1.92a2.51,2.51,0,0,0,1.41-.72l12-10h33.91a3.7,3.7,0,0,0,3.7-3.7V290.62a3.7,3.7,0,0,0-3.7-3.7H-189.4a3.7,3.7,0,0,0-3.7,3.7v35.55A3.7,3.7,0,0,0-189.4,329.88Z" transform="translate(193.1 -86.83)"/></g><path class="cls-3" d="M351.93,191.07h-1a.83.83,0,0,1-.69-.54,7.94,7.94,0,0,0-.33-.8.82.82,0,0,1,.11-.86l.71-.71a1.29,1.29,0,0,0,0-1.82l-1.16-1.16a1.28,1.28,0,0,0-1.82,0l-.71.71a.73.73,0,0,1-.51.18.82.82,0,0,1-.35-.08,8,8,0,0,0-.8-.33.83.83,0,0,1-.54-.69v-1a1.29,1.29,0,0,0-1.28-1.28H341.9a1.29,1.29,0,0,0-1.28,1.28v1a.83.83,0,0,1-.54.69,8,8,0,0,0-.8.33.82.82,0,0,1-.35.08.73.73,0,0,1-.51-.18l-.71-.71a1.28,1.28,0,0,0-1.82,0l-1.16,1.16a1.28,1.28,0,0,0,0,1.82l.71.71a.82.82,0,0,1,.11.87,8,8,0,0,0-.33.8.83.83,0,0,1-.69.54h-1a1.29,1.29,0,0,0-1.28,1.28V194a1.29,1.29,0,0,0,1.28,1.28h1a.83.83,0,0,1,.69.54,7.92,7.92,0,0,0,.33.8.82.82,0,0,1-.11.86l-.71.71a1.29,1.29,0,0,0,0,1.82l1.16,1.16a1.28,1.28,0,0,0,1.82,0l.71-.71a.73.73,0,0,1,.51-.18.81.81,0,0,1,.35.08,8,8,0,0,0,.8.33.83.83,0,0,1,.54.69v1a1.29,1.29,0,0,0,1.28,1.28h1.64a1.29,1.29,0,0,0,1.28-1.28v-1a.83.83,0,0,1,.54-.69,8,8,0,0,0,.8-.33.82.82,0,0,1,.35-.08.73.73,0,0,1,.51.18l.71.71a1.28,1.28,0,0,0,1.82,0l1.16-1.16a1.29,1.29,0,0,0,0-1.82l-.71-.71a.82.82,0,0,1-.11-.86,8,8,0,0,0,.33-.8.83.83,0,0,1,.69-.54h1a1.29,1.29,0,0,0,1.28-1.28v-1.64A1.29,1.29,0,0,0,351.93,191.07Zm-5.44,2.1a3.76,3.76,0,1,1-3.76-3.76A3.77,3.77,0,0,1,346.49,193.18Z" transform="translate(193.1 -86.83)"/><path class="cls-3" d="M334.94,182.83a.21.21,0,0,1,.14-.13h.5a.86.86,0,0,0,.86-.86V181a.86.86,0,0,0-.86-.86h-.5a.21.21,0,0,1-.14-.13,4.18,4.18,0,0,0-.18-.42.2.2,0,0,1,0-.19l.36-.36a.86.86,0,0,0,0-1.21l-.58-.58a.86.86,0,0,0-1.21,0l-.36.36a.17.17,0,0,1-.1,0l-.08,0-.42-.18a.21.21,0,0,1-.13-.14v-.5a.86.86,0,0,0-.86-.86h-.82a.86.86,0,0,0-.86.86v.5a.21.21,0,0,1-.13.14l-.42.18-.08,0a.17.17,0,0,1-.1,0l-.36-.36a.86.86,0,0,0-1.21,0l-.58.58a.86.86,0,0,0,0,1.21l.36.36a.2.2,0,0,1,0,.19,4.18,4.18,0,0,0-.18.42.21.21,0,0,1-.14.13h-.5a.86.86,0,0,0-.86.86v.82a.86.86,0,0,0,.86.86h.5a.21.21,0,0,1,.14.13,4.12,4.12,0,0,0,.18.42.2.2,0,0,1,0,.19l-.36.36a.86.86,0,0,0,0,1.21l.58.58a.86.86,0,0,0,1.21,0l.36-.36a.17.17,0,0,1,.1,0l.08,0,.42.18a.21.21,0,0,1,.13.14v.5a.86.86,0,0,0,.86.86h.82a.86.86,0,0,0,.86-.86v-.5a.21.21,0,0,1,.13-.14l.42-.18.08,0a.17.17,0,0,1,.1,0l.36.36a.86.86,0,0,0,1.21,0l.58-.58a.86.86,0,0,0,0-1.21l-.36-.36a.2.2,0,0,1,0-.19A4.22,4.22,0,0,0,334.94,182.83Zm-2.29-1.39a1.67,1.67,0,1,1-1.67-1.67A1.67,1.67,0,0,1,332.65,181.44Z" transform="translate(193.1 -86.83)"/><line class="cls-9" x1="499.1" y1="275.67" x2="532.1" y2="275.67"/><line class="cls-9" x1="499.1" y1="279.67" x2="532.1" y2="279.67"/><line class="cls-9" x1="499.1" y1="283.67" x2="528.1" y2="283.67"/><line class="cls-9" x1="499.1" y1="287.67" x2="538.1" y2="287.67"/><line class="cls-9" x1="499.1" y1="291.67" x2="536.1" y2="291.67"/><line class="cls-9" x1="499.1" y1="295.67" x2="542.1" y2="295.67"/><line class="cls-9" x1="600.1" y1="275.67" x2="633.1" y2="275.67"/><line class="cls-9" x1="600.1" y1="279.67" x2="633.1" y2="279.67"/><line class="cls-9" x1="600.1" y1="283.67" x2="639.1" y2="283.67"/><line class="cls-9" x1="600.1" y1="287.67" x2="643.1" y2="287.67"/><line class="cls-9" x1="600.1" y1="291.67" x2="637.1" y2="291.67"/><line class="cls-9" x1="600.1" y1="295.67" x2="643.1" y2="295.67"/><line class="cls-9" x1="549.1" y1="275.67" x2="592.1" y2="275.67"/><line class="cls-9" x1="549.1" y1="279.67" x2="587.1" y2="279.67"/><line class="cls-9" x1="549.1" y1="283.67" x2="578.1" y2="283.67"/><line class="cls-9" x1="549.1" y1="287.67" x2="592.1" y2="287.67"/><line class="cls-9" x1="549.1" y1="291.67" x2="592.1" y2="291.67"/><line class="cls-9" x1="549.1" y1="295.67" x2="592.1" y2="295.67"/><line class="cls-10" x1="356.05" y1="270.28" x2="394.87" y2="270.28"/><line class="cls-10" x1="356.05" y1="274.07" x2="394.87" y2="274.07"/><line class="cls-10" x1="356.05" y1="277.86" x2="394.87" y2="277.86"/><line class="cls-10" x1="356.05" y1="281.65" x2="394.87" y2="281.65"/><line class="cls-10" x1="356.05" y1="285.43" x2="394.87" y2="285.43"/><line class="cls-10" x1="356.05" y1="289.22" x2="394.87" y2="289.22"/><line class="cls-10" x1="356.05" y1="293.01" x2="394.87" y2="293.01"/><line class="cls-10" x1="356.05" y1="296.8" x2="394.87" y2="296.8"/><line class="cls-10" x1="356.05" y1="300.59" x2="394.87" y2="300.59"/><path class="cls-2" d="M1032,289.78H835.86a4.6,4.6,0,0,0-4.9,4.49V429.6a5.18,5.18,0,0,0,4.9,5.18H1032c2.68,0,4.41-2.5,4.41-5.18V294.27A4.2,4.2,0,0,0,1032,289.78Z" transform="translate(193.1 -86.83)"/><path class="cls-3" d="M1024.78,418.08c0,2.95-.64,4.14-3.42,4.14H847.2c-2.78,0-6.41-1.19-6.41-4.14V305.68c0-2.95,3.64-5.45,6.41-5.45h174.17c2.78,0,3.42,2.5,3.42,5.45Z" transform="translate(193.1 -86.83)"/><rect class="cls-2" x="1005.88" y="352.39" width="241" height="12" rx="2.04" ry="2.04"/><rect class="cls-2" x="1044.88" y="235.39" width="161.67" height="18.5"/><rect class="cls-7" x="1044.88" y="260.39" width="162" height="9"/><line class="cls-9" x1="1044.88" y1="275.89" x2="1094.88" y2="275.89"/><line class="cls-9" x1="1044.88" y1="279.89" x2="1094.88" y2="279.89"/><line class="cls-9" x1="1044.88" y1="283.89" x2="1094.88" y2="283.89"/><line class="cls-9" x1="1044.88" y1="287.89" x2="1094.88" y2="287.89"/><line class="cls-9" x1="1044.88" y1="291.89" x2="1094.88" y2="291.89"/><line class="cls-9" x1="1044.88" y1="295.89" x2="1094.88" y2="295.89"/><line class="cls-9" x1="1044.88" y1="299.89" x2="1094.88" y2="299.89"/><line class="cls-9" x1="1044.88" y1="303.89" x2="1094.88" y2="303.89"/><line class="cls-9" x1="1044.88" y1="307.89" x2="1094.88" y2="307.89"/><line class="cls-9" x1="1100.88" y1="275.89" x2="1150.88" y2="275.89"/><line class="cls-9" x1="1100.88" y1="279.89" x2="1150.88" y2="279.89"/><line class="cls-9" x1="1100.88" y1="283.89" x2="1150.88" y2="283.89"/><line class="cls-9" x1="1100.88" y1="287.89" x2="1150.88" y2="287.89"/><line class="cls-9" x1="1100.88" y1="291.89" x2="1150.88" y2="291.89"/><line class="cls-9" x1="1100.88" y1="295.89" x2="1150.88" y2="295.89"/><line class="cls-9" x1="1100.88" y1="299.89" x2="1150.88" y2="299.89"/><line class="cls-9" x1="1100.88" y1="303.89" x2="1150.88" y2="303.89"/><line class="cls-9" x1="1100.88" y1="307.89" x2="1150.88" y2="307.89"/><line class="cls-9" x1="1156.88" y1="275.89" x2="1206.88" y2="275.89"/><line class="cls-9" x1="1156.88" y1="279.89" x2="1206.88" y2="279.89"/><line class="cls-9" x1="1156.88" y1="283.89" x2="1206.88" y2="283.89"/><line class="cls-9" x1="1156.88" y1="287.89" x2="1206.88" y2="287.89"/><line class="cls-9" x1="1156.88" y1="291.89" x2="1206.88" y2="291.89"/><line class="cls-9" x1="1156.88" y1="295.89" x2="1206.88" y2="295.89"/><line class="cls-9" x1="1156.88" y1="299.89" x2="1206.88" y2="299.89"/><line class="cls-9" x1="1156.88" y1="303.89" x2="1206.88" y2="303.89"/><line class="cls-9" x1="1156.88" y1="307.89" x2="1206.88" y2="307.89"/><path class="cls-2" d="M-7.94,97.81-8,194.31a11,11,0,0,0,11,11l139.94.08a11,11,0,0,0,11-11L154,97.9a11,11,0,0,0-11-11L3.07,86.83A11,11,0,0,0-7.94,97.81Z" transform="translate(193.1 -86.83)"/><path class="cls-3" d="M149.85,146.15a6.53,6.53,0,1,1-6.52-6.53A6.52,6.52,0,0,1,149.85,146.15Z" transform="translate(193.1 -86.83)"/><rect class="cls-3" x="198.35" y="11.15" width="125.81" height="96.23"/><rect class="cls-7" x="205.13" y="84.17" width="111" height="10"/><rect class="cls-2" x="204.8" y="21.32" width="112.41" height="16.05"/><line class="cls-9" x1="205.13" y1="44.67" x2="240.13" y2="44.67"/><line class="cls-9" x1="205.13" y1="48.67" x2="240.13" y2="48.67"/><line class="cls-9" x1="205.13" y1="52.67" x2="240.13" y2="52.67"/><line class="cls-9" x1="205.13" y1="56.67" x2="240.13" y2="56.67"/><line class="cls-9" x1="205.13" y1="60.67" x2="240.13" y2="60.67"/><line class="cls-9" x1="205.13" y1="64.67" x2="240.13" y2="64.67"/><line class="cls-9" x1="205.13" y1="68.67" x2="240.13" y2="68.67"/><line class="cls-9" x1="205.13" y1="72.67" x2="240.13" y2="72.67"/><line class="cls-9" x1="205.13" y1="76.67" x2="240.13" y2="76.67"/><line class="cls-9" x1="245.13" y1="44.67" x2="277.13" y2="44.67"/><line class="cls-9" x1="245.13" y1="48.67" x2="277.13" y2="48.67"/><line class="cls-9" x1="245.13" y1="52.67" x2="277.13" y2="52.67"/><line class="cls-9" x1="245.13" y1="56.67" x2="277.13" y2="56.67"/><line class="cls-9" x1="245.13" y1="60.67" x2="277.13" y2="60.67"/><line class="cls-9" x1="245.13" y1="64.67" x2="277.13" y2="64.67"/><line class="cls-9" x1="245.13" y1="68.67" x2="277.13" y2="68.67"/><line class="cls-9" x1="245.13" y1="72.67" x2="277.13" y2="72.67"/><line class="cls-9" x1="245.13" y1="76.67" x2="277.13" y2="76.67"/><line class="cls-9" x1="282.13" y1="44.67" x2="316.13" y2="44.67"/><line class="cls-9" x1="282.13" y1="48.67" x2="316.13" y2="48.67"/><line class="cls-9" x1="282.13" y1="52.67" x2="316.13" y2="52.67"/><line class="cls-9" x1="282.13" y1="56.67" x2="316.13" y2="56.67"/><line class="cls-9" x1="282.13" y1="60.67" x2="316.13" y2="60.67"/><line class="cls-9" x1="282.13" y1="64.67" x2="316.13" y2="64.67"/><line class="cls-9" x1="282.13" y1="68.67" x2="316.13" y2="68.67"/><line class="cls-9" x1="282.13" y1="72.67" x2="316.13" y2="72.67"/><line class="cls-9" x1="282.13" y1="76.67" x2="316.13" y2="76.67"/><line class="cls-10" x1="316.28" y1="306.27" x2="353.21" y2="306.27"/><line class="cls-10" x1="316.28" y1="310.05" x2="353.21" y2="310.05"/><line class="cls-10" x1="316.28" y1="313.84" x2="353.21" y2="313.84"/><line class="cls-10" x1="316.28" y1="317.63" x2="353.21" y2="317.63"/><line class="cls-10" x1="316.28" y1="321.42" x2="353.21" y2="321.42"/><line class="cls-10" x1="316.28" y1="325.2" x2="353.21" y2="325.2"/><line class="cls-10" x1="316.28" y1="328.99" x2="353.21" y2="328.99"/><line class="cls-10" x1="316.28" y1="332.78" x2="353.21" y2="332.78"/><line class="cls-10" x1="316.28" y1="336.57" x2="353.21" y2="336.57"/><path class="cls-2" d="M142,264.61l8.12-10.24a17.78,17.78,0,0,0,5.92,4.69l-8.12,10.24a3.78,3.78,0,1,1-5.92-4.69Z" transform="translate(193.1 -86.83)"/><path class="cls-2" d="M165.47,258.25A15.11,15.11,0,1,0,148.73,245,15.11,15.11,0,0,0,165.47,258.25Zm-13-13.71a11.33,11.33,0,1,1,12.55,10A11.34,11.34,0,0,1,152.48,244.54Z" transform="translate(193.1 -86.83)"/><path class="cls-2" d="M172.49,242.24l-2.5.29a6.3,6.3,0,0,0-7-5.53l-.29-2.5A8.82,8.82,0,0,1,172.49,242.24Z" transform="translate(193.1 -86.83)"/><path id="MobileMe-2" data-name="MobileMe" class="cls-1" d="M-96.31,425.43a22.91,22.91,0,0,0,22.82,23h70.6a22.9,22.9,0,0,0,22.81-23A22.94,22.94,0,0,0,.69,402.73a14.66,14.66,0,0,0,.21-2.48,14.51,14.51,0,0,0-14.46-14.57,14.3,14.3,0,0,0-9.34,3.46c-4.49-10.19-10.24-19.49-26.39-19.49-19.58,0-28.86,15.22-28.86,31.27,0,.67,0,1.34.07,2A23,23,0,0,0-96.31,425.43Z" transform="translate(193.1 -86.83)"/><polygon class="cls-1" points="277.81 330.95 277.81 313.45 268.06 322.2 277.81 330.95"/><polygon class="cls-1" points="259.81 330.95 259.81 313.45 250.06 322.2 259.81 330.95"/><polygon class="cls-1" points="241.81 330.95 241.81 313.45 232.06 322.2 241.81 330.95"/><path class="cls-3" d="M-28.38,411.46a7.83,7.83,0,0,1-7.83-7.83,7.83,7.83,0,0,1,7.83-7.83,7.83,7.83,0,0,1,7.83,7.83A7.83,7.83,0,0,1-28.38,411.46Zm.76,17.44v3.71a46.6,46.6,0,0,0,12-2.16l.56-.18,0-.13V422a10,10,0,0,0-10-10h-6.64a10,10,0,0,0-1.71.16A7.23,7.23,0,0,1-31,417.49a7.21,7.21,0,0,1-1.1,3.82A8.63,8.63,0,0,1-27.63,428.9Zm-14.55-25.27A7.83,7.83,0,0,0-50,395.79a7.83,7.83,0,0,0-7.83,7.83A7.83,7.83,0,0,0-50,411.46,7.83,7.83,0,0,0-42.18,403.63ZM-63.36,422v8.13h.06l.52.27c.26.13,4.54,2.24,11.9,2.24.6,0,1.24,0,1.89-.05V428.9a8.63,8.63,0,0,1,4.52-7.58,7.21,7.21,0,0,1-1.1-3.82,7.23,7.23,0,0,1,2-5,10,10,0,0,0-3.13-.51h-6.64A10,10,0,0,0-63.36,422Zm25-9.12a4.86,4.86,0,0,0-4.86,4.86,4.86,4.86,0,0,0,4.86,4.86,4.86,4.86,0,0,0,4.86-4.86A4.86,4.86,0,0,0-38.31,412.9Zm-8.28,16.27v5h0l.32.17a17.37,17.37,0,0,0,7.38,1.39,28.31,28.31,0,0,0,8.46-1.36l.35-.11v-5.12a6.23,6.23,0,0,0-6.22-6.22h-4.12A6.22,6.22,0,0,0-46.59,429.16Z" transform="translate(193.1 -86.83)"/><path class="cls-4" d="M242.6,182.69c-17.92,0-32.44,11.8-32.44,26.36s14.52,26.36,32.44,26.36a40.07,40.07,0,0,0,5.06-.32c7,7,15.29,8.22,23.33,8.4v-1.71c-4.34-2.13-8.11-6-8.11-10.43a12.23,12.23,0,0,1,.14-1.82c7.34-4.83,12-12.21,12-20.48C275,194.49,260.51,182.69,242.6,182.69Z" transform="translate(193.1 -86.83)"/><path class="cls-3" d="M251.13,203.4l-1.25.43-1.29-3.73a7.59,7.59,0,1,0-14.33,5l1.29,3.73-1.36.47a1.84,1.84,0,0,0-1.05,1.82l4.94,14.23c.21.59,1.16.4,1.75.19l16.95-5.88c.59-.21.62-.35.41-.94l-4.94-14.23C252,203.88,251.72,203.19,251.13,203.4ZM247,204.83l-8.6,3-1.29-3.73a4.56,4.56,0,1,1,8.6-3Z" transform="translate(193.1 -86.83)"/><path class="cls-3" d="M596.47,273.24l-3.56-3.11-10.17,8.72a2.08,2.08,0,0,0,1.42.56h24.61a2.07,2.07,0,0,0,1.41-.56L600,270.12Z" transform="translate(193.1 -86.83)"/><path class="cls-3" d="M610.2,259.42a2.07,2.07,0,0,0-1.42-.56H584.17a2.06,2.06,0,0,0-1.41.56l13.72,11.76Z" transform="translate(193.1 -86.83)"/><polygon class="cls-3" points="775.2 173.84 775.2 190.9 785.13 182.46 775.2 173.84"/><polygon class="cls-3" points="794.02 182.46 803.95 190.9 803.95 173.83 794.02 182.46"/><line class="cls-6" x1="720.06" y1="287.89" x2="1024.1" y2="287.89"/><path id="MobileMe-3" data-name="MobileMe" class="cls-4" d="M612.5,416.15A22.56,22.56,0,0,0,635,438.8h69.54a22.66,22.66,0,0,0,3.53-45A14.34,14.34,0,0,0,694,377a14.09,14.09,0,0,0-9.2,3.41c-4.42-10-10.09-19.2-26-19.2-19.29,0-28.43,15-28.43,30.8,0,.66,0,1.32.07,2A22.61,22.61,0,0,0,612.5,416.15Z" transform="translate(193.1 -86.83)"/><polygon class="cls-4" points="742.98 319.39 742.98 301.89 752.73 310.64 742.98 319.39"/><polygon class="cls-4" points="761.87 319.93 761.87 302.43 771.62 311.18 761.87 319.93"/><polygon class="cls-4" points="779.87 319.93 779.87 302.43 789.62 311.18 779.87 319.93"/><path class="cls-3" d="M656,421.26a27,27,0,0,0,6.18,3.1l1.12.39c.38.16.78.32,1.18.47a29.26,29.26,0,0,0,6.73,1.63c1.87-.06,3.15-.8,3.63-2.09l10.8-29.24a2.83,2.83,0,0,0-1.63-3.65h0a64.62,64.62,0,0,0-7.18-3.08l-.53-.19a58.12,58.12,0,0,0-7.24-2.25,2.86,2.86,0,0,0-3.67,1.69l-10.8,29.24A3.21,3.21,0,0,0,656,421.26Zm3.45-9.45.38.4a1.13,1.13,0,0,1,.14,1.07l-.25.67a.31.31,0,0,1-.47.16l-.5-.32a.52.52,0,0,1-.2-.59l.48-1.3A.23.23,0,0,1,659.41,411.81Zm0-1.13.48-1.3a.23.23,0,0,1,.41-.09l.38.4a1.12,1.12,0,0,1,.14,1.07l-.25.67a.31.31,0,0,1-.47.16l-.5-.32A.52.52,0,0,1,659.45,410.69Zm-.64,5.82a.31.31,0,0,1-.47.16l-.5-.32a.52.52,0,0,1-.2-.59l.48-1.3a.23.23,0,0,1,.41-.09l.39.4a1.13,1.13,0,0,1,.14,1.07Zm2.54-3.65.38.4a1.13,1.13,0,0,1,.14,1.07l-.25.67a.31.31,0,0,1-.47.16l-.5-.32a.52.52,0,0,1-.2-.59l.48-1.3A.23.23,0,0,1,661.35,412.87Zm0-1.13.48-1.3a.23.23,0,0,1,.41-.09l.38.4a1.13,1.13,0,0,1,.14,1.07l-.25.67a.31.31,0,0,1-.47.16l-.5-.32A.52.52,0,0,1,661.39,411.74Zm-.64,5.82a.31.31,0,0,1-.47.16l-.5-.32a.52.52,0,0,1-.2-.59l.48-1.3a.23.23,0,0,1,.41-.09l.38.4a1.12,1.12,0,0,1,.14,1.07Zm2.58-3.71.38.4a1.13,1.13,0,0,1,.14,1.07l-.25.67a.3.3,0,0,1-.47.16l-.5-.32a.52.52,0,0,1-.2-.59l.48-1.3A.23.23,0,0,1,663.33,413.85Zm0-1.13.48-1.3a.23.23,0,0,1,.41-.09l.38.4a1.13,1.13,0,0,1,.14,1.07l-.25.67a.3.3,0,0,1-.47.16l-.5-.32A.52.52,0,0,1,663.36,412.73Zm-.64,5.82a.31.31,0,0,1-.47.16l-.5-.32a.52.52,0,0,1-.2-.59l.48-1.3a.23.23,0,0,1,.41-.09l.38.4a1.13,1.13,0,0,1,.14,1.07Zm2.62-3.76.38.4a1.13,1.13,0,0,1,.14,1.07l-.25.67a.31.31,0,0,1-.47.16l-.5-.32a.51.51,0,0,1-.2-.59l.48-1.3A.23.23,0,0,1,665.34,414.79Zm0-1.13.48-1.3a.23.23,0,0,1,.41-.09l.38.4a1.13,1.13,0,0,1,.14,1.07l-.25.67a.31.31,0,0,1-.47.16l-.5-.32A.52.52,0,0,1,665.38,413.66Zm-.64,5.82a.31.31,0,0,1-.47.16l-.5-.32a.52.52,0,0,1-.2-.59l.48-1.3a.23.23,0,0,1,.41-.09l.38.4a1.13,1.13,0,0,1,.14,1.07Zm2.57-8.76a1.08,1.08,0,1,1,.64,1.39A1.08,1.08,0,0,1,667.3,410.73ZM667,420a.52.52,0,0,1-.53.32l-.59-.08a.31.31,0,0,1-.26-.43l.25-.67a1.13,1.13,0,0,1,.8-.72l.55-.06a.23.23,0,0,1,.26.33Zm1-2.52a.51.51,0,0,1-.53.32l-.59-.08a.31.31,0,0,1-.26-.43l.25-.67a1.13,1.13,0,0,1,.8-.72l.55-.06a.23.23,0,0,1,.26.33l-.48,1.3Zm.93-2.52a.51.51,0,0,1-.53.32l-.59-.08a.31.31,0,0,1-.26-.43l.25-.67a1.13,1.13,0,0,1,.8-.72l.55-.06a.23.23,0,0,1,.26.33l-.48,1.3Zm.22,5.63a.52.52,0,0,1-.53.32l-.59-.08a.31.31,0,0,1-.25-.43l.25-.67a1.13,1.13,0,0,1,.8-.72l.55-.06a.23.23,0,0,1,.26.33l-.48,1.3Zm1-2.52a.52.52,0,0,1-.53.32l-.59-.08a.31.31,0,0,1-.25-.43l.25-.67a1.13,1.13,0,0,1,.8-.72l.55-.06a.23.23,0,0,1,.26.33l-.48,1.3Zm.93-2.52a.51.51,0,0,1-.53.32l-.59-.08a.3.3,0,0,1-.25-.43l.25-.67a1.13,1.13,0,0,1,.8-.72l.55-.06a.23.23,0,0,1,.26.33l-.48,1.3Zm.22,5.57a.52.52,0,0,1-.53.32l-.59-.08a.31.31,0,0,1-.26-.43l.25-.67a1.13,1.13,0,0,1,.8-.72l.55-.06a.23.23,0,0,1,.26.33Zm1-2.52a.52.52,0,0,1-.53.32l-.59-.08a.3.3,0,0,1-.25-.43l.25-.67a1.13,1.13,0,0,1,.8-.72l.55-.06a.23.23,0,0,1,.26.33l-.48,1.3Zm.93-2.52a.51.51,0,0,1-.53.32l-.59-.08a.31.31,0,0,1-.25-.43l.25-.67a1.13,1.13,0,0,1,.8-.72l.55-.06a.23.23,0,0,1,.26.33l-.48,1.3Zm.24,5.5a.52.52,0,0,1-.53.32l-.59-.08a.3.3,0,0,1-.25-.43l.25-.67a1.13,1.13,0,0,1,.8-.72l.55-.06a.23.23,0,0,1,.26.33l-.48,1.3Zm1-2.52a.52.52,0,0,1-.53.32l-.59-.08a.31.31,0,0,1-.26-.43l.25-.67a1.13,1.13,0,0,1,.8-.72l.56-.06a.23.23,0,0,1,.26.33l-.48,1.3Zm.93-2.52a.52.52,0,0,1-.53.32l-.59-.08a.31.31,0,0,1-.26-.43l.25-.67a1.13,1.13,0,0,1,.8-.72l.56-.06a.23.23,0,0,1,.26.33l-.48,1.3Zm-2-25.69,4.38,1.62a.32.32,0,1,1-.22.6l-4.38-1.62a.32.32,0,1,1,.22-.6Zm-7.5,1.63,16.51,6.1-4.7,12.73-16.51-6.1Z" transform="translate(193.1 -86.83)"/><path id="MobileMe-4" data-name="MobileMe" class="cls-11" d="M854.28,229.85a27.36,27.36,0,0,0,27.26,27.46h84.34a27.48,27.48,0,0,0,4.28-54.59,17.51,17.51,0,0,0,.26-3,17.34,17.34,0,0,0-17.27-17.4A17.09,17.09,0,0,0,942,186.49c-5.36-12.18-12.24-23.29-31.52-23.29-23.39,0-34.48,18.18-34.48,37.36,0,.8,0,1.6.09,2.38A27.42,27.42,0,0,0,854.28,229.85Z" transform="translate(193.1 -86.83)"/></svg>