<svg id="Layer_1" data-name="Layer 1" xmlns="http://www.w3.org/2000/svg" viewBox="0 0 208.92 205.56">
    <defs>
        <style>
            .cls-1 {
                fill: #1d77b6;
            }

            .cls-2 {
                opacity: 0.3;
            }

            .cls-3 {
                fill: #fff;
            }

            .cls-4 {
                fill: #7adc9c;
            }

            .cls-5 {
                fill: #faa426;
            }

            .cls-6 {
                fill: #2da0d1;
            }

            .cls-7 {
                fill: #f9ca8b;
            }
        </style>
    </defs>
    <title>services-agile-2</title>
    
    <!-- Arrow 2 -->
    <path class="cls-4" d="M-727.92,825.91l-24.27,10.48-2.75,25.56a55.33,55.33,0,0,1,20.53,24.21,55.2,55.2,0,0,1,4.18,29l24.18-10.69,20.59,15.32a99.91,99.91,0,0,0-7.71-51.61A100,100,0,0,0-727.92,825.91Z"
        transform="translate(893.72 -807.33)" />
    
    <path class="cls-2" d="M-754.95,861.95a55.33,55.33,0,0,1,20.53,24.21,55.2,55.2,0,0,1,4.18,29l5.32-2.35a61.58,61.58,0,0,0-5-28.56,61.81,61.81,0,0,0-24.38-28Z"
        transform="translate(893.72 -807.33)" />
    <path class="cls-3" d="M-723,854.26a4,4,0,0,1-.1,2.16,4.18,4.18,0,0,1-1.23,1.85,4.13,4.13,0,0,1-2,1,4,4,0,0,1-2.17-.17,4.56,4.56,0,0,1-1.89-1.31l-2.24-2.53,6.29-5.57,2.27,2.56A4.52,4.52,0,0,1-723,854.26Zm-5.19,3.79a3,3,0,0,0,1.59.1,3.17,3.17,0,0,0,1.48-.76,3.14,3.14,0,0,0,.93-1.39,3,3,0,0,0,.09-1.61,3.2,3.2,0,0,0-.76-1.48l-1.49-1.68-4.72,4.18,1.52,1.72A3.15,3.15,0,0,0-728.23,858.05Z"
        transform="translate(893.72 -807.33)" />
    <path class="cls-3" d="M-719.48,862.81a3.55,3.55,0,0,1-1.52,2l-.3.2-2.93-4.07a2.16,2.16,0,0,0-.68,1.37,2.12,2.12,0,0,0,.43,1.46,2.68,2.68,0,0,0,.78.73,2.53,2.53,0,0,0,1,.35l-.16.87a3.2,3.2,0,0,1-1.29-.46,3.77,3.77,0,0,1-1.08-1,3.35,3.35,0,0,1-.64-1.58,2.82,2.82,0,0,1,.26-1.58,3.4,3.4,0,0,1,1.12-1.3,3.36,3.36,0,0,1,1.58-.64,2.94,2.94,0,0,1,1.58.25,3.24,3.24,0,0,1,1.29,1.09A2.8,2.8,0,0,1-719.48,862.81Zm-1.7.91a2,2,0,0,0,.77-1.26,2,2,0,0,0-.41-1.42,2,2,0,0,0-1.22-.84,2.12,2.12,0,0,0-1.49.25Z"
        transform="translate(893.72 -807.33)" />
    <path class="cls-3" d="M-716.89,867.29a3.1,3.1,0,0,0-.35-.85,1.54,1.54,0,0,0-.58-.6.62.62,0,0,0-.65,0,.63.63,0,0,0-.32.59,5,5,0,0,0,.19,1.1,8.14,8.14,0,0,1,.23,1.12,2,2,0,0,1-.11.9,1.54,1.54,0,0,1-.69.76,1.56,1.56,0,0,1-1.52.13,2.9,2.9,0,0,1-1.27-1.2,4.22,4.22,0,0,1-.52-1.29,3.1,3.1,0,0,1,0-1.29l.92-.06a3,3,0,0,0,0,1.13,3.25,3.25,0,0,0,.4,1.08,1.7,1.7,0,0,0,.64.65.68.68,0,0,0,.71,0,.71.71,0,0,0,.37-.64,4.79,4.79,0,0,0-.19-1.14,7,7,0,0,1-.23-1.08,1.82,1.82,0,0,1,.11-.87,1.48,1.48,0,0,1,.65-.73,1.51,1.51,0,0,1,1.47-.14,2.81,2.81,0,0,1,1.22,1.15,4.11,4.11,0,0,1,.45,1.05,3.39,3.39,0,0,1,.13,1.05l-.94.09A3.79,3.79,0,0,0-716.89,867.29Z"
        transform="translate(893.72 -807.33)" />
    <path class="cls-3" d="M-714.47,869.5l.53,1-5.6,3-.53-1Zm2.55-.17a.71.71,0,0,1-.36.42.7.7,0,0,1-.55.07.67.67,0,0,1-.42-.34.67.67,0,0,1-.05-.54.71.71,0,0,1,.36-.42.71.71,0,0,1,.55-.07.67.67,0,0,1,.42.34A.67.67,0,0,1-711.92,869.33Z"
        transform="translate(893.72 -807.33)" />
    <path class="cls-3" d="M-710.48,877.79l-5.2,2.34a3.1,3.1,0,0,1-1.62.29,2.68,2.68,0,0,1-1.42-.6,3.76,3.76,0,0,1-1-1.4,4.34,4.34,0,0,1-.27-2.75l.95.11a3.33,3.33,0,0,0-.12,1.12,3.2,3.2,0,0,0,.28,1.08,2.21,2.21,0,0,0,1.15,1.21,1.93,1.93,0,0,0,1.59-.07l.81-.36a2.36,2.36,0,0,1-1.19-.46,2.7,2.7,0,0,1-.83-1.07,2.9,2.9,0,0,1-.26-1.53,2.65,2.65,0,0,1,.57-1.37,3.41,3.41,0,0,1,1.31-1,3.33,3.33,0,0,1,1.58-.32,2.64,2.64,0,0,1,1.39.49,2.92,2.92,0,0,1,1,1.21,2.73,2.73,0,0,1,.26,1.34,2.33,2.33,0,0,1-.44,1.19l1.06-.48Zm-5.32.09a1.94,1.94,0,0,0,1,.34,2.32,2.32,0,0,0,1.11-.22,2.35,2.35,0,0,0,.91-.69,1.93,1.93,0,0,0,.4-1,2,2,0,0,0-.18-1.06,2,2,0,0,0-.68-.84,1.94,1.94,0,0,0-1-.35,2.29,2.29,0,0,0-1.12.21,2.2,2.2,0,0,0-1.16,1.16,1.91,1.91,0,0,0,.05,1.58A2,2,0,0,0-715.79,877.88Z"
        transform="translate(893.72 -807.33)" />
    <path class="cls-3" d="M-708.47,885.26a2.48,2.48,0,0,1-1.51,1.18l-3.72,1.26-.36-1.06,3.43-1.17a1.69,1.69,0,0,0,1-.83,1.67,1.67,0,0,0,0-1.32,1.91,1.91,0,0,0-1-1.14,2.14,2.14,0,0,0-1.51-.13l-3.21,1.09-.36-1.06,6-2,.36,1.06-1.27.43a2.45,2.45,0,0,1,2.08,1.84A2.34,2.34,0,0,1-708.47,885.26Z"
        transform="translate(893.72 -807.33)" />
    
</svg>