<svg id="Layer_1" data-name="Layer 1" xmlns="http://www.w3.org/2000/svg" viewBox="0 0 208.92 205.56">
    <defs>
        <style>
            .cls-1 {
                fill: #1d77b6;
            }

            .cls-2 {
                opacity: 0.3;
            }

            .cls-3 {
                fill: #fff;
            }

            .cls-4 {
                fill: #7adc9c;
            }

            .cls-5 {
                fill: #faa426;
            }

            .cls-6 {
                fill: #2da0d1;
            }

            .cls-7 {
                fill: #f9ca8b;
            }
        </style>
    </defs>
    <title>services-agile-2</title>
    <!-- Arrow 3 -->
    <path class="cls-5" d="M-830.26,816.29l-.28.13-3.06,26.27,20.72,15.13.64-.3a60.47,60.47,0,0,1,57.29,4.42l2.75-25.56,24.27-10.48A105.42,105.42,0,0,0-830.26,816.29Z"
        transform="translate(893.72 -807.33)" />
    <path class="cls-2" d="M-814.56,852.21c-1.24.54-2.45,1.13-3.64,1.74l5.32,3.89.64-.3a60.47,60.47,0,0,1,57.29,4.42l.62-5.72A65.14,65.14,0,0,0-814.56,852.21Z"
        transform="translate(893.72 -807.33)" />
    <path class="cls-3" d="M-803.88,824.71a1.82,1.82,0,0,1,1,1.37,1.86,1.86,0,0,1-.16,1.27,2,2,0,0,1-1,.87,2.18,2.18,0,0,1,1.49.42,2.09,2.09,0,0,1,.77,1.3,2,2,0,0,1-.46,1.81,3.67,3.67,0,0,1-2.07,1l-3.58.72-1.66-8.23,3.52-.71A3.28,3.28,0,0,1-803.88,824.71Zm-.33,2.8a1.12,1.12,0,0,0,.23-1,1.09,1.09,0,0,0-.6-.82,1.91,1.91,0,0,0-1.24-.07l-2.33.47.49,2.46,2.33-.47A1.94,1.94,0,0,0-804.21,827.5Zm1,3.63a1.18,1.18,0,0,0,.31-1.11,1.14,1.14,0,0,0-.71-.87,2.57,2.57,0,0,0-1.51-.06l-2.33.47.54,2.68,2.33-.47A2.48,2.48,0,0,0-803.21,831.13Z"
        transform="translate(893.72 -807.33)" />
    <path class="cls-3" d="M-794.76,825.12l.62,6.32-1.12.11-.13-1.34a2.39,2.39,0,0,1-2.21,1.6,2.27,2.27,0,0,1-1.78-.48,2.51,2.51,0,0,1-.8-1.74l-.38-3.91,1.12-.11.35,3.61a1.73,1.73,0,0,0,.56,1.21,1.6,1.6,0,0,0,1.24.33,1.78,1.78,0,0,0,1.34-.76,2.36,2.36,0,0,0,.36-1.62l-.31-3.11Z"
        transform="translate(893.72 -807.33)" />
    <path class="cls-3" d="M-791.31,822.68a.71.71,0,0,1,.21.51.71.71,0,0,1-.18.52.67.67,0,0,1-.49.22.66.66,0,0,1-.5-.19.71.71,0,0,1-.21-.51.71.71,0,0,1,.18-.52.66.66,0,0,1,.49-.22A.67.67,0,0,1-791.31,822.68Zm-1,2.36,1.12,0,.19,6.35-1.12,0Z"
        transform="translate(893.72 -807.33)" />
    <path class="cls-3" d="M-788.75,822.43h1.12l-.1,8.9h-1.12Z" transform="translate(893.72 -807.33)" />
    <path class="cls-3" d="M-779,823l-.74,8.87-1.11-.09.1-1.26a2.53,2.53,0,0,1-1,.9,2.83,2.83,0,0,1-1.43.22,3,3,0,0,1-1.55-.54,2.83,2.83,0,0,1-1-1.24,3.59,3.59,0,0,1-.24-1.71,3.5,3.5,0,0,1,.52-1.62,2.83,2.83,0,0,1,1.16-1,3,3,0,0,1,1.61-.27,2.9,2.9,0,0,1,1.4.45,2.39,2.39,0,0,1,.88,1l.32-3.8Zm-2.79,7.51a2,2,0,0,0,.83-.74,2.42,2.42,0,0,0,.37-1.14,2.45,2.45,0,0,0-.18-1.19,2,2,0,0,0-.69-.86,2.12,2.12,0,0,0-1.08-.38,2.09,2.09,0,0,0-1.13.2,2.07,2.07,0,0,0-.83.74,2.43,2.43,0,0,0-.37,1.14,2.43,2.43,0,0,0,.18,1.18,2,2,0,0,0,.69.87,2.13,2.13,0,0,0,1.08.38A2.14,2.14,0,0,0-781.77,830.49Z"
        transform="translate(893.72 -807.33)" />
   
</svg>