<svg id="Layer_1" data-name="Layer 1" xmlns="http://www.w3.org/2000/svg" viewBox="0 0 208.92 205.56">
    <defs>
        <style>
            .cls-1 {
                fill: #1d77b6;
            }

            .cls-2 {
                opacity: 0.3;
            }

            .cls-3 {
                fill: #fff;
            }

            .cls-4 {
                fill: #7adc9c;
            }

            .cls-5 {
                fill: #faa426;
            }

            .cls-6 {
                fill: #2da0d1;
            }

            .cls-7 {
                fill: #f9ca8b;
            }
        </style>
    </defs>
    <title>services-agile-2</title>    
    <!-- Arrow 4 -->
    <path class="cls-6" d="M-830.54,816.42a105.38,105.38,0,0,0-62.4,83.11l21,15.61,23.73-10.49a60.35,60.35,0,0,1,35.35-46.83l-20.72-15.13Z"
        transform="translate(893.72 -807.33)" />
    <path class="cls-2" d="M-812.88,857.83l-5.32-3.89A64.9,64.9,0,0,0-853.58,907l5.35-2.37A60.35,60.35,0,0,1-812.88,857.83Z"
        transform="translate(893.72 -807.33)" />
    <path class="cls-3" d="M-871.23,880.37l2.47-6.08,1,.4-1,2.51L-862,880l-.43,1.07-6.8-2.76-1,2.5Z" transform="translate(893.72 -807.33)"
    />
    <path class="cls-3" d="M-863.68,870.53a3.56,3.56,0,0,1,2.5.4l.32.17-2.23,4.49a2.16,2.16,0,0,0,1.53,0,2.11,2.11,0,0,0,1.09-1.06,2.69,2.69,0,0,0,.28-1,2.52,2.52,0,0,0-.14-1l.84-.27a3.2,3.2,0,0,1,.2,1.36,3.77,3.77,0,0,1-.4,1.43,3.37,3.37,0,0,1-1.1,1.31,2.81,2.81,0,0,1-1.52.51,3.4,3.4,0,0,1-1.67-.38,3.38,3.38,0,0,1-1.31-1.1,2.94,2.94,0,0,1-.52-1.51,3.24,3.24,0,0,1,.36-1.66A2.8,2.8,0,0,1-863.68,870.53Zm1.6,1.08a1.94,1.94,0,0,0-1.48-.09,2,2,0,0,0-1.06,1,2,2,0,0,0-.17,1.48,2.11,2.11,0,0,0,.92,1.2Z"
        transform="translate(893.72 -807.33)" />
    <path class="cls-3" d="M-860.94,866.16a3.12,3.12,0,0,0-.59.7,1.55,1.55,0,0,0-.25.79.62.62,0,0,0,.33.55.63.63,0,0,0,.67,0,5.07,5.07,0,0,0,.88-.69,8.2,8.2,0,0,1,.88-.73,1.91,1.91,0,0,1,.85-.32,1.53,1.53,0,0,1,1,.25,1.56,1.56,0,0,1,.83,1.28,2.9,2.9,0,0,1-.46,1.69,4.22,4.22,0,0,1-.9,1.06,3.1,3.1,0,0,1-1.13.63l-.49-.78a3,3,0,0,0,1-.55,3.26,3.26,0,0,0,.77-.86,1.7,1.7,0,0,0,.28-.87.68.68,0,0,0-.36-.61.71.71,0,0,0-.74,0,4.8,4.8,0,0,0-.92.7,7.08,7.08,0,0,1-.85.7,1.83,1.83,0,0,1-.82.31,1.48,1.48,0,0,1-.95-.24,1.51,1.51,0,0,1-.81-1.24,2.8,2.8,0,0,1,.45-1.62,4.07,4.07,0,0,1,.72-.89,3.43,3.43,0,0,1,.87-.61l.52.79A3.8,3.8,0,0,0-860.94,866.16Z"
        transform="translate(893.72 -807.33)" />
    <path class="cls-3" d="M-853.3,863.5a2.74,2.74,0,0,1-.46,1.49,1.7,1.7,0,0,1-1.06.75,1.8,1.8,0,0,1-1.39-.38l-2.9-2-.51.74-.7-.48.51-.74-1.41-1,.64-.93,1.41,1,1.1-1.6.7.48-1.1,1.6,2.73,1.87a1.18,1.18,0,0,0,.73.27.71.71,0,0,0,.51-.35,2,2,0,0,0,.31-1Z"
        transform="translate(893.72 -807.33)" />
</svg>