<svg id="Objects" xmlns="http://www.w3.org/2000/svg" xmlns:xlink="http://www.w3.org/1999/xlink" viewBox="0 0 121.89 123.59"><defs><style>.cls-1{fill:url(#linear-gradient);}.cls-2{fill:#fff;}</style><linearGradient id="linear-gradient" x1="-946.29" y1="69.67" x2="-1040.28" y2="192.41" gradientUnits="userSpaceOnUse"><stop offset="0.12" stop-color="#c6cfd6"/><stop offset="0.91" stop-color="#f5f6f8"/></linearGradient></defs><title>services-system-4</title><g id="seo"><path class="cls-1" d="M-991.94,216.18V200.09l-12-1.8a49.67,49.67,0,0,0-5.42-14.35l7.91-9-10.34-12.32-10.44,6.39a49.87,49.87,0,0,0-13.28-7.41l.31-12.1-15.84-2.79-4,11.84a49.83,49.83,0,0,0-14.68,2.85l-7.72-9.69-13.93,8,4.68,11.89a50.32,50.32,0,0,0-9.26,11.41l-12.4-2.51-5.5,15.11,11.39,6.2a50.45,50.45,0,0,0-.45,6.65,50.32,50.32,0,0,0,.63,7.89l-11.21,6.1,5.5,15.11,12.71-2.58a50.26,50.26,0,0,0,9.46,11.1l-4.65,11.82,13.93,8,8-10a49.9,49.9,0,0,0,14.57,2.5l4,11.82,15.84-2.79-.32-12.49a50,50,0,0,0,13-7.58l10.38,6.35,10.34-12.32-8.1-9.17a49.65,49.65,0,0,0,5.12-14.4Zm-60.95,29a36.58,36.58,0,0,1-36.58-36.58A36.58,36.58,0,0,1-1052.89,172a36.58,36.58,0,0,1,36.58,36.58A36.59,36.59,0,0,1-1052.89,245.15Z" transform="translate(1113.83 -146.77)"/><path class="cls-2" d="M-1102.49,216.58l-11,6,.53,1.46,10.68-5.81C-1102.35,217.67-1102.42,217.12-1102.49,216.58Z" transform="translate(1113.83 -146.77)"/><path class="cls-2" d="M-1016.3,210.31c0-.29,0-.58,0-.87a36.58,36.58,0,0,1-36.56,35.71,36.58,36.58,0,0,1-36.56-35.71c0,.29,0,.58,0,.88a36.58,36.58,0,0,0,36.58,36.58A36.59,36.59,0,0,0-1016.3,210.31Z" transform="translate(1113.83 -146.77)"/><path class="cls-2" d="M-1102.88,209.38a51,51,0,0,1,.44-5.73l-.19-.11a49.36,49.36,0,0,0-.26,5C-1102.89,208.84-1102.88,209.11-1102.88,209.38Z" transform="translate(1113.83 -146.77)"/><path class="cls-2" d="M-1035.52,163.41a49.87,49.87,0,0,1,13.28,7.41l10.44-6.39,9.59,11.42.75-.85-10.34-12.32-10.44,6.39a49.88,49.88,0,0,0-13.24-7.39Z" transform="translate(1113.83 -146.77)"/><path class="cls-2" d="M-1086.31,247.46l-4.15,10.54.56.32,4.09-10.39C-1086,247.78-1086.14,247.62-1086.31,247.46Z" transform="translate(1113.83 -146.77)"/><path class="cls-2" d="M-1034.52,256.82l.28,10.75h0l-.28-10.76Z" transform="translate(1113.83 -146.77)"/><path class="cls-2" d="M-1003.94,198.3a49.59,49.59,0,0,0-4.84-13.26l-.59.66a49.67,49.67,0,0,1,5.42,14.35l12,1.8v-1.75Z" transform="translate(1113.83 -146.77)"/><path class="cls-2" d="M-1008.89,234.1l7.35,8.32.75-.9-7.53-8.52C-1008.51,233.37-1008.69,233.74-1008.89,234.1Z" transform="translate(1113.83 -146.77)"/><path class="cls-2" d="M-1077.42,153.52l7.72,9.69a49.83,49.83,0,0,1,14.68-2.85l4-11.84,15.8,2.78,0-1.74-15.84-2.79-4,11.84a49.83,49.83,0,0,0-14.68,2.85l-7.72-9.69-13.93,8,.56,1.43Z" transform="translate(1113.83 -146.77)"/><path class="cls-2" d="M-1108.33,182.35l12.4,2.51a50.32,50.32,0,0,1,9.26-11.41l-.5-1.26a50.32,50.32,0,0,0-8.76,10.92l-12.4-2.51-5.5,15.11.53.29Z" transform="translate(1113.83 -146.77)"/></g></svg>