<svg id="Objects" xmlns="http://www.w3.org/2000/svg" xmlns:xlink="http://www.w3.org/1999/xlink" viewBox="0 0 207.74 207.1"><defs><style>.cls-1{fill:url(#linear-gradient);}.cls-2{fill:#fff;}</style><linearGradient id="linear-gradient" x1="-340.3" y1="-127.45" x2="-517.3" y2="132.55" gradientUnits="userSpaceOnUse"><stop offset="0.12" stop-color="#c6cfd6"/><stop offset="0.91" stop-color="#f5f6f8"/></linearGradient></defs><title>services-system-7</title><g id="design"><path class="cls-1" d="M-415.08,152.18A104.13,104.13,0,0,0-413.27,137l-17.61-5.55A87,87,0,0,0-432,117.93l16.24-9.19a103.26,103.26,0,0,0-4.45-14.39l-18.35,2.09a85.85,85.85,0,0,0-6.85-12.26l11.07-15a104.59,104.59,0,0,0-9.81-11.14l-15.91,9.37a86.51,86.51,0,0,0-11.59-8.62l4-18.15A103.28,103.28,0,0,0-481,34.63L-491.79,49.7a85.62,85.62,0,0,0-14.34-3.09l-3.69-18.15c-2.42-.17-4.86-.26-7.31-.26s-4.9.09-7.31.26l-3.69,18.15a85.66,85.66,0,0,0-14.34,3.09l-10.74-15.06a103.44,103.44,0,0,0-13.37,6.06l4,18.15a86.51,86.51,0,0,0-11.59,8.62l-15.91-9.37a104.54,104.54,0,0,0-9.81,11.14l11.07,15a86,86,0,0,0-6.85,12.26L-614,94.35a103.34,103.34,0,0,0-4.45,14.39l16.24,9.19a86.79,86.79,0,0,0-1.17,13.47L-621,137a104.13,104.13,0,0,0,1.82,15.23l18.56,1.79a85.63,85.63,0,0,0,4.22,12.3l-13.84,12.24a104,104,0,0,0,8,13.39l17.69-5.92a86.6,86.6,0,0,0,8.5,9.19L-583.76,212a104.21,104.21,0,0,0,12.84,9.18l13.73-12.59a85.65,85.65,0,0,0,11.2,4.9l-.16,18.56a103.33,103.33,0,0,0,15.55,3.24l7.42-17.06c2,.14,4,.21,6,.21s4-.08,6-.21l7.42,17.06a103.22,103.22,0,0,0,15.55-3.24l-.16-18.55a85.78,85.78,0,0,0,11.2-4.9l13.73,12.58A104.22,104.22,0,0,0-450.52,212l-7.68-16.85a86.76,86.76,0,0,0,8.5-9.19l17.69,5.92a103.74,103.74,0,0,0,8-13.39l-13.84-12.24a85.51,85.51,0,0,0,4.22-12.3Zm-102.05,49a69.4,69.4,0,0,1-69.4-69.4,69.4,69.4,0,0,1,69.4-69.4,69.41,69.41,0,0,1,69.4,69.4A69.4,69.4,0,0,1-517.14,201.15Z" transform="translate(621.01 -28.19)"/><path class="cls-2" d="M-576.63,196.38-583.76,212l.58.47,7.09-15.57Z" transform="translate(621.01 -28.19)"/><path class="cls-2" d="M-471.7,60.59a86.51,86.51,0,0,1,11.59,8.62l15.91-9.37a104.58,104.58,0,0,1,9.14,10.29l.67-.9a104.59,104.59,0,0,0-9.81-11.14l-15.91,9.37a86.5,86.5,0,0,0-11.25-8.39Z" transform="translate(621.01 -28.19)"/><path class="cls-2" d="M-596.93,166.73l-13.31,11.78c.2.4.42.8.63,1.2L-596.41,168C-596.59,167.59-596.76,167.16-596.93,166.73Z" transform="translate(621.01 -28.19)"/><path class="cls-2" d="M-546,215.25l-.15,16.81h0l.15-16.81Z" transform="translate(621.01 -28.19)"/><path class="cls-2" d="M-430.88,131.4a87,87,0,0,0-.93-11.86l-.24.13a87,87,0,0,1,1.17,13.47l17.5,5.52c0-.57.08-1.14.11-1.72Z" transform="translate(621.01 -28.19)"/><path class="cls-2" d="M-444.85,85.11l-.6.81a85.85,85.85,0,0,1,6.85,12.26l18.35-2.09A103.62,103.62,0,0,1-416.19,109l.38-.22a103.26,103.26,0,0,0-4.45-14.39l-18.35,2.09A85.82,85.82,0,0,0-444.85,85.11Z" transform="translate(621.01 -28.19)"/><path class="cls-2" d="M-447.76,132.62a69.39,69.39,0,0,1-69.38,68.53,69.39,69.39,0,0,1-69.38-68.53c0,.29,0,.58,0,.88a69.4,69.4,0,0,0,69.4,69.4,69.4,69.4,0,0,0,69.4-69.4C-447.73,133.2-447.75,132.91-447.76,132.62Z" transform="translate(621.01 -28.19)"/><path class="cls-2" d="M-437.87,168l13.21,11.69c.21-.4.42-.79.63-1.2l-13.31-11.78C-437.52,167.16-437.68,167.59-437.87,168Z" transform="translate(621.01 -28.19)"/><path class="cls-2" d="M-553.23,36.38l10.74,15.06a85.66,85.66,0,0,1,14.34-3.09l3.69-18.15c2.42-.17,4.86-.26,7.31-.26s4.9.09,7.31.26l3.69,18.15a85.62,85.62,0,0,1,14.34,3.09L-481,36.38a103.29,103.29,0,0,1,13,5.88l.35-1.57A103.28,103.28,0,0,0-481,34.63L-491.79,49.7a85.62,85.62,0,0,0-14.34-3.09l-3.69-18.15c-2.42-.17-4.86-.26-7.31-.26s-4.9.09-7.31.26l-3.69,18.15a85.66,85.66,0,0,0-14.34,3.09l-10.74-15.06a103.44,103.44,0,0,0-13.37,6.06l.35,1.57A103.41,103.41,0,0,1-553.23,36.38Z" transform="translate(621.01 -28.19)"/><path class="cls-2" d="M-488.29,215.25l.15,16.81h0l-.15-16.81Z" transform="translate(621.01 -28.19)"/><path class="cls-2" d="M-458.19,196.92l7.09,15.57.58-.47-7.12-15.64Z" transform="translate(621.01 -28.19)"/><path class="cls-2" d="M-603.4,133.15a86.79,86.79,0,0,1,1.17-13.47l-.24-.13a86.87,86.87,0,0,0-.93,11.86L-621,137c0,.57.07,1.14.11,1.72Z" transform="translate(621.01 -28.19)"/><path class="cls-2" d="M-614,96.1l18.35,2.09a86,86,0,0,1,6.85-12.26l-.6-.81a85.93,85.93,0,0,0-6.25,11.33L-614,94.35a103.34,103.34,0,0,0-4.45,14.39l.38.22A103.45,103.45,0,0,1-614,96.1Z" transform="translate(621.01 -28.19)"/><path class="cls-2" d="M-590.08,59.83l15.91,9.37a86.51,86.51,0,0,1,11.59-8.62l-.34-1.53a86.52,86.52,0,0,0-11.25,8.39l-15.91-9.37a104.54,104.54,0,0,0-9.81,11.14l.67.9A104.57,104.57,0,0,1-590.08,59.83Z" transform="translate(621.01 -28.19)"/></g></svg>