<svg id="Layer_1" data-name="Layer 1" xmlns="http://www.w3.org/2000/svg" viewBox="0 0 208.92 205.56">
    <defs>
        <style>
            .cls-1 {
                fill: #1d77b6;
            }

            .cls-2 {
                opacity: 0.3;
            }

            .cls-3 {
                fill: #fff;
            }

            .cls-4 {
                fill: #7adc9c;
            }

            .cls-5 {
                fill: #faa426;
            }

            .cls-6 {
                fill: #2da0d1;
            }

            .cls-7 {
                fill: #f9ca8b;
            }
        </style>
    </defs>
    <title>services-agile-2</title>
    <!-- Arrow 1 -->
    <path class="cls-1" d="M-730.23,915.12a60.33,60.33,0,0,1-35.4,47.29l20.72,15.13-3.06,26.27a105.36,105.36,0,0,0,62.51-84.07l-20.59-15.32Z"
        transform="translate(893.72 -807.33)" />
    <path class="cls-2" d="M-765.64,962.42l5.32,3.89a64.88,64.88,0,0,0,35.4-53.53l-5.32,2.35A60.33,60.33,0,0,1-765.64,962.42Z"
        transform="translate(893.72 -807.33)" />
    <path class="cls-3" d="M-712.71,950.19a2.62,2.62,0,0,1-2.25-.14,2.77,2.77,0,0,1-1.58-1.73,3.51,3.51,0,0,1,.36-2.52l.91-1.88-2.36-1.14.5-1,7.56,3.65-1.41,2.92A3.59,3.59,0,0,1-712.71,950.19Zm-2.81-2.27a1.71,1.71,0,0,0,1,1.13,1.64,1.64,0,0,0,1.48.07,2.6,2.6,0,0,0,1.14-1.29L-711,946l-3.32-1.6-.89,1.84A2.55,2.55,0,0,0-715.52,947.91Z"
        transform="translate(893.72 -807.33)" />
    <path class="cls-3" d="M-713,953.2l-.56,1-7.72-4.43.56-1Z" transform="translate(893.72 -807.33)" />
    <path class="cls-3" d="M-724.45,954.79l.74.49a2.6,2.6,0,0,1,.44-2.37,2.54,2.54,0,0,1,.85-.83,1.86,1.86,0,0,1,1-.26,1.87,1.87,0,0,1,1,.32,1.63,1.63,0,0,1,.78,1.27,2.83,2.83,0,0,1-.54,1.75l-1.11,1.68.25.17a1.32,1.32,0,0,0,1.09.23,1.78,1.78,0,0,0,1-.8,3.46,3.46,0,0,0,.51-2l.9,0a5.84,5.84,0,0,1-.16,1.41,4.3,4.3,0,0,1-.6,1.26,2.66,2.66,0,0,1-1.5,1.21,2.11,2.11,0,0,1-1.72-.35l-3.49-2.29Zm1.41.14a1.49,1.49,0,0,0,.47,1.1l.53.35,1-1.55a2.17,2.17,0,0,0,.43-1.06.79.79,0,0,0-.4-.7.94.94,0,0,0-.86-.12,1.58,1.58,0,0,0-.79.67A2.27,2.27,0,0,0-723,954.92Z"
        transform="translate(893.72 -807.33)" />
    <path class="cls-3" d="M-725,964.9a2.48,2.48,0,0,1-1.81-.63l-3.06-2.46.7-.87,2.83,2.27a1.7,1.7,0,0,0,1.26.43,1.68,1.68,0,0,0,1.13-.69,1.91,1.91,0,0,0,.44-1.42,2.14,2.14,0,0,0-.7-1.34l-2.65-2.13.7-.87,5,4-.7.87-1-.84a2.45,2.45,0,0,1-.43,2.74A2.33,2.33,0,0,1-725,964.9Z"
        transform="translate(893.72 -807.33)" />
</svg>