<svg id="Objects" xmlns="http://www.w3.org/2000/svg" xmlns:xlink="http://www.w3.org/1999/xlink" viewBox="0 0 204.8 204.27"><defs><style>.cls-1{fill:url(#linear-gradient);}.cls-2{fill:#fff;}</style><linearGradient id="linear-gradient" x1="-58.38" y1="26.78" x2="-217.64" y2="267.83" gradientUnits="userSpaceOnUse"><stop offset="0.12" stop-color="#c6cfd6"/><stop offset="0.91" stop-color="#f5f6f8"/></linearGradient></defs><title>services-system-9</title><g id="analysis"><path class="cls-1" d="M-127.74,268.41l14.57-4.05a102.79,102.79,0,0,0-1.27-15.94l-14.94-1.29a87.17,87.17,0,0,0-2.94-10.93l12.12-9a102,102,0,0,0-6.91-14.23l-14.41,4.19a88.54,88.54,0,0,0-6.9-9.33l8-12.78a103.2,103.2,0,0,0-11.51-10.67l-11.93,9.12a87.57,87.57,0,0,0-10-6.32l2.86-14.8a101.56,101.56,0,0,0-14.52-5.7l-7.84,12.83a87.81,87.81,0,0,0-11.76-2.21l-2.68-14.81q-3.86-.29-7.79-.29t-7.79.29L-226,177.26a87.93,87.93,0,0,0-11.76,2.21l-7.84-12.83a101.53,101.53,0,0,0-14.51,5.7l2.86,14.8a87.6,87.6,0,0,0-10,6.32l-11.93-9.12A103,103,0,0,0-290.73,195l8,12.78a88.52,88.52,0,0,0-6.9,9.33L-304,212.94a102,102,0,0,0-6.91,14.23l12.12,9a87.5,87.5,0,0,0-2.94,10.93l-14.94,1.29A103.31,103.31,0,0,0-318,264.36l14.57,4.05a88.54,88.54,0,0,0,1.15,10.9l-13.48,6.61a101.76,101.76,0,0,0,4.6,15.48l15.05-1.49a87.12,87.12,0,0,0,4.87,9.46l-10.19,11a102.63,102.63,0,0,0,10,12.91l13.49-6.82a88.44,88.44,0,0,0,7.72,6.91l-5.52,14a102.69,102.69,0,0,0,14,8.56l10.1-11.22a87.91,87.91,0,0,0,9.53,3.64l-.09,15.06a101.62,101.62,0,0,0,16.2,3l5.37-14.11c1.67.09,3.36.15,5.06.15s3.38-.05,5.06-.15l5.37,14.11a101.62,101.62,0,0,0,16.2-3l-.09-15.06a87.9,87.9,0,0,0,9.53-3.64L-169.4,356a102.69,102.69,0,0,0,14-8.56l-5.52-14a88.71,88.71,0,0,0,7.72-6.91l13.49,6.82a103,103,0,0,0,10-12.91l-10.19-11a87.49,87.49,0,0,0,4.87-9.46l15.05,1.49a101.53,101.53,0,0,0,4.6-15.48l-13.48-6.61A88.56,88.56,0,0,0-127.74,268.41Zm-87.83,69.71a73.83,73.83,0,0,1-73.83-73.83,73.83,73.83,0,0,1,73.83-73.83,73.83,73.83,0,0,1,73.83,73.83A73.83,73.83,0,0,1-215.57,338.12Z" transform="translate(317.97 -162.16)"/><path class="cls-2" d="M-270.74,334.74l-5,12.67.54.38,5-12.62Z" transform="translate(317.97 -162.16)"/><path class="cls-2" d="M-291.83,310.05l-9.57,10.37c.22.34.46.67.69,1l9.5-10.29C-291.42,310.78-291.62,310.41-291.83,310.05Z" transform="translate(317.97 -162.16)"/><path class="cls-2" d="M-302.5,279.43l-13.24,6.49c.11.53.25,1,.37,1.57l13.12-6.43C-302.34,280.52-302.41,280-302.5,279.43Z" transform="translate(317.97 -162.16)"/><path class="cls-2" d="M-141.76,265.17a73.82,73.82,0,0,1-73.81,73,73.82,73.82,0,0,1-73.81-73c0,.29,0,.58,0,.88a73.83,73.83,0,0,0,73.83,73.83A73.83,73.83,0,0,0-141.74,266C-141.74,265.75-141.76,265.46-141.76,265.17Z" transform="translate(317.97 -162.16)"/><path class="cls-2" d="M-131.87,237.62l-.46.34a87.17,87.17,0,0,1,2.94,10.93l14.94,1.29a102.82,102.82,0,0,1,1.23,14.2h0a102.79,102.79,0,0,0-1.27-15.94l-14.94-1.29A87.27,87.27,0,0,0-131.87,237.62Z" transform="translate(317.97 -162.16)"/><path class="cls-2" d="M-147.81,208.56l-.62,1a88.54,88.54,0,0,1,6.9,9.33l14.41-4.19a102.07,102.07,0,0,1,6.35,12.9l.55-.41a102,102,0,0,0-6.91-14.23l-14.41,4.19A88.32,88.32,0,0,0-147.81,208.56Z" transform="translate(317.97 -162.16)"/><path class="cls-2" d="M-173.85,188.9a87.57,87.57,0,0,1,10,6.32l11.93-9.12a103.14,103.14,0,0,1,10.84,10l.66-1.06a103.2,103.2,0,0,0-11.51-10.67l-11.93,9.12a87.66,87.66,0,0,0-9.71-6.15Z" transform="translate(317.97 -162.16)"/><polygon class="cls-2" points="75.85 187.98 75.77 201.29 75.78 201.3 75.86 187.99 75.85 187.98"/><path class="cls-2" d="M-139.93,311.13l9.5,10.29c.23-.34.46-.67.69-1l-9.57-10.37C-139.52,310.41-139.72,310.78-139.93,311.13Z" transform="translate(317.97 -162.16)"/><path class="cls-2" d="M-189,350.14l.08,13.31h0l-.08-13.31Z" transform="translate(317.97 -162.16)"/><path class="cls-2" d="M-160.91,335.17l5,12.62.54-.38-5-12.67Z" transform="translate(317.97 -162.16)"/><path class="cls-2" d="M-128.89,281.06l13.12,6.43c.12-.52.25-1,.37-1.57l-13.23-6.49C-128.72,280-128.8,280.52-128.89,281.06Z" transform="translate(317.97 -162.16)"/><path class="cls-2" d="M-304,214.69l14.41,4.19a88.52,88.52,0,0,1,6.9-9.33l-.62-1a88.28,88.28,0,0,0-6.28,8.57L-304,212.94a102,102,0,0,0-6.91,14.23l.55.41A102.07,102.07,0,0,1-304,214.69Z" transform="translate(317.97 -162.16)"/><path class="cls-2" d="M-279.22,186.1l11.93,9.12a87.6,87.6,0,0,1,10-6.32l-.3-1.58a87.6,87.6,0,0,0-9.71,6.15l-11.93-9.12A103,103,0,0,0-290.73,195l.66,1.06A103,103,0,0,1-279.22,186.1Z" transform="translate(317.97 -162.16)"/><path class="cls-2" d="M-316.7,250.17l14.94-1.29A87.5,87.5,0,0,1-298.81,238l-.46-.34a87.69,87.69,0,0,0-2.49,9.51l-14.94,1.29A103.31,103.31,0,0,0-318,264.36h0A103.3,103.3,0,0,1-316.7,250.17Z" transform="translate(317.97 -162.16)"/><path class="cls-2" d="M-245.63,168.39l7.84,12.83A87.93,87.93,0,0,1-226,179l2.68-14.81q3.86-.29,7.79-.29t7.79.29l2.68,14.81a87.81,87.81,0,0,1,11.76,2.21l7.84-12.83A101.57,101.57,0,0,1-171.3,174l.31-1.61a101.56,101.56,0,0,0-14.52-5.7l-7.84,12.83a87.81,87.81,0,0,0-11.76-2.21l-2.68-14.81q-3.86-.29-7.79-.29t-7.79.29L-226,177.26a87.93,87.93,0,0,0-11.76,2.21l-7.84-12.83a101.53,101.53,0,0,0-14.51,5.7l.31,1.61A101.55,101.55,0,0,1-245.63,168.39Z" transform="translate(317.97 -162.16)"/></g></svg>