<svg id="Objects" xmlns="http://www.w3.org/2000/svg" xmlns:xlink="http://www.w3.org/1999/xlink" viewBox="0 0 122.85 123.34"><defs><style>.cls-1{fill:url(#linear-gradient);}.cls-2{fill:#fff;}</style><linearGradient id="linear-gradient" x1="-186.11" y1="28.82" x2="-382.97" y2="225.68" gradientUnits="userSpaceOnUse"><stop offset="0.12" stop-color="#c6cfd6"/><stop offset="0.91" stop-color="#f5f6f8"/></linearGradient></defs><title>services-system-8</title><g id="money"><path class="cls-1" d="M-308.34,203.09l-4.39-15.47-12,1.54a49.67,49.67,0,0,0-9.13-12.32l5.17-10.77L-342,157l-8.3,9a49.84,49.84,0,0,0-14.8-3.5l-3-11.73-16,1.64-.58,12.48a49.79,49.79,0,0,0-13.35,6.75l-10.07-7.22L-419.36,176l7.74,10.16a50.13,50.13,0,0,0-5.79,13.51l-12.62,1-1.17,16,12.65,2.85a50.33,50.33,0,0,0,1.38,6.53,50.26,50.26,0,0,0,2.76,7.42l-9.12,8.93,9.42,13,11.52-5.95a50.28,50.28,0,0,0,12.13,8.09l-1.24,12.64,15.6,3.94,4.93-11.79a49.88,49.88,0,0,0,14.7-1.58l7,10.29,14.48-7-3.72-11.93a49.93,49.93,0,0,0,10.45-10.85l11.72,3.28,6.58-14.67-10.29-6.61a49.67,49.67,0,0,0,1-15.25Zm-50.72,44.5a36.58,36.58,0,0,1-45.18-25.21A36.58,36.58,0,0,1-379,177.21a36.58,36.58,0,0,1,45.18,25.2A36.59,36.59,0,0,1-359.06,247.6Z" transform="translate(431.19 -150.81)"/><path class="cls-2" d="M-414.94,234l-8.59,8.4.74,1,8.38-8.2C-414.58,234.82-414.76,234.41-414.94,234Z" transform="translate(431.19 -150.81)"/><path class="cls-2" d="M-390.62,259.25l-1.08,11,.17,0,1.08-10.93Z" transform="translate(431.19 -150.81)"/><path class="cls-2" d="M-319.05,213.3c0-1.19,0-2.38-.07-3.57l-.12.05C-319.13,211-319.08,212.13-319.05,213.3Z" transform="translate(431.19 -150.81)"/><path class="cls-2" d="M-333.9,178.59a49.67,49.67,0,0,1,9.13,12.32l12-1.54,4,13.92.44-.2-4.39-15.47-12,1.54a49.63,49.63,0,0,0-8.57-11.75Z" transform="translate(431.19 -150.81)"/><path class="cls-2" d="M-338.68,253.88l3.25,10.41.47-.23-3.28-10.53Z" transform="translate(431.19 -150.81)"/><path class="cls-2" d="M-430,202.39l12.62-1a50.13,50.13,0,0,1,5.79-13.51l-.58-.76a50.14,50.14,0,0,0-5.21,12.52l-12.62,1-1.17,16,.12,0Z" transform="translate(431.19 -150.81)"/><path class="cls-2" d="M-320.23,225l9.69,6.22.61-1.36-10-6.4C-320,224-320.11,224.52-320.23,225Z" transform="translate(431.19 -150.81)"/><path class="cls-2" d="M-332.47,213.27a36.6,36.6,0,0,1-26.59,34.33,36.58,36.58,0,0,1-45.18-25.21,36.65,36.65,0,0,1-1.39-9.1,36.59,36.59,0,0,0,1.39,10.85,36.58,36.58,0,0,0,45.18,25.21A36.6,36.6,0,0,0-332.47,213.27Z" transform="translate(431.19 -150.81)"/><path class="cls-2" d="M-408.15,166.22l10.07,7.22a49.79,49.79,0,0,1,13.35-6.75l.58-12.48,16-1.64,3,11.73a49.84,49.84,0,0,1,14.8,3.5l8.3-9,12.67,8.6.63-1.32L-342,157l-8.3,9a49.84,49.84,0,0,0-14.8-3.5l-3-11.73-16,1.64-.58,12.48a49.79,49.79,0,0,0-13.35,6.75l-10.07-7.22L-419.36,176l.75,1Z" transform="translate(431.19 -150.81)"/></g></svg>