<svg xmlns="http://www.w3.org/2000/svg" viewBox="0 0 144.3 163.85"><defs><style>.cls-1{fill:#f9cd15;}</style></defs><title>Asset 3</title><g id="Layer_2" data-name="Layer 2"><g id="Objects"><path class="cls-1" d="M140.67,26.46l-66,81.26a16.22,16.22,0,0,1-22.78,2.39h0a16.22,16.22,0,0,1-2.4-22.85L115.48,6A16.22,16.22,0,0,1,138.27,3.6h0A16.22,16.22,0,0,1,140.67,26.46Z"/><path class="cls-1" d="M28.68,112.93a13.07,13.07,0,0,1,18.38-2l4.91,4a13.07,13.07,0,0,1,2,18.38l-23.09,28.6A43.73,43.73,0,1,0,5.59,141.53Z"/></g></g></svg>