<svg xmlns="http://www.w3.org/2000/svg" viewBox="0 0 96.49 96.48"><defs><style>.cls-1{fill:none;stroke:#d3ebeb;stroke-linecap:round;stroke-linejoin:round;stroke-width:5.98px;}.cls-2{fill:#539493;fill-rule:evenodd;}</style></defs><title>Asset 2</title><g id="Layer_2" data-name="Layer 2"><g id="Objects"><path class="cls-1" d="M41.05,7.47a41.08,41.08,0,0,0-7,1.86L32.76,5.71A45.12,45.12,0,0,0,25.61,9l1.93,3.34a41.49,41.49,0,0,0-5.91,4.14l-2.48-3a45.46,45.46,0,0,0-5.58,5.58l3,2.48a41.54,41.54,0,0,0-4.14,5.91L9,25.61a45.11,45.11,0,0,0-3.34,7.15l3.63,1.32a41.12,41.12,0,0,0-1.86,7l-3.8-.67A45.52,45.52,0,0,0,3,48.24H6.85a41.63,41.63,0,0,0,.62,7.19l-3.8.67a45,45,0,0,0,2,7.62L9.33,62.4a41.29,41.29,0,0,0,3.05,6.54L9,70.87a45.34,45.34,0,0,0,4.53,6.46l3-2.48a41.66,41.66,0,0,0,5.1,5.1l-2.48,3a45.4,45.4,0,0,0,6.46,4.53l1.93-3.34a41.25,41.25,0,0,0,6.54,3.05l-1.32,3.63a45,45,0,0,0,7.62,2l.67-3.8a41.6,41.6,0,0,0,7.19.62V93.5a45.59,45.59,0,0,0,7.86-.68L55.43,89a41.06,41.06,0,0,0,7-1.86l1.32,3.63a45.17,45.17,0,0,0,7.15-3.34L68.94,84.1A41.69,41.69,0,0,0,74.85,80l2.48,3a45.5,45.5,0,0,0,5.58-5.58l-3-2.48a41.37,41.37,0,0,0,4.14-5.91l3.34,1.93a45,45,0,0,0,3.34-7.15L87.15,62.4a41.09,41.09,0,0,0,1.86-7l3.8.67a45.49,45.49,0,0,0,.68-7.86H89.64A41.68,41.68,0,0,0,89,41.05l3.8-.67a44.74,44.74,0,0,0-2-7.62l-3.63,1.32a41,41,0,0,0-3.05-6.54l3.34-1.93a45.36,45.36,0,0,0-4.53-6.46l-3,2.48a41.57,41.57,0,0,0-5.1-5.1l2.48-3A45.48,45.48,0,0,0,70.87,9l-1.93,3.34A41.21,41.21,0,0,0,62.4,9.33l1.32-3.63a45.09,45.09,0,0,0-7.62-2l-.67,3.8a41.68,41.68,0,0,0-7.19-.62V3a45.59,45.59,0,0,0-7.86.68Z"/><path class="cls-2" d="M41.05,7.47a41.08,41.08,0,0,0-7,1.86L32.76,5.71A45.12,45.12,0,0,0,25.61,9l1.93,3.34a41.49,41.49,0,0,0-5.91,4.14l-2.48-3a45.46,45.46,0,0,0-5.58,5.58l3,2.48a41.54,41.54,0,0,0-4.14,5.91L9,25.61a45.11,45.11,0,0,0-3.34,7.15l3.63,1.32a41.12,41.12,0,0,0-1.86,7l-3.8-.67A45.52,45.52,0,0,0,3,48.24H6.85a41.63,41.63,0,0,0,.62,7.19l-3.8.67a45,45,0,0,0,2,7.62L9.33,62.4a41.29,41.29,0,0,0,3.05,6.54L9,70.87a45.34,45.34,0,0,0,4.53,6.46l3-2.48a41.66,41.66,0,0,0,5.1,5.1l-2.48,3a45.4,45.4,0,0,0,6.46,4.53l1.93-3.34a41.25,41.25,0,0,0,6.54,3.05l-1.32,3.63a45,45,0,0,0,7.62,2l.67-3.8a41.6,41.6,0,0,0,7.19.62V93.5a45.59,45.59,0,0,0,7.86-.68L55.43,89a41.06,41.06,0,0,0,7-1.86l1.32,3.63a45.17,45.17,0,0,0,7.15-3.34L68.94,84.1A41.69,41.69,0,0,0,74.85,80l2.48,3a45.5,45.5,0,0,0,5.58-5.58l-3-2.48a41.37,41.37,0,0,0,4.14-5.91l3.34,1.93a45,45,0,0,0,3.34-7.15L87.15,62.4a41.09,41.09,0,0,0,1.86-7l3.8.67a45.49,45.49,0,0,0,.68-7.86H89.64A41.68,41.68,0,0,0,89,41.05l3.8-.67a44.74,44.74,0,0,0-2-7.62l-3.63,1.32a41,41,0,0,0-3.05-6.54l3.34-1.93a45.36,45.36,0,0,0-4.53-6.46l-3,2.48a41.57,41.57,0,0,0-5.1-5.1l2.48-3A45.48,45.48,0,0,0,70.87,9l-1.93,3.34A41.21,41.21,0,0,0,62.4,9.33l1.32-3.63a45.09,45.09,0,0,0-7.62-2l-.67,3.8a41.68,41.68,0,0,0-7.19-.62V3a45.59,45.59,0,0,0-7.86.68Z"/></g></g></svg>