<svg id="OBJECTS" xmlns="http://www.w3.org/2000/svg" viewBox="0 0 380.81 151.52"><defs><style>.cls-1{fill:#cdcccb;}.cls-2{fill:#fff;}</style></defs><title>solution-business-4</title><path class="cls-1" d="M866.07-807.09l11.31,4.83s10.41-8.45,23.08-6.64c10.43,1.49,16.29,6.64,19.91,15.69l29.92,16.66.25,23.16-147.21-4.83-36.8-29.56,22.32-22.93Z" transform="translate(-569.82 904.78)"/><path class="cls-1" d="M766.38-822.33q1.4,3.64,3,7.36h0l.88,0h1c.42,0,.84,0,1.26,0l.41,0,.82.08.49.07.73.11.52.1.68.14.53.13.65.17.53.16.62.2.53.19.6.22.52.21.58.25.51.24.56.28.5.26.54.3.48.29.53.33.46.31.51.36.44.32.5.39.42.34.49.42.39.35.49.46.35.35.49.52.25.26.06.07.35.41.37.44.33.42.36.47.31.43.34.49.29.44.32.51.26.45.29.53.13.25h85.35a13.19,13.19,0,0,0-2.33-7.12l-.29-.3-.2-.21c-.2-.2-.41-.4-.62-.59l-.08-.08q-.37-.33-.75-.63l-.16-.12-.61-.46-.28-.19-.52-.34-.34-.2-.49-.29-.37-.2-.49-.25-.39-.18-.49-.21-.41-.16-.49-.18-.42-.14-.5-.15-.43-.12-.51-.12-.54-.12-.42-.08-.41-.07-.58-.07-.38,0-.75,0H862c-.35,0-.7,0-1.05.06a17.3,17.3,0,0,0-5.38,1.35,17.68,17.68,0,0,0-1.65.82,10.51,10.51,0,0,0-.52-6.81c-.13-.31-.28-.6-.44-.89l-.15-.26c-.12-.2-.23-.39-.36-.58l-.2-.28c-.13-.18-.26-.35-.4-.52l-.21-.25c-.17-.2-.35-.39-.54-.57l-.11-.11c-.22-.21-.46-.42-.7-.61l-.23-.17-.53-.38-.28-.18-.54-.31-.28-.15q-.36-.18-.72-.33l-.12-.05c-.28-.11-.57-.21-.87-.3l-.27-.07-.63-.15-.32-.06-.64-.09-.3,0c-.29,0-.58,0-.87,0h-.06c-.31,0-.63,0-.94.05l-.28,0-.67.1-.32.07-.66.17-.29.09c-.31.1-.62.21-.93.35l-.09,0-.65.31-.21.12-.48.29-.21.13-.49.35-.14.1q-.3.23-.58.48l-.15.14-.41.41-.17.19-.37.43-.14.17c-.16.2-.31.41-.45.62l0,.06q-.19.29-.36.59l-.11.19q-.14.25-.26.51l-.09.19c-.1.23-.2.46-.29.69h0c-.09.24-.17.49-.24.74l0,.18c-.05.19-.1.38-.14.58s-.06.25-.08.38a17.27,17.27,0,0,0-17.6-2.35,17.28,17.28,0,0,0-3.29,1.87l-2.05-.28a23.91,23.91,0,0,0-1-2.8c-.15-.34-.31-.68-.47-1l-.16-.31c-.12-.23-.23-.46-.36-.68l-.19-.34-.37-.63-.2-.32-.44-.66-.16-.25c-.21-.3-.42-.59-.64-.88l-.05-.07q-.3-.39-.62-.77l-.22-.25-.42-.47q-.53-.58-1.1-1.13l-.22-.2q-.52-.48-1.06-.93l-.22-.19c-.4-.33-.82-.64-1.24-.93l-.3-.2c-.42-.28-.84-.56-1.28-.82l-.07,0c-.45-.27-.92-.51-1.39-.75l-.32-.16c-.47-.23-.94-.44-1.42-.63l-.21-.08q-.66-.26-1.34-.48l-.29-.1q-.74-.23-1.5-.42l-.31-.07c-.48-.11-1-.21-1.44-.29l-.16,0c-.52-.08-1-.14-1.57-.19l-.35,0c-.53,0-1.07-.07-1.6-.07h-.11c-.51,0-1,0-1.53,0l-.33,0q-.8.06-1.59.18l-.28,0c-.49.08-1,.17-1.46.28l-.24.05c-.53.12-1.06.27-1.58.43l-.34.11c-.54.17-1.07.36-1.6.57-4.79-8.5-9.06-55.69-11.41-71.16l-13.06,2C754.41-899.77,757.23-846.15,766.38-822.33Z" transform="translate(-569.82 904.78)"/><path class="cls-2" d="M791.9-802.51l-.29-.53-.26-.45L791-804l-.29-.44-.34-.49-.31-.43-.36-.47-.33-.42-.37-.44-.35-.41-.31-.34-.49-.52-.35-.35-.49-.46-.39-.35-.49-.42-.42-.34-.5-.39-.44-.32-.51-.36-.46-.31-.53-.33-.48-.29-.54-.3-.5-.26-.56-.28-.51-.24-.58-.25-.52-.21-.6-.22-.53-.19-.62-.2-.53-.16-.65-.17-.53-.13-.68-.14-.52-.1-.73-.11-.49-.07-.82-.08-.41,0c-.42,0-.83,0-1.26,0h-1l-.88,0h0q-1.6-3.71-3-7.36c-9.16-23.82-9.32-79.31-9.67-82.06l11.79-.39-22.94.76s-5.74,53.37-12.31,71.54c-1.31,3.62-2.75,7.23-4.34,10.68a17.28,17.28,0,0,0-23,.14,17.25,17.25,0,0,0-3.72,4.79,17.28,17.28,0,0,0-19,2.79c-.26.24-.51.48-.75.73a10.51,10.51,0,0,0-2.1-3.5,10.57,10.57,0,0,0-14.93-.76,10.53,10.53,0,0,0-3.47,7.69,17.28,17.28,0,0,0-18.43,3,17.25,17.25,0,0,0-3.64,4.63H792Z" transform="translate(-569.82 904.78)"/><path class="cls-1" d="M713.16-815.47c-.22-.07-.43-.16-.65-.22a6.32,6.32,0,0,0-.66-.15l-.33-.05-.33,0a6,6,0,0,0-.66,0c-.22,0-.43,0-.65.07a6.27,6.27,0,0,0-.63.15,5.46,5.46,0,0,0-.6.21,4.59,4.59,0,0,0-.57.27c-.19.1-.35.22-.53.33s-.33.25-.48.4a4.5,4.5,0,0,0-.43.44l-.2.23-.18.25a4.94,4.94,0,0,0-.31.52l0,.07h0v0h0v0l0,0-.07.16a2.67,2.67,0,0,0-.13.3c-.06.18-.12.35-.17.55a5.84,5.84,0,0,0-.12.58l-.24,1.16-1-.72c-.21-.15-.41-.31-.62-.45l-.33-.2-.16-.1,0,0h0l0,0h0l-.1,0-.38-.18-.19-.09-.17-.06a5.67,5.67,0,0,0-.69-.23l-.37-.1-.37-.06-.37-.06-.38,0a6.12,6.12,0,0,0-.75,0c-.25,0-.5,0-.75.07l-.74.15c-.24.08-.49.13-.72.23a6,6,0,0,0-.7.29l-.34.17-.32.2a5.71,5.71,0,0,0-.63.43,6.26,6.26,0,0,0-.58.49c-.19.17-.35.37-.53.55s-.31.4-.47.61l-.43.55-.56-.3c-.16-.09-.32-.19-.49-.26s-.34-.15-.51-.22-.35-.12-.54-.16-.37-.07-.55-.1a5.59,5.59,0,0,0-.57,0c-.19,0-.38,0-.57,0a5.72,5.72,0,0,0-.57.08c-.19,0-.38.09-.56.14a5.74,5.74,0,0,0-.55.21,5.2,5.2,0,0,0-.53.25l-.26.15-.16,0,0,0h0l0,0h0l0,0,0,0-.05.06-.5.4c-.16.13-.28.28-.42.42s-.14.14-.21.22l-.18.25a4,4,0,0,0-.36.51l-.31.55c.05-.2.11-.41.17-.62a3.42,3.42,0,0,1,.24-.6l.14-.3c.05-.1.12-.19.18-.28s.24-.39.38-.56l.43-.47.05-.06,0,0h0l0,0v-.06h0l.16-.07c.09-.07.19-.13.28-.2a6.25,6.25,0,0,1,.57-.38c.19-.12.4-.21.61-.32a6.84,6.84,0,0,1,.65-.25,6.9,6.9,0,0,1,.67-.18,6.48,6.48,0,0,1,.69-.1,6.9,6.9,0,0,1,.7,0,7,7,0,0,1,.7.06,7,7,0,0,1,.7.13c.23.07.46.13.68.22a6,6,0,0,1,.65.29l-1,.25c.17-.26.34-.52.52-.77s.38-.49.6-.71a8,8,0,0,1,.68-.64,6.42,6.42,0,0,1,.75-.56l.39-.26.41-.22a7.6,7.6,0,0,1,.85-.39c.29-.12.6-.19.89-.29s.61-.13.92-.19.62-.08.94-.08a7.82,7.82,0,0,1,.94,0l.47,0,.46.08.46.09.45.13a7.28,7.28,0,0,1,.91.33l.23.09.19.1.37.2.09.05.08,0,0,0,.19.13.39.26c.25.18.48.39.72.59l-1.26.45a7,7,0,0,1,.21-.75,5.35,5.35,0,0,1,.3-.74,3.23,3.23,0,0,1,.17-.32l.09-.15.06-.1.06-.08a6.21,6.21,0,0,1,.46-.62l.25-.29c.09-.09.18-.18.27-.27a5.15,5.15,0,0,1,.58-.49c.2-.16.43-.27.64-.4s.45-.23.68-.31a5.56,5.56,0,0,1,.71-.23l.36-.09.37-.05a7,7,0,0,1,.73,0c.24,0,.49,0,.73,0a4.73,4.73,0,0,1,.71.14l.34.09.33.13a4.68,4.68,0,0,1,.64.3C712.79-815.74,713-815.6,713.16-815.47Z" transform="translate(-569.82 904.78)"/><path class="cls-1" d="M769-805l-.27-.54-.31-.5-.35-.47c-.12-.15-.26-.29-.39-.43l-.42-.39-.45-.35-.48-.3-.5-.25-.52-.2-.53-.15-.54-.1-.55,0h-.54l-.54.06-.53.11-.52.16-.5.15-.24-.52-.25-.53-.29-.51a9.13,9.13,0,0,0-.68-.95l-.09-.11v0h0s0,0,0,0l0,0-.06-.05-.22-.23a4.36,4.36,0,0,0-.44-.42l-.42-.36-.47-.33a4.39,4.39,0,0,0-.49-.3,3.83,3.83,0,0,0-.51-.27c-.18-.08-.35-.16-.53-.23l-.55-.18c-.18-.06-.37-.09-.56-.14a3.67,3.67,0,0,0-.56-.1,8.37,8.37,0,0,0-1.14-.09,8.76,8.76,0,0,0-1.14.09l-.29,0-.28.07c-.18,0-.38.08-.56.14l-.55.18c-.18.07-.35.16-.53.23a3.64,3.64,0,0,0-.51.27,5,5,0,0,0-.49.3l-.47.33,0,0h0l-.06.05-.12.1-.24.2-.4.39c-.13.14-.27.28-.39.43s-.25.3-.35.46-.22.32-.32.49a8.2,8.2,0,0,0-.54,1l-.45,1-.6-.84,0-.06,0,0,0,0h0l0,0h-.07l-.12-.1-.2-.22a1.66,1.66,0,0,0-.19-.2l-.19-.18a5.33,5.33,0,0,0-.42-.35c-.14-.12-.3-.21-.45-.32s-.32-.18-.48-.27-.34-.15-.51-.22-.36-.11-.54-.17-.37-.08-.55-.12l-.57-.07-.57,0-.58,0-.57.09-.57.15-.55.21-.54.26-.52.31.45-.41.5-.36.54-.31.57-.25.6-.2.62-.13.63-.07h.64c.21,0,.43,0,.64.07s.43.07.63.13.42.11.62.2.41.15.6.26a6.55,6.55,0,0,1,.57.32,6.4,6.4,0,0,1,.54.39l.26.22a2.63,2.63,0,0,1,.24.22l.21.22.11.11,0,0h0l0,0v0l.05.06-1.05.16a9.45,9.45,0,0,1,.54-1.25A5.79,5.79,0,0,1,746-811c.12-.2.25-.38.39-.57s.29-.36.43-.54.33-.35.49-.52l.22-.24.1-.13.06-.05h.07l0,0,.55-.41a5.5,5.5,0,0,1,.58-.37,4.83,4.83,0,0,1,.61-.33c.21-.1.41-.2.63-.29l.65-.24c.22-.08.45-.12.67-.18l.34-.08.34-.05a9.83,9.83,0,0,1,1.38-.12,10,10,0,0,1,1.38.12,5,5,0,0,1,.68.13c.22.06.45.1.67.18l.65.24c.21.09.42.19.63.29a5,5,0,0,1,.61.33,5.74,5.74,0,0,1,.58.38l.55.42.53.49a4.73,4.73,0,0,1,.45.49l.21.24.05.06,0,0,0,0h0v0l.1.14a8.59,8.59,0,0,1,.73,1.16c.1.21.2.41.29.62l.24.64-.75-.36.64-.14.65-.08.65,0,.65.05.63.12.62.18.59.24.56.29.53.35.49.4.44.44c.13.16.27.32.39.48s.23.34.34.52.2.36.28.54.15.38.22.57Z" transform="translate(-569.82 904.78)"/><path class="cls-2" d="M650.08-803.47l-10.2,1.21s-34.52-20.8-70,12.79v36.21H950.64s-9.15-25.47-39.92-25.47-33.18,9.65-33.18,9.65-11.46-31.37-42.23-17.5c0,0-12.07-26.55-43.4-15.93C791.9-802.51,662.14-810.71,650.08-803.47Z" transform="translate(-569.82 904.78)"/><path class="cls-1" d="M648-788.69c-.3-.08-.6-.2-.9-.27a8.69,8.69,0,0,0-.9-.17l-.45-.06h-.45a8.14,8.14,0,0,0-.89,0c-.3,0-.59.08-.88.13a8.36,8.36,0,0,0-.84.24,7.4,7.4,0,0,0-.8.32,6.21,6.21,0,0,0-.76.4c-.25.14-.47.32-.7.48s-.44.36-.63.57a6.09,6.09,0,0,0-.56.62c-.08.11-.18.21-.26.33l-.23.35a6.7,6.7,0,0,0-.4.72l0,.09h0l0,0h0v0l0,.05-.09.22a3.62,3.62,0,0,0-.16.42c-.07.24-.15.48-.2.75a7.92,7.92,0,0,0-.13.8l-.27,1.59L636-782c-.29-.19-.57-.39-.87-.57l-.46-.25-.23-.13-.06,0h0l0,0h-.05l-.13-.06-.53-.23-.26-.11-.23-.07a7.76,7.76,0,0,0-1-.27l-.5-.11-.51-.07c-.17,0-.34-.05-.51-.06l-.51,0a8.3,8.3,0,0,0-1,0c-.34,0-.68.09-1,.13s-.67.15-1,.24-.66.2-1,.35a8.22,8.22,0,0,0-.93.44l-.45.25-.43.29a7.84,7.84,0,0,0-.83.62,8.67,8.67,0,0,0-.76.7c-.25.24-.45.52-.69.78s-.4.57-.61.85l-.56.77-.78-.38c-.22-.11-.44-.24-.68-.33s-.47-.18-.71-.27-.49-.14-.74-.18-.5-.08-.76-.11a7.62,7.62,0,0,0-.77,0c-.26,0-.52,0-.78,0a7.76,7.76,0,0,0-.77.14c-.26,0-.51.14-.76.22a7.82,7.82,0,0,0-.73.31,7.16,7.16,0,0,0-.71.37c-.12.07-.23.15-.34.22l-.21.07-.07,0h0l0,0h0l0,.05,0,.06-.07.08-.65.57c-.21.19-.36.39-.55.59s-.19.2-.27.31l-.23.35a5.43,5.43,0,0,0-.45.72l-.39.77c.06-.28.13-.56.2-.85a4.64,4.64,0,0,1,.29-.83l.17-.41c.06-.14.15-.26.23-.39s.31-.54.49-.78l.56-.66.07-.08,0,0h0l0-.06,0-.08,0,0,.22-.11c.11-.1.25-.19.36-.28a8.51,8.51,0,0,1,.75-.55,9.32,9.32,0,0,1,.81-.47c.28-.13.57-.27.86-.37a9.41,9.41,0,0,1,.9-.29,8.69,8.69,0,0,1,.93-.17,9.37,9.37,0,0,1,1-.07,9.4,9.4,0,0,1,1,0,9.49,9.49,0,0,1,1,.14c.31.08.63.15.93.26a8.15,8.15,0,0,1,.9.36l-1.34.39c.22-.36.43-.73.66-1.07s.49-.69.78-1a10.86,10.86,0,0,1,.89-.91,8.64,8.64,0,0,1,1-.81l.52-.37.55-.32a10.33,10.33,0,0,1,1.14-.58c.39-.18.8-.29,1.2-.44s.83-.22,1.24-.31.84-.15,1.27-.16a10.62,10.62,0,0,1,1.28,0l.64,0c.21,0,.42.05.63.08s.42.06.63.1l.62.16a9.9,9.9,0,0,1,1.25.41l.31.12.26.13.52.25.13.06.11.06.07,0,.27.17.54.33c.35.23.68.51,1,.76l-1.69.68a9.64,9.64,0,0,1,.24-1,7.28,7.28,0,0,1,.37-1,4.47,4.47,0,0,1,.22-.44l.11-.21.07-.14.07-.11a8.45,8.45,0,0,1,.59-.86l.32-.41c.11-.13.24-.25.36-.38a7,7,0,0,1,.77-.69c.26-.22.57-.39.85-.58s.6-.34.91-.46a7.56,7.56,0,0,1,.95-.35c.16,0,.32-.1.48-.14l.49-.09a9.55,9.55,0,0,1,1-.11c.33,0,.66,0,1,0a6.4,6.4,0,0,1,1,.15l.47.11.46.15a6.44,6.44,0,0,1,.89.38C647.48-789,647.73-788.85,648-788.69Z" transform="translate(-569.82 904.78)"/><path class="cls-1" d="M748-766.08l-.45-.9c-.17-.29-.35-.56-.52-.84s-.39-.53-.59-.79-.44-.48-.66-.72-.48-.43-.72-.65-.51-.39-.76-.58l-.81-.5-.85-.42-.88-.33-.9-.25-.92-.16c-.31,0-.61-.06-.92-.07s-.61,0-.92,0l-.91.1-.89.18-.87.27-.85.26-.41-.87-.42-.9c-.16-.29-.33-.57-.49-.86a15.44,15.44,0,0,0-1.15-1.6l-.15-.19V-776h0s-.07,0,0,.06l-.06,0-.1-.09-.37-.38a7.3,7.3,0,0,0-.73-.71l-.71-.6-.8-.56a7.47,7.47,0,0,0-.83-.5,6.4,6.4,0,0,0-.86-.45c-.3-.13-.59-.28-.89-.39l-.92-.31c-.31-.1-.63-.15-.94-.24a6.18,6.18,0,0,0-1-.18,14.26,14.26,0,0,0-1.93-.15,14.79,14.79,0,0,0-1.93.15l-.48.06-.47.11c-.31.08-.63.13-.94.24l-.92.31c-.3.11-.59.26-.89.39a6.18,6.18,0,0,0-.86.45,8.47,8.47,0,0,0-.83.5l-.8.56,0,0h0l0,0,0,0-.1.09-.2.17-.41.34c-.22.22-.45.42-.67.65s-.46.47-.65.73-.41.5-.6.78-.37.54-.54.82a13.82,13.82,0,0,0-.91,1.75l-.76,1.69-1-1.41-.07-.1,0-.08.06-.06h0l0,0h-.11l-.2-.17-.34-.38a2.8,2.8,0,0,0-.33-.33l-.32-.3a8.94,8.94,0,0,0-.7-.58c-.23-.2-.51-.35-.76-.53s-.54-.3-.82-.46-.58-.25-.86-.38-.6-.19-.9-.29-.62-.13-.93-.21-.63-.08-1-.12l-1,0-1,.07-1,.16-1,.25-.94.35-.91.43-.88.52.76-.69.84-.61c.3-.18.6-.34.91-.52l1-.43,1-.33,1-.21,1.07-.11c.36,0,.72,0,1.08,0s.72.05,1.08.11.72.13,1.07.22.71.19,1,.33.69.26,1,.44.67.33,1,.54a10.74,10.74,0,0,1,.91.65l.44.38a4.51,4.51,0,0,1,.41.37l.36.36.18.18,0,0h0l0,.06,0,0,.09.1-1.77.28a15.91,15.91,0,0,1,.9-2.11,9.79,9.79,0,0,1,.58-1c.2-.33.43-.64.65-1s.48-.6.72-.9.55-.58.82-.87l.36-.4.17-.22.1-.09,0,0h.09l.07,0,.93-.7a9.35,9.35,0,0,1,1-.63,8.16,8.16,0,0,1,1-.56c.35-.16.7-.34,1.06-.49l1.1-.4c.37-.14.75-.2,1.13-.3l.57-.14.58-.09a16.54,16.54,0,0,1,2.33-.19,16.88,16.88,0,0,1,2.33.2,8.43,8.43,0,0,1,1.15.22c.38.1.76.17,1.13.31l1.1.4c.36.14.71.33,1.06.49a8.31,8.31,0,0,1,1,.56,9.66,9.66,0,0,1,1,.64l.92.71.88.82a7.93,7.93,0,0,1,.76.82l.35.4.09.1,0,.05,0,.05h0l0,0,.17.24a14.47,14.47,0,0,1,1.23,2c.16.35.34.69.49,1l.41,1.07-1.26-.61,1.07-.24,1.09-.14c.36,0,.73,0,1.09,0s.73.06,1.09.09.71.13,1.07.2.69.2,1,.3l1,.4c.32.16.64.33.95.5l.89.59c.27.22.55.44.82.67s.51.49.74.74.45.54.66.81.39.57.57.87.33.6.47.91.25.64.37,1Z" transform="translate(-569.82 904.78)"/><path class="cls-1" d="M848.39-765.88l-.45-.9c-.17-.29-.35-.56-.52-.84s-.39-.53-.59-.79-.44-.48-.66-.72-.48-.43-.72-.65-.51-.39-.76-.58l-.81-.5-.85-.42-.88-.33-.9-.25-.92-.16c-.31,0-.61-.06-.92-.07s-.61,0-.92,0l-.91.1-.89.18-.87.27-.85.26-.41-.87-.42-.9c-.16-.29-.33-.57-.49-.86a15.42,15.42,0,0,0-1.15-1.6l-.15-.19v-.08h0s-.07,0,0,.06l-.06,0-.1-.09-.37-.38a7.34,7.34,0,0,0-.73-.71l-.71-.6-.8-.56a7.47,7.47,0,0,0-.83-.5,6.45,6.45,0,0,0-.86-.45c-.3-.13-.59-.28-.89-.39l-.92-.31c-.31-.1-.63-.15-.94-.24a6.18,6.18,0,0,0-1-.18,14.22,14.22,0,0,0-1.93-.15,14.76,14.76,0,0,0-1.93.15l-.48.06-.47.11c-.31.08-.63.13-.94.24l-.92.31c-.3.11-.59.26-.89.39a6.18,6.18,0,0,0-.86.45,8.53,8.53,0,0,0-.83.5l-.8.56,0,0h0l0,0,0,0-.1.09-.2.17-.41.34c-.22.22-.45.42-.67.65s-.46.47-.65.73-.41.5-.6.78-.37.54-.54.82a13.88,13.88,0,0,0-.91,1.75l-.76,1.69-1-1.41-.07-.1,0-.08.06-.06h0l0,0h-.11l-.2-.17-.34-.38a2.78,2.78,0,0,0-.33-.33l-.32-.3a9.05,9.05,0,0,0-.71-.58c-.23-.2-.51-.35-.76-.53s-.54-.3-.82-.46-.58-.25-.86-.38-.6-.19-.9-.29-.62-.13-.93-.21-.63-.08-1-.12l-1,0-1,.07-1,.16-1,.25-.93.35-.91.43-.88.52.76-.69.84-.61c.3-.18.6-.34.91-.52l1-.43,1-.33,1-.21,1.07-.11c.36,0,.72,0,1.08,0s.72.05,1.08.11.72.13,1.07.22.71.19,1,.33.69.26,1,.44a11,11,0,0,1,1,.54,10.78,10.78,0,0,1,.91.65l.44.38a4.51,4.51,0,0,1,.41.37l.36.36.18.18,0,0h0l0,.06,0,0,.09.1-1.77.28A15.89,15.89,0,0,1,809-775a9.77,9.77,0,0,1,.58-1c.2-.33.43-.64.65-1s.48-.6.72-.9.55-.58.82-.87l.36-.4.17-.21.1-.09,0,0,.09,0,.07,0,.93-.7a9.32,9.32,0,0,1,1-.63,8.16,8.16,0,0,1,1-.56c.35-.16.7-.34,1.06-.49l1.1-.4c.37-.14.75-.2,1.13-.3l.57-.14.58-.09a16.47,16.47,0,0,1,2.33-.19,16.84,16.84,0,0,1,2.33.2,8.44,8.44,0,0,1,1.15.22c.38.1.76.17,1.13.31l1.1.4c.36.14.71.33,1.06.49a8.3,8.3,0,0,1,1,.56,9.61,9.61,0,0,1,1,.64l.92.7.88.82a7.93,7.93,0,0,1,.76.82l.35.4.09.1,0,.05,0,.05h0l0,0,.17.24a14.5,14.5,0,0,1,1.23,2c.16.35.34.69.49,1l.41,1.07-1.26-.61,1.07-.24,1.09-.14c.36,0,.73,0,1.09,0s.73.06,1.09.09.71.13,1.07.2.69.2,1,.3l1,.4.95.5.89.59c.27.22.55.44.82.67s.5.49.74.74.45.54.66.81.39.57.57.87.33.6.47.92.25.64.37,1Z" transform="translate(-569.82 904.78)"/></svg>