<svg xmlns="http://www.w3.org/2000/svg" viewBox="0 0 213.02 191.44"><defs><style>.cls-1{isolation:isolate;}.cls-2{opacity:0.2;}.cls-3,.cls-4{fill:#ef5350;}.cls-4{opacity:0.61;mix-blend-mode:multiply;}.cls-5,.cls-7{fill:#fff;}.cls-5{opacity:0.26;mix-blend-mode:overlay;}.cls-6{fill:#455a64;}</style></defs><title>Asset 1</title><g class="cls-1"><g id="Layer_2" data-name="Layer 2"><g id="OBJECTS"><path class="cls-2" d="M212.15,60.32a7.19,7.19,0,0,0-6.32-3.76H151.42L129.7,13.91a9.46,9.46,0,1,0-9.63,4.89L139.3,56.56H71L90.22,18.81a9.44,9.44,0,1,0-9.63-4.89L58.87,56.56H7.19A7.19,7.19,0,0,0,0,63.75V79.52a7.19,7.19,0,0,0,7.19,7.19h3.16l1.28,6.75h0L26.32,171.2a24.85,24.85,0,0,0,24.42,20.24H162.28A24.85,24.85,0,0,0,186.7,171.2l14.69-77.74h0l1.28-6.75h3.16A7.19,7.19,0,0,0,213,79.52h0V63.75A7.16,7.16,0,0,0,212.15,60.32ZM175.56,165a4.65,4.65,0,0,1-4.55,3.71H42a4.64,4.64,0,0,1,0-9.29H171a4.65,4.65,0,0,1,4.55,5.58Zm-.64-21.32H38.11a4.64,4.64,0,0,1,0-9.29H174.92a4.64,4.64,0,0,1,0,9.29Zm4.87-25.23a4.55,4.55,0,0,1-.91.09H34.15a4.53,4.53,0,1,1,0-9.07H178.87a4.53,4.53,0,0,1,.91,9Z"/><path class="cls-3" d="M19,85.84,33.8,164.28a23.07,23.07,0,0,0,22.67,18.79H160a23.07,23.07,0,0,0,22.67-18.79l14.83-78.45ZM168.14,162H48.37a4.31,4.31,0,0,1,0-8.63H168.14a4.31,4.31,0,0,1,0,8.63Zm3.63-23.24h-127a4.31,4.31,0,0,1,0-8.63h127a4.31,4.31,0,0,1,0,8.63Zm3.68-23.35H41.06a4.21,4.21,0,1,1,0-8.42H175.45a4.21,4.21,0,1,1,0,8.42Z"/><path class="cls-3" d="M16,57.84a6.68,6.68,0,0,0-6.68,6.68V79.16A6.68,6.68,0,0,0,16,85.84H200.47a6.68,6.68,0,0,0,6.68-6.68V64.52a6.68,6.68,0,0,0-6.68-6.68Z"/><polygon class="cls-4" points="197.54 85.84 18.97 85.84 20.16 92.11 196.35 92.11 197.54 85.84"/><path class="cls-5" d="M200.47,57.84H108.26V107h67.19a4.21,4.21,0,1,1,0,8.42H108.26v14.72h63.51a4.31,4.31,0,0,1,0,8.63H108.26v14.62h59.89a4.31,4.31,0,1,1,0,8.62H108.26v21.1H160a23.07,23.07,0,0,0,22.67-18.79l14.83-78.45h2.94a6.68,6.68,0,0,0,6.68-6.68V64.52A6.68,6.68,0,0,0,200.47,57.84Z"/><circle class="cls-3" cx="91.92" cy="14.1" r="8.78"/><circle class="cls-3" cx="122.05" cy="14.1" r="8.78"/><path class="cls-6" d="M62.51,76.86A5,5,0,0,1,58,69.56L87.45,11.82a5,5,0,0,1,8.94,4.55L67,74.11A5,5,0,0,1,62.51,76.86Z"/><path class="cls-6" d="M151.46,76.86A5,5,0,0,1,147,74.11L117.58,16.38a5,5,0,0,1,8.94-4.55l29.41,57.74a5,5,0,0,1-4.47,7.29Z"/><circle class="cls-7" cx="91.92" cy="14.1" r="2.51"/><circle class="cls-7" cx="62.52" cy="71.84" r="2.51"/><circle class="cls-7" cx="151.46" cy="71.84" r="2.51"/><circle class="cls-7" cx="122.05" cy="14.1" r="2.51"/></g></g></g></svg>