<svg xmlns="http://www.w3.org/2000/svg" viewBox="0 0 175.16 154.27"><defs><style>.cls-1{fill:#f9cd15;}</style></defs><title>Asset 2</title><g id="Layer_2" data-name="Layer 2"><g id="Objects"><path class="cls-1" d="M28.28,150.38l86.87-70.57a17.34,17.34,0,0,0,2.56-24.36h0a17.34,17.34,0,0,0-24.43-2.57L6.41,123.46a17.34,17.34,0,0,0-2.56,24.36h0A17.34,17.34,0,0,0,28.28,150.38Z"/><path class="cls-1" d="M120.73,30.66a14,14,0,0,0-2.1,19.65l4.24,5.25a14,14,0,0,0,19.65,2.1L173.09,33A46.75,46.75,0,1,1,151.3,6Z"/></g></g></svg>