<svg id="OBJECTS" xmlns="http://www.w3.org/2000/svg" viewBox="0 0 145.6 99"><defs><style>.cls-1{opacity:0.2;}.cls-2{fill:#ffb238;}.cls-3{fill:#ab731b;}</style></defs><title>solution-business-13</title><path class="cls-1" d="M1382.55-774.77a10.52,10.52,0,0,0-1.75-5.85l-.16-.23q-.28-.4-.6-.76l-.14-.17a9.63,9.63,0,0,0-.83-.81l-.15-.12a9.44,9.44,0,0,0-.77-.58l-.26-.17a9,9,0,0,0-.85-.47l-.16-.08a9.07,9.07,0,0,0-1.06-.41l-.28-.08a8.73,8.73,0,0,0-.86-.19l-.33-.05a8.8,8.8,0,0,0-1.17-.09H1271.59a8.89,8.89,0,0,0-1.17.09l-.33.05a8.67,8.67,0,0,0-.86.19l-.28.08a8.93,8.93,0,0,0-1.06.41l-.16.08a9,9,0,0,0-.85.47l-.26.17a9.29,9.29,0,0,0-.76.57l-.15.12a9.9,9.9,0,0,0-.83.81l-.15.17c-.21.24-.41.5-.6.76l-.16.23a10.52,10.52,0,0,0-1.75,5.85v59.6a10.6,10.6,0,0,0,1.2,4.92h0a10.4,10.4,0,0,0,.61,1l.11.15a9.72,9.72,0,0,0,.71.9l0,0a9.43,9.43,0,0,0,.86.84l.13.11a9.37,9.37,0,0,0,.79.59l.23.15a8.56,8.56,0,0,0,.93.51l.08,0a8.82,8.82,0,0,0,1.06.41l.28.08a8.33,8.33,0,0,0,.85.19l.33.06a8.89,8.89,0,0,0,1.16.08H1373.2a8.85,8.85,0,0,0,1.16-.08l.33-.06a8.48,8.48,0,0,0,.86-.19l.28-.08a9,9,0,0,0,1.06-.41l.07,0a8.78,8.78,0,0,0,.94-.52l.22-.14a9.28,9.28,0,0,0,.8-.6l.12-.1a9.49,9.49,0,0,0,.87-.84l0,0a9.86,9.86,0,0,0,.71-.9l.11-.15a10.11,10.11,0,0,0,.61-1v0h0a10.62,10.62,0,0,0,1.2-4.92Z" transform="translate(-1236.95 804.11)"/><path class="cls-2" d="M1357.27-734.45c0,5.56-4.19,10.06-9.36,10.06H1246.3c-5.17,0-9.35-4.51-9.35-10.06V-794c0-5.56,4.19-10.06,9.35-10.06h101.61c5.17,0,9.36,4.51,9.36,10.06Z" transform="translate(-1236.95 804.11)"/><path class="cls-3" d="M1356.07-729.53l-59-57.3-59,57.3a9.26,9.26,0,0,0,8.15,5.14h101.61A9.27,9.27,0,0,0,1356.07-729.53Z" transform="translate(-1236.95 804.11)"/><path class="cls-2" d="M1356.07-729.53l-59-49-59,49a9.26,9.26,0,0,0,8.15,5.14h101.61A9.27,9.27,0,0,0,1356.07-729.53Z" transform="translate(-1236.95 804.11)"/><path class="cls-3" d="M1297.11-745.39l59-53.49a9.28,9.28,0,0,0-8.21-5.23H1246.3a9.27,9.27,0,0,0-8.2,5.23Z" transform="translate(-1236.95 804.11)"/><path class="cls-2" d="M1297.11-749.88l59-49a9.28,9.28,0,0,0-8.21-5.23H1246.3a9.27,9.27,0,0,0-8.2,5.23Z" transform="translate(-1236.95 804.11)"/></svg>