<svg id="OBJECTS" xmlns="http://www.w3.org/2000/svg" viewBox="0 0 168.44 203.59"><defs><style>.cls-1{opacity:0.2;}.cls-2{fill:none;stroke:#08334d;stroke-linecap:round;stroke-linejoin:round;stroke-width:3.86px;}.cls-3{fill:#ffb238;}.cls-4{fill:#08334d;}.cls-5{fill:#ff6f4f;}.cls-6{fill:#802815;}.cls-7{fill:#0e5987;}.cls-8{fill:#fff;}</style></defs><title>solution-business-15</title><path class="cls-1" d="M1529.5-812.19a32.34,32.34,0,0,0,32.33-32.34,32.33,32.33,0,0,0-32.33-32.33,32.31,32.31,0,0,0-27.57,15.44l-44.68-23.83a21.61,21.61,0,0,0,2-9A21.71,21.71,0,0,0,1437.51-916a21.71,21.71,0,0,0-21.71,21.71,21.71,21.71,0,0,0,21.71,21.71,21.67,21.67,0,0,0,17.82-9.32L1500.11-858a32.21,32.21,0,0,0-2.95,13.49,32.22,32.22,0,0,0,8.4,21.74l-28.6,29a38.81,38.81,0,0,0-26.47-10.38,39,39,0,0,0-38.95,38.95,39,39,0,0,0,38.95,38.95,39,39,0,0,0,38.95-38.95,38.8,38.8,0,0,0-9.79-25.8l28.67-29.08A32.2,32.2,0,0,0,1529.5-812.19Z" transform="translate(-1393.39 929.84)"/><line class="cls-2" x1="25.97" y1="22.4" x2="117.95" y2="71.47"/><line class="cls-2" x1="118.04" y1="71.59" x2="38.86" y2="151.91"/><circle class="cls-3" cx="38.95" cy="150.79" r="38.95"/><path class="cls-4" d="M1432.34-777.81a13,13,0,0,0,13-13v-7.08a13,13,0,0,0-13-13,13,13,0,0,0-13,13v7.08A13,13,0,0,0,1432.34-777.81Z" transform="translate(-1393.39 929.84)"/><path class="cls-4" d="M1437.9-769.3h-11.13a20.39,20.39,0,0,0-17.67,10.2,20.39,20.39,0,0,0,17.67,10.2h11.13a20.39,20.39,0,0,0,17.66-10.2A20.39,20.39,0,0,0,1437.9-769.3Z" transform="translate(-1393.39 929.84)"/><circle class="cls-5" cx="117.95" cy="71.47" r="32.33"/><path class="cls-6" d="M1511.34-857.34a10.78,10.78,0,0,0,10.78-10.78V-874a10.78,10.78,0,0,0-10.78-10.78A10.78,10.78,0,0,0,1500.56-874v5.88A10.78,10.78,0,0,0,1511.34-857.34Z" transform="translate(-1393.39 929.84)"/><path class="cls-6" d="M1516-850.27h-9.24a16.93,16.93,0,0,0-14.66,8.47,16.93,16.93,0,0,0,14.66,8.47H1516a16.93,16.93,0,0,0,14.66-8.47A16.93,16.93,0,0,0,1516-850.27Z" transform="translate(-1393.39 929.84)"/><circle class="cls-7" cx="25.97" cy="21.71" r="21.71"/><path class="cls-8" d="M1419.35-907.44a7.24,7.24,0,0,0,7.24-7.24v-3.95a7.24,7.24,0,0,0-7.24-7.24,7.24,7.24,0,0,0-7.24,7.24v3.95A7.24,7.24,0,0,0,1419.35-907.44Z" transform="translate(-1393.39 929.84)"/><path class="cls-8" d="M1422.45-902.7h-6.2a11.37,11.37,0,0,0-9.85,5.69,11.37,11.37,0,0,0,9.85,5.69h6.2a11.37,11.37,0,0,0,9.85-5.69A11.37,11.37,0,0,0,1422.45-902.7Z" transform="translate(-1393.39 929.84)"/></svg>