<svg id="Objects" xmlns="http://www.w3.org/2000/svg" viewBox="0 0 2152.73 225.24"><defs><style>.cls-1,.cls-5{fill:#374f4e;}.cls-1,.cls-4{fill-rule:evenodd;}.cls-2{fill:#bfebea;}.cls-3,.cls-4{fill:#b9d6d4;}</style></defs><title>solution-system-1</title><path class="cls-1" d="M1596.17,340.45H583a20.92,20.92,0,0,0-20.86,20.86h0A20.92,20.92,0,0,0,583,382.16H1596.17Z" transform="translate(556.57 -335.91)"/><path class="cls-2" d="M1596.17,337.38H583A24,24,0,0,0,559,361.3h0A24,24,0,0,0,583,385.23H1596.17v-6.14H583a17.85,17.85,0,0,1-17.79-17.79h0A17.85,17.85,0,0,1,583,343.52H1596.17Z" transform="translate(556.57 -335.91)"/><circle class="cls-3" cx="1315.44" cy="25.4" r="10.73"/><circle class="cls-3" cx="1280.24" cy="25.4" r="10.73"/><circle class="cls-3" cx="1245.04" cy="25.4" r="10.73"/><circle class="cls-3" cx="1209.84" cy="25.4" r="10.73"/><circle class="cls-3" cx="1174.64" cy="25.4" r="10.73"/><circle class="cls-3" cx="1139.44" cy="25.4" r="10.73"/><path class="cls-4" d="M1520.4,358.46H581.89A2.85,2.85,0,0,0,579,361.3h0a2.86,2.86,0,0,0,2.85,2.85H1520.4Z" transform="translate(556.57 -335.91)"/><circle class="cls-3" cx="1350.65" cy="25.4" r="10.73"/><circle class="cls-2" cx="1350.65" cy="25.4" r="3.47"/><circle class="cls-3" cx="1387.55" cy="25.4" r="10.73"/><circle class="cls-2" cx="1387.55" cy="25.4" r="3.47"/><circle class="cls-3" cx="1424.45" cy="25.4" r="10.73"/><circle class="cls-2" cx="1424.45" cy="25.4" r="3.47"/><circle class="cls-3" cx="1461.35" cy="25.4" r="10.73"/><circle class="cls-2" cx="1461.35" cy="25.4" r="3.47"/><circle class="cls-3" cx="1498.26" cy="25.4" r="10.73"/><circle class="cls-2" cx="1498.26" cy="25.4" r="3.47"/><circle class="cls-3" cx="1535.16" cy="25.4" r="10.73"/><circle class="cls-2" cx="1535.16" cy="25.4" r="3.47"/><circle class="cls-3" cx="1572.06" cy="25.4" r="10.73"/><circle class="cls-2" cx="1572.06" cy="25.4" r="3.47"/><circle class="cls-3" cx="1608.96" cy="25.4" r="10.73"/><circle class="cls-2" cx="1608.96" cy="25.4" r="3.47"/><circle class="cls-3" cx="1647.96" cy="25.4" r="10.73"/><circle class="cls-2" cx="1647.96" cy="25.4" r="3.47"/><circle class="cls-3" cx="1686.96" cy="25.4" r="10.73"/><circle class="cls-2" cx="1686.96" cy="25.4" r="3.47"/><circle class="cls-3" cx="1725.96" cy="25.4" r="10.73"/><circle class="cls-2" cx="1725.96" cy="25.4" r="3.47"/><circle class="cls-3" cx="1764.96" cy="25.4" r="10.73"/><circle class="cls-2" cx="1764.96" cy="25.4" r="3.47"/><circle class="cls-3" cx="1803.96" cy="25.4" r="10.73"/><circle class="cls-2" cx="1803.96" cy="25.4" r="3.47"/><circle class="cls-3" cx="1842.96" cy="25.4" r="10.73"/><circle class="cls-2" cx="1842.96" cy="25.4" r="3.47"/><circle class="cls-3" cx="1881.96" cy="25.4" r="10.73"/><circle class="cls-2" cx="1881.96" cy="25.4" r="3.47"/><circle class="cls-3" cx="1920.96" cy="25.4" r="10.73"/><circle class="cls-2" cx="1920.96" cy="25.4" r="3.47"/><circle class="cls-3" cx="1959.96" cy="25.4" r="10.73"/><circle class="cls-2" cx="1959.96" cy="25.4" r="3.47"/><circle class="cls-3" cx="1998.96" cy="25.4" r="10.73"/><circle class="cls-2" cx="1998.96" cy="25.4" r="3.47"/><circle class="cls-3" cx="2037.96" cy="25.4" r="10.73"/><circle class="cls-2" cx="2037.96" cy="25.4" r="3.47"/><circle class="cls-3" cx="2076.96" cy="25.4" r="10.73"/><circle class="cls-2" cx="2076.96" cy="25.4" r="3.47"/><circle class="cls-2" cx="1315.44" cy="25.4" r="3.47"/><circle class="cls-2" cx="1280.24" cy="25.4" r="3.47"/><circle class="cls-2" cx="1245.04" cy="25.4" r="3.47"/><circle class="cls-2" cx="1209.84" cy="25.4" r="3.47"/><circle class="cls-2" cx="1174.64" cy="25.4" r="3.47"/><circle class="cls-2" cx="1174.64" cy="25.4" r="3.47"/><path class="cls-1" d="M397.3,519.22,571.46,345.06a20.92,20.92,0,0,1,29.49,0h0a20.92,20.92,0,0,1,0,29.49L426.8,548.72a20.92,20.92,0,0,1-29.49,0h0A20.92,20.92,0,0,1,397.3,519.22Z" transform="translate(556.57 -335.91)"/><path class="cls-2" d="M499.13,413.05l70.17-70.17a24,24,0,0,1,33.84,0h0a24,24,0,0,1,0,33.84l-104,104V472l99.66-99.66a17.85,17.85,0,0,0,0-25.15h0a17.85,17.85,0,0,0-25.15,0l-74.51,74.51Zm-104,104,104-104v8.68l-99.66,99.66a17.85,17.85,0,0,0,0,25.15h0a17.85,17.85,0,0,0,25.15,0L499.13,472v8.68L429,550.89a24,24,0,0,1-33.83,0h0a24,24,0,0,1,0-33.84Z" transform="translate(556.57 -335.91)"/><circle class="cls-3" cx="412.05" cy="533.97" r="10.73" transform="translate(299.68 111.83) rotate(-45)"/><circle class="cls-3" cx="436.94" cy="509.08" r="10.73" transform="translate(324.57 122.16) rotate(-45)"/><circle class="cls-3" cx="461.83" cy="484.19" r="10.73" transform="translate(349.46 132.51) rotate(-45)"/><circle class="cls-3" cx="486.72" cy="459.3" r="10.73" transform="translate(374.35 142.78) rotate(-45)"/><circle class="cls-3" cx="511.61" cy="434.41" r="10.73" transform="translate(399.24 153.09) rotate(-45)"/><circle class="cls-3" cx="536.5" cy="409.51" r="10.73" transform="translate(424.13 163.38) rotate(-45)"/><circle class="cls-3" cx="561.39" cy="384.62" r="10.73" transform="translate(449.03 173.71) rotate(-45)"/><circle class="cls-3" cx="586.29" cy="359.73" r="10.73" transform="translate(473.93 184.07) rotate(-45)"/><path class="cls-4" d="M409.75,532.24,585,357a2.85,2.85,0,0,1,4,0h0a2.86,2.86,0,0,1,0,4L413.78,536.26a2.85,2.85,0,0,1-4,0h0A2.85,2.85,0,0,1,409.75,532.24Z" transform="translate(556.57 -335.91)"/><circle class="cls-2" cx="1117.96" cy="48.72" r="3.47"/><circle class="cls-2" cx="1093.07" cy="73.61" r="3.47"/><circle class="cls-2" cx="1068.18" cy="98.5" r="3.47"/><circle class="cls-2" cx="1043.29" cy="123.39" r="3.47"/><circle class="cls-2" cx="1018.4" cy="148.28" r="3.47"/><circle class="cls-2" cx="993.51" cy="173.17" r="3.47"/><circle class="cls-2" cx="993.51" cy="173.17" r="3.47"/><path class="cls-4" d="M412.32,544.8a10.73,10.73,0,1,0-10.73-10.73A10.75,10.75,0,0,0,412.32,544.8Z" transform="translate(556.57 -335.91)"/><path class="cls-4" d="M377.12,544.8a10.73,10.73,0,1,0-10.73-10.73A10.75,10.75,0,0,0,377.12,544.8Z" transform="translate(556.57 -335.91)"/><circle class="cls-2" cx="933.69" cy="198.16" r="3.47"/><path class="cls-1" d="M412.32,513.21H-530.42a20.92,20.92,0,0,0-20.86,20.86h0a20.92,20.92,0,0,0,20.86,20.86H412.32a20.92,20.92,0,0,0,20.85-20.86h0A20.92,20.92,0,0,0,412.32,513.21Z" transform="translate(556.57 -335.91)"/><path class="cls-2" d="M412.32,510.14H289.17v6.14H412.32a17.85,17.85,0,0,1,17.79,17.79h0a17.85,17.85,0,0,1-17.79,17.79H289.17V558H412.32a24,24,0,0,0,23.92-23.93h0a24,24,0,0,0-23.92-23.93Zm-123.15,0H-530a23.86,23.86,0,0,0-16.9,7,23.85,23.85,0,0,0-7,16.9h0a23.85,23.85,0,0,0,7,16.9,23.85,23.85,0,0,0,16.9,7H289.17v-6.14H-530a17.73,17.73,0,0,1-12.56-5.23,17.73,17.73,0,0,1-5.23-12.56h0a17.73,17.73,0,0,1,5.23-12.56A17.73,17.73,0,0,1-530,516.28H289.17Z" transform="translate(556.57 -335.91)"/><path class="cls-4" d="M341.92,544.8a10.73,10.73,0,1,0-10.73-10.73A10.75,10.75,0,0,0,341.92,544.8Z" transform="translate(556.57 -335.91)"/><path class="cls-4" d="M306.72,544.8A10.73,10.73,0,1,0,296,534.07,10.75,10.75,0,0,0,306.72,544.8Z" transform="translate(556.57 -335.91)"/><path class="cls-4" d="M271.51,544.8a10.73,10.73,0,1,0-10.73-10.73A10.75,10.75,0,0,0,271.51,544.8Z" transform="translate(556.57 -335.91)"/><path class="cls-4" d="M236.31,544.8a10.73,10.73,0,1,0-10.73-10.73A10.75,10.75,0,0,0,236.31,544.8Z" transform="translate(556.57 -335.91)"/><path class="cls-4" d="M411.05,532.21H-544.8c-2.48,0-4.51,1.1-4.51,2.44h0c0,1.34,2,2.44,4.51,2.44H411.05c2.48,0,4.51-1.1,4.51-2.44h0C415.56,533.3,413.53,532.21,411.05,532.21Z" transform="translate(556.57 -335.91)"/><circle class="cls-2" cx="898.48" cy="198.16" r="3.47"/><circle class="cls-2" cx="863.28" cy="198.16" r="3.47"/><circle class="cls-2" cx="828.08" cy="198.16" r="3.47"/><circle class="cls-2" cx="792.88" cy="198.16" r="3.47"/><path class="cls-4" d="M201.11,544.8a10.73,10.73,0,1,0-10.73-10.73A10.75,10.75,0,0,0,201.11,544.8Z" transform="translate(556.57 -335.91)"/><circle class="cls-2" cx="757.68" cy="198.16" r="3.47"/><path class="cls-4" d="M165.23,544.8a10.73,10.73,0,1,0-10.73-10.73A10.75,10.75,0,0,0,165.23,544.8Z" transform="translate(556.57 -335.91)"/><circle class="cls-2" cx="721.8" cy="198.16" r="3.47"/><path class="cls-4" d="M129.87,544.8a10.73,10.73,0,1,0-10.73-10.73A10.75,10.75,0,0,0,129.87,544.8Z" transform="translate(556.57 -335.91)"/><circle class="cls-2" cx="686.44" cy="198.16" r="3.47"/><path class="cls-4" d="M94.51,544.8a10.73,10.73,0,1,0-10.73-10.73A10.75,10.75,0,0,0,94.51,544.8Z" transform="translate(556.57 -335.91)"/><circle class="cls-2" cx="651.08" cy="198.16" r="3.47"/><path class="cls-4" d="M59.15,544.8a10.73,10.73,0,1,0-10.73-10.73A10.75,10.75,0,0,0,59.15,544.8Z" transform="translate(556.57 -335.91)"/><circle class="cls-2" cx="615.72" cy="198.16" r="3.47"/><path class="cls-4" d="M23.79,544.8a10.73,10.73,0,1,0-10.73-10.73A10.75,10.75,0,0,0,23.79,544.8Z" transform="translate(556.57 -335.91)"/><circle class="cls-2" cx="580.36" cy="198.16" r="3.47"/><path class="cls-4" d="M-14.17,544.8A10.75,10.75,0,0,0-3.44,534.07a10.75,10.75,0,0,0-10.73-10.73A10.75,10.75,0,0,0-24.9,534.07,10.75,10.75,0,0,0-14.17,544.8Z" transform="translate(556.57 -335.91)"/><circle class="cls-2" cx="542.4" cy="198.16" r="3.47"/><path class="cls-4" d="M-52.13,544.8A10.75,10.75,0,0,0-41.4,534.07a10.75,10.75,0,0,0-10.73-10.73,10.75,10.75,0,0,0-10.73,10.73A10.75,10.75,0,0,0-52.13,544.8Z" transform="translate(556.57 -335.91)"/><circle class="cls-2" cx="504.44" cy="198.16" r="3.47"/><path class="cls-4" d="M-90.08,544.8a10.75,10.75,0,0,0,10.73-10.73,10.75,10.75,0,0,0-10.73-10.73,10.75,10.75,0,0,0-10.73,10.73A10.75,10.75,0,0,0-90.08,544.8Z" transform="translate(556.57 -335.91)"/><circle class="cls-2" cx="466.48" cy="198.16" r="3.47"/><path class="cls-4" d="M-128,544.8a10.75,10.75,0,0,0,10.73-10.73A10.75,10.75,0,0,0-128,523.34a10.75,10.75,0,0,0-10.73,10.73A10.75,10.75,0,0,0-128,544.8Z" transform="translate(556.57 -335.91)"/><circle class="cls-2" cx="428.52" cy="198.16" r="3.47"/><path class="cls-4" d="M-166,544.8a10.75,10.75,0,0,0,10.73-10.73A10.75,10.75,0,0,0-166,523.34a10.75,10.75,0,0,0-10.73,10.73A10.75,10.75,0,0,0-166,544.8Z" transform="translate(556.57 -335.91)"/><circle class="cls-2" cx="390.57" cy="198.16" r="3.47"/><path class="cls-4" d="M-204,544.8a10.75,10.75,0,0,0,10.73-10.73A10.75,10.75,0,0,0-204,523.34a10.75,10.75,0,0,0-10.73,10.73A10.75,10.75,0,0,0-204,544.8Z" transform="translate(556.57 -335.91)"/><circle class="cls-2" cx="352.61" cy="198.16" r="3.47"/><path class="cls-4" d="M-241.92,544.8a10.75,10.75,0,0,0,10.73-10.73,10.75,10.75,0,0,0-10.73-10.73,10.75,10.75,0,0,0-10.73,10.73A10.75,10.75,0,0,0-241.92,544.8Z" transform="translate(556.57 -335.91)"/><circle class="cls-2" cx="314.65" cy="198.16" r="3.47"/><path class="cls-4" d="M-279.88,544.8a10.75,10.75,0,0,0,10.73-10.73,10.75,10.75,0,0,0-10.73-10.73,10.75,10.75,0,0,0-10.73,10.73A10.75,10.75,0,0,0-279.88,544.8Z" transform="translate(556.57 -335.91)"/><circle class="cls-2" cx="276.69" cy="198.16" r="3.47"/><path class="cls-4" d="M-317.84,544.8a10.75,10.75,0,0,0,10.73-10.73,10.75,10.75,0,0,0-10.73-10.73,10.75,10.75,0,0,0-10.73,10.73A10.75,10.75,0,0,0-317.84,544.8Z" transform="translate(556.57 -335.91)"/><circle class="cls-2" cx="238.73" cy="198.16" r="3.47"/><path class="cls-4" d="M-355.84,544.8a10.75,10.75,0,0,0,10.73-10.73,10.75,10.75,0,0,0-10.73-10.73,10.75,10.75,0,0,0-10.73,10.73A10.75,10.75,0,0,0-355.84,544.8Z" transform="translate(556.57 -335.91)"/><circle class="cls-2" cx="200.73" cy="198.16" r="3.47"/><path class="cls-4" d="M-393.84,544.8a10.75,10.75,0,0,0,10.73-10.73,10.75,10.75,0,0,0-10.73-10.73,10.75,10.75,0,0,0-10.73,10.73A10.75,10.75,0,0,0-393.84,544.8Z" transform="translate(556.57 -335.91)"/><circle class="cls-2" cx="162.73" cy="198.16" r="3.47"/><path class="cls-4" d="M-431.84,544.8a10.75,10.75,0,0,0,10.73-10.73,10.75,10.75,0,0,0-10.73-10.73,10.75,10.75,0,0,0-10.73,10.73A10.75,10.75,0,0,0-431.84,544.8Z" transform="translate(556.57 -335.91)"/><circle class="cls-2" cx="124.73" cy="198.16" r="3.47"/><path class="cls-4" d="M-469.84,544.8a10.75,10.75,0,0,0,10.73-10.73,10.75,10.75,0,0,0-10.73-10.73,10.75,10.75,0,0,0-10.73,10.73A10.75,10.75,0,0,0-469.84,544.8Z" transform="translate(556.57 -335.91)"/><circle class="cls-2" cx="86.73" cy="198.16" r="3.47"/><path class="cls-4" d="M-507.84,544.8a10.75,10.75,0,0,0,10.73-10.73,10.75,10.75,0,0,0-10.73-10.73,10.75,10.75,0,0,0-10.73,10.73A10.75,10.75,0,0,0-507.84,544.8Z" transform="translate(556.57 -335.91)"/><circle class="cls-2" cx="48.73" cy="198.16" r="3.47"/><path class="cls-4" d="M-545.84,544.8a10.75,10.75,0,0,0,10.73-10.73,10.75,10.75,0,0,0-10.73-10.73,10.75,10.75,0,0,0-10.73,10.73A10.75,10.75,0,0,0-545.84,544.8Z" transform="translate(556.57 -335.91)"/><circle class="cls-2" cx="10.73" cy="198.16" r="3.47"/><circle class="cls-5" cx="968.89" cy="198.16" r="27.07"/></svg>