<svg id="OBJECTS" xmlns="http://www.w3.org/2000/svg" viewBox="0 0 152.55 329.42"><defs><style>.cls-1{fill:#f38020;}.cls-2{fill:#eeb31f;}.cls-3{fill:#f7cb6b;}.cls-4{fill:#e93859;}.cls-5{fill:#bb3548;}.cls-6{fill:#def1f3;}.cls-7{fill:#e6c536;}.cls-8{fill:#cdaf2f;}.cls-9{fill:#82cfd0;}.cls-10{fill:#a5dbe2;}</style></defs><title>solution-business-5</title><path class="cls-1" d="M793.29-941c0,24.59-34.84,57.71-34.84,57.71S723.61-916.39,723.61-941s15.6-31.35,34.84-31.35S793.29-965.57,793.29-941Z" transform="translate(-682.05 1212.69)"/><path class="cls-2" d="M782.49-945.85c0,17-24,39.83-24,39.83s-24-22.86-24-39.83,10.77-21.63,24-21.63S782.49-962.82,782.49-945.85Z" transform="translate(-682.05 1212.69)"/><path class="cls-3" d="M772.37-954c0,9.83-13.93,23.07-13.93,23.07S744.52-944.14,744.52-954s6.24-12.53,13.93-12.53S772.37-963.8,772.37-954Z" transform="translate(-682.05 1212.69)"/><path class="cls-4" d="M730-1029s-48,25.18-48,79.75c0,0,3,6,7.79-1.2s9-27,39.58-27Z" transform="translate(-682.05 1212.69)"/><path class="cls-5" d="M786.63-1029s48,25.18,48,79.75c0,0-3,6-7.8-1.2s-9-27-39.58-27Z" transform="translate(-682.05 1212.69)"/><path class="cls-6" d="M811.59-1082a212.41,212.41,0,0,0-9.4-61.77H758.33v18.67a29.38,29.38,0,0,1,29.38,29.38,29.38,29.38,0,0,1-29.38,29.38v94.44H787C801.8-995.12,811.59-1035.76,811.59-1082Z" transform="translate(-682.05 1212.69)"/><path class="cls-6" d="M728.94-1095.71a29.38,29.38,0,0,1,29.38-29.38v-18.67H714.46a212.3,212.3,0,0,0-9.4,61.77c0,46.24,9.79,86.87,24.55,110.1h28.71v-94.44A29.38,29.38,0,0,1,728.94-1095.71Z" transform="translate(-682.05 1212.69)"/><path class="cls-7" d="M730-971.8a1.34,1.34,0,0,0-1.34,1.34v6.27a1.34,1.34,0,0,0,1.34,1.34h28.3v-9Z" transform="translate(-682.05 1212.69)"/><path class="cls-8" d="M786.6-971.8H758.33v9H786.6a1.35,1.35,0,0,0,1.35-1.34v-6.27A1.34,1.34,0,0,0,786.6-971.8Z" transform="translate(-682.05 1212.69)"/><path class="cls-8" d="M778.46-1095.71a20.13,20.13,0,0,1-20.13,20.13v9.25a29.38,29.38,0,0,0,29.38-29.38,29.38,29.38,0,0,0-29.38-29.38v9.25A20.13,20.13,0,0,1,778.46-1095.71Z" transform="translate(-682.05 1212.69)"/><path class="cls-7" d="M728.94-1095.71a29.38,29.38,0,0,0,29.38,29.38v-9.25a20.13,20.13,0,0,1-20.14-20.13,20.13,20.13,0,0,1,20.14-20.13v-9.25A29.38,29.38,0,0,0,728.94-1095.71Z" transform="translate(-682.05 1212.69)"/><path class="cls-9" d="M778.46-1095.71a20.13,20.13,0,0,0-20.13-20.13v40.27A20.13,20.13,0,0,0,778.46-1095.71Z" transform="translate(-682.05 1212.69)"/><path class="cls-10" d="M738.19-1095.71a20.13,20.13,0,0,0,20.14,20.13v-40.27A20.13,20.13,0,0,0,738.19-1095.71Z" transform="translate(-682.05 1212.69)"/><path class="cls-5" d="M758.33-1212.69v68.93h43.86C789.65-1184.79,767.91-1212.69,758.33-1212.69Z" transform="translate(-682.05 1212.69)"/><path class="cls-4" d="M758.33-1212.69c-9.58,0-31.32,27.9-43.86,68.93h43.86v-68.93Z" transform="translate(-682.05 1212.69)"/><path class="cls-5" d="M760.17-1014a1.57,1.57,0,0,0-.46-.07h-1.38v67.31h1.55a1.53,1.53,0,0,0,1.53-1.53v-2l.06-3,4.24-54.12C765.71-1012.95,761.11-1013.81,760.17-1014Z" transform="translate(-682.05 1212.69)"/><path class="cls-4" d="M756.81-1014.12h0a1.57,1.57,0,0,0-.46.07,3.38,3.38,0,0,0-.87.36,6.13,6.13,0,0,0-4.51,6.31l4.25,54.18.06,2.74v2a1.53,1.53,0,0,0,1,1.42,1.53,1.53,0,0,0,.74.19h1.39v-67.31Z" transform="translate(-682.05 1212.69)"/></svg>