<svg id="OBJECTS" xmlns="http://www.w3.org/2000/svg" viewBox="0 0 131.96 127.74"><defs><style>.cls-1{opacity:0.2;}.cls-2{fill:#08334d;}.cls-3{fill:#fff;}.cls-4{fill:#0e5987;}</style></defs><title>solution-business-8</title><circle class="cls-1" cx="74.88" cy="70.65" r="57.08"/><circle class="cls-2" cx="57.08" cy="57.08" r="57.08"/><circle class="cls-3" cx="57.08" cy="57.08" r="47.66"/><path class="cls-2" d="M236.64-1002.21a4.87,4.87,0,0,1,0,6.88h0a4.87,4.87,0,0,1-6.88,0L207.11-1018a4.87,4.87,0,0,1,0-6.88h0a4.87,4.87,0,0,1,6.88,0Z" transform="translate(-178.25 1054.38)"/><path class="cls-2" d="M242-995.33a4.87,4.87,0,0,1-6.88,0h0a4.87,4.87,0,0,1,0-6.88l13.29-13.29a4.87,4.87,0,0,1,6.89,0h0a4.87,4.87,0,0,1,0,6.88Z" transform="translate(-178.25 1054.38)"/><circle class="cls-4" cx="57.08" cy="57.08" r="8.51"/><path class="cls-4" d="M235.33-1041a1.69,1.69,0,0,0-1.69,1.69v2.45a1.69,1.69,0,0,0,1.69,1.69,1.69,1.69,0,0,0,1.69-1.69v-2.45A1.68,1.68,0,0,0,235.33-1041Z" transform="translate(-178.25 1054.38)"/><path class="cls-4" d="M235.33-959.45a1.69,1.69,0,0,0-1.69,1.69v2.45a1.69,1.69,0,0,0,1.69,1.69,1.69,1.69,0,0,0,1.69-1.69v-2.45A1.68,1.68,0,0,0,235.33-959.45Z" transform="translate(-178.25 1054.38)"/><path class="cls-4" d="M279-997.29a1.69,1.69,0,0,0-1.69-1.69h-2.45a1.68,1.68,0,0,0-1.69,1.69,1.69,1.69,0,0,0,1.69,1.69h2.45A1.69,1.69,0,0,0,279-997.29Z" transform="translate(-178.25 1054.38)"/><path class="cls-4" d="M197.49-997.29a1.68,1.68,0,0,0-1.69-1.69h-2.45a1.69,1.69,0,0,0-1.69,1.69,1.69,1.69,0,0,0,1.69,1.69h2.45A1.69,1.69,0,0,0,197.49-997.29Z" transform="translate(-178.25 1054.38)"/></svg>