<svg xmlns="http://www.w3.org/2000/svg" viewBox="0 0 179.59 179.59"><defs><style>.cls-1{fill:none;stroke:#d3ebeb;stroke-linecap:round;stroke-linejoin:round;stroke-width:5.98px;}.cls-1,.cls-2{fill-rule:evenodd;}.cls-2{fill:#539493;}</style></defs><title>Asset 4</title><g id="Layer_2" data-name="Layer 2"><g id="Objects"><path class="cls-1" d="M103.49,12.11a78.28,78.28,0,0,1,13.28,3.55l2.72-7.46a86.24,86.24,0,0,1,13.71,6.4l-4,6.88a79.07,79.07,0,0,1,11.26,7.89l5.1-6.08A87.39,87.39,0,0,1,156.29,34l-6.08,5.1a79.28,79.28,0,0,1,7.9,11.25l6.88-4a86.58,86.58,0,0,1,6.4,13.71l-7.46,2.72a78.25,78.25,0,0,1,3.55,13.28l7.82-1.38a87.3,87.3,0,0,1,1.31,15.08h-7.94a79.45,79.45,0,0,1-1.18,13.7l7.82,1.38a86.12,86.12,0,0,1-3.91,14.62l-7.46-2.72a78.56,78.56,0,0,1-5.82,12.46l6.88,4a87.18,87.18,0,0,1-8.69,12.39l-6.08-5.1a79.44,79.44,0,0,1-9.72,9.72l5.1,6.08A87.1,87.1,0,0,1,133.2,165l-4-6.88a78.41,78.41,0,0,1-12.46,5.82l2.72,7.46a86.35,86.35,0,0,1-14.62,3.91l-1.38-7.82a79.35,79.35,0,0,1-13.7,1.19v7.94a87.3,87.3,0,0,1-15.08-1.31l1.38-7.82a78.27,78.27,0,0,1-13.28-3.55l-2.72,7.46A86.42,86.42,0,0,1,46.39,165l4-6.88a79.08,79.08,0,0,1-11.26-7.89L34,156.29a87.39,87.39,0,0,1-10.7-10.7l6.08-5.1a78.85,78.85,0,0,1-7.9-11.25l-6.88,4a86.42,86.42,0,0,1-6.4-13.71l7.46-2.72a78.24,78.24,0,0,1-3.55-13.28L4.3,104.87A87.28,87.28,0,0,1,3,89.79h7.94a79.45,79.45,0,0,1,1.18-13.7L4.3,74.72A86.1,86.1,0,0,1,8.2,60.1l7.46,2.72a78.45,78.45,0,0,1,5.82-12.46l-6.88-4A87.13,87.13,0,0,1,23.3,34l6.08,5.1a79.29,79.29,0,0,1,9.72-9.72L34,23.3a87.11,87.11,0,0,1,12.38-8.69l4,6.88a78.43,78.43,0,0,1,12.46-5.82L60.1,8.2A86.21,86.21,0,0,1,74.72,4.3l1.38,7.82a79.34,79.34,0,0,1,13.7-1.19V3A87.3,87.3,0,0,1,104.87,4.3Z"/><path class="cls-2" d="M103.49,12.11a78.28,78.28,0,0,1,13.28,3.55l2.72-7.46a86.24,86.24,0,0,1,13.71,6.4l-4,6.88a79.07,79.07,0,0,1,11.26,7.89l5.1-6.08A87.39,87.39,0,0,1,156.29,34l-6.08,5.1a79.28,79.28,0,0,1,7.9,11.25l6.88-4a86.58,86.58,0,0,1,6.4,13.71l-7.46,2.72a78.25,78.25,0,0,1,3.55,13.28l7.82-1.38a87.3,87.3,0,0,1,1.31,15.08h-7.94a79.45,79.45,0,0,1-1.18,13.7l7.82,1.38a86.12,86.12,0,0,1-3.91,14.62l-7.46-2.72a78.56,78.56,0,0,1-5.82,12.46l6.88,4a87.18,87.18,0,0,1-8.69,12.39l-6.08-5.1a79.44,79.44,0,0,1-9.72,9.72l5.1,6.08A87.1,87.1,0,0,1,133.2,165l-4-6.88a78.41,78.41,0,0,1-12.46,5.82l2.72,7.46a86.35,86.35,0,0,1-14.62,3.91l-1.38-7.82a79.35,79.35,0,0,1-13.7,1.19v7.94a87.3,87.3,0,0,1-15.08-1.31l1.38-7.82a78.27,78.27,0,0,1-13.28-3.55l-2.72,7.46A86.42,86.42,0,0,1,46.39,165l4-6.88a79.08,79.08,0,0,1-11.26-7.89L34,156.29a87.39,87.39,0,0,1-10.7-10.7l6.08-5.1a78.85,78.85,0,0,1-7.9-11.25l-6.88,4a86.42,86.42,0,0,1-6.4-13.71l7.46-2.72a78.24,78.24,0,0,1-3.55-13.28L4.3,104.87A87.28,87.28,0,0,1,3,89.79h7.94a79.45,79.45,0,0,1,1.18-13.7L4.3,74.72A86.1,86.1,0,0,1,8.2,60.1l7.46,2.72a78.45,78.45,0,0,1,5.82-12.46l-6.88-4A87.13,87.13,0,0,1,23.3,34l6.08,5.1a79.29,79.29,0,0,1,9.72-9.72L34,23.3a87.11,87.11,0,0,1,12.38-8.69l4,6.88a78.43,78.43,0,0,1,12.46-5.82L60.1,8.2A86.21,86.21,0,0,1,74.72,4.3l1.38,7.82a79.34,79.34,0,0,1,13.7-1.19V3A87.3,87.3,0,0,1,104.87,4.3Z"/></g></g></svg>