<svg id="OBJECTS" xmlns="http://www.w3.org/2000/svg" viewBox="0 0 114.17 84.67"><defs><style>.cls-1{opacity:0.2;}.cls-2{fill:#0e5987;}.cls-3{fill:#08334d;}.cls-4{fill:#fff;}</style></defs><title>solution-business-7</title><path class="cls-1" d="M1157.26-1034.7h-55a7.39,7.39,0,0,0-7.39,7.39v8.36h-19.23a7.39,7.39,0,0,0-7.39,7.39v48l12.05-12.05h50.31A7.39,7.39,0,0,0,1138-983v-8.36h14.57l12.05,12.05v-48A7.39,7.39,0,0,0,1157.26-1034.7Z" transform="translate(-1050.49 1048.27)"/><path class="cls-2" d="M1084.49-1048.27h55a7.39,7.39,0,0,1,7.39,7.39v48L1134.8-1005h-50.31a7.39,7.39,0,0,1-7.39-7.39v-28.52A7.39,7.39,0,0,1,1084.49-1048.27Z" transform="translate(-1050.49 1048.27)"/><path class="cls-3" d="M1116.73-1038.71h-39.62v26.35a7.39,7.39,0,0,0,7.39,7.39h40.67v-25.3A8.43,8.43,0,0,0,1116.73-1038.71Z" transform="translate(-1050.49 1048.27)"/><path class="cls-4" d="M1112.85-1032.52h-55a7.39,7.39,0,0,0-7.39,7.39v48l12.05-12.05h50.31a7.39,7.39,0,0,0,7.39-7.39v-28.52A7.39,7.39,0,0,0,1112.85-1032.52Z" transform="translate(-1050.49 1048.27)"/></svg>