<svg id="OBJECTS" xmlns="http://www.w3.org/2000/svg" viewBox="0 0 171.93 203.08"><defs><style>.cls-1{opacity:0.2;}.cls-2{fill:#ff6f4f;}.cls-3{fill:#ab2b0e;}.cls-4{fill:#c74224;}.cls-5{fill:#fff;}.cls-6,.cls-8{fill:#218085;}.cls-7{fill:#e0e0e0;}.cls-8{font-size:51.49px;font-family:Quicksand-Regular, Quicksand;}</style></defs><title>solution-business-12</title><path class="cls-1" d="M477.11-772.13l-.16-.25c-.11-.17-.22-.32-.33-.48l-.14-.18c-.16-.2-.32-.4-.49-.58l-.18-.19-.42-.41-.17-.15c-.19-.17-.39-.33-.6-.48l-.17-.12-.52-.34-.18-.11c-.23-.13-.46-.25-.7-.36l-.14-.06-.62-.24-.08,0h0l-6.41-6.09v-55.84a11.93,11.93,0,0,0-11-11.89v0h-42v-40.18l-91.19.86V-813a11.94,11.94,0,0,0,11.93,11.93h41v17.89l-7.44,7.07h0l-.07,0q-.32.11-.63.25l-.14.06q-.36.17-.7.36l-.18.11-.53.34-.17.12c-.21.15-.41.31-.6.48l-.16.15-.42.41-.18.19c-.17.19-.33.38-.49.58l-.14.19q-.17.23-.33.47l-.16.25c-.12.2-.24.41-.35.62a10.39,10.39,0,0,0-1.15,4.77v58.36a10.39,10.39,0,0,0,1.17,4.82h0c.1.19.21.38.32.57l.23.36.21.3.25.33c.14.17.28.35.43.51l.25.26.32.31.26.23c.18.15.36.3.55.44l.22.15.45.29.24.14q.33.19.66.34l.16.07.6.24.22.08c.25.08.5.15.76.21h.08c.24.05.49.09.73.12l.21,0c.27,0,.55,0,.83,0h99.51c.28,0,.56,0,.83,0l.21,0c.25,0,.5-.07.74-.12h.08c.26-.06.52-.13.77-.21l.21-.07.61-.24.15-.06c.23-.11.45-.22.67-.35l.23-.14.46-.3.21-.15c.19-.14.37-.29.55-.44l.25-.23.32-.31.25-.26c.15-.16.29-.33.43-.51l.25-.34.2-.29.24-.37c.09-.15.17-.3.25-.45a10.38,10.38,0,0,0,1.24-4.93v-58.36a10.38,10.38,0,0,0-1.14-4.75C477.36-771.7,477.24-771.92,477.11-772.13Z" transform="translate(-306.68 901.59)"/><path class="cls-2" d="M345.81-719.79c0,5.44,4.1,9.86,9.16,9.86h99.51c5.06,0,9.16-4.41,9.16-9.86v-58.36c0-5.44-4.1-9.85-9.16-9.85H355c-5.06,0-9.16,4.41-9.16,9.85Z" transform="translate(-306.68 901.59)"/><path class="cls-3" d="M404.73-734.9l20.08-16.67L462.47-715a9.07,9.07,0,0,1-8,5H355a9.07,9.07,0,0,1-8-5l37.66-36.6Z" transform="translate(-306.68 901.59)"/><polygon class="cls-4" points="45.52 114.05 150.56 114.05 98.04 64.12 45.52 114.05"/><path class="cls-2" d="M404.73-734.9l16.87-14L462.47-715a9.07,9.07,0,0,1-8,5H355a9.07,9.07,0,0,1-8-5l40.87-33.94Z" transform="translate(-306.68 901.59)"/><path class="cls-4" d="M404.73-730.5l-57.79-52.38a9.08,9.08,0,0,1,8-5.12h99.51a9.08,9.08,0,0,1,8,5.12Z" transform="translate(-306.68 901.59)"/><path class="cls-5" d="M397.87-901.59v77.15a11.93,11.93,0,0,0,10.91,11.88v.05H318.62a11.94,11.94,0,0,1-11.93-11.93v-76.29Z" transform="translate(-306.68 901.59)"/><rect class="cls-6" x="10.62" y="35.54" width="70.41" height="5.05"/><rect class="cls-6" x="10.62" y="47.24" width="70.41" height="5.05"/><rect class="cls-6" x="10.62" y="12.16" width="70.41" height="5.05"/><rect class="cls-6" x="10.62" y="23.85" width="70.41" height="5.05"/><rect class="cls-6" x="19.05" y="58.93" width="53.56" height="5.05"/><path class="cls-7" d="M337.8-849.48a11.9,11.9,0,0,1,11.9-11.93h90.16v.05A11.93,11.93,0,0,0,429-849.48V-846H429v21.58a11.93,11.93,0,0,1-11.93,11.93H326.93v-.05a11.9,11.9,0,0,0,10.87-11.88Z" transform="translate(-306.68 901.59)"/><path class="cls-5" d="M359.65-849.48a11.93,11.93,0,0,0-10.91-11.88v-.05H438.9a11.93,11.93,0,0,1,11.93,11.93v76.29L404.73-734.9l-45.08-37.43Z" transform="translate(-306.68 901.59)"/><text class="cls-8" transform="translate(60.61 92.03)">@</text><rect class="cls-6" x="64.41" y="103.44" width="70.41" height="5.05"/><rect class="cls-6" x="104.84" y="89.5" width="29.98" height="5.05"/><rect class="cls-6" x="104.84" y="75.6" width="29.98" height="5.05"/><rect class="cls-6" x="104.84" y="61.44" width="29.98" height="5.05"/><rect class="cls-6" x="64.41" y="115.02" width="70.41" height="5.05"/><rect class="cls-6" x="72.83" y="126.6" width="53.56" height="5.05"/></svg>