<svg id="OBJECTS" xmlns="http://www.w3.org/2000/svg" viewBox="0 0 80.67 110.51"><defs><style>.cls-1{opacity:0.2;}.cls-2{fill:#fff;}.cls-3{fill:#c74224;}</style></defs><title>solution-business-10</title><path class="cls-1" d="M33.51-981.11A31.44,31.44,0,0,0,2.08-949.67a31.45,31.45,0,0,0,23.57,30.45L32.08-895c-8.82.23-15.76,2.56-15.76,5.4,0,3,7.7,5.42,17.19,5.42s17.19-2.43,17.19-5.42c0-2.84-6.94-5.17-15.76-5.4l6.43-24.23A31.45,31.45,0,0,0,65-949.67,31.44,31.44,0,0,0,33.51-981.11Zm0,42.83a11.4,11.4,0,0,1-11.4-11.39,11.4,11.4,0,0,1,11.4-11.39,11.4,11.4,0,0,1,11.39,11.39A11.39,11.39,0,0,1,33.51-938.28Z" transform="translate(15.72 994.68)"/><ellipse class="cls-2" cx="31.44" cy="91.52" rx="17.19" ry="5.42"/><path class="cls-3" d="M15.72-994.68a31.44,31.44,0,0,0-31.44,31.44A31.45,31.45,0,0,0,7.85-932.8l7.87,29.63,7.87-29.63a31.45,31.45,0,0,0,23.57-30.45A31.44,31.44,0,0,0,15.72-994.68Zm0,42.83a11.39,11.39,0,0,1-11.4-11.39,11.4,11.4,0,0,1,11.4-11.4,11.4,11.4,0,0,1,11.39,11.4A11.39,11.39,0,0,1,15.72-951.85Z" transform="translate(15.72 994.68)"/></svg>