<svg id="OBJECTS" xmlns="http://www.w3.org/2000/svg" viewBox="0 0 146.6 83.53"><defs><style>.cls-1{opacity:0.2;}.cls-2{fill:#08334d;}.cls-3{fill:#0e5987;}</style></defs><title>solution-business-9</title><path class="cls-1" d="M928.12-1024.43h94.23a12.53,12.53,0,0,0,12.53-12.53,12.48,12.48,0,0,0-2.83-7.93h2a10.39,10.39,0,0,0,10.39-10.39,10.39,10.39,0,0,0-10.39-10.39h-9.09a11.59,11.59,0,0,0-11.57-11H1012a11.56,11.56,0,0,0-8.22,3.42,11.6,11.6,0,0,0-11.38-9.34h-1.31a11.53,11.53,0,0,0-6.84,2.25v-.24a13.86,13.86,0,0,0-13.85-13.86h-1.57A13.85,13.85,0,0,0,955-1081.25a16.62,16.62,0,0,0-9.4-2.89h-1.89A16.71,16.71,0,0,0,927-1067.43v17.94s0,0,0,.05A12.53,12.53,0,0,0,915.59-1037,12.53,12.53,0,0,0,928.12-1024.43Z" transform="translate(-897.79 1107.95)"/><path class="cls-2" d="M1016.21-1079.23h-9.09a11.59,11.59,0,0,0-11.57-11h-1.31a11.56,11.56,0,0,0-8.22,3.42,11.6,11.6,0,0,0-11.38-9.34h-1.31a11.53,11.53,0,0,0-6.84,2.25v-.24A13.85,13.85,0,0,0,952.63-1108h-1.57a13.85,13.85,0,0,0-13.85,13.85v14.87s0,0,0,0a10.39,10.39,0,0,0-9.49,10.34,10.39,10.39,0,0,0,10.39,10.39h78.1a10.39,10.39,0,0,0,10.39-10.39A10.39,10.39,0,0,0,1016.21-1079.23Z" transform="translate(-897.79 1107.95)"/><path class="cls-3" d="M1004.55-1063.06h-11a14,14,0,0,0-14-13.22H978a14,14,0,0,0-9.92,4.13,14,14,0,0,0-13.73-11.26h-1.58a13.92,13.92,0,0,0-8.25,2.71v-.29a16.71,16.71,0,0,0-16.71-16.72H926A16.72,16.72,0,0,0,909.24-1081v17.94s0,0,0,.05a12.53,12.53,0,0,0-11.45,12.48A12.53,12.53,0,0,0,910.32-1038h94.23a12.53,12.53,0,0,0,12.53-12.53A12.53,12.53,0,0,0,1004.55-1063.06Z" transform="translate(-897.79 1107.95)"/></svg>