<svg id="OBJECTS" xmlns="http://www.w3.org/2000/svg" viewBox="0 0 123.01 119.43"><defs><style>.cls-1{opacity:0.2;}.cls-2{fill:#fff;}.cls-3{fill:#c7851c;}.cls-4{fill:#ffb238;}</style></defs><title>solution-business-11</title><circle class="cls-1" cx="69.03" cy="65.45" r="53.98"/><circle class="cls-2" cx="53.98" cy="53.98" r="53.98"/><path class="cls-3" d="M27.72-764.93c0,1.94-6.71,3.51-15,3.51s-15-1.57-15-3.51v-5.4s9.5,1.88,15,1.88c6.2,0,15-1.88,15-1.88Z" transform="translate(41.24 827.82)"/><path class="cls-4" d="M27.72-770.33c0,1.94-6.71,3.51-15,3.51s-15-1.57-15-3.51v-5.4s9.5,1.88,15,1.88c6.2,0,15-1.88,15-1.88Z" transform="translate(41.24 827.82)"/><path class="cls-3" d="M27.72-775.73c0,1.94-6.71,3.51-15,3.51s-15-1.57-15-3.51v-5.4s9.5,1.88,15,1.88c6.2,0,15-1.88,15-1.88Z" transform="translate(41.24 827.82)"/><path class="cls-4" d="M27.72-781.12c0,1.94-6.71,3.51-15,3.51s-15-1.57-15-3.51v-5.4s9.5,1.88,15,1.88c6.2,0,15-1.88,15-1.88Z" transform="translate(41.24 827.82)"/><path class="cls-3" d="M27.72-786.52c0,1.94-6.71,3.51-15,3.51s-15-1.57-15-3.51v-5.4s9.5,1.88,15,1.88c6.2,0,15-1.88,15-1.88Z" transform="translate(41.24 827.82)"/><ellipse class="cls-4" cx="53.98" cy="35.91" rx="14.98" ry="3.51"/><path class="cls-4" d="M5.39-749.56c0,1.94-6.7,3.51-15,3.51s-15-1.57-15-3.51V-755s9.5,1.88,15,1.88c6.2,0,15-1.88,15-1.88Z" transform="translate(41.24 827.82)"/><path class="cls-3" d="M5.39-755c0,1.94-6.7,3.51-15,3.51s-15-1.57-15-3.51v-5.4s9.5,1.88,15,1.88c6.2,0,15-1.88,15-1.88Z" transform="translate(41.24 827.82)"/><path class="cls-4" d="M5.39-760.35c0,1.94-6.7,3.51-15,3.51s-15-1.57-15-3.51v-5.4s9.5,1.88,15,1.88c6.2,0,15-1.88,15-1.88Z" transform="translate(41.24 827.82)"/><path class="cls-3" d="M5.39-765.75c0,1.94-6.7,3.51-15,3.51s-15-1.57-15-3.51v-5.4s9.5,1.88,15,1.88c6.2,0,15-1.88,15-1.88Z" transform="translate(41.24 827.82)"/><path class="cls-4" d="M5.39-771.15c0,1.94-6.7,3.51-15,3.51s-15-1.57-15-3.51v-5.4s9.5,1.88,15,1.88c6.2,0,15-1.88,15-1.88Z" transform="translate(41.24 827.82)"/><path class="cls-3" d="M5.39-776.54c0,1.94-6.7,3.51-15,3.51s-15-1.57-15-3.51v-5.4s9.5,1.88,15,1.88c6.2,0,15-1.88,15-1.88Z" transform="translate(41.24 827.82)"/><path class="cls-4" d="M5.39-781.94c0,1.94-6.7,3.51-15,3.51s-15-1.57-15-3.51v-5.4s9.5,1.88,15,1.88c6.2,0,15-1.88,15-1.88Z" transform="translate(41.24 827.82)"/><ellipse class="cls-3" cx="31.65" cy="40.49" rx="14.98" ry="3.51"/><path class="cls-4" d="M48.11-750.63c0,1.94-6.7,3.51-15,3.51s-15-1.57-15-3.51V-756s9.5,1.88,15,1.88c6.2,0,15-1.88,15-1.88Z" transform="translate(41.24 827.82)"/><path class="cls-3" d="M48.11-756c0,1.94-6.7,3.51-15,3.51s-15-1.57-15-3.51v-5.4s9.5,1.88,15,1.88c6.2,0,15-1.88,15-1.88Z" transform="translate(41.24 827.82)"/><path class="cls-4" d="M48.11-761.42c0,1.94-6.7,3.51-15,3.51s-15-1.57-15-3.51v-5.4s9.5,1.88,15,1.88c6.2,0,15-1.88,15-1.88Z" transform="translate(41.24 827.82)"/><path class="cls-3" d="M48.11-766.82c0,1.94-6.7,3.51-15,3.51s-15-1.57-15-3.51v-5.4s9.5,1.88,15,1.88c6.2,0,15-1.88,15-1.88Z" transform="translate(41.24 827.82)"/><path class="cls-4" d="M48.11-772.21c0,1.94-6.7,3.51-15,3.51s-15-1.57-15-3.51v-5.4s9.5,1.88,15,1.88c6.2,0,15-1.88,15-1.88Z" transform="translate(41.24 827.82)"/><path class="cls-3" d="M48.11-777.61c0,1.94-6.7,3.51-15,3.51s-15-1.57-15-3.51V-783s9.5,1.88,15,1.88c6.2,0,15-1.88,15-1.88Z" transform="translate(41.24 827.82)"/><path class="cls-4" d="M48.11-783c0,1.94-6.7,3.51-15,3.51s-15-1.57-15-3.51v-5.4s9.5,1.88,15,1.88c6.2,0,15-1.88,15-1.88Z" transform="translate(41.24 827.82)"/><path class="cls-3" d="M48.11-788.4c0,1.94-6.7,3.51-15,3.51s-15-1.57-15-3.51v-5.4s9.5,1.88,15,1.88c6.2,0,15-1.88,15-1.88Z" transform="translate(41.24 827.82)"/><ellipse class="cls-4" cx="74.37" cy="34.03" rx="14.98" ry="3.51"/></svg>