<svg xmlns="http://www.w3.org/2000/svg" viewBox="0 0 31.83 31.83"><defs><style>.cls-1{fill:#bfebea;fill-rule:evenodd;}</style></defs><title>Asset 1</title><g id="Layer_2" data-name="Layer 2"><g id="Objects"><path class="cls-1" d="M18.42,1.67a14.35,14.35,0,0,1,2.43.65L21.36,1a15.8,15.8,0,0,1,2.51,1.17l-.73,1.26a14.5,14.5,0,0,1,2.06,1.45l.94-1.11a16,16,0,0,1,2,2L27,6.62a14.5,14.5,0,0,1,1.45,2.06L29.7,8a15.86,15.86,0,0,1,1.17,2.51L29.5,11a14.31,14.31,0,0,1,.65,2.43l1.43-.25a16,16,0,0,1,.24,2.76H30.37a14.51,14.51,0,0,1-.22,2.51l1.43.25a15.81,15.81,0,0,1-.72,2.68l-1.37-.5a14.42,14.42,0,0,1-1.07,2.28l1.26.73a16,16,0,0,1-1.59,2.27L27,25.21A14.5,14.5,0,0,1,25.21,27l.94,1.11a15.93,15.93,0,0,1-2.27,1.59l-.73-1.26a14.39,14.39,0,0,1-2.28,1.07l.5,1.37a15.83,15.83,0,0,1-2.68.72l-.25-1.43a14.57,14.57,0,0,1-2.51.22v1.46a16,16,0,0,1-2.76-.24l.25-1.43A14.35,14.35,0,0,1,11,29.5l-.5,1.37A15.88,15.88,0,0,1,8,29.7l.73-1.26A14.49,14.49,0,0,1,6.62,27L5.69,28.1a16,16,0,0,1-2-2l1.11-.94a14.52,14.52,0,0,1-1.45-2.06l-1.26.73A15.83,15.83,0,0,1,1,21.36l1.37-.5a14.37,14.37,0,0,1-.65-2.43l-1.43.25A16,16,0,0,1,0,15.91H1.46a14.57,14.57,0,0,1,.22-2.51L.24,13.15A15.75,15.75,0,0,1,1,10.47l1.37.5A14.36,14.36,0,0,1,3.39,8.68L2.13,8A16,16,0,0,1,3.72,5.68l1.11.94A14.53,14.53,0,0,1,6.62,4.84L5.69,3.72A16,16,0,0,1,8,2.13l.73,1.26A14.41,14.41,0,0,1,11,2.32L10.47,1A15.79,15.79,0,0,1,13.15.24l.25,1.43a14.54,14.54,0,0,1,2.51-.22V0a16,16,0,0,1,2.76.24Z"/></g></g></svg>