<svg id="OBJECTS" xmlns="http://www.w3.org/2000/svg" viewBox="0 0 294.15 266.91"><defs><style>.cls-1{opacity:0.2;}.cls-11,.cls-2{fill:#fff;}.cls-3{fill:#218085;}.cls-4{fill:#ff6f4f;}.cls-5{fill:#ffb238;}.cls-6{fill:#e0e0e0;}.cls-7{fill:#08334d;}.cls-8{fill:none;stroke:#000;stroke-linecap:round;stroke-miterlimit:10;stroke-width:3.76px;}.cls-9{fill:#0e5987;}.cls-10{fill:#56c7cc;}.cls-11{font-size:16.54px;font-family:Quicksand-Regular, Quicksand;}</style></defs><title>solution-business-14</title><path class="cls-1" d="M1315.31-924.65c.2-.37.4-.74.59-1.11l.43-.85q.4-.79.77-1.59c.17-.38.35-.76.52-1.14s.3-.72.45-1.08.31-.77.46-1.16.35-.93.52-1.4.32-.91.46-1.37h0l.29-.93c.2-.65.39-1.31.56-2,.06-.23.11-.47.17-.71q.2-.82.38-1.64l0-.19.12-.57q.21-1.06.38-2.14v-.08c0-.2.06-.41.09-.61q.14-1,.25-1.93c0-.1,0-.19,0-.29l0-.25c.08-.78.14-1.57.18-2.36,0-.08,0-.16,0-.25s0-.25,0-.37c0-.83.06-1.67.06-2.51s0-1.92-.08-2.88c0-.21,0-.42,0-.63,0-.74-.1-1.49-.18-2.22,0-.19-.05-.38-.07-.57-.09-.76-.18-1.51-.3-2.26,0-.14-.05-.27-.07-.41-.13-.8-.28-1.59-.44-2.38l-.06-.26q-.27-1.26-.6-2.49l0-.12q-.35-1.3-.76-2.58h0a54.8,54.8,0,0,0-52.15-38,54.8,54.8,0,0,0-52.15,38h0q-.41,1.28-.76,2.59l0,.11q-.33,1.24-.6,2.5l-.06.25c-.17.79-.31,1.58-.44,2.38,0,.14-.05.27-.07.41-.12.75-.21,1.51-.3,2.27,0,.19-.05.37-.07.56-.08.74-.13,1.48-.18,2.23,0,.21,0,.42,0,.63q-.07,1.43-.08,2.88c0,.84,0,1.67.06,2.51,0,.12,0,.25,0,.37s0,.16,0,.25c0,.79.1,1.58.18,2.36l0,.25c0,.1,0,.19,0,.29q.11,1,.25,1.93c0,.2.06.41.09.61v.08c.11.72.24,1.43.38,2.14l.12.57,0,.19q.18.82.38,1.64c.06.24.11.48.17.71.17.66.36,1.32.56,2q.14.47.29.93h0v0q.22.68.46,1.35t.52,1.42c.15.38.3.77.45,1.15s.3.72.46,1.08.33.75.51,1.12q.38.82.78,1.62l.43.83a54.87,54.87,0,0,0,6.11,9.26L1168-859.58v-67.31H1042.14v121.08h50.65a39.14,39.14,0,0,0,10,16.86,39.34,39.34,0,0,0,48.65,5.54h0l3.89,3.89a8.84,8.84,0,0,0,8.72,2.24l26.22,26.21a4.26,4.26,0,0,0,6,0,4.27,4.27,0,0,0,0-6L1170-783.31a8.84,8.84,0,0,0-2.24-8.72l-3.89-3.89v0a39.39,39.39,0,0,0,4.08-33v-25.39l59.42-59.42a54.62,54.62,0,0,0,40,17.32,54.76,54.76,0,0,0,47.95-28.28h0ZM1155.08-786l-.23.18Zm-1.81,1.36-.09.06Zm8.05-7.61.14-.18Zm1.36-1.81,0-.06Z" transform="translate(-1027.99 1016.72)"/><rect class="cls-2" y="89.88" width="125.85" height="110.24"/><rect class="cls-3" y="79.05" width="125.85" height="10.83"/><circle class="cls-4" cx="118.93" cy="84.46" r="3.04"/><circle class="cls-5" cx="109.07" cy="84.46" r="3.04"/><circle class="cls-5" cx="99.2" cy="84.46" r="3.04"/><rect class="cls-6" x="37.74" y="96.78" width="50.36" height="8.47"/><rect class="cls-6" x="8.11" y="111.76" width="50.36" height="13.53"/><rect class="cls-6" x="67.38" y="111.76" width="50.36" height="5.25"/><rect class="cls-6" x="67.38" y="120.04" width="50.36" height="5.25"/><rect class="cls-6" x="20.99" y="133.99" width="83.87" height="6.01"/><rect class="cls-6" x="20.99" y="146.84" width="83.87" height="6.01"/><rect class="cls-6" x="20.99" y="159.69" width="83.87" height="6.01"/><path class="cls-7" d="M1132.6-835.14a6.5,6.5,0,0,1-6.5,6.5h-70.37a6.5,6.5,0,0,1-6.5-6.5h0a6.5,6.5,0,0,1,6.5-6.5h70.37a6.5,6.5,0,0,1,6.5,6.5Z" transform="translate(-1027.99 1016.72)"/><line class="cls-8" x1="112.17" y1="162.69" x2="195.53" y2="79.34"/><path class="cls-9" d="M1182.12-767.88a4.26,4.26,0,0,1,0,6h0a4.26,4.26,0,0,1-6,0l-34.68-34.68a4.26,4.26,0,0,1,0-6h0a4.26,4.26,0,0,1,6,0Z" transform="translate(-1027.99 1016.72)"/><circle class="cls-9" cx="1116.42" cy="-827.55" r="39.33" transform="translate(-115.84 1563.77) rotate(-45)"/><path class="cls-7" d="M1153.66-802.82l-3.89-3.89a39.51,39.51,0,0,1-5.54,7,39.36,39.36,0,0,1-7,5.54l3.89,3.89a8.85,8.85,0,0,0,12.51,0A8.85,8.85,0,0,0,1153.66-802.82Z" transform="translate(-1027.99 1016.72)"/><circle class="cls-10" cx="1116.42" cy="-827.55" r="30.95" transform="translate(-115.79 1563.77) rotate(-45)"/><circle class="cls-2" cx="1107.57" cy="-839.91" r="12.36" transform="translate(-109.74 1553.88) rotate(-45)"/><circle class="cls-2" cx="225.22" cy="54.79" r="54.79"/><path class="cls-7" d="M1301.16-935.43a54.52,54.52,0,0,0,6.84-26.51,54.56,54.56,0,0,0-4.59-22H1203a54.56,54.56,0,0,0-4.59,22,54.52,54.52,0,0,0,6.84,26.51Z" transform="translate(-1027.99 1016.72)"/><path class="cls-9" d="M1303.41-940a54.56,54.56,0,0,0,4.59-22,54.56,54.56,0,0,0-4.59-22H1203a54.56,54.56,0,0,0-4.59,22,54.56,54.56,0,0,0,4.59,22Z" transform="translate(-1027.99 1016.72)"/><text class="cls-11" transform="translate(179.21 61.3)">CLICK HERE</text></svg>