<svg id="Objects" xmlns="http://www.w3.org/2000/svg" xmlns:xlink="http://www.w3.org/1999/xlink" viewBox="0 0 1508.34 677.82"><defs><style>.cls-1,.cls-2,.cls-26,.cls-29,.cls-38,.cls-39,.cls-4,.cls-40,.cls-41,.cls-42{fill:none;}.cls-2,.cls-26{stroke:#e9e9ea;stroke-width:20px;stroke-dasharray:0 12;}.cls-2,.cls-26,.cls-4,.cls-41{stroke-miterlimit:10;}.cls-11,.cls-13,.cls-2,.cls-26,.cls-30,.cls-33,.cls-36,.cls-37,.cls-4,.cls-43,.cls-45,.cls-5,.cls-7,.cls-9{fill-rule:evenodd;}.cls-2,.cls-22,.cls-28{opacity:0.5;}.cls-28,.cls-3{fill:#e9e9ea;}.cls-3{opacity:0.7;}.cls-4{stroke:#556792;stroke-width:12.61px;opacity:0.1;}.cls-5{fill:#c2c3c5;opacity:0.27;}.cls-6{fill:#32495b;}.cls-20,.cls-7{fill:#5f7283;}.cls-8{fill:#fb5547;}.cls-9{fill:#ff7e78;}.cls-10{fill:#35b4a3;}.cls-11,.cls-21{fill:#4ad5c0;}.cls-12,.cls-43{fill:#ffce64;}.cls-13{fill:#fccf6b;}.cls-14{clip-path:url(#clip-path);}.cls-15{fill:#686868;}.cls-16{fill:#404040;}.cls-17{fill:#f76666;}.cls-18,.cls-37{fill:#fff;}.cls-19{fill:#dbdbdb;}.cls-23{fill:#f5f7fa;}.cls-24{fill:#efefef;}.cls-25{fill:#cecece;}.cls-27{fill:#fa9891;}.cls-29{stroke:#fa9891;stroke-linecap:round;stroke-linejoin:round;stroke-width:2.66px;}.cls-30{fill:#4d4d4d;}.cls-31,.cls-33{fill:#46749c;}.cls-32{fill:#f5f5f5;}.cls-34{fill:#ff6d00;}.cls-35{fill:#ffcd61;}.cls-36{fill:#91bde3;stroke:#000;stroke-width:1.48px;}.cls-36,.cls-38,.cls-39,.cls-40,.cls-42{stroke-miterlimit:22.93;}.cls-38,.cls-39,.cls-40{stroke:#91bde3;}.cls-38,.cls-39,.cls-40,.cls-42{stroke-width:5px;}.cls-39{stroke-dasharray:11.63 11.63;}.cls-40{stroke-dasharray:11.99 11.99;}.cls-41{stroke:#4ad5c0;stroke-width:4px;}.cls-41,.cls-42{stroke-dasharray:12;}.cls-42{stroke:#ffcd61;}.cls-44,.cls-45{fill:#8092a0;}</style><clipPath id="clip-path" transform="translate(355.65 -81.91)"><circle class="cls-1" cx="-73.75" cy="668.86" r="50.07" transform="translate(-377.78 68.55) rotate(-33.15)"/></clipPath></defs><title>solution-5</title><path class="cls-2" d="M77.33,723.21a417,417,0,0,1-100-271.5" transform="translate(355.65 -81.91)"/><circle class="cls-3" cx="751.72" cy="369.79" r="271.5"/><path class="cls-4" d="M697.79,451.7c0,166.64-135.09,301.72-301.72,301.72S94.34,618.34,94.34,451.7" transform="translate(355.65 -81.91)"/><path class="cls-5" d="M96.77,451.7c0-165.3,134-299.3,299.3-299.3s299.3,134,299.3,299.3" transform="translate(355.65 -81.91)"/><g id="_12" data-name="12"><rect class="cls-6" x="244.46" y="203.95" width="57.34" height="33.5" transform="translate(407.57 411.49) rotate(-89.89)"/><polygon class="cls-7" points="640.68 101.8 616.87 101.69 612.08 110.08 645.58 110.14 640.68 101.8"/><rect class="cls-8" x="268.56" y="191.78" width="82.66" height="33.5" transform="translate(456.43 436.12) rotate(-89.89)"/><polygon class="cls-9" points="677.52 77.12 653.66 76.86 648.87 85.26 682.37 85.32 677.52 77.12"/><rect class="cls-10" x="282.91" y="169.34" width="128.36" height="33.49" transform="translate(516.01 450.92) rotate(-89.89)"/><polygon class="cls-11" points="714.76 31.62 690.91 31.57 686.12 39.96 719.61 40.02 714.76 31.62"/><rect class="cls-12" x="331.81" y="180.68" width="105.69" height="33.5" transform="translate(542.15 499.8) rotate(-89.89)"/><polygon class="cls-13" points="752.27 54.55 728.44 54.26 723.65 62.64 757.15 62.7 752.27 54.55"/></g><g class="cls-14"><circle class="cls-6" cx="-73.75" cy="668.86" r="50.07" transform="translate(-22.13 -13.37) rotate(-33.15)"/><polygon class="cls-15" points="282.18 586.25 266.36 661.66 319.72 653.41 282.18 586.25"/><polygon class="cls-16" points="281.9 586.95 244.51 529.71 286.47 518.89 281.9 586.95"/><polygon class="cls-17" points="281.9 586.95 358.32 568.24 286.47 518.89 281.9 586.95"/><polygon class="cls-18" points="319.72 653.41 282.18 586.25 352.69 607.59 319.72 653.41"/><polygon class="cls-19" points="351.61 608.05 358.32 568.24 281.9 586.95 351.61 608.05"/><polygon class="cls-10" points="281.9 586.95 266.36 661.66 319.72 653.41 281.9 586.95"/><polygon class="cls-20" points="281.9 586.95 244.51 529.71 286.47 518.89 281.9 586.95"/><polygon class="cls-8" points="281.9 586.95 358.32 568.24 286.47 518.89 281.9 586.95"/><polygon class="cls-21" points="319.72 653.41 281.9 586.95 352.69 607.59 319.72 653.41"/><polygon class="cls-12" points="351.61 608.05 358.32 568.24 281.9 586.95 351.61 608.05"/></g><g id="_3" data-name="3" class="cls-22"><path class="cls-23" d="M-25.27,205.89a52.35,52.35,0,0,0-73.93,4,52.35,52.35,0,0,0,4,73.92,52.35,52.35,0,0,0,73.93-4A52.35,52.35,0,0,0-25.27,205.89Z" transform="translate(355.65 -81.91)"/><path class="cls-6" d="M-26.64,207.41a50.3,50.3,0,0,0-71,3.86,50.3,50.3,0,0,0,3.86,71,50.3,50.3,0,0,0,71-3.86A50.3,50.3,0,0,0-26.64,207.41Zm-.18,64.82-13.43-12a59.55,59.55,0,0,0,10.7-18.07A52.87,52.87,0,0,0-17,245.45,43,43,0,0,1-26.81,272.23Zm-4.24-57a47,47,0,0,1-.84,21.62,57.88,57.88,0,0,1-11.63-7.71Zm4.31,2.33a43,43,0,0,1,9.58,24,49.25,49.25,0,0,1-11.18-3.07A51.83,51.83,0,0,0-26.75,217.55Zm-18.55-4.48a45.74,45.74,0,0,1,10.72-.49l.65.06L-46.4,226.56a57.94,57.94,0,0,1-8.92-10.72A48.81,48.81,0,0,1-45.3,213.08Zm-12-.6a49.09,49.09,0,0,1-4.27-10.78,43.05,43.05,0,0,1,24.87,6.92A51.75,51.75,0,0,0-57.3,212.48Zm8.33,17-11.39,12.7-14.38-12.9a55.42,55.42,0,0,1,15.86-11.82A61.27,61.27,0,0,0-49,229.43Zm-14,15.58-11.39,12.7a61.39,61.39,0,0,0-13-8.56,55.55,55.55,0,0,1,10-17Zm-14,15.57-12.47,13.91a47,47,0,0,1,.84-21.62A58,58,0,0,1-76.91,260.58ZM-93.7,272.17a43,43,0,0,1-9.58-24,48.93,48.93,0,0,1,11.18,3.07A51.79,51.79,0,0,0-93.7,272.17Zm18.55,4.48a45.42,45.42,0,0,1-10.72.48l-.65-.05L-74,263.16a57.89,57.89,0,0,1,8.92,10.72A48.69,48.69,0,0,1-75.15,276.64Zm12,.6A49.23,49.23,0,0,1-58.87,288a43.06,43.06,0,0,1-24.86-6.92A51.84,51.84,0,0,0-63.14,277.24Zm-8.33-17,11.39-12.7,14.38,12.9A55.5,55.5,0,0,1-61.55,272.3,61.31,61.31,0,0,0-71.47,260.29Zm14-15.57L-46.1,232a61.23,61.23,0,0,0,13,8.56,55.58,55.58,0,0,1-10,17Zm-8-42.71a52.81,52.81,0,0,0,4.66,12.07,59.56,59.56,0,0,0-16.81,12.59l-13.42-12A43,43,0,0,1-65.49,202Zm-28.14,15.49,13.43,12A59.45,59.45,0,0,0-90.89,247.6a53.06,53.06,0,0,0-12.51-3.33A43,43,0,0,1-93.63,217.49ZM-55,287.72a53.12,53.12,0,0,0-4.66-12.07,59.51,59.51,0,0,0,16.8-12.59l13.43,12A43,43,0,0,1-55,287.72Z" transform="translate(355.65 -81.91)"/><path class="cls-23" d="M-111,247.62a50.67,50.67,0,0,1,12.92-36.7h0A50.67,50.67,0,0,1-63,194.1h0A50.68,50.68,0,0,1-26.28,207h0A50.68,50.68,0,0,1-9.46,242.1h0a50.67,50.67,0,0,1-12.92,36.7h0a50.66,50.66,0,0,1-35.08,16.82h0l0-.53,0,.53a50.66,50.66,0,0,1-36.7-12.92h0A50.67,50.67,0,0,1-111,247.62Zm48.06-52.46a49.61,49.61,0,0,0-34.35,16.47h0a49.6,49.6,0,0,0-12.65,35.93h0a49.61,49.61,0,0,0,16.47,34.35h0a49.61,49.61,0,0,0,35.93,12.65h0a49.59,49.59,0,0,0,34.34-16.47h0a49.6,49.6,0,0,0,12.65-35.93h0A49.62,49.62,0,0,0-27,207.81h0a49.61,49.61,0,0,0-35.93-12.65Z" transform="translate(355.65 -81.91)"/></g><rect class="cls-20" x="837.19" y="155.87" width="93.15" height="49.26" transform="translate(363.57 314.24) rotate(-25.38)"/><polygon class="cls-6" points="1186.78 96.29 1239.42 98.58 1207.89 140.8 1186.78 96.29"/><polygon class="cls-6" points="1270.94 56.37 1239.42 98.58 1292.06 100.88 1270.94 56.37"/><polygon class="cls-6" points="1186.78 96.29 1215.56 48.28 1270.94 56.37 1186.78 96.29"/><polygon class="cls-24" points="1186.78 96.29 1183.58 89.52 1267.74 49.6 1270.94 56.37 1239.42 98.58 1186.78 96.29"/><path class="cls-25" d="M897.74,149l-47.22,22.4a1.67,1.67,0,0,1-2.22-.79h0a1.67,1.67,0,0,1,.79-2.22L896.31,146a1.67,1.67,0,0,1,2.22.79h0A1.68,1.68,0,0,1,897.74,149Z" transform="translate(355.65 -81.91)"/><path class="cls-25" d="M900.7,155.23l-47.22,22.4a1.67,1.67,0,0,1-2.22-.79h0a1.67,1.67,0,0,1,.79-2.22l47.22-22.4a1.67,1.67,0,0,1,2.22.79h0A1.67,1.67,0,0,1,900.7,155.23Z" transform="translate(355.65 -81.91)"/><path class="cls-26" d="M608,90.54C731.71,163.29,814.75,297.8,814.75,451.7A417.29,417.29,0,0,1,697.79,742" transform="translate(355.65 -81.91)"/><path class="cls-27" d="M492,276.27a32.23,32.23,0,0,1,3.6.2l1.63-5.36,11.3,3.44-1.63,5.36a32.18,32.18,0,0,1,10.38,8.53l4.94-2.64,5.56,10.42-4.94,2.64a32.21,32.21,0,0,1,1.31,13.37l5.36,1.63L526,325.16l-5.36-1.63a32.2,32.2,0,0,1-8.53,10.38l2.64,4.94-10.42,5.56-2.64-4.94A32.17,32.17,0,0,1,492,341v-8.46a23.9,23.9,0,0,0,0-47.79Zm-20.19,7.07-2.64-4.94,10.42-5.56,2.64,4.94a32.17,32.17,0,0,1,9.77-1.51v8.46A23.89,23.89,0,0,0,485,331.48h0a23.86,23.86,0,0,0,6.95,1V341a32.27,32.27,0,0,1-3.6-.21l-1.63,5.36-11.3-3.44,1.63-5.36a32.19,32.19,0,0,1-10.38-8.53l-4.94,2.63L456.17,321l4.94-2.64A32.17,32.17,0,0,1,459.8,305l-5.36-1.63,3.44-11.3,5.36,1.63A32.18,32.18,0,0,1,471.76,283.34Z" transform="translate(355.65 -81.91)"/><path class="cls-28" d="M1144.12,382.66a51.51,51.51,0,0,0-2.09-21.38l7.9-4.22-8.9-16.67-7.9,4.22a51.46,51.46,0,0,0-16.6-13.64l2.61-8.57-18.07-5.5-2.61,8.57a51.45,51.45,0,0,0-21.38,2.09l-4.22-7.9-16.67,8.9,4.22,7.9a51.46,51.46,0,0,0-13.64,16.6l-8.57-2.6-5.5,18.08,8.57,2.61a51.45,51.45,0,0,0,2.09,21.38l-7.9,4.22,8.9,16.67,7.9-4.21a51.48,51.48,0,0,0,16.6,13.63l-2.6,8.57,18.08,5.5,2.6-8.57a51.23,51.23,0,0,0,21.38-2.09l4.22,7.9,16.67-8.9-4.21-7.9a51.5,51.5,0,0,0,13.64-16.6l8.57,2.6,5.49-18.08Z" transform="translate(355.65 -81.91)"/><path class="cls-29" d="M918.2,544.78a87.21,87.21,0,0,0-3.54-36.2L928,501.44,913,473.22l-13.37,7.14a87.13,87.13,0,0,0-28.11-23.09l4.41-14.51-30.6-9.31L840.88,448a87.11,87.11,0,0,0-36.19,3.54l-7.15-13.38-28.22,15.07,7.14,13.37a87.13,87.13,0,0,0-23.09,28.11l-14.51-4.41-9.31,30.61,14.51,4.41a87.12,87.12,0,0,0,3.54,36.19l-13.37,7.15,15.06,28.22,13.38-7.13a87.16,87.16,0,0,0,28.1,23.09l-4.41,14.51L817,636.6l4.41-14.51a86.74,86.74,0,0,0,36.2-3.54l7.14,13.38,28.22-15.06-7.14-13.38a87.2,87.2,0,0,0,23.09-28.11l14.51,4.41,9.3-30.61Z" transform="translate(355.65 -81.91)"/><polygon class="cls-30" points="717.09 500.31 786.48 500.31 819 559.23 684.56 559.23 717.09 500.31"/><rect class="cls-31" x="571.55" y="270.36" width="360.47" height="244.89" rx="16.73" ry="16.73"/><circle class="cls-32" cx="911.7" cy="500.46" r="2.17"/><circle class="cls-32" cx="903.22" cy="500.46" r="2.17"/><circle class="cls-32" cx="894.74" cy="500.46" r="2.17"/><path class="cls-33" d="M196.57,623.34H595.69a8.93,8.93,0,0,1,8.9,8.9h0a8.93,8.93,0,0,1-8.9,8.9H196.57a8.93,8.93,0,0,1-8.9-8.9h0A8.93,8.93,0,0,1,196.57,623.34Z" transform="translate(355.65 -81.91)"/><path class="cls-30" d="M604.6,632.24a8.93,8.93,0,0,1-8.9,8.9H196.57a8.93,8.93,0,0,1-8.9-8.9Z" transform="translate(355.65 -81.91)"/><rect class="cls-34" x="582.65" y="280.12" width="338.26" height="205.25"/><rect class="cls-18" x="1081.39" y="145.56" width="33.26" height="205.25"/><rect class="cls-35" x="1081.39" y="156.52" width="7.18" height="183.33"/><rect class="cls-35" x="1081.39" y="162.94" width="16.63" height="3.91"/><rect class="cls-35" x="1081.39" y="175.76" width="16.63" height="3.91"/><rect class="cls-35" x="1081.39" y="188.57" width="16.63" height="3.91"/><rect class="cls-35" x="1081.39" y="201.39" width="16.63" height="3.9"/><rect class="cls-35" x="1081.39" y="214.2" width="16.63" height="3.91"/><rect class="cls-35" x="1081.39" y="227.01" width="16.63" height="3.91"/><rect class="cls-35" x="1081.39" y="239.82" width="16.63" height="3.91"/><rect class="cls-35" x="1081.39" y="252.64" width="16.63" height="3.91"/><rect class="cls-35" x="1081.39" y="265.45" width="16.63" height="3.9"/><rect class="cls-35" x="1081.39" y="278.26" width="16.63" height="3.91"/><rect class="cls-35" x="1081.39" y="291.08" width="16.63" height="3.91"/><rect class="cls-35" x="1081.39" y="303.89" width="16.63" height="3.91"/><rect class="cls-35" x="1081.39" y="316.7" width="16.63" height="3.91"/><rect class="cls-35" x="1081.39" y="329.52" width="16.63" height="3.9"/><path class="cls-6" d="M374.08,320.46a61.37,61.37,0,0,1,6.79.39l3.08-10.11,21.33,6.49-3.08,10.11a60.74,60.74,0,0,1,19.59,16.09l9.32-5,10.5,19.67-9.32,5a60.81,60.81,0,0,1,2.47,25.23l10.11,3.08-6.49,21.33-10.11-3.07a60.8,60.8,0,0,1-16.09,19.59l5,9.32-19.67,10.5-5-9.32a60.82,60.82,0,0,1-18.43,2.85v-16a45.1,45.1,0,0,0,0-90.19ZM336,333.82l-5-9.32L350.66,314l5,9.32a60.74,60.74,0,0,1,18.43-2.85v16A45.09,45.09,0,0,0,361,424.67h0a45.1,45.1,0,0,0,13.11,2v16a60.77,60.77,0,0,1-6.8-.39l-3.08,10.11-21.33-6.49L346,435.72a60.68,60.68,0,0,1-19.59-16.09l-9.33,5-10.5-19.67,9.32-5a60.72,60.72,0,0,1-2.47-25.23l-10.11-3.07,6.49-21.33,10.11,3.07A60.77,60.77,0,0,1,336,333.82Z" transform="translate(355.65 -81.91)"/><path class="cls-6" d="M94.54,338.24a61.37,61.37,0,0,1,6.79.39l3.08-10.11L125.74,335l-3.08,10.11a60.74,60.74,0,0,1,19.59,16.09l9.32-5,10.5,19.67-9.32,5a60.81,60.81,0,0,1,2.47,25.23l10.11,3.08-6.49,21.33-10.11-3.07A60.8,60.8,0,0,1,132.64,447l5,9.32-19.67,10.5-5-9.32a60.82,60.82,0,0,1-18.43,2.85v-16a45.1,45.1,0,0,0,0-90.19ZM56.43,351.59l-5-9.32,19.66-10.5,5,9.32a60.74,60.74,0,0,1,18.43-2.85v16a45.09,45.09,0,0,0-13.11,88.23h0a45.1,45.1,0,0,0,13.11,2v16a60.77,60.77,0,0,1-6.8-.39L84.66,470.1l-21.33-6.49,3.07-10.11a60.68,60.68,0,0,1-19.59-16.09l-9.33,5L27,422.71l9.32-5a60.72,60.72,0,0,1-2.47-25.23l-10.11-3.07,6.49-21.33,10.11,3.07A60.77,60.77,0,0,1,56.43,351.59Z" transform="translate(355.65 -81.91)"/><path class="cls-20" d="M328.46,520.36,334,525l-11.5,13.7L317,534.06a41.12,41.12,0,0,1-13,6.76l.63,7.2-13.08,1.14V529a27.94,27.94,0,0,0,18-49.33h0a27.9,27.9,0,0,0-18-6.55V452.94l4.73-.41.63,7.19a41.61,41.61,0,0,1,13.95,4.41l4.65-5.54,13.7,11.49-4.65,5.54a41.18,41.18,0,0,1,6.75,13l7.2-.63,1.56,17.82-7.2.62A41.15,41.15,0,0,1,328.46,520.36Zm-36.92,28.79-4.74.41-.63-7.2a41.59,41.59,0,0,1-13.94-4.4l-4.65,5.54L253.88,532l4.64-5.54a41.12,41.12,0,0,1-6.75-13l-7.2.63L243,496.31l7.19-.63a41.34,41.34,0,0,1,4.4-13.95l-5.53-4.65,11.49-13.7,5.54,4.64a41.17,41.17,0,0,1,13-6.75l-.63-7.2,13.08-1.14v20.17a27.94,27.94,0,0,0,0,55.88Z" transform="translate(355.65 -81.91)"/><path class="cls-18" d="M489.68,487.61l2.35,2-4.88,5.81-2.35-2a17.44,17.44,0,0,1-5.5,2.86l.27,3.05-5.55.48v-8.55a11.84,11.84,0,0,0,7.61-20.91h0a11.83,11.83,0,0,0-7.61-2.78V459l2-.18.27,3a17.64,17.64,0,0,1,5.91,1.87l2-2.35L490,466.3l-2,2.35a17.46,17.46,0,0,1,2.86,5.5l3.05-.27.66,7.55-3.05.26A17.45,17.45,0,0,1,489.68,487.61ZM474,499.82l-2,.18-.27-3.05a17.63,17.63,0,0,1-5.91-1.87l-2,2.35-5.81-4.87,2-2.35a17.43,17.43,0,0,1-2.86-5.5l-3.05.27-.66-7.55,3-.27a17.53,17.53,0,0,1,1.87-5.91l-2.35-2,4.87-5.81,2.35,2a17.45,17.45,0,0,1,5.5-2.86l-.27-3.05L474,459v8.55a11.85,11.85,0,0,0,0,23.69Z" transform="translate(355.65 -81.91)"/><path class="cls-8" d="M109.65,411.34l2.82,2.37-5.86,7-2.82-2.37a21,21,0,0,1-6.61,3.44l.32,3.67-6.66.58V415.74A14.23,14.23,0,0,0,100,390.6h0a14.21,14.21,0,0,0-9.15-3.34V377l2.41-.21.32,3.67a21.2,21.2,0,0,1,7.11,2.25l2.37-2.82,7,5.86-2.37,2.82a21,21,0,0,1,3.44,6.61l3.67-.32.79,9.08-3.67.32A21,21,0,0,1,109.65,411.34ZM90.84,426l-2.41.21-.32-3.67a21.19,21.19,0,0,1-7.1-2.24l-2.37,2.82-7-5.86L74,414.46a21,21,0,0,1-3.44-6.61l-3.67.32-.79-9.08,3.67-.32A21.06,21.06,0,0,1,72,391.66l-2.82-2.37,5.86-7,2.82,2.37a21,21,0,0,1,6.61-3.44l-.32-3.67,6.66-.58v10.27a14.23,14.23,0,0,0,0,28.47Z" transform="translate(355.65 -81.91)"/><path class="cls-36" d="M1010.44,636.47a33.91,33.91,0,1,0-33.91-33.91A34,34,0,0,0,1010.44,636.47Z" transform="translate(355.65 -81.91)"/><path class="cls-37" d="M1010.44,571.91a30.66,30.66,0,0,1,0,61.32v7a37.68,37.68,0,1,0,0-75.37Zm0,61.32a30.66,30.66,0,0,1,0-61.32v-7a37.68,37.68,0,0,0,0,75.37Z" transform="translate(355.65 -81.91)"/><rect class="cls-18" x="1364.33" y="498.33" width="3.52" height="22.33" rx="1.76" ry="1.76"/><path class="cls-37" d="M996.38,590h0a1.76,1.76,0,0,1,2.48-.14l11.43,10.2a1.77,1.77,0,0,1,.14,2.49h0a1.77,1.77,0,0,1-2.48.14l-11.43-10.2A1.76,1.76,0,0,1,996.38,590Z" transform="translate(355.65 -81.91)"/><circle class="cls-18" cx="1366.09" cy="494.56" r="1.94"/><circle class="cls-18" cx="1393.19" cy="521.4" r="1.94"/><circle class="cls-18" cx="1366.35" cy="548.51" r="1.94"/><circle class="cls-18" cx="1339.25" cy="521.67" r="1.94"/><circle class="cls-18" cx="1366.09" cy="520.65" r="4.55"/><path class="cls-27" d="M909.87,329.77a32.12,32.12,0,0,1,3.6.21l1.63-5.36,11.3,3.43-1.63,5.36a32.18,32.18,0,0,1,10.38,8.53l4.94-2.63,5.56,10.42-4.94,2.63A32.24,32.24,0,0,1,942,365.73l5.36,1.63-3.44,11.3L938.59,377a32.23,32.23,0,0,1-8.53,10.38l2.64,4.94-10.42,5.56L919.64,393a32.19,32.19,0,0,1-9.77,1.51V386a23.9,23.9,0,0,0,0-47.79Zm-20.19,7.08L887,331.91l10.42-5.56,2.64,4.94a32.25,32.25,0,0,1,9.77-1.51v8.46A23.89,23.89,0,0,0,902.92,385h0a23.94,23.94,0,0,0,6.95,1v8.46a32.18,32.18,0,0,1-3.6-.2l-1.63,5.36-11.3-3.44,1.63-5.36a32.17,32.17,0,0,1-10.38-8.53L879.65,385l-5.56-10.42L879,371.9a32.18,32.18,0,0,1-1.31-13.37l-5.36-1.63,3.44-11.31,5.36,1.63A32.2,32.2,0,0,1,889.68,336.85Z" transform="translate(355.65 -81.91)"/><path class="cls-38" d="M321.47,456.54a53.94,53.94,0,0,1,4.76,3.65" transform="translate(355.65 -81.91)"/><path class="cls-39" d="M334.17,468.65a54.19,54.19,0,0,1-56.75,85.11" transform="translate(355.65 -81.91)"/><path class="cls-38" d="M271.88,552a54.77,54.77,0,0,1-5.49-2.42" transform="translate(355.65 -81.91)"/><line class="cls-38" x1="636.96" y1="472.71" x2="631.37" y2="470.53"/><path class="cls-40" d="M264.55,548.08,63.11,469.43l-8.16-4.09a78.08,78.08,0,0,1,77.77-135.42l6.28,4L315.27,450.76" transform="translate(355.65 -81.91)"/><line class="cls-38" x1="675.92" y1="372.16" x2="680.92" y2="375.47"/><path class="cls-41" d="M340.2,529.38a54.17,54.17,0,0,1-91.73-57.66" transform="translate(355.65 -81.91)"/><path class="cls-41" d="M243.29,482.41,305.24,344l4.82-7.76A78.08,78.08,0,0,1,437.84,426l-4.56,5.89L336.13,535" transform="translate(355.65 -81.91)"/><path class="cls-42" d="M342.22,451.84A77.19,77.19,0,1,1,442.68,346.13" transform="translate(355.65 -81.91)"/><circle class="cls-38" cx="829.67" cy="397.51" r="26.94"/><line class="cls-42" x1="693.22" y1="367.63" x2="821.37" y2="423.14"/><line class="cls-42" x1="796.24" y1="258.52" x2="856.61" y2="389.81"/><rect class="cls-12" x="619.55" y="498.99" width="63.3" height="274.22" rx="28.35" ry="28.35" transform="translate(99.22 624.14) rotate(-48.74)"/><path class="cls-43" d="M492,449.53l54.29,47.63-46.46,53-54.29-47.63a77.1,77.1,0,1,0,46.46-53Z" transform="translate(355.65 -81.91)"/><rect class="cls-44" x="-260.3" y="407.65" width="61.75" height="267.54" rx="27.66" ry="27.66" transform="translate(714.22 453.53) rotate(66.45)"/><path class="cls-45" d="M1.4,478.31l-64.6,28.15-27.46-63,64.6-28.15a75.2,75.2,0,0,0-77.66-10.73,75.23,75.23,0,0,0-38.91,99,75.23,75.23,0,0,0,99,38.91A75.2,75.2,0,0,0,1.4,478.31Z" transform="translate(355.65 -81.91)"/></svg>