<svg xmlns="http://www.w3.org/2000/svg" viewBox="0 0 101.6 101.6"><defs><style>.cls-1{fill:#374f4e;fill-rule:evenodd;}</style></defs><title>Asset 4</title><g id="Layer_2" data-name="Layer 2"><g id="Objects"><path class="cls-1" d="M58.82,5.34a45.8,45.8,0,0,1,7.77,2.08l1.59-4.37a50.45,50.45,0,0,1,8,3.75l-2.32,4a46.28,46.28,0,0,1,6.59,4.62l3-3.56a51.17,51.17,0,0,1,6.26,6.26l-3.56,3a46.28,46.28,0,0,1,4.62,6.59l4-2.32a50.62,50.62,0,0,1,3.75,8L94.18,35a45.67,45.67,0,0,1,2.08,7.77l4.58-.81a51.1,51.1,0,0,1,.77,8.82H97a46.31,46.31,0,0,1-.69,8l4.58.81a50.48,50.48,0,0,1-2.29,8.56l-4.37-1.59a46,46,0,0,1-3.4,7.29l4,2.32a51,51,0,0,1-5.09,7.25l-3.56-3a46.29,46.29,0,0,1-5.69,5.69l3,3.56A50.86,50.86,0,0,1,76.2,94.8l-2.32-4a46,46,0,0,1-7.29,3.41l1.59,4.37a50.54,50.54,0,0,1-8.56,2.29l-.81-4.58a46.52,46.52,0,0,1-8,.69v4.65a51.1,51.1,0,0,1-8.82-.77l.81-4.58A45.82,45.82,0,0,1,35,94.18l-1.59,4.37a50.7,50.7,0,0,1-8-3.75l2.32-4a46.25,46.25,0,0,1-6.59-4.62l-3,3.56a51.16,51.16,0,0,1-6.26-6.26l3.56-3a46.36,46.36,0,0,1-4.62-6.59l-4,2.32a50.53,50.53,0,0,1-3.75-8l4.37-1.59a45.89,45.89,0,0,1-2.08-7.77l-4.58.81A51.1,51.1,0,0,1,0,50.8H4.65a46.51,46.51,0,0,1,.69-8L.77,42a50.27,50.27,0,0,1,2.29-8.56L7.42,35a45.83,45.83,0,0,1,3.4-7.29l-4-2.32a51.1,51.1,0,0,1,5.09-7.25l3.56,3a46.37,46.37,0,0,1,5.69-5.69l-3-3.56A51,51,0,0,1,25.4,6.8l2.32,4A46,46,0,0,1,35,7.42L33.42,3.05A50.41,50.41,0,0,1,42,.77l.81,4.58a46.41,46.41,0,0,1,8-.7V0a51.1,51.1,0,0,1,8.82.77Z"/></g></g></svg>