<svg id="OBJECTS" xmlns="http://www.w3.org/2000/svg" viewBox="0 0 468.99 294.1"><defs><style>.cls-1{fill:#1d4051;}.cls-2{fill:#1e4d6c;}.cls-3{fill:#7ccdd4;}.cls-4{fill:#def1f3;}.cls-5{fill:#bebbbb;}.cls-6{fill:none;}</style></defs><title>solution-business-3</title><path class="cls-1" d="M994.74-729.51c0-.06,0-.12,0-.17h-469v.17a41.76,41.76,0,0,0,2.94,15.74H991.79A41.72,41.72,0,0,0,994.74-729.51Z" transform="translate(-525.74 994.7)"/><path class="cls-2" d="M528.68-713.77c3.25,7.93,8.89,13.17,15.31,13.17H976.48c6.41,0,12.06-5.24,15.31-13.17Z" transform="translate(-525.74 994.7)"/><path class="cls-3" d="M569.82-976.81v223.54H950.65V-976.81Z" transform="translate(-525.74 994.7)"/><path class="cls-4" d="M691.72-715.14a6.78,6.78,0,0,0,6.78,6.78H822a6.78,6.78,0,0,0,6.79-6.78h0a6.79,6.79,0,0,0-6.79-6.79H698.51a6.79,6.79,0,0,0-6.78,6.79Z" transform="translate(-525.74 994.7)"/><path class="cls-5" d="M753.45-985.81a6.79,6.79,0,0,0,6.79,6.79,6.78,6.78,0,0,0,6.78-6.79,6.78,6.78,0,0,0-6.78-6.78A6.78,6.78,0,0,0,753.45-985.81Z" transform="translate(-525.74 994.7)"/><polygon class="cls-6" points="44.08 17.89 44.08 241.43 424.91 241.43 424.91 241.22 44.71 17.89 44.08 17.89"/><path class="cls-1" d="M950.65-976.81v223.33l14.66,8.61a28.54,28.54,0,0,0,5.78-17.41v-205.5c0-14.87-10.89-26.91-24.32-26.91H573.71a23.34,23.34,0,0,0-18.23,9.09l15,8.8Z" transform="translate(-525.74 994.7)"/><path class="cls-2" d="M950.65-753.48v.21H569.82V-976.81h.63l-15-8.8a28.49,28.49,0,0,0-6.1,17.82v205.5c0,14.86,10.89,26.91,24.33,26.91H946.77a23.4,23.4,0,0,0,18.54-9.49Z" transform="translate(-525.74 994.7)"/></svg>