<svg xmlns="http://www.w3.org/2000/svg" viewBox="0 0 96.48 96.49"><defs><style>.cls-1{fill:none;stroke:#d3ebeb;stroke-linecap:round;stroke-linejoin:round;stroke-width:5.98px;}.cls-1,.cls-2{fill-rule:evenodd;}.cls-2{fill:#539493;}</style></defs><title>Asset 3</title><g id="Layer_2" data-name="Layer 2"><g id="Objects"><path class="cls-1" d="M41.05,7.47a41.09,41.09,0,0,0-7,1.86L32.76,5.71A45.06,45.06,0,0,0,25.61,9l1.93,3.34a41.4,41.4,0,0,0-5.91,4.14l-2.48-3a45.57,45.57,0,0,0-5.58,5.58l3,2.48a41.54,41.54,0,0,0-4.14,5.91L9,25.61a45,45,0,0,0-3.34,7.15l3.63,1.32a40.91,40.91,0,0,0-1.87,7l-3.8-.67A45.49,45.49,0,0,0,3,48.24H6.85a41.5,41.5,0,0,0,.62,7.19l-3.8.67a44.93,44.93,0,0,0,2,7.62L9.33,62.4a41,41,0,0,0,3.05,6.54L9,70.87a45.22,45.22,0,0,0,4.53,6.46l3-2.48a41.59,41.59,0,0,0,5.1,5.1l-2.48,3a45.25,45.25,0,0,0,6.46,4.53l1.93-3.34a41.2,41.2,0,0,0,6.54,3.05l-1.32,3.63a45,45,0,0,0,7.62,2l.67-3.8a41.68,41.68,0,0,0,7.19.62V93.5a45.48,45.48,0,0,0,7.86-.68L55.43,89a41.08,41.08,0,0,0,7-1.86l1.32,3.63a45.07,45.07,0,0,0,7.15-3.34L68.94,84.1A41.5,41.5,0,0,0,74.85,80l2.48,3a45.51,45.51,0,0,0,5.58-5.58l-3-2.48a41.34,41.34,0,0,0,4.15-5.91l3.34,1.93a45.12,45.12,0,0,0,3.34-7.15L87.15,62.4a41.1,41.1,0,0,0,1.86-7l3.8.67a45.68,45.68,0,0,0,.68-7.86H89.64A41.68,41.68,0,0,0,89,41.05l3.8-.67a45.11,45.11,0,0,0-2-7.62l-3.63,1.32a41.3,41.3,0,0,0-3.05-6.54l3.34-1.93a45.27,45.27,0,0,0-4.53-6.46l-3,2.48a41.62,41.62,0,0,0-5.1-5.1l2.48-3A45.47,45.47,0,0,0,70.87,9l-1.93,3.34A41.11,41.11,0,0,0,62.4,9.33l1.32-3.63a45,45,0,0,0-7.62-2l-.67,3.8a41.71,41.71,0,0,0-7.19-.62V3a45.6,45.6,0,0,0-7.86.68Z"/><path class="cls-2" d="M41.05,7.47a41.09,41.09,0,0,0-7,1.86L32.76,5.71A45.06,45.06,0,0,0,25.61,9l1.93,3.34a41.4,41.4,0,0,0-5.91,4.14l-2.48-3a45.57,45.57,0,0,0-5.58,5.58l3,2.48a41.54,41.54,0,0,0-4.14,5.91L9,25.61a45,45,0,0,0-3.34,7.15l3.63,1.32a40.91,40.91,0,0,0-1.87,7l-3.8-.67A45.49,45.49,0,0,0,3,48.24H6.85a41.5,41.5,0,0,0,.62,7.19l-3.8.67a44.93,44.93,0,0,0,2,7.62L9.33,62.4a41,41,0,0,0,3.05,6.54L9,70.87a45.22,45.22,0,0,0,4.53,6.46l3-2.48a41.59,41.59,0,0,0,5.1,5.1l-2.48,3a45.25,45.25,0,0,0,6.46,4.53l1.93-3.34a41.2,41.2,0,0,0,6.54,3.05l-1.32,3.63a45,45,0,0,0,7.62,2l.67-3.8a41.68,41.68,0,0,0,7.19.62V93.5a45.48,45.48,0,0,0,7.86-.68L55.43,89a41.08,41.08,0,0,0,7-1.86l1.32,3.63a45.07,45.07,0,0,0,7.15-3.34L68.94,84.1A41.5,41.5,0,0,0,74.85,80l2.48,3a45.51,45.51,0,0,0,5.58-5.58l-3-2.48a41.34,41.34,0,0,0,4.15-5.91l3.34,1.93a45.12,45.12,0,0,0,3.34-7.15L87.15,62.4a41.1,41.1,0,0,0,1.86-7l3.8.67a45.68,45.68,0,0,0,.68-7.86H89.64A41.68,41.68,0,0,0,89,41.05l3.8-.67a45.11,45.11,0,0,0-2-7.62l-3.63,1.32a41.3,41.3,0,0,0-3.05-6.54l3.34-1.93a45.27,45.27,0,0,0-4.53-6.46l-3,2.48a41.62,41.62,0,0,0-5.1-5.1l2.48-3A45.47,45.47,0,0,0,70.87,9l-1.93,3.34A41.11,41.11,0,0,0,62.4,9.33l1.32-3.63a45,45,0,0,0-7.62-2l-.67,3.8a41.71,41.71,0,0,0-7.19-.62V3a45.6,45.6,0,0,0-7.86.68Z"/></g></g></svg>