<svg id="OBJECTS" xmlns="http://www.w3.org/2000/svg" viewBox="0 0 1133.04 539.2"><defs><style>.cls-1{opacity:0.2;}.cls-2,.cls-3,.cls-4,.cls-5,.cls-6{fill:none;}.cls-2,.cls-3,.cls-5{stroke:#fff;stroke-miterlimit:10;}.cls-2{stroke-width:2.84px;}.cls-3{stroke-width:2.48px;}.cls-4,.cls-6{stroke:#08334d;stroke-linecap:round;stroke-linejoin:round;}.cls-4{stroke-width:3.31px;}.cls-5{stroke-width:1.89px;}.cls-6{stroke-width:3.78px;}</style></defs><title>solution-business-1</title><path class="cls-1" d="M497-897.71a18.24,18.24,0,0,0,18.22-18.22A18.24,18.24,0,0,0,497-934.15a18.24,18.24,0,0,0-18.22,18.22A18.24,18.24,0,0,0,497-897.71Zm0-33.6a15.4,15.4,0,0,1,15.38,15.38A15.4,15.4,0,0,1,497-900.55a15.4,15.4,0,0,1-15.38-15.38A15.4,15.4,0,0,1,497-931.31Z" transform="translate(-216.14 1213.4)"/><circle class="cls-2" cx="263.09" cy="283.9" r="16.8"/><path class="cls-1" d="M1191-706.07a16,16,0,0,0-15.94,15.94A16,16,0,0,0,1191-674.2a16,16,0,0,0,15.94-15.94A16,16,0,0,0,1191-706.07Zm0,29.39a13.47,13.47,0,0,1-13.46-13.45A13.47,13.47,0,0,1,1191-703.59a13.47,13.47,0,0,1,13.46,13.46A13.47,13.47,0,0,1,1191-676.68Z" transform="translate(-216.14 1213.4)"/><circle class="cls-3" cx="959.3" cy="511.39" r="14.7"/><path class="cls-1" d="M985.37-1163.39a18.24,18.24,0,0,0,18.22-18.22,18.24,18.24,0,0,0-18.22-18.22,18.24,18.24,0,0,0-18.22,18.22A18.24,18.24,0,0,0,985.37-1163.39Zm0-33.6a15.4,15.4,0,0,1,15.38,15.38,15.4,15.4,0,0,1-15.38,15.38A15.4,15.4,0,0,1,970-1181.61,15.4,15.4,0,0,1,985.37-1197Z" transform="translate(-216.14 1213.4)"/><circle class="cls-2" cx="751.43" cy="18.22" r="16.8"/><path class="cls-1" d="M252.42-712.71a18.24,18.24,0,0,0-18.22,18.22,18.24,18.24,0,0,0,18.22,18.22,18.24,18.24,0,0,0,18.22-18.22A18.24,18.24,0,0,0,252.42-712.71Zm0,33.6A15.4,15.4,0,0,1,237-694.49a15.4,15.4,0,0,1,15.38-15.38,15.4,15.4,0,0,1,15.38,15.38A15.4,15.4,0,0,1,252.42-679.11Z" transform="translate(-216.14 1213.4)"/><circle class="cls-2" cx="18.48" cy="505.34" r="16.8"/><path class="cls-1" d="M1060.12-746.75a9,9,0,0,0-9-9,9,9,0,0,0-9,9,9,9,0,0,0,9,9A9,9,0,0,0,1060.12-746.75Zm-14.7,0a5.7,5.7,0,0,1,5.69-5.69,5.7,5.7,0,0,1,5.69,5.69,5.7,5.7,0,0,1-5.69,5.69A5.7,5.7,0,0,1,1045.42-746.75Z" transform="translate(-216.14 1213.4)"/><circle class="cls-4" cx="819.41" cy="454.78" r="7.35"/><path class="cls-1" d="M618-1064.48a9.36,9.36,0,0,0-9.35,9.35,9.36,9.36,0,0,0,9.35,9.35,9.36,9.36,0,0,0,9.35-9.35A9.36,9.36,0,0,0,618-1064.48Zm0,16.8a7.46,7.46,0,0,1-7.45-7.46,7.46,7.46,0,0,1,7.45-7.46,7.46,7.46,0,0,1,7.46,7.46A7.46,7.46,0,0,1,618-1047.67Z" transform="translate(-216.14 1213.4)"/><circle class="cls-5" cx="384.06" cy="144.7" r="8.4"/><path class="cls-1" d="M1339.36-915.58a9.83,9.83,0,0,0-9.82,9.82,9.83,9.83,0,0,0,9.82,9.82,9.83,9.83,0,0,0,9.82-9.82A9.83,9.83,0,0,0,1339.36-915.58Zm0,16.8a7,7,0,0,1-7-7,7,7,0,0,1,7-7,7,7,0,0,1,7,7A7,7,0,0,1,1339.36-898.78Z" transform="translate(-216.14 1213.4)"/><circle class="cls-2" cx="1105.42" cy="294.07" r="8.4"/><path class="cls-1" d="M703.27-1128.57a10.3,10.3,0,0,0,10.29-10.29,10.3,10.3,0,0,0-10.29-10.29A10.3,10.3,0,0,0,693-1138.86,10.3,10.3,0,0,0,703.27-1128.57Zm0-16.8a6.52,6.52,0,0,1,6.51,6.51,6.52,6.52,0,0,1-6.51,6.51,6.52,6.52,0,0,1-6.51-6.51A6.52,6.52,0,0,1,703.27-1145.37Z" transform="translate(-216.14 1213.4)"/><circle class="cls-6" cx="469.32" cy="60.97" r="8.4"/><path class="cls-1" d="M864.77-1028.73a9.83,9.83,0,0,0,9.82,9.82,9.83,9.83,0,0,0,9.82-9.82,9.83,9.83,0,0,0-9.82-9.82A9.83,9.83,0,0,0,864.77-1028.73Zm16.8,0a7,7,0,0,1-7,7,7,7,0,0,1-7-7,7,7,0,0,1,7-7A7,7,0,0,1,881.58-1028.73Z" transform="translate(-216.14 1213.4)"/><circle class="cls-2" cx="640.65" cy="171.09" r="8.4"/><path class="cls-1" d="M233.94-829a10.3,10.3,0,0,0,10.29,10.29A10.3,10.3,0,0,0,254.53-829a10.3,10.3,0,0,0-10.29-10.29A10.31,10.31,0,0,0,233.94-829Zm16.8,0a6.52,6.52,0,0,1-6.51,6.51,6.52,6.52,0,0,1-6.51-6.51,6.52,6.52,0,0,1,6.51-6.51A6.52,6.52,0,0,1,250.74-829Z" transform="translate(-216.14 1213.4)"/><circle class="cls-6" cx="10.29" cy="370.83" r="8.4"/></svg>