<svg id="Layer_1" data-name="Layer 1" xmlns="http://www.w3.org/2000/svg" viewBox="0 0 236.24 236.24">
    <title>ic-careers-create</title>
    <path fill="#f05b28" d="M639.12,455.62a45.69,45.69,0,0,0-22.86,85.26v4.3a9.4,9.4,0,0,0-1.86,13.29,9.4,9.4,0,0,0-2,5.71,9.53,9.53,0,0,0,9.52,9.52h34.28a9.48,9.48,0,0,0,7.57-15.24A9.39,9.39,0,0,0,662,545.19v-4.3a45.69,45.69,0,0,0-22.86-85.26Zm17.15,110.47H622a1.9,1.9,0,1,1,0-3.81h34.29a1.9,1.9,0,0,1,0,3.81Zm0-11.43H622a1.9,1.9,0,1,1,0-3.81h34.29a1.9,1.9,0,0,1,0,3.81Zm.16-19.44-2.07,1.07v6.94H642.93V516a15.24,15.24,0,1,0-7.62,0v27.21H623.88V536.3l-2.07-1.06a38.1,38.1,0,1,1,34.62,0ZM639.12,509a7.62,7.62,0,1,1,7.62-7.62,7.62,7.62,0,0,1-7.62,7.62Zm0,0"
        transform="translate(-521 -394.64)" />
    <path fill="#f05b28" d="M754.48,536.37a154.62,154.62,0,0,0-13.31-36.58c8.88-30.41,4.94-58.6-12.77-76.31-15.77-15.77-39.94-21.07-68.11-14.91-2.74.6-5.48,1.33-8.23,2.13a154.34,154.34,0,0,0-36.55-13.29c-31.13-6.82-57.86-1-75.29,16.45S517,458,523.77,489.15a154.41,154.41,0,0,0,13.3,36.57c-9.05,30.83-4.75,58.79,12.77,76.31,11.48,11.48,27.42,17.41,46.11,17.41a103.28,103.28,0,0,0,22-2.5c2.74-.6,5.48-1.33,8.23-2.13a154.44,154.44,0,0,0,36.55,13.29,114.3,114.3,0,0,0,24.35,2.77c20.65,0,38.26-6.54,50.94-19.22,17.42-17.41,23.27-44.16,16.46-75.29ZM723,428.88c14.27,14.27,18.31,36.5,12.86,61.2A212.62,212.62,0,0,0,661.81,416c24.47-5.39,46.78-1.55,61.2,12.87Zm-191.8,58.65c-6.23-28.5-1.12-52.75,14.4-68.27,11.21-11.21,27-17,45.59-17a106.41,106.41,0,0,1,22.69,2.59,142.52,142.52,0,0,1,27.84,9.32c-21.39,8.15-42.46,22.06-60.79,40.39a192.72,192.72,0,0,0-18.21,21.09,16.91,16.91,0,0,0-5.5-1,17.1,17.1,0,0,0-11.8,29.52c-1.8,3.76-3.44,7.5-4.86,11.21a142.53,142.53,0,0,1-9.34-27.87Zm35.53,4.28a9.53,9.53,0,1,1-9.52-9.52,9.54,9.54,0,0,1,9.52,9.52ZM555.23,596.65c-14.07-14.08-18.34-36.15-12.82-61.13a212.61,212.61,0,0,0,74,74c-24.48,5.4-46.79,1.55-61.21-12.87Zm24.92-24.92A197.14,197.14,0,0,1,545.23,525,139.72,139.72,0,0,1,552,508.05a16.92,16.92,0,0,0,5.21.9,17.13,17.13,0,0,0,12-29.32A186.14,186.14,0,0,1,586.32,460c20.1-20.1,43-34.09,65-41.1A203.22,203.22,0,0,1,733,500.6a152.48,152.48,0,0,1-20.44,40.25,17,17,0,0,0-6.8-1.43A17.11,17.11,0,0,0,691.49,566c-20,19.87-42.76,33.72-64.51,40.69a197.21,197.21,0,0,1-46.82-34.95Zm135.16-15.16a9.52,9.52,0,1,1-9.52-9.52,9.53,9.53,0,0,1,9.52,9.52Zm17.33,49.7c-15.52,15.52-39.75,20.64-68.28,14.4a142.85,142.85,0,0,1-27.84-9.32c21.28-8.1,42.24-21.92,60.51-40.12a17,17,0,0,0,8.76,2.48,17.16,17.16,0,0,0,17.14-17.14,17,17,0,0,0-4.23-11.15,163.89,163.89,0,0,0,19-35.29A142.58,142.58,0,0,1,747,538c6.23,28.5,1.12,52.75-14.39,68.27Zm0,0"
        transform="translate(-521 -394.64)" />
</svg>