<svg id="Layer_1" data-name="Layer 1" xmlns="http://www.w3.org/2000/svg" viewBox="0 0 80.67 83.67">
    <title>ic-cross-platform-actvie</title>
    <style>
        .fillSGV{fill:#f05b28;}
    </style>
    <path class="fillSGV" d="M706.34,495.33H675.5a15.89,15.89,0,0,0-12.69,6.4,18.71,18.71,0,0,1,3.77-.4h30.84a18.85,18.85,0,0,1,18.83,18.83V554a18.9,18.9,0,0,1-.36,3.62A15.8,15.8,0,0,0,722.17,545V511.16A15.85,15.85,0,0,0,706.34,495.33Z"
        transform="translate(-641.5 -495.33)" />
    <path class="fillSGV" d="M697.42,504.33H666.58a15.86,15.86,0,0,0-12.79,6.51,18.82,18.82,0,0,1,3.54-.34h30.84A18.85,18.85,0,0,1,707,529.33v33.84a18.84,18.84,0,0,1-.37,3.71A15.89,15.89,0,0,0,713.25,554V520.16A15.85,15.85,0,0,0,697.42,504.33Z"
        transform="translate(-641.5 -495.33)" />
    <path class="fillSGV" d="M668.83,543.42h-1.4v2.09h1.48a.56.56,0,0,0,.41-.21,1.28,1.28,0,0,0,.2-.84,1.14,1.14,0,0,0-.23-.83A.72.72,0,0,0,668.83,543.42Z"
        transform="translate(-641.5 -495.33)" />
    <path class="fillSGV" d="M679.36,543.42H678v2.09h1.48a.56.56,0,0,0,.41-.21,1.28,1.28,0,0,0,.2-.84,1.14,1.14,0,0,0-.23-.83A.72.72,0,0,0,679.36,543.42Z"
        transform="translate(-641.5 -495.33)" />
    <polygon class="fillSGV" points="14.93 52.1 16.54 52.1 15.75 49.37 14.93 52.1" />
    <path class="fillSGV" d="M688.17,513.5H657.33a15.89,15.89,0,0,0-15.83,15.83v33.84A15.85,15.85,0,0,0,657.33,579h30.84A15.83,15.83,0,0,0,704,563.17V529.33A15.85,15.85,0,0,0,688.17,513.5Zm-28.83,38.63-.69-2.24h-2.78l-.68,2.24h-3.6l4.11-11.81h3.13l4.09,11.81ZM672.78,546a4.33,4.33,0,0,1-.8,1.33,3.85,3.85,0,0,1-1.25.93,3.76,3.76,0,0,1-1.62.35h-1.69v3.52h-3.5V540.32H669a3.67,3.67,0,0,1,1.63.37,4.22,4.22,0,0,1,1.27.94,4.42,4.42,0,0,1,.83,1.33,4,4,0,0,1,.3,1.51A4.3,4.3,0,0,1,672.78,546Zm10.54,0a4.33,4.33,0,0,1-.8,1.33,3.85,3.85,0,0,1-1.25.93,3.76,3.76,0,0,1-1.62.35H678v3.52h-3.51V540.32h5.12a3.67,3.67,0,0,1,1.63.37,4.22,4.22,0,0,1,1.27.94,4.42,4.42,0,0,1,.83,1.33,4,4,0,0,1,.3,1.51A4.3,4.3,0,0,1,683.32,546Zm10.2,4.26a3.3,3.3,0,0,1-1.06,1.18,4.41,4.41,0,0,1-1.46.63,7,7,0,0,1-1.61.19,9.11,9.11,0,0,1-1.32-.1,11.4,11.4,0,0,1-1.34-.28,11.72,11.72,0,0,1-1.28-.43,8.25,8.25,0,0,1-1.15-.56l-.14-.08,1.52-3.09.17.11a9.32,9.32,0,0,0,1.16.62,8.2,8.2,0,0,0,1.15.43,4.51,4.51,0,0,0,1.28.19A1.16,1.16,0,0,0,690,549a.24.24,0,0,0,.12-.21.34.34,0,0,0-.14-.27,1.69,1.69,0,0,0-.5-.27c-.23-.08-.5-.17-.8-.25s-.64-.19-1-.31a8.6,8.6,0,0,1-1.33-.57,3.73,3.73,0,0,1-.95-.71,2.61,2.61,0,0,1-.56-.93,3.56,3.56,0,0,1-.18-1.17,4,4,0,0,1,.36-1.76,3.63,3.63,0,0,1,1-1.27,4.42,4.42,0,0,1,1.42-.77,5.4,5.4,0,0,1,1.68-.26,6.38,6.38,0,0,1,1.26.12,10.06,10.06,0,0,1,1.17.31c.38.13.73.26,1.06.41l.88.41.16.08-1.53,2.93-.16-.1a8.69,8.69,0,0,0-1-.51,9,9,0,0,0-1-.36,3.36,3.36,0,0,0-1-.16,1.31,1.31,0,0,0-.59.11.27.27,0,0,0-.15.28.32.32,0,0,0,.09.24,1.21,1.21,0,0,0,.36.23,5.06,5.06,0,0,0,.65.23l.9.28a11.92,11.92,0,0,1,1.45.54,4.64,4.64,0,0,1,1.13.71,2.83,2.83,0,0,1,.74,1,3.67,3.67,0,0,1,.26,1.44A3.81,3.81,0,0,1,693.52,550.27Z"
        transform="translate(-641.5 -495.33)" />
</svg>