<svg id="Layer_1" data-name="Layer 1" xmlns="http://www.w3.org/2000/svg" viewBox="0 0 319.5 218">
    <defs>
        <style>
            .cls-1,
            .cls-2,
            .cls-3 {
                 fill: none;
                stroke: #f05b28;
                stroke-linecap: round;
            }

            .cls-1,
            .cls-3 {
                stroke-miterlimit: 10;
            }

            .cls-1,
            .cls-2 {
                stroke-width: 9px;
            }

            .cls-2 {
                stroke-linejoin: round;
            }

            .cls-3 {
                stroke-width: 8.26px;
            }
        </style>
    </defs>
    <title>ic-careers-learn</title>
    <circle class="cls-1" cx="86.35" cy="55" r="50.5" />
    <circle class="cls-1" cx="233.15" cy="55" r="50.5" />
    <path class="cls-1" d="M-723,246.23a98.14,98.14,0,0,1,23-2.64,97.91,97.91,0,0,1,23.36,2.71" transform="translate(859.5 -192.5)"
    />
    <path class="cls-1" d="M-803.05,247.5a29.9,29.9,0,0,1,29.9-29.9" transform="translate(859.5 -192.5)" />
    <path class="cls-1" d="M-656.25,247.5a29.9,29.9,0,0,1,29.9-29.9" transform="translate(859.5 -192.5)" />
    <path class="cls-2" d="M-575.85,362.5h0c0-23.92,7.42-43.5,31.35-43.5h-267A43.63,43.63,0,0,0-855,362.5h0A43.63,43.63,0,0,0-811.5,406h267C-568.43,406-575.85,386.43-575.85,362.5Z"
        transform="translate(859.5 -192.5)" />
    <line class="cls-3" x1="50.5" y1="154.63" x2="282.59" y2="154.63" />
    <line class="cls-3" x1="50.5" y1="185.38" x2="284.71" y2="185.38" />
</svg>