<svg id="Layer_1" data-name="Layer 1" xmlns="http://www.w3.org/2000/svg" viewBox="0 0 245.74 250.04">
    <defs>
        <style>
            .cls-1 {
                fill: none;
                stroke: #f05b28;
                stroke-linecap: round;
                stroke-miterlimit: 10;
                stroke-width: 9px;
            }
        </style>
    </defs>
    <title>ic-careers-play</title>
    <path class="cls-1" d="M-329.35,360.75l145.52-59.29a8.38,8.38,0,0,0,2.76-13.68l-86.23-86.23A8.38,8.38,0,0,0-281,204.32l-59.29,145.52A8.38,8.38,0,0,0-329.35,360.75Z"
        transform="translate(345.41 -115.85)" />
    <line class="cls-1" x1="136.76" y1="113.29" x2="197.37" y2="52.67" />
    <line class="cls-1" x1="225.71" y1="29.18" x2="241.24" y2="29.18" />
    <line class="cls-1" x1="192.4" y1="28.66" x2="207.93" y2="28.66" />
    <line class="cls-1" x1="153.2" y1="129.73" x2="184.92" y2="129.73" />
    <line class="cls-1" x1="121.32" y1="66.12" x2="121.32" y2="97.85" />
    <circle class="cls-1" cx="-131.6" cy="245.58" r="14.59" transform="translate(133.21 -136.98) rotate(-45)" />
    <circle class="cls-1" cx="-224.09" cy="153.09" r="14.59" transform="translate(171.52 -229.47) rotate(-45)" />
    <line class="cls-1" x1="217.08" y1="20.03" x2="217.08" y2="4.5" />
    <line class="cls-1" x1="216.56" y1="53.34" x2="216.56" y2="37.81" />
    <line class="cls-1" x1="30.19" y1="183.33" x2="69.85" y2="222.98" />
    <line class="cls-1" x1="48.72" y1="128.81" x2="121.74" y2="201.84" />
</svg>