<svg id="Layer_1" data-name="Layer 1" xmlns="http://www.w3.org/2000/svg" viewBox="0 0 392 392.08">
    <title>ic-call</title>
    <path  fill="#f05b28" d="M374.55,552.72c-7.2,5-26.64,17.52-70.88-10.56-41.28-26.16-131-94.8-157.76-229-7.6-37.84-2.64-57.84,15.2-70.16,30.48-21,59.84-2.4,65.92,8.64,22.72,41-13.36,64.4-22.72,69.6-6,3.28-9.76,9.36-9.2,16.16,4.4,49.76,59.68,129.68,103.68,150.08,6.08,2.8,13.6,1.84,18.16-3,6.48-7,44.32-32.48,72.64,3,15.52,19.28,7.36,49.6-15,65.2Zm-70.72-99.84c-29.84-20-65.92-72.48-74.48-108.32.4-.24,65.76-43.68,24.56-111.44-11.92-19.52-37.52-32.32-63-32.32a84.67,84.67,0,0,0-48.48,15.44c-36.88,25.68-35.28,66.32-28.72,102.32,19.52,107.2,90.64,202.72,173.52,251.84,18.56,11,40.72,22.48,64.56,22.48a71.51,71.51,0,0,0,41.44-13.28C430.32,553.76,441,499.52,416.55,469c-49.68-61.92-112.32-16.4-112.72-16.08Zm0,0"
        transform="translate(-110 -200.8)" />
    <path fill="#f05b28" d="M485.68,309.36H374.55l34.16-31.44a16.34,16.34,0,0,0-22.08-24.08l-65,59.76a16.27,16.27,0,0,0,0,24l65,59.76c3.12,2.88,15.2,6.72,23-1,6.48-6.32,5.68-17-1-23.12l-34.16-31.44H485.68a16.24,16.24,0,1,0,0-32.48Zm0,0"
        transform="translate(-110 -200.8)" />
</svg>