<svg id="Layer_1" data-name="Layer 1" xmlns="http://www.w3.org/2000/svg" viewBox="0 0 227 305.28"><defs><style>.cls-1{fill:none;stroke:#b3b3b3;stroke-miterlimit:10;stroke-width:9px;}.cls-2{fill:#b3b3b3;}</style></defs><title>ic-case-detail-3</title><circle class="cls-1" cx="113.5" cy="113.5" r="109"/><polyline class="cls-1" points="190.76 191.5 190.76 297.57 113.5 254 36.24 297.57 36.24 191.5"/><path class="cls-2" d="M313.08,324.29h-3.24V296h3.24a15.89,15.89,0,0,1,11,4.12,13,13,0,0,1,4.56,10,4.71,4.71,0,1,0,9.42,0,22,22,0,0,0-7.36-16.63,24.88,24.88,0,0,0-17.66-6.92h-3.24V281.9a4.71,4.71,0,1,0-9.42,0v4.71h-3.24a24.88,24.88,0,0,0-17.66,6.92,22.48,22.48,0,0,0,0,33.27,24.88,24.88,0,0,0,17.66,6.92h3.24V362h-3.24a15.89,15.89,0,0,1-11-4.12,13,13,0,0,1-4.56-10,4.71,4.71,0,1,0-9.42,0,22,22,0,0,0,7.36,16.63,24.88,24.88,0,0,0,17.66,6.92h3.24v4.71a4.71,4.71,0,1,0,9.42,0v-4.71h3.24a24.88,24.88,0,0,0,17.66-6.92,22.48,22.48,0,0,0,0-33.27A24.88,24.88,0,0,0,313.08,324.29Zm-12.66,0h-3.24a15.89,15.89,0,0,1-11-4.12,13.26,13.26,0,0,1,0-20,15.89,15.89,0,0,1,11-4.12h3.24Zm23.7,33.56a15.89,15.89,0,0,1-11,4.12h-3.24V333.71h3.24a15.89,15.89,0,0,1,11,4.12,13.26,13.26,0,0,1,0,20Z" transform="translate(-191.63 -215.5)"/></svg>