<svg id="Layer_1" data-name="Layer 1" xmlns="http://www.w3.org/2000/svg" viewBox="0 0 117.63 63.29"><defs><style>.cls-1{fill:none;stroke-width:4px;}.cls-1,.cls-2{stroke:#f05b28;stroke-miterlimit:10;}.cls-2,.cls-3{fill:#f05b28;}.cls-2{stroke-width:1.66px;}</style></defs><title>ic-ios-android</title><path class="cls-1" d="M608.82,562.11a11.37,11.37,0,0,1,7.46-3.85,11.24,11.24,0,0,1-2.64,8.12,9.38,9.38,0,0,1-7.51,3.6,10.68,10.68,0,0,1,2.69-7.87Zm14.5,44.7c-2.11,3.1-4.3,6.18-7.76,6.24s-4.48-2-8.36-2-5.1,2-8.3,2.08-5.87-3.35-8-6.44c-4.35-6.31-7.68-17.85-3.21-25.63a12.38,12.38,0,0,1,10.48-6.38c3.28-.06,6.37,2.21,8.36,2.21s5.76-2.73,9.7-2.33a11.81,11.81,0,0,1,9.26,5,11.53,11.53,0,0,0-5.47,9.69,11.22,11.22,0,0,0,6.8,10.29,28,28,0,0,1-3.51,7.24Zm0,0" transform="translate(-583.56 -555.82)"/><line class="cls-1" x1="51.55" x2="51.55" y2="63.07"/><path class="cls-1" d="M695.75,601.66a3.53,3.53,0,0,0,3.44-3.45V582.12a3.45,3.45,0,0,0-6.89,0v16.09a3.53,3.53,0,0,0,3.45,3.45Zm0,0" transform="translate(-583.56 -555.82)"/><path class="cls-1" d="M647,601.66a3.53,3.53,0,0,0,3.45-3.45V582.12a3.45,3.45,0,0,0-6.89,0v16.09a3.53,3.53,0,0,0,3.44,3.45Zm0,0" transform="translate(-583.56 -555.82)"/><path class="cls-1" d="M657.59,578.68v23a2.17,2.17,0,0,0,2.3,2.3h1.4v10.12a3,3,0,0,0,6.07,0V604h6.33v10.12a3,3,0,0,0,6.07,0V604h3.12a2.17,2.17,0,0,0,2.3-2.3v-23Z" transform="translate(-583.56 -555.82)"/><path class="cls-2" d="M686,572.56H656.57l.09-1c.37-4.57,4.75-11.79,14.71-11.79a14.86,14.86,0,0,1,10.78,4.29,13.39,13.39,0,0,1,3.75,7.49Zm-27.32-1.83H684a12.45,12.45,0,0,0-12.52-9.14C663.34,561.6,659.5,566.81,658.68,570.74Z" transform="translate(-583.56 -555.82)"/><path class="cls-3" d="M668.55,567.08a1.83,1.83,0,1,0-1.83,1.83,1.83,1.83,0,0,0,1.83-1.83" transform="translate(-583.56 -555.82)"/><path class="cls-3" d="M677.68,567.08a1.83,1.83,0,1,0-1.83,1.83,1.83,1.83,0,0,0,1.83-1.83" transform="translate(-583.56 -555.82)"/><path class="cls-2" d="M663.89,563.42a.88.88,0,0,1-.82-.55l-1.74-3.66a.9.9,0,1,1,1.64-.73l1.74,3.66a.91.91,0,0,1-.46,1.19C664.16,563.33,664.07,563.42,663.89,563.42Z" transform="translate(-583.56 -555.82)"/><path class="cls-2" d="M678.6,563.42a.55.55,0,0,1-.37-.09.91.91,0,0,1-.46-1.19l1.74-3.66a.9.9,0,1,1,1.64.73l-1.74,3.66A.8.8,0,0,1,678.6,563.42Z" transform="translate(-583.56 -555.82)"/></svg>