<svg xmlns="http://www.w3.org/2000/svg" xmlns:xlink="http://www.w3.org/1999/xlink" preserveAspectRatio="xMidYMid" width="30" height="40" viewBox="0 0 30 40">
  <defs>
    <style>
      .cls-1 {
        fill: #fff;
        fill-rule: evenodd;
      }
    </style>
  </defs>
  <path d="M27.663,16.567 L26.031,16.567 L26.031,16.567 L26.031,10.892 C26.031,4.886 21.083,0.000 15.000,0.000 C8.918,0.000 3.969,4.886 3.969,10.892 L3.969,16.568 L2.337,16.568 C1.046,16.568 0.000,17.600 0.000,18.874 L0.000,20.278 L0.000,36.289 L0.000,37.693 C0.000,38.967 1.046,40.000 2.337,40.000 L15.000,40.000 L27.663,40.000 C28.954,40.000 30.000,38.967 30.000,37.693 L30.000,36.289 L30.000,20.278 L30.000,18.874 C30.000,17.600 28.954,16.567 27.663,16.567 ZM17.487,33.093 L12.513,33.093 L13.403,28.904 C12.570,28.382 12.015,27.468 12.015,26.421 C12.015,24.794 13.351,23.474 15.000,23.474 C16.649,23.474 17.985,24.794 17.985,26.421 C17.985,27.468 17.429,28.382 16.597,28.904 L17.487,33.093 ZM22.095,16.567 L15.000,16.567 L7.906,16.567 L7.905,16.567 L7.905,10.892 C7.905,7.028 11.088,3.886 15.000,3.886 C18.912,3.886 22.095,7.029 22.095,10.892 L22.095,16.567 Z" class="cls-1"/>
</svg>
