<svg id="Layer_1" data-name="Layer 1" xmlns="http://www.w3.org/2000/svg" xmlns:xlink="http://www.w3.org/1999/xlink" viewBox="0 0 12.8 15.2">
    <defs>
        <style>
            .cls-1 {
                fill: none;
            }

            .cls-2 {
                clip-path: url(#clip-path);
            }
        </style>
        <clipPath id="clip-path" transform="translate(-299 -389)">
            <rect class="cls-1" x="299" y="389" width="12.96" height="16" />
        </clipPath>
    </defs>
    <title>ic-location</title>
    <g class="cls-2">
        <path  fill="#f05b28" d="M305.4,390.6A4.82,4.82,0,0,1,308.8,392a4.63,4.63,0,0,1,0,6.62L305.4,402l-3.4-3.35a4.63,4.63,0,0,1,0-6.62,4.83,4.83,0,0,1,3.4-1.38m0-1.6a6.43,6.43,0,0,0-4.52,1.84,6.23,6.23,0,0,0,0,8.91l4.52,4.45,4.53-4.45a6.22,6.22,0,0,0,0-8.9A6.43,6.43,0,0,0,305.4,389Zm0,0"
            transform="translate(-299 -389)" />
    </g>
    <path  fill="#f05b28" d="M305.4,393.4a2,2,0,0,1,1.41.59,2,2,0,0,1,0,2.83,2,2,0,0,1-2.83,0,2,2,0,0,1,1.41-3.41m0-.8a2.8,2.8,0,1,0,2,.82,2.78,2.78,0,0,0-2-.82Zm0,0"
        transform="translate(-299 -389)" />
</svg>