<svg id="Capa_1" data-name="Capa 1" xmlns="http://www.w3.org/2000/svg" viewBox="0 0 512 448">
    <title>ic-mail</title>
    <path fill="#f05b28" d="M496,32H16A16,16,0,0,0,0,48V400a16,16,0,0,0,16,16H192V384H32V81.28l214,171.2a16,16,0,0,0,20,0L480,81.28V192h32V48A16,16,0,0,0,496,32ZM256,219.5,61.62,64H450.4Z"
        transform="translate(0 -32)" />
    <path fill="#f05b28" d="M459.31,228.69a16,16,0,0,0-22.62,0l-160,160a16.05,16.05,0,0,0-4.21,7.42l-16,64a16,16,0,0,0,19.41,19.41l64-16a16,16,0,0,0,7.42-4.21l160-160a16,16,0,0,0,0-22.62ZM327.82,433.55,294,442l8.45-33.82L448,262.62,473.38,288Z"
        transform="translate(0 -32)" />
</svg>