<svg id="Layer_1" data-name="Layer 1" xmlns="http://www.w3.org/2000/svg" viewBox="0 0 239.8 165.89">
    <defs>
        <style>
            .cls-1,
            .cls-3 {
                fill: #38c95e;
            }

            .cls-2 {
                fill: none;
                stroke: #38c95e;
                stroke-miterlimit: 10;
                stroke-width: 6px;
            }

            .cls-3 {
                font-size: 44.01px;
                font-family: MyriadPro-Bold, Myriad Pro;
                font-weight: 700;
            }
        </style>
    </defs>
    <title>ic-online</title>
    <circle class="cls-1" cx="98.65" cy="114.7" r="5.97" />
    <circle class="cls-1" cx="125.08" cy="114.7" r="5.97" />
    <path class="cls-1" d="M1214.41,1197.53h-54.56l-2.56-11.93a4.09,4.09,0,0,0-3.84-3h-13.21a3.84,3.84,0,1,0,0,7.67h9.8l10.66,50.72a4.09,4.09,0,0,0,3.84,3h38.79a3.84,3.84,0,0,0,0-7.67h-35.8l-1.28-5.54h42.2a2.83,2.83,0,0,0,2.13-1.7l6-29A2.13,2.13,0,0,0,1214.41,1197.53ZM1173.49,1221a3.41,3.41,0,1,1-6.82,0v-14.49a3.41,3.41,0,1,1,6.82,0Zm14.07,0a3.41,3.41,0,1,1-6.82,0v-14.49a3.41,3.41,0,0,1,6.82,0Zm14.07,0a3.36,3.36,0,0,1-3.41,3.41,3.67,3.67,0,0,1-3.41-3.41v-14.49a3.36,3.36,0,0,1,3.41-3.41,3.67,3.67,0,0,1,3.41,3.41Z"
        transform="translate(-1072.29 -1137.39)" />
    <path class="cls-2" d="M1125.71,1213.3v-58.14a14.82,14.82,0,0,1,14.78-14.78h76.07a14.82,14.82,0,0,1,14.78,14.78V1285.5a14.82,14.82,0,0,1-14.78,14.78h-76.07a14.82,14.82,0,0,1-14.78-14.78v-20.83"
        transform="translate(-1072.29 -1137.39)" />
    <line class="cls-2" x1="53.42" y1="138.91" x2="157.31" y2="138.91" />
    <line class="cls-2" x1="53.42" y1="26.97" x2="157.31" y2="26.97" />
    <path class="cls-2" d="M1139,1238.8a31.86,31.86,0,1,1-31.84-31.85A31.86,31.86,0,0,1,1139,1238.8Zm0,0" transform="translate(-1072.29 -1137.39)"
    />
    <text class="cls-3" transform="translate(22.18 114.7)">$</text>
    <path class="cls-2" d="M1309.08,1187.4a31.86,31.86,0,1,1-31.84-31.85,31.86,31.86,0,0,1,31.84,31.85Zm0,0" transform="translate(-1072.29 -1137.39)"
    />
    <text class="cls-3" transform="translate(186.29 64.3)">%</text>
</svg>