<svg xmlns="http://www.w3.org/2000/svg" xmlns:xlink="http://www.w3.org/1999/xlink" preserveAspectRatio="xMidYMid" width="42" height="42" viewBox="0 0 42 42">
  <defs>
    <style>
      .cls-1 {
        fill: #fff;
        fill-rule: evenodd;
      }
    </style>
  </defs>
  <path d="M42.000,17.631 L42.000,24.360 L37.082,25.183 C36.697,26.661 36.111,28.079 35.333,29.408 L38.229,33.469 L33.469,38.229 L29.409,35.324 C28.079,36.111 26.661,36.698 25.183,37.082 L24.369,42.000 L17.631,42.000 L16.818,37.082 C15.339,36.698 13.921,36.111 12.591,35.324 L8.531,38.229 L3.771,33.469 L6.668,29.408 C5.889,28.079 5.302,26.661 4.918,25.183 L0.000,24.360 L0.000,17.631 L4.918,16.808 C5.302,15.330 5.889,13.922 6.668,12.591 L3.771,8.532 L8.531,3.771 L12.591,6.667 C13.921,5.889 15.339,5.302 16.818,4.918 L17.631,-0.000 L24.369,-0.000 L25.183,4.918 C26.661,5.303 28.079,5.889 29.409,6.668 L33.469,3.771 L38.229,8.532 L35.333,12.591 C36.111,13.922 36.697,15.330 37.082,16.808 L42.000,17.631 ZM21.000,9.624 C14.728,9.624 9.625,14.726 9.625,20.999 C9.625,27.270 14.728,32.373 21.000,32.373 C27.273,32.373 32.375,27.270 32.375,20.999 C32.375,14.726 27.273,9.624 21.000,9.624 ZM24.115,23.647 L26.763,20.999 L24.115,18.350 L25.352,17.113 L29.237,20.999 L25.352,24.884 L24.115,23.647 ZM18.267,26.425 L22.045,16.032 L23.690,16.630 L19.911,27.022 L18.267,26.425 ZM16.648,24.884 L12.763,20.999 L16.648,17.113 L17.885,18.350 L15.237,20.999 L17.885,23.647 L16.648,24.884 Z" class="cls-1"/>
</svg>
