<svg id="Layer_1" data-name="Layer 1" xmlns="http://www.w3.org/2000/svg" viewBox="0 0 226.27 252.58">
    <defs>
        <style>
            .cls-1 {
                fill: #00cccc;
            }
        </style>
    </defs>
    <title>ic-project</title>
    <path class="cls-1" d="M904.39,420.56a19.5,19.5,0,1,1-19.5-19.5,19.5,19.5,0,0,1,19.5,19.5Zm0,0" transform="translate(-771.73 -396.32)"
    />
    <path class="cls-1" d="M993.31,573.39a19.5,19.5,0,1,1-19.5-19.5,19.5,19.5,0,0,1,19.5,19.5Zm0,0" transform="translate(-771.73 -396.32)"
    />
    <path class="cls-1" d="M815.47,573.39a19.5,19.5,0,1,1-19.5-19.5,19.5,19.5,0,0,1,19.5,19.5Zm0,0" transform="translate(-771.73 -396.32)"
    />
    <path fill="#00cccc" d="M998,471.88A24.17,24.17,0,0,0,955.6,456l-47.81-27.7a24.19,24.19,0,1,0-47.09-7.79,23.84,23.84,0,0,0,1.29,7.74l-47.81,27.7a24.18,24.18,0,1,0-23.42,39.51l.05,54.26a24.18,24.18,0,1,0,23.05,39.82l48,27.7a23.84,23.84,0,0,0-1.19,7.48,24.19,24.19,0,1,0,48.38,0,23.91,23.91,0,0,0-1.19-7.48l48-27.7a24.18,24.18,0,1,0,22.64-39.92V495.56A24.09,24.09,0,0,0,998,471.88ZM973.81,457A14.85,14.85,0,1,1,959,471.88,14.86,14.86,0,0,1,973.81,457Zm-88.92-51.32A14.87,14.87,0,0,1,898,427.57a2.3,2.3,0,0,0-.26.36l-.16.31a14.85,14.85,0,1,1-12.69-22.54ZM781.11,471.88A14.86,14.86,0,1,1,796,486.73a14.86,14.86,0,0,1-14.86-14.85ZM796,588.24a14.85,14.85,0,1,1,14.85-14.85A14.86,14.86,0,0,1,796,588.24Zm88.92,51.32a14.86,14.86,0,1,1,14.85-14.86,14.86,14.86,0,0,1-14.85,14.86Zm18.41-30.48a24.08,24.08,0,0,0-36.82,0l-47.76-27.54a23.76,23.76,0,0,0,1.45-8.15,24.21,24.21,0,0,0-20-23.83l-.05-53.9A24.19,24.19,0,0,0,818.87,464l47.81-27.7a24.16,24.16,0,0,0,36.46,0L951,464a24.18,24.18,0,0,0,18.21,31.52v54.05a24.19,24.19,0,0,0-19.5,23.72,23.58,23.58,0,0,0,1.44,8.15Zm85.36-35.69a14.86,14.86,0,1,1-14.85-14.85,14.86,14.86,0,0,1,14.85,14.85Zm0,0"
        transform="translate(-771.73 -396.32)" />
    <path fill="#00cccc" d="M907.43,541.3V524.44a14.54,14.54,0,0,0,4.44-10.52V491.79a24.63,24.63,0,0,0-24.6-24.6h-4.74a24.63,24.63,0,0,0-24.6,24.6v22.13a14.74,14.74,0,0,0,4.44,10.52V541.3A182.54,182.54,0,0,0,832,561.06a4.69,4.69,0,1,0,6,7.22,167.18,167.18,0,0,1,30.58-19.6,5.61,5.61,0,0,0,3.15-5.11V522.22a4.61,4.61,0,0,0-2.06-3.87,5.26,5.26,0,0,1-2.38-4.44V491.79a15.3,15.3,0,0,1,15.27-15.27h4.74a15.3,15.3,0,0,1,15.27,15.27v22.13a5.39,5.39,0,0,1-2.37,4.44,4.68,4.68,0,0,0-2.07,3.87v21.35a5.71,5.71,0,0,0,3.2,5.11,170.23,170.23,0,0,1,30.59,19.6,4.62,4.62,0,0,0,6.55-.62,4.72,4.72,0,0,0-.62-6.6,183.24,183.24,0,0,0-30.43-19.75Zm0,0"
        transform="translate(-771.73 -396.32)" />
</svg>