<svg id="Layer_1" data-name="Layer 1" xmlns="http://www.w3.org/2000/svg" viewBox="0 0 224.25 224.03">
    <defs>
        <style>
            .cls-1 {
                fill: none;
                stroke: #2375a4;
                stroke-miterlimit: 10;
                stroke-width: 4.94px;
            }

            .cls-2 {
                fill: #2375a4;
            }
        </style>
    </defs>
    <title>ic-private</title>
    <circle class="cls-1" cx="112.01" cy="112.01" r="59.75" />
    <circle class="cls-1" cx="18.18" cy="112.01" r="15.71" />
    <circle class="cls-1" cx="206.07" cy="112.01" r="15.71" />
    <circle class="cls-1" cx="112.01" cy="18.18" r="15.71" />
    <circle class="cls-1" cx="112.01" cy="205.84" r="15.71" />
    <circle class="cls-1" cx="45.62" cy="45.62" r="15.71" />
    <circle class="cls-1" cx="178.4" cy="178.4" r="15.71" />
    <circle class="cls-1" cx="178.4" cy="45.62" r="15.71" />
    <circle class="cls-1" cx="45.62" cy="178.4" r="15.71" />
    <circle class="cls-2" cx="112.01" cy="92.59" r="19.64" />
    <path class="cls-2" d="M1436.37,1153.45a56.27,56.27,0,0,1-75.23,0,37.72,37.72,0,0,1,75.23,0Z" transform="translate(-1286.75 -997.97)"
    />
    <line class="cls-1" x1="112.01" y1="171.76" x2="112.01" y2="190.13" />
    <line class="cls-1" x1="154.82" y1="154.03" x2="167.81" y2="167.02" />
    <line class="cls-1" x1="172.55" y1="111.23" x2="190.92" y2="111.23" />
    <line class="cls-1" x1="154.82" y1="68.42" x2="167.81" y2="55.43" />
    <line class="cls-1" x1="112.01" y1="50.69" x2="112.01" y2="32.32" />
    <line class="cls-1" x1="69.21" y1="68.42" x2="56.22" y2="55.43" />
    <line class="cls-1" x1="51.48" y1="111.23" x2="33.11" y2="111.23" />
    <line class="cls-1" x1="69.21" y1="154.03" x2="56.22" y2="167.02" />
</svg>