<svg xmlns="http://www.w3.org/2000/svg" xmlns:xlink="http://www.w3.org/1999/xlink" preserveAspectRatio="xMidYMid" width="41" height="34.03" viewBox="0 0 41 34.03">
  <defs>
    <style>
      .cls-1 {
        fill: #fff;
        fill-rule: evenodd;
      }
    </style>
  </defs>
  <path d="M41.012,28.847 C37.762,28.847 34.438,26.773 32.343,25.155 C34.450,22.818 35.688,19.942 35.688,16.840 C35.688,8.966 27.697,2.580 17.838,2.580 C16.384,2.580 14.971,2.721 13.620,2.979 C16.491,1.113 20.183,-0.013 24.213,-0.013 C33.367,-0.013 40.788,5.789 40.788,12.951 C40.788,15.301 39.988,17.503 38.594,19.400 C38.534,21.676 38.698,26.617 41.012,28.847 ZM33.138,18.137 C33.138,25.300 25.717,31.100 16.562,31.100 C14.601,31.100 12.725,30.835 10.980,30.346 C8.881,31.964 5.562,34.032 2.313,34.032 C3.944,32.465 4.508,29.553 4.676,27.173 C1.775,24.839 -0.013,21.648 -0.013,18.137 C-0.013,10.975 7.408,5.173 16.562,5.173 C25.717,5.173 33.138,10.975 33.138,18.137 Z" class="cls-1"/>
</svg>
