<svg xmlns="http://www.w3.org/2000/svg" xmlns:xlink="http://www.w3.org/1999/xlink" preserveAspectRatio="xMidYMid" width="31" height="43" viewBox="0 0 31 43">
  <defs>
    <style>
      .cls-1 {
        fill: #fff;
        fill-rule: evenodd;
      }
    </style>
  </defs>
  <path d="M30.500,13.698 C30.833,14.045 31.000,14.495 31.000,14.944 C31.000,15.393 30.833,15.843 30.500,16.190 L27.822,18.979 L27.822,18.980 L28.362,22.823 C28.370,22.883 28.376,22.942 28.378,23.001 C28.414,23.889 27.794,24.682 26.908,24.838 L23.115,25.509 L21.310,28.937 C20.991,29.542 20.376,29.889 19.738,29.889 C19.476,29.889 19.209,29.830 18.958,29.706 L15.500,28.001 L12.041,29.706 C11.789,29.830 11.523,29.888 11.260,29.888 C10.622,29.888 10.007,29.541 9.689,28.936 L7.884,25.509 L4.091,24.838 C3.205,24.682 2.585,23.889 2.621,23.001 C2.624,22.942 2.629,22.883 2.637,22.823 L3.177,18.980 L3.177,18.979 L0.499,16.190 C0.129,15.804 -0.035,15.293 0.005,14.797 C0.038,14.398 0.202,14.008 0.499,13.698 L3.177,10.909 L2.637,7.067 C2.629,7.007 2.624,6.947 2.621,6.888 C2.585,6.001 3.205,5.208 4.091,5.051 L7.884,4.382 L9.689,0.952 C9.714,0.904 9.742,0.858 9.771,0.813 C9.778,0.803 9.785,0.792 9.792,0.782 C9.818,0.744 9.845,0.706 9.874,0.670 C9.879,0.664 9.883,0.659 9.888,0.653 C9.922,0.612 9.957,0.572 9.994,0.534 C9.999,0.528 10.005,0.523 10.011,0.517 C10.044,0.485 10.077,0.454 10.112,0.425 C10.119,0.418 10.126,0.412 10.134,0.406 C10.215,0.338 10.301,0.281 10.392,0.229 C10.400,0.225 10.409,0.220 10.417,0.216 C10.460,0.192 10.504,0.170 10.550,0.150 C10.552,0.149 10.553,0.149 10.555,0.148 C10.603,0.127 10.653,0.108 10.703,0.091 C10.710,0.089 10.717,0.087 10.724,0.084 C10.768,0.070 10.812,0.058 10.857,0.048 C10.864,0.046 10.872,0.044 10.880,0.043 C10.931,0.031 10.983,0.022 11.035,0.015 C11.037,0.015 11.039,0.015 11.041,0.014 C11.089,0.008 11.138,0.004 11.188,0.002 C11.198,0.002 11.208,0.002 11.219,0.001 C11.232,0.001 11.247,0.000 11.260,0.000 C11.277,0.000 11.294,0.002 11.312,0.003 C11.347,0.004 11.382,0.006 11.417,0.009 C11.444,0.011 11.471,0.014 11.498,0.018 C11.533,0.023 11.568,0.029 11.604,0.036 C11.630,0.041 11.656,0.046 11.682,0.053 C11.719,0.062 11.757,0.074 11.795,0.086 C11.818,0.093 11.841,0.099 11.864,0.108 C11.917,0.127 11.970,0.150 12.022,0.175 C12.028,0.178 12.034,0.179 12.040,0.182 L15.500,1.886 L18.959,0.182 C18.965,0.179 18.971,0.178 18.977,0.175 C19.029,0.150 19.082,0.127 19.136,0.108 C19.158,0.099 19.180,0.093 19.202,0.086 C19.241,0.074 19.279,0.062 19.318,0.053 C19.343,0.046 19.368,0.041 19.393,0.037 C19.430,0.029 19.467,0.023 19.503,0.017 C19.529,0.014 19.555,0.011 19.580,0.009 C19.617,0.006 19.654,0.004 19.691,0.003 C19.707,0.002 19.722,0.000 19.738,0.000 C19.751,0.000 19.764,0.001 19.778,0.001 C19.790,0.002 19.802,0.002 19.815,0.003 C19.860,0.004 19.905,0.008 19.951,0.014 C19.956,0.014 19.961,0.014 19.967,0.015 C20.017,0.022 20.067,0.030 20.116,0.041 C20.127,0.044 20.138,0.047 20.148,0.049 C20.189,0.059 20.229,0.070 20.269,0.083 C20.279,0.086 20.290,0.089 20.300,0.092 C20.348,0.108 20.395,0.127 20.442,0.146 C20.447,0.149 20.452,0.151 20.458,0.154 C20.499,0.172 20.539,0.192 20.578,0.213 C20.589,0.219 20.600,0.225 20.611,0.231 C20.653,0.256 20.694,0.280 20.734,0.307 C20.736,0.308 20.738,0.310 20.740,0.311 C20.782,0.339 20.823,0.371 20.863,0.403 C20.872,0.411 20.881,0.420 20.891,0.427 C20.923,0.455 20.954,0.483 20.984,0.513 C20.991,0.520 20.999,0.528 21.007,0.535 C21.043,0.572 21.077,0.611 21.110,0.651 C21.116,0.659 21.122,0.666 21.128,0.674 C21.155,0.708 21.181,0.744 21.205,0.780 C21.213,0.791 21.221,0.802 21.228,0.814 C21.257,0.858 21.285,0.904 21.310,0.952 L23.116,4.382 L26.908,5.051 C27.794,5.208 28.415,6.001 28.378,6.888 C28.376,6.947 28.370,7.007 28.362,7.067 L27.822,10.909 L27.822,10.909 L30.500,13.698 ZM15.500,8.358 C11.905,8.358 8.980,11.306 8.980,14.928 C8.980,18.551 11.905,21.497 15.500,21.497 C19.094,21.497 22.019,18.551 22.019,14.928 C22.019,11.306 19.094,8.358 15.500,8.358 ZM13.602,32.925 L15.500,31.990 L17.396,32.925 C18.123,33.283 18.932,33.472 19.738,33.472 C21.516,33.472 23.151,32.587 24.138,31.132 L24.138,41.209 C24.138,41.830 23.820,42.407 23.295,42.733 C22.771,43.059 22.117,43.089 21.566,42.811 L15.499,39.756 L9.433,42.811 C9.182,42.938 8.909,43.001 8.638,43.001 C8.313,43.001 7.989,42.911 7.703,42.733 C7.179,42.406 6.860,41.830 6.860,41.209 L6.860,31.131 C7.847,32.587 9.483,33.472 11.260,33.472 C12.067,33.472 12.876,33.283 13.602,32.925 Z" class="cls-1"/>
</svg>
