<svg id="Layer_1" data-name="Layer 1" xmlns="http://www.w3.org/2000/svg" viewBox="0 0 223.2 242.99">
    <title>ic-service-helpdesk</title>
    <path fill="#de0ab9" d="M619.73,509.36a32.79,32.79,0,1,0,32.79,32.79,32.83,32.83,0,0,0-32.79-32.79Zm0,53.58a20.79,20.79,0,1,1,20.79-20.79,20.81,20.81,0,0,1-20.79,20.79Zm0,0"
        transform="translate(-528 -390.89)" />
    <path fill="#de0ab9" d="M724.16,390.89H650.23a27.08,27.08,0,0,0-27,27.05v32.47H607.48a6,6,0,0,0-6,6v10.47A76.18,76.18,0,0,0,579.42,476L572,468.62a6,6,0,0,0-8.49,0l-17.32,17.32a6,6,0,0,0,0,8.48l7.41,7.41a76.23,76.23,0,0,0-9.14,22.07H534a6,6,0,0,0-6,6v24.49a6,6,0,0,0,6,6h10.47a76.33,76.33,0,0,0,9.14,22.07l-7.41,7.41a6,6,0,0,0,0,8.49l17.32,17.32a6,6,0,0,0,8.49,0l7.41-7.41a76.16,76.16,0,0,0,22.06,9.15v10.47a6,6,0,0,0,6,6H632a6,6,0,0,0,6-6V617.41A76.16,76.16,0,0,0,660,608.26l7.41,7.41a6,6,0,0,0,8.49,0l17.32-17.32a6,6,0,0,0,0-8.49l-7.41-7.41A76.23,76.23,0,0,0,695,560.39h10.47a6,6,0,0,0,6-6V529.9a6,6,0,0,0-6-6H695a76.63,76.63,0,0,0-2.49-8.21l11.37-8.19h20.28a27.08,27.08,0,0,0,27-27.05V417.94a27.07,27.07,0,0,0-27-27.05Zm-40,140a6,6,0,0,0,5.91,5h9.36v12.49h-9.36a6,6,0,0,0-5.91,5,64.67,64.67,0,0,1-10.95,26.42,6,6,0,0,0,.66,7.7l6.62,6.62-8.84,8.84-6.62-6.62a6,6,0,0,0-7.7-.66,64.57,64.57,0,0,1-26.42,11,6,6,0,0,0-5,5.91v9.35h-12.5v-9.35a6,6,0,0,0-5-5.91,64.54,64.54,0,0,1-26.42-11,6,6,0,0,0-7.7.66l-6.62,6.62-8.83-8.84,6.62-6.62a6,6,0,0,0,.66-7.7,64.59,64.59,0,0,1-10.94-26.42,6,6,0,0,0-5.92-5H540V535.9h9.35a6,6,0,0,0,5.92-5,64.55,64.55,0,0,1,10.95-26.42,6,6,0,0,0-.66-7.7l-6.62-6.62,8.83-8.84,6.62,6.62a6,6,0,0,0,7.7.66,64.61,64.61,0,0,1,26.42-10.95,6,6,0,0,0,5-5.91v-9.36h9.71v18a27.08,27.08,0,0,0,27,27.05h6v22.57a6,6,0,0,0,9.5,4.87L682.32,523a65.67,65.67,0,0,1,1.88,7.89Zm55-50.47a15.06,15.06,0,0,1-15,15.05H701.94a6,6,0,0,0-3.51,1.13l-30.17,21.73V501.5a6,6,0,0,0-6-6h-12a15.07,15.07,0,0,1-15-15.05V417.94a15.07,15.07,0,0,1,15-15.05h73.93a15.06,15.06,0,0,1,15,15.05Zm0,0"
        transform="translate(-528 -390.89)" />
    <path fill="#de0ab9" d="M686.53,410.6a25.1,25.1,0,0,0-25.07,25.07,6,6,0,1,0,12,0,13.07,13.07,0,0,1,26.15,0c0,7.22-9.33,16.45-15.5,22.56l-1.81,1.8a6,6,0,1,0,8.48,8.49l1.77-1.76c8-8,19.06-18.87,19.06-31.09a25.1,25.1,0,0,0-25.08-25.07Zm0,0"
        transform="translate(-528 -390.89)" />
    <path fill="#de0ab9" d="M684.8,475.48a7.2,7.2,0,0,0,0,14.4,7.2,7.2,0,1,0,0-14.4Zm0,0" transform="translate(-528 -390.89)" />
</svg>