<svg id="Layer_1" data-name="Layer 1" xmlns="http://www.w3.org/2000/svg" viewBox="0 0 43.96 42.64">
    <title>ic-services-design</title>
    <path fill="#fff" d="M320.82,395.44a.8.8,0,1,1-.8-.8.8.8,0,0,1,.8.8Zm0,0" transform="translate(-284 -375.32)"
    />
    <path fill="#fff" d="M292,395.44a.8.8,0,1,1-.8-.8.8.8,0,0,1,.8.8Zm0,0" transform="translate(-284 -375.32)" />
    <path fill="#fff" d="M294.42,397.84a.8.8,0,1,1-.8-.8.8.8,0,0,1,.8.8Zm0,0" transform="translate(-284 -375.32)" />
    <path fill="#fff" d="M299.22,397.84a.8.8,0,1,1-.8-.8.8.8,0,0,1,.8.8Zm0,0" transform="translate(-284 -375.32)" />
    <path fill="#fff" d="M296.82,400.24a.8.8,0,1,1-.8-.8.8.8,0,0,1,.8.8Zm0,0" transform="translate(-284 -375.32)" />
    <path fill="#fff" d="M301.62,400.24a.8.8,0,1,1-.8-.8.8.8,0,0,1,.8.8Zm0,0" transform="translate(-284 -375.32)" />
    <path fill="#fff" d="M304,402.64a.8.8,0,1,1-.8-.8.8.8,0,0,1,.8.8Zm0,0" transform="translate(-284 -375.32)" />
    <path fill="#fff" d="M308.82,402.64a.8.8,0,1,1-.8-.8.8.8,0,0,1,.8.8Zm0,0" transform="translate(-284 -375.32)" />
    <path fill="#fff" d="M311.22,400.24a.8.8,0,1,1-.8-.8.8.8,0,0,1,.8.8Zm0,0" transform="translate(-284 -375.32)" />
    <path fill="#fff" d="M306.42,405a.8.8,0,1,1-.8-.8.8.8,0,0,1,.8.8Zm0,0" transform="translate(-284 -375.32)" />
    <path fill="#fff" d="M313.62,397.84a.8.8,0,1,1-.8-.8.8.8,0,0,1,.8.8Zm0,0" transform="translate(-284 -375.32)" />
    <path fill="#fff" d="M318.42,397.84a.8.8,0,1,1-.8-.8.8.8,0,0,1,.8.8Zm0,0" transform="translate(-284 -375.32)" />
    <path fill="#fff" d="M316,400.24a.8.8,0,1,1-.8-.8.8.8,0,0,1,.8.8Zm0,0" transform="translate(-284 -375.32)" />
    <path fill="#fff" d="M320.44,400.89,328,396.6l-7.72-4.39L328,387.8l-22-12.48L284,387.8l7.73,4.41L284,396.6l7.73,4.42L284,405.4,306,418l22-12.56L320.24,401l.06,0a.66.66,0,0,0,.15-.09ZM306,377.16l18.75,10.65-6.11,3.49L306,398.52l-18.75-10.71ZM292.9,393.39a.79.79,0,0,0,1.27.23l1.81,1a.8.8,0,0,0,0,1.59.8.8,0,0,0,.8-.8.77.77,0,0,0-.1-.37l8.27,4.72a.78.78,0,0,0-.16.46.8.8,0,0,0,1.6,0s0-.08,0-.12l8-4.59a.79.79,0,0,0,1.58-.09.78.78,0,0,0-.33-.63l1.76-1a.76.76,0,0,0,.16,0,.79.79,0,0,0,.75-.56l.26-.15,6.11,3.47-1.59.91a.8.8,0,0,0-1.53.33.77.77,0,0,0,.16.45l-3.16,1.8L313.51,403a.78.78,0,0,0,.11-.37.8.8,0,1,0-.84.79l-1.81,1a.8.8,0,0,0-1.36.57.74.74,0,0,0,0,.18l-3.68,2.1-4.41-2.52a.8.8,0,0,0-.75-.56.82.82,0,0,0-.16,0l-1.76-1a.78.78,0,0,0,.33-.63.8.8,0,0,0-.8-.8.79.79,0,0,0-.78.71l-8-4.59a1,1,0,0,0,0-.12.79.79,0,0,0-1.3-.61l-1.09-.62Zm31.83,12L306,416.12,287.23,405.4l6.11-3.47L306,409.16l12.64-7.22Zm0,0"
        transform="translate(-284 -375.32)" />
</svg>