<svg id="Layer_1" data-name="Layer 1" xmlns="http://www.w3.org/2000/svg" viewBox="0 0 45.07 44.68">
    <title>ic-service-build</title>
    <path fill="#fff" d="M384.6,405.3a.62.62,0,0,1-.81.34l-2.08-.86a.83.83,0,0,0-1,.3,12.73,12.73,0,0,1-3.54,3.54.83.83,0,0,0-.3,1l.86,2.08a.62.62,0,0,1-.34.81l-2.26.95a.62.62,0,0,1-.81-.34l-.86-2.08a.83.83,0,0,0-.93-.5,12.71,12.71,0,0,1-5,0,.83.83,0,0,0-.93.5l-.86,2.08a.63.63,0,0,1-.81.34l-2.26-.94a.63.63,0,0,1-.34-.82l.86-2.08a.82.82,0,0,0-.3-1,12.73,12.73,0,0,1-3.54-3.54.83.83,0,0,0-1-.3l-2.08.86a.62.62,0,0,1-.81-.34l-.94-2.26a.62.62,0,0,1,.34-.81l2.08-.86a.82.82,0,0,0,.5-.93,12.73,12.73,0,0,1,0-5,.83.83,0,0,0-.5-.93l-2.08-.86a.63.63,0,0,1-.34-.82l.94-2.26a.63.63,0,0,1,.82-.34l2.08.86a.83.83,0,0,0,1-.3,12.72,12.72,0,0,1,3.54-3.54.83.83,0,0,0,.3-1l-.86-2.08a.63.63,0,0,1,.34-.82l2.26-.94a.62.62,0,0,1,.81.34l.86,2.08a.83.83,0,0,0,1.54-.63l-.86-2.08a2.29,2.29,0,0,0-3-1.24l-2.26.94a2.28,2.28,0,0,0-1.24,1.24,2.32,2.32,0,0,0,0,1.76l.61,1.46a14.46,14.46,0,0,0-3,3l-1.46-.61a2.32,2.32,0,0,0-1.76,0,2.28,2.28,0,0,0-1.24,1.24l-.94,2.26a2.32,2.32,0,0,0,0,1.76,2.28,2.28,0,0,0,1.24,1.24l1.46.61a14.08,14.08,0,0,0,0,4.3l-1.46.61a2.29,2.29,0,0,0-1.24,3l.94,2.23a2.29,2.29,0,0,0,3,1.24l1.46-.61a14.47,14.47,0,0,0,3,3l-.61,1.46a2.32,2.32,0,0,0,0,1.76,2.28,2.28,0,0,0,1.24,1.24l2.26.94a2.29,2.29,0,0,0,3-1.24l.61-1.46a14.05,14.05,0,0,0,4.3,0l.61,1.46a2.3,2.3,0,0,0,2.12,1.42,2.25,2.25,0,0,0,.87-.17l2.26-.94a2.29,2.29,0,0,0,1.24-3l-.61-1.46a14.47,14.47,0,0,0,3-3l1.46.61a2.28,2.28,0,0,0,3-1.24l.94-2.26a2.32,2.32,0,0,0,0-1.76,2.28,2.28,0,0,0-1.24-1.24l-2.08-.86a.83.83,0,0,0-.63,1.54l2.08.86a.63.63,0,0,1,.34.82Zm0,0"
        transform="translate(-352.76 -370.51)" />
    <path fill="#fff" d="M370,392.25a.83.83,0,0,0,0-1.66h0a7.35,7.35,0,0,0,0,14.7H370a7.35,7.35,0,0,0,7.3-7.4.83.83,0,0,0-.84-.83h0a.83.83,0,0,0-.83.84,5.68,5.68,0,0,1-5.65,5.73h0a5.69,5.69,0,0,1-4-9.68,5.74,5.74,0,0,1,4-1.69Zm0,0"
        transform="translate(-352.76 -370.51)" />
    <path fill="#fff" d="M395.94,386.58a1.9,1.9,0,0,0,1.89-1.89v-1.77a1.9,1.9,0,0,0-1.89-1.89h-1a10.73,10.73,0,0,0-1.09-2.62l.69-.69a1.9,1.9,0,0,0,0-2.68l-1.26-1.26a1.88,1.88,0,0,0-1.33-.55,1.85,1.85,0,0,0-1.33.55l-.69.69a10.51,10.51,0,0,0-2.62-1.08v-1a1.9,1.9,0,0,0-1.89-1.89h-1.78a1.9,1.9,0,0,0-1.89,1.89v1a10.73,10.73,0,0,0-2.62,1.08l-.69-.69a1.88,1.88,0,0,0-1.33-.55,1.85,1.85,0,0,0-1.33.55L374.53,375a1.9,1.9,0,0,0,0,2.68l.69.69a10.52,10.52,0,0,0-1.09,2.62h-1a1.9,1.9,0,0,0-1.89,1.89v1.78a1.9,1.9,0,0,0,1.89,1.89h1a10.72,10.72,0,0,0,1.09,2.62l-.69.69a1.9,1.9,0,0,0,0,2.68l1.26,1.26a1.88,1.88,0,0,0,1.33.55,1.85,1.85,0,0,0,1.33-.55l.69-.69a10.52,10.52,0,0,0,2.62,1.08v1a1.9,1.9,0,0,0,1.89,1.89h1.78a1.9,1.9,0,0,0,1.89-1.89v-1a10.73,10.73,0,0,0,2.62-1.09l.69.69a1.88,1.88,0,0,0,1.33.55,1.85,1.85,0,0,0,1.33-.55l1.26-1.26a1.9,1.9,0,0,0,0-2.68l-.69-.69a10.53,10.53,0,0,0,1.09-2.62Zm-2.45-1a9,9,0,0,1-1.36,3.28.83.83,0,0,0,.1,1l1.16,1.16a.22.22,0,0,1,0,.32l-1.26,1.26a.22.22,0,0,1-.16.06.21.21,0,0,1-.16-.06l-1.16-1.16a.82.82,0,0,0-1-.1,9.12,9.12,0,0,1-3.28,1.36.84.84,0,0,0-.67.82v1.64a.22.22,0,0,1-.22.22h-1.78a.22.22,0,0,1-.22-.22v-1.64a.84.84,0,0,0-.67-.82,9,9,0,0,1-3.28-1.36.84.84,0,0,0-.46-.14.82.82,0,0,0-.59.25l-1.16,1.16a.22.22,0,0,1-.16.06.21.21,0,0,1-.16-.06l-1.26-1.26a.22.22,0,0,1,0-.32l1.16-1.16a.82.82,0,0,0,.1-1,9.12,9.12,0,0,1-1.36-3.28.84.84,0,0,0-.82-.67h-1.64a.22.22,0,0,1-.22-.22v-1.79a.22.22,0,0,1,.22-.22h1.64a.84.84,0,0,0,.82-.67,9,9,0,0,1,1.36-3.28.83.83,0,0,0-.1-1l-1.16-1.16a.22.22,0,0,1-.06-.16.21.21,0,0,1,.06-.16L377,375a.22.22,0,0,1,.16-.06.21.21,0,0,1,.16.06l1.16,1.16a.82.82,0,0,0,1,.1,9.12,9.12,0,0,1,3.28-1.36.84.84,0,0,0,.67-.82V372.4a.22.22,0,0,1,.22-.22h1.78a.22.22,0,0,1,.22.22V374a.84.84,0,0,0,.67.82,9,9,0,0,1,3.28,1.36.83.83,0,0,0,1-.1l1.16-1.16a.22.22,0,0,1,.16-.06.21.21,0,0,1,.16.06l1.26,1.26a.22.22,0,0,1,0,.32l-1.16,1.16a.82.82,0,0,0-.1,1,9.12,9.12,0,0,1,1.36,3.28.84.84,0,0,0,.82.67h1.64a.22.22,0,0,1,.22.22v1.78a.22.22,0,0,1-.22.22H394.3a.8.8,0,0,0-.81.66Zm0,0"
        transform="translate(-352.76 -370.51)" />
    <path fill="#fff" d="M384.55,378.45a5.34,5.34,0,1,0,5.34,5.34,5.35,5.35,0,0,0-5.34-5.34Zm0,9a3.68,3.68,0,1,1,3.68-3.68,3.68,3.68,0,0,1-3.68,3.68Zm0,0"
        transform="translate(-352.76 -370.51)" />
</svg>