<svg id="Layer_1" data-name="Layer 1" xmlns="http://www.w3.org/2000/svg" viewBox="0 0 348.16 496.64">
    <title>ic-service-maintenance</title>
    <path fill="#fff" d="M358.4,501.76a71.76,71.76,0,0,0,71.68-71.68V245.76H368.64V86.16l21.58-21.58L376.63,10.24H340.16L326.58,64.58l21.58,21.58v159.6H286.72V430.08A71.76,71.76,0,0,0,358.4,501.76Zm-2.25-471h4.49l6.89,27.58-9.14,9.14-9.14-9.14ZM409.6,266.24v41H307.2v-41ZM307.2,327.68H409.6v102.4a51.2,51.2,0,0,1-102.4,0Z"
        transform="translate(-81.92 -10.24)" />
    <rect fill="#fff" x="266.24" y="399.36" width="20.48" height="20.48" />
    <rect fill="#fff" x="266.24" y="348.16" width="20.48" height="20.48" />
    <path fill="#fff" d="M81.92,430.08A76.62,76.62,0,0,0,129.18,501l14.18,5.91V440.12l15.36-12.28,15.36,12.28v66.76L188.26,501A76.66,76.66,0,0,0,215,378V144.23a76.66,76.66,0,0,0-26.78-123l-14.18-5.91V82.12L158.72,94.4,143.36,82.12V15.35l-14.18,5.91A76.65,76.65,0,0,0,102.4,144.22V378A77.15,77.15,0,0,0,81.92,430.08Zm112.64,43.46V430.28L158.72,401.6l-35.84,28.67v43.26a56.32,56.32,0,1,1,71.68,0Zm-71.68-111.4v-202l.26.12a76.2,76.2,0,0,0,8.05,3.61l.52.18a76.11,76.11,0,0,0,54,0l.56-.19a76.08,76.08,0,0,0,8-3.61l.25-.11v202l-.25-.11a76.29,76.29,0,0,0-8.07-3.62l-.48-.17a76.13,76.13,0,0,0-54.07,0l-.48.17a76.22,76.22,0,0,0-8.07,3.62Zm0-313.44V92l35.84,28.67L194.56,92V48.69a56.32,56.32,0,1,1-71.68,0Z"
        transform="translate(-81.92 -10.24)" />
</svg>