<svg id="Layer_1" data-name="Layer 1" xmlns="http://www.w3.org/2000/svg" xmlns:xlink="http://www.w3.org/1999/xlink" viewBox="0 0 92.73 83.03">
    <defs>
        <style>
            .cls-1 {
                fill: none;
            }

            .cls-2 {
                
            }
        </style>
        
    </defs>
    <title>ic-service-excellent-technique</title>
    <g class="cls-2">
        <path fill="#2acb0a" d="M683.73,500.24H595a2,2,0,0,1-1.53-3.29l21.28-25.24a2,2,0,0,1,1.53-.71h46.17a2,2,0,0,1,1.53.71l21.28,25.24a2,2,0,0,1-1.53,3.29Zm-84.43-4h80.13L661.52,475H617.21Zm0,0"
            transform="translate(-593 -471)" />
    </g>
    <path fill="#2acb0a" d="M639.37,554l-45.9-54.5,3.06-2.58,42.84,50.87,42.84-50.87,3.06,2.58Zm0,0" transform="translate(-593 -471)" />
    <path fill="#2acb0a" d="M639.37,552.92a2,2,0,0,1-1.89-1.33L618.9,498.9a2,2,0,0,1,.28-1.85l18.57-25.24a2,2,0,0,1,3.22,0l18.58,25.24a2,2,0,0,1,.27,1.85l-18.58,52.69a2,2,0,0,1-1.88,1.33ZM623,498.57l16.34,46.34,16.34-46.34-16.34-22.2Zm0,0"
        transform="translate(-593 -471)" />
</svg>