<svg id="Layer_1" data-name="Layer 1" xmlns="http://www.w3.org/2000/svg" viewBox="0 0 79.17 82.17">
    <defs>
        <style>
            .cls-1,
            .cls-2 {
                fill: none;
                stroke: #fff;
                stroke-miterlimit: 10;
                stroke-width: 2.5px;
            }

            .cls-1 {
                stroke-linecap: round;
            }

            .cls-3 {
                fill: #fff;
            }
        </style>
    </defs>
    <title>ic-service-cross</title>
    <path class="cls-1" d="M662.19,507.38a13.84,13.84,0,0,1,13.31-10h30.84a13.83,13.83,0,0,1,13.83,13.83V545a13.83,13.83,0,0,1-8.45,12.74"
        transform="translate(-642.25 -496.08)" />
    <path class="cls-1" d="M653.56,515.5a13.84,13.84,0,0,1,13-9.17h30.84a13.83,13.83,0,0,1,13.83,13.83V554a13.83,13.83,0,0,1-8.45,12.74"
        transform="translate(-642.25 -496.08)" />
    <rect class="cls-2" x="1.25" y="19.42" width="58.5" height="61.5" rx="13.83" ry="13.83" />
    <path class="cls-3" d="M655.18,552.13l.68-2.24h2.78l.69,2.24h3.58l-4.09-11.81h-3.13l-4.11,11.81Zm2.07-7.43.78,2.73h-1.6Z"
        transform="translate(-642.25 -496.08)" />
    <path class="cls-3" d="M667.42,548.62h1.69a3.76,3.76,0,0,0,1.62-.35,3.85,3.85,0,0,0,1.25-.93,4.38,4.38,0,0,0,1.09-2.87,4,4,0,0,0-.3-1.51,4.42,4.42,0,0,0-.83-1.33,4.22,4.22,0,0,0-1.27-.94,3.67,3.67,0,0,0-1.63-.37h-5.12v11.81h3.5v-3.52Zm0-5.2h1.4a.72.72,0,0,1,.46.21,1.14,1.14,0,0,1,.23.83,1.28,1.28,0,0,1-.2.84.56.56,0,0,1-.41.21h-1.48v-2.09Z"
        transform="translate(-642.25 -496.08)" />
    <path class="cls-3" d="M678,548.62h1.69a3.76,3.76,0,0,0,1.62-.35,3.85,3.85,0,0,0,1.25-.93,4.38,4.38,0,0,0,1.09-2.87,4,4,0,0,0-.3-1.51,4.42,4.42,0,0,0-.83-1.33,4.22,4.22,0,0,0-1.27-.94,3.67,3.67,0,0,0-1.63-.37h-5.12v11.81H678v-3.52Zm0-5.2h1.4a.72.72,0,0,1,.46.21,1.14,1.14,0,0,1,.23.83,1.28,1.28,0,0,1-.2.84.56.56,0,0,1-.41.21H678v-2.09Z"
        transform="translate(-642.25 -496.08)" />
    <path class="cls-3" d="M690,549a1.16,1.16,0,0,1-.62.11,4.51,4.51,0,0,1-1.28-.19,8.2,8.2,0,0,1-1.15-.43,9.33,9.33,0,0,1-1.16-.62l-.17-.11-1.52,3.09.14.08a8.24,8.24,0,0,0,1.15.56,11.72,11.72,0,0,0,1.28.43,11.39,11.39,0,0,0,1.34.28,9.11,9.11,0,0,0,1.32.1,7,7,0,0,0,1.61-.19,4.41,4.41,0,0,0,1.46-.63,3.3,3.3,0,0,0,1.06-1.18,3.81,3.81,0,0,0,.4-1.82,3.67,3.67,0,0,0-.26-1.44,2.83,2.83,0,0,0-.74-1,4.64,4.64,0,0,0-1.13-.71,11.93,11.93,0,0,0-1.45-.54l-.9-.28a5.06,5.06,0,0,1-.65-.23,1.21,1.21,0,0,1-.37-.23.32.32,0,0,1-.09-.24.27.27,0,0,1,.15-.28,1.3,1.3,0,0,1,.59-.11,3.36,3.36,0,0,1,1,.16,9,9,0,0,1,1,.36,8.69,8.69,0,0,1,1,.51l.16.1,1.53-2.93-.16-.08-.88-.41c-.33-.15-.68-.28-1.06-.41a10.05,10.05,0,0,0-1.17-.31,6.38,6.38,0,0,0-1.26-.12,5.4,5.4,0,0,0-1.68.26,4.42,4.42,0,0,0-1.42.77,3.63,3.63,0,0,0-1,1.27,4,4,0,0,0-.36,1.76,3.56,3.56,0,0,0,.18,1.17,2.61,2.61,0,0,0,.56.93,3.73,3.73,0,0,0,.95.71,8.6,8.6,0,0,0,1.33.57c.34.12.68.22,1,.31s.57.17.8.25a1.69,1.69,0,0,1,.5.27.34.34,0,0,1,.14.27A.24.24,0,0,1,690,549Z"
        transform="translate(-642.25 -496.08)" />
</svg>