<svg id="Layer_1" data-name="Layer 1" xmlns="http://www.w3.org/2000/svg" viewBox="0 0 233.69 237.43"><defs><style>.cls-1{fill:none;stroke-width:6.59px;}.cls-1,.cls-2,.cls-3{stroke:#0053a9;}.cls-1,.cls-2{stroke-miterlimit:10;}.cls-2,.cls-3{fill:#fff;stroke-width:7.14px;}.cls-2{stroke-dasharray:12;}.cls-3{stroke-linecap:round;stroke-linejoin:round;}.cls-4{fill:#0053a9;}</style></defs><title>ic-system</title><path class="cls-1" d="M1157.08,649.5A111.76,111.76,0,1,1,1021,729.9" transform="translate(-1014.16 -642.38)"/><path class="cls-2" d="M1021,729.9a111.75,111.75,0,0,1,136.07-80.4" transform="translate(-1014.16 -642.38)"/><path class="cls-3" d="M1182.79,717.7l-10.05-10-9.87,4.84a60.47,60.47,0,0,0-8.29-4.77l-.73-11-13.7-3.66-6.12,9.13.05,0c-1.61-.14-3.23-.22-4.84-.2s-3.24.07-4.85.2l.06,0-6.12-9.13-13.71,3.66-.73,11a57.94,57.94,0,0,0-8.28,4.76l-9.87-4.85-10,10,4.85,9.87a60.74,60.74,0,0,0-4.78,8.3l-11,.72-3.68,13.71,9.13,6.12c-.1,1.58-.18,3.2-.17,4.78s.07,3.25.2,4.85l0-.05-9.13,6.12,3.67,13.7,11,.74a61.73,61.73,0,0,0,4.79,8.29l-4.85,9.87,10,10,9.87-4.85a61.15,61.15,0,0,0,8.28,4.78l.74,11,13.71,3.68,6.11-9.13c1.59.1,3.2.18,4.8.16s3.23-.06,4.83-.18l6.07,9.15,13.72-3.67.73-11a63.1,63.1,0,0,0,8.28-4.81l9.87,4.85,10.05-10-4.86-9.88a59.66,59.66,0,0,0,4.78-8.29l11-.73,3.67-13.71-9.13-6.12,0,.05c.12-1.61.22-3.22.19-4.85s-.07-3.2-.17-4.78l9.13-6.12-3.67-13.71-11-.74a58,58,0,0,0-4.77-8.28Z" transform="translate(-1014.16 -642.38)"/><polygon class="cls-4" points="188.77 211.52 207.78 192.5 146.24 130.97 127.23 149.99 188.77 211.52"/><path class="cls-4" d="M1119.11,729.15l23.53,23.52L1138,770l-17.29,4.63-23.53-23.52a33.63,33.63,0,1,0,21.92-21.92Z" transform="translate(-1014.16 -642.38)"/><path class="cls-4" d="M1208.13,840.1a23.16,23.16,0,1,0,33-.27A23.33,23.33,0,0,0,1208.13,840.1Zm32.4,9.73-2.5,6.64,2.5,6.64-6.46,2.93-2.93,6.45-6.63-2.5-6.64,2.49-2.94-6.45-6.45-2.93,2.5-6.64-2.5-6.64,6.45-2.92,2.94-6.45,6.64,2.49,6.63-2.49,2.93,6.45Z" transform="translate(-1014.16 -642.38)"/></svg>