<svg xmlns="http://www.w3.org/2000/svg" xmlns:xlink="http://www.w3.org/1999/xlink" preserveAspectRatio="xMidYMid" width="44" height="31.97" viewBox="0 0 44 31.97">
  <defs>
    <style>
      .cls-1 {
        fill: #fff;
        fill-rule: evenodd;
      }
    </style>
  </defs>
  <path d="M44.000,3.968 L44.000,17.354 C44.000,17.354 41.149,17.918 40.562,17.993 C39.977,18.067 38.137,18.664 36.804,17.375 C34.748,15.396 27.442,8.095 27.442,8.095 C27.442,8.095 26.183,6.852 24.161,7.926 C22.304,8.909 19.552,10.351 18.403,10.912 C16.230,12.074 14.429,10.230 14.429,8.825 C14.429,7.736 15.105,6.996 16.072,6.452 C18.693,4.855 24.218,1.739 26.519,0.511 C27.917,-0.237 28.925,-0.302 30.845,1.324 C33.210,3.323 35.314,5.145 35.314,5.145 C35.314,5.145 36.001,5.721 37.096,5.489 C39.784,4.918 44.000,3.968 44.000,3.968 ZM14.923,26.648 C15.277,25.735 15.159,24.713 14.481,24.013 C13.871,23.386 12.981,23.221 12.133,23.416 C12.370,22.570 12.239,21.670 11.626,21.035 C11.015,20.410 10.127,20.241 9.279,20.439 C9.514,19.594 9.383,18.693 8.770,18.061 C7.810,17.071 6.150,17.113 5.059,18.158 C3.974,19.205 3.279,21.101 4.247,22.217 C5.214,23.327 6.325,22.651 7.172,22.457 C6.936,23.302 6.230,24.087 7.100,25.192 C7.968,26.298 9.178,25.627 10.025,25.436 C9.789,26.276 9.114,27.141 9.950,28.166 C10.793,29.194 12.175,28.645 13.088,28.361 C12.735,29.271 11.982,30.252 12.950,31.351 C13.917,32.458 16.152,31.946 17.243,30.899 C18.332,29.853 18.436,28.195 17.479,27.202 C16.817,26.520 15.832,26.362 14.923,26.648 ZM34.840,19.685 C26.949,11.755 30.661,15.487 26.414,11.210 C26.414,11.210 25.138,9.933 23.456,10.674 C22.276,11.195 20.756,11.904 19.612,12.445 C18.355,13.107 17.450,13.312 17.025,13.309 C14.596,13.293 12.624,11.330 12.624,8.892 C12.624,7.308 13.460,5.931 14.707,5.149 C16.460,3.929 20.496,1.772 20.496,1.772 C20.496,1.772 19.267,0.206 16.573,0.206 C13.881,0.206 8.256,3.910 8.256,3.910 C8.256,3.910 6.660,4.937 4.385,4.012 L-0.000,2.478 L-0.000,17.794 C-0.000,17.794 1.252,18.158 2.377,18.620 C2.631,17.891 3.041,17.219 3.610,16.664 C5.476,14.877 8.570,14.859 10.268,16.616 C10.779,17.150 11.136,17.787 11.318,18.491 C12.003,18.704 12.623,19.080 13.120,19.596 C13.633,20.126 13.989,20.767 14.173,21.468 C14.856,21.680 15.475,22.058 15.975,22.574 C16.538,23.157 16.912,23.861 17.088,24.624 C17.802,24.834 18.447,25.222 18.967,25.757 C19.988,26.810 20.350,28.240 20.131,29.618 C20.133,29.618 20.136,29.618 20.137,29.621 C20.154,29.643 20.770,30.333 21.154,30.722 C21.906,31.478 23.134,31.478 23.889,30.722 C24.639,29.965 24.642,28.733 23.889,27.973 C23.862,27.946 21.175,25.121 21.391,24.902 C21.606,24.685 25.029,28.264 25.093,28.330 C25.844,29.086 27.072,29.086 27.827,28.330 C28.580,27.573 28.578,26.342 27.827,25.583 C27.790,25.547 27.635,25.400 27.578,25.340 C27.578,25.340 24.184,22.301 24.442,22.042 C24.704,21.781 28.920,25.735 28.927,25.735 C29.685,26.421 30.852,26.415 31.581,25.683 C32.291,24.970 32.306,23.842 31.677,23.082 C31.664,23.041 28.464,19.681 28.714,19.429 C28.967,19.172 32.133,22.449 32.140,22.455 C32.890,23.210 34.119,23.210 34.873,22.455 C35.625,21.701 35.625,20.467 34.873,19.705 C34.863,19.698 34.850,19.691 34.840,19.685 Z" class="cls-1"/>
</svg>
