<svg id="Layer_1" data-name="Layer 1" xmlns="http://www.w3.org/2000/svg" viewBox="0 0 60.96 69.88">
    <title>ic-service-open-source</title>
    <path fill="#b700d8" d="M813.29,520.76a31.37,31.37,0,0,1,.46,6.76c0,3,.14,13.15.48,14.53a7,7,0,0,0,1.89,3.5,8,8,0,0,0,3.43,2,21.42,21.42,0,0,0,5.9.63h1.5v-6.82a12.36,12.36,0,0,1-4-.38,2.93,2.93,0,0,1-1.37-1.14,5.42,5.42,0,0,1-.44-2.59c0-.87-.07-10.83-.24-14a21.11,21.11,0,0,0-.72-5,8.94,8.94,0,0,0-1.65-3.14,10.07,10.07,0,0,0-2.73-2.25,12.41,12.41,0,0,0,2.83-2.37,8.91,8.91,0,0,0,1.5-2.85,17.46,17.46,0,0,0,.75-4.57c.17-3.31.27-13,.27-14.17a5.44,5.44,0,0,1,.41-2.46,2.59,2.59,0,0,1,1.33-1.09,13.43,13.43,0,0,1,4-.37v-6.77h-1.5a21.4,21.4,0,0,0-5.46.51,9.45,9.45,0,0,0-3.89,2.08,7.08,7.08,0,0,0-1.84,3.51c-.34,1.45-.51,11.38-.51,15.06a30.71,30.71,0,0,1-.24,4.74,8.08,8.08,0,0,1-1,3,4.67,4.67,0,0,1-1.81,1.71,9,9,0,0,1-3.12.63v6.79a6.74,6.74,0,0,1,3.87,1.13,5.88,5.88,0,0,1,1.89,3.24Zm0,0"
        transform="translate(-807.53 -478.33)" />
    <path fill="#b700d8" d="M833.3,534l1.52,3.29a11.47,11.47,0,0,0,4.23-2.49,8,8,0,0,0,2.25-3.58,19.34,19.34,0,0,0,.61-5.46v-5.71h-8v8h3.84a5.63,5.63,0,0,1-4.47,6Zm0,0"
        transform="translate(-807.53 -478.33)" />
    <rect fill="#b700d8" x="26.4" y="19.56" width="7.98" height="7.98" />
    <path fill="#b700d8" d="M856,547.68A9.45,9.45,0,0,0,860,545.6a6.81,6.81,0,0,0,1.81-3.5c.33-1.48.51-12,.51-15.64a29.21,29.21,0,0,1,.24-4.71,7.93,7.93,0,0,1,1.06-3,4.38,4.38,0,0,1,1.79-1.71,8.21,8.21,0,0,1,3.12-.63h0v-6.79a6.91,6.91,0,0,1-3.87-1.14,6.1,6.1,0,0,1-1.91-3.24,32.34,32.34,0,0,1-.43-6.77c0-3-.15-12.57-.48-13.94a7.52,7.52,0,0,0-1.89-3.53,8,8,0,0,0-3.43-2,22.82,22.82,0,0,0-5.87-.61h-1.52v6.77a13.88,13.88,0,0,1,4.13.39,2.33,2.33,0,0,1,1.28,1.08,7.68,7.68,0,0,1,.39,2.83c.09,4.52.27,14.82.46,16.15a11.6,11.6,0,0,0,1.81,4.76A12,12,0,0,0,860.2,513a9.15,9.15,0,0,0-2.66,2.17,8.88,8.88,0,0,0-1.64,3,17,17,0,0,0-.77,4.71c-.15,3.27-.25,13.42-.25,14.58a5.25,5.25,0,0,1-.46,2.46A2.82,2.82,0,0,1,853,541a13.77,13.77,0,0,1-4,.36v6.82h1.52a20.92,20.92,0,0,0,5.44-.51Zm0,0"
        transform="translate(-807.53 -478.33)" />
</svg>