<svg id="Layer_1" data-name="Layer 1" xmlns="http://www.w3.org/2000/svg" viewBox="0 0 57.34 57.34">
    <defs>
        <style>
            .cls-1 {
                stroke: #58cf81;
                stroke-miterlimit: 10;
                fill: #58cf81;
            }
        </style>
    </defs>
    <title>ic-service-innovate</title>
    <rect class="cls-1" x="27.73" y="0.5" width="1.88" height="5.63" />
    <rect class="cls-1" x="804.02" y="486.08" width="6.64" height="1.88" transform="translate(-866.39 234.99) rotate(-45)"
    />
    <rect class="cls-1" x="766.03" y="483.7" width="1.88" height="6.64" transform="translate(-878.22 206.44) rotate(-45)"
    />
    <path class="cls-1" d="M811.85,504.63a7.5,7.5,0,0,0-8.29-10.44A7.49,7.49,0,0,0,793.48,490a7.5,7.5,0,0,0-12.65,0,7.49,7.49,0,0,0-10.08,4.18,7.5,7.5,0,0,0-8.29,10.44,7.51,7.51,0,0,0,4,13.84h14.41a5.62,5.62,0,0,1-.33,6.1,3.27,3.27,0,0,1,0,4.7,3.28,3.28,0,0,0,2.94,3.25,3.74,3.74,0,0,0,7.27,0,64.31,64.31,0,0,1,2.94-7.95,3.27,3.27,0,0,1,0-4.7,3.25,3.25,0,0,0-.33-1.41h5.07a9.4,9.4,0,0,0,9.34,8.45.94.94,0,0,0,.94-.94v-7.57a7.51,7.51,0,0,0,3.1-13.78Zm-27.8-3.55a3.8,3.8,0,0,1,.19.62l0,.15a3.39,3.39,0,0,1,0,1.33l0,.15a3.74,3.74,0,0,1-.19.62l0,.08c0,.09-.1.18-.15.27,0-.09-.11-.18-.15-.27l0-.08a3.8,3.8,0,0,1-.19-.62l0-.15a3.71,3.71,0,0,1-.07-.66,3.8,3.8,0,0,1,.07-.66l0-.15a3.74,3.74,0,0,1,.19-.62l0-.08c0-.09.1-.18.15-.27,0,.09.11.18.15.27Zm-1.54-1.76a5.49,5.49,0,0,0-.38.64l-.08.16a5.59,5.59,0,0,0-.26.65l0,.06a5.66,5.66,0,0,0-.17.73c0,.06,0,.12,0,.18a5.31,5.31,0,0,0-.06.77,5.59,5.59,0,0,0,1.69,4,.94.94,0,0,0,1.31,0,5.54,5.54,0,0,0,1.63-4.78l0-.18a5.69,5.69,0,0,0-.17-.73l0-.06a5.59,5.59,0,0,0-.26-.65l-.08-.16a5.77,5.77,0,0,0-.38-.64l0,0a3.82,3.82,0,0,1,3.89,0l0,0a5.49,5.49,0,0,0-.38.64l-.08.16a5.59,5.59,0,0,0-.26.65l0,.06a5.66,5.66,0,0,0-.17.73c0,.06,0,.12,0,.18a5.21,5.21,0,0,0-.06.77,5.59,5.59,0,0,0,1.69,4,.94.94,0,0,0,1.31,0,5.54,5.54,0,0,0,1.63-4.78l0-.18a5.69,5.69,0,0,0-.17-.73l0-.06a5.59,5.59,0,0,0-.26-.65l-.08-.16a5.77,5.77,0,0,0-.38-.64l0,0a3.83,3.83,0,0,1,4.57.53h0a3.74,3.74,0,0,1,1.13,2.68v2.31l-8,5.36a.94.94,0,0,0-.42.78v5.63h-3.76V511a.94.94,0,0,0-.42-.78l-8-5.35v-2.32a3.76,3.76,0,0,1,3.76-3.76,3.71,3.71,0,0,1,1.94.55Zm8.12,1.76a3.8,3.8,0,0,1,.19.62l0,.15a3.39,3.39,0,0,1,0,1.33l0,.15a3.74,3.74,0,0,1-.19.62l0,.08c0,.09-.1.18-.15.27,0-.09-.11-.18-.15-.27l0-.08a3.8,3.8,0,0,1-.19-.62l0-.15a3.71,3.71,0,0,1-.07-.66,3.8,3.8,0,0,1,.07-.66l0-.15a3.74,3.74,0,0,1,.19-.62l0-.08c0-.09.1-.18.15-.27,0,.09.11.18.15.27Zm-3.47,32.41a1.87,1.87,0,0,1-1.62-.94h3.23A1.87,1.87,0,0,1,787.16,533.5Zm4.7-4.23a1.41,1.41,0,0,1-1.41,1.41h-6.57a1.41,1.41,0,0,1,0-2.82h6.57A1.41,1.41,0,0,1,791.85,529.27Zm0-4.7a1.41,1.41,0,0,1-1.41,1.41h-6.57a1.41,1.41,0,0,1,0-2.82h6.57A1.41,1.41,0,0,1,791.85,524.58Zm0-4.7a1.41,1.41,0,0,1-1.41,1.41h-6.57a1.41,1.41,0,0,1,0-2.82h6.57A1.41,1.41,0,0,1,791.85,519.88Zm16-3.29a.94.94,0,0,0-.94.94V525a7.53,7.53,0,0,1-6.57-7.45.94.94,0,0,0-.94-.94h-8.45v-5.13l8-5.36a.94.94,0,0,0,.42-.78v-2.82a5.59,5.59,0,0,0-1.69-4l-.66.67.66-.67a22.46,22.46,0,0,1-10.52-1.62,5.58,5.58,0,0,1-6.57,0,5.64,5.64,0,0,0-5.63,5.63v2.82a.94.94,0,0,0,.42.78l8,5.35v5.13H766.5a5.63,5.63,0,0,1-2.38-10.73.94.94,0,0,0,.4-1.34,5.62,5.62,0,0,1,6.57-8.29.94.94,0,0,0,1.21-.67,5.62,5.62,0,0,1,8.42-3.47.94.94,0,0,0,1.34-.4,5.62,5.62,0,0,1,10.2,0,.94.94,0,0,0,1.34.4,5.61,5.61,0,0,1,8.42,3.47.94.94,0,0,0,.46.6.93.93,0,0,0,.75.07,5.62,5.62,0,0,1,6.57,8.29.94.94,0,0,0,.4,1.34,5.63,5.63,0,0,1-2.38,10.73Z"
        transform="translate(-758.48 -478.54)" />
</svg>