<svg id="Layer_1" data-name="Layer 1" xmlns="http://www.w3.org/2000/svg" viewBox="0 0 61.56 61.56">
    <defs>
        <style>
            .cls-1 {
                fill: none;
                stroke: #fff;
                stroke-linecap: square;
                stroke-linejoin: round;
                stroke-width: 2px;
            }
        </style>
    </defs>
    <title>ic-service-system</title>
    <path class="cls-1" d="M499.81,523.68a1.94,1.94,0,0,0-1.91-1.47,6.58,6.58,0,0,1-4.5-11.44,1.66,1.66,0,0,0,.18-2.25,29.47,29.47,0,0,0-4.72-4.76,1.66,1.66,0,0,0-2.26.18,6.87,6.87,0,0,1-7.43,1.67,6.62,6.62,0,0,1-4-6.47,1.65,1.65,0,0,0-1.46-1.74,29.71,29.71,0,0,0-6.7,0,1.66,1.66,0,0,0-1.47,1.7,6.63,6.63,0,0,1-4.08,6.35,6.89,6.89,0,0,1-7.37-1.68,1.66,1.66,0,0,0-2.25-.19,29.59,29.59,0,0,0-4.82,4.76,1.66,1.66,0,0,0,.18,2.26,6.6,6.6,0,0,1,1.67,7.43,6.88,6.88,0,0,1-6.48,4,1.62,1.62,0,0,0-1.72,1.46,29.89,29.89,0,0,0,0,6.77,2,2,0,0,0,2,1.47,6.53,6.53,0,0,1,6.13,4.08,6.63,6.63,0,0,1-1.67,7.37,1.65,1.65,0,0,0-.18,2.24,29.55,29.55,0,0,0,4.71,4.77,1.66,1.66,0,0,0,2.27-.18,6.86,6.86,0,0,1,7.42-1.67,6.61,6.61,0,0,1,4,6.46,1.65,1.65,0,0,0,1.46,1.74,29.79,29.79,0,0,0,6.7,0,1.66,1.66,0,0,0,1.47-1.71,6.62,6.62,0,0,1,4.08-6.35,6.88,6.88,0,0,1,7.38,1.68,1.66,1.66,0,0,0,2.25.19,29.64,29.64,0,0,0,4.82-4.76,1.65,1.65,0,0,0-.18-2.26,6.6,6.6,0,0,1-1.67-7.43,6.67,6.67,0,0,1,6.09-4h.37a1.66,1.66,0,0,0,1.74-1.46,29.71,29.71,0,0,0,0-6.77Zm-29.59,20.47A17.17,17.17,0,1,1,485,535.79l-5.54-5.54A10.53,10.53,0,0,0,466.95,516a1.19,1.19,0,0,0-.82.83,1.17,1.17,0,0,0,.33,1.14l5,5a.77.77,0,0,1,.11.55v.08a23.86,23.86,0,0,1-.57,3.63l-.08.08-.08.08a23.27,23.27,0,0,1-3.69.57h0l-.06,0H467a.8.8,0,0,1-.57-.24l-4.86-4.83a1.21,1.21,0,0,0-.87-.39,1.18,1.18,0,0,0-1.11.9,10.53,10.53,0,0,0,14.27,12.45l5.62,5.62a17.08,17.08,0,0,1-9.24,2.7Zm0,0"
        transform="translate(-439.44 -496.21)" />
</svg>