<svg id="Layer_1" data-name="Layer 1" xmlns="http://www.w3.org/2000/svg" viewBox="0 0 36.15 60.31">
    <defs>
        <style>
            .cls-1 {
                fill: none;
                stroke: #faa426;
                stroke-linecap: round;
                stroke-linejoin: round;
                stroke-width: 3.24px;
            }
        </style>
    </defs>
    <title>ic-service-deploy</title>
    <path class="cls-1" d="M592,517.85c2.51-3.78,4.66-8.51,4.66-13.66,0-12.33-12.36-26.35-12.36-26.35s-12.36,14-12.36,26.35c0,5.15,2.15,9.88,4.66,13.66Z"
        transform="translate(-566.79 -476.22)" />
    <circle class="cls-1" cx="17.51" cy="23.84" r="4.48" />
    <line class="cls-1" x1="17.51" y1="37.28" x2="17.51" y2="50.79" />
    <line class="cls-1" x1="7.96" y1="50.79" x2="7.96" y2="58.69" />
    <line class="cls-1" x1="26.79" y1="50.79" x2="26.79" y2="58.69" />
    <path class="cls-1" d="M597.79,508.19a5.79,5.79,0,0,1,3.53,5.32V523" transform="translate(-566.79 -476.22)" />
    <path class="cls-1" d="M571.94,508.19a5.79,5.79,0,0,0-3.53,5.32V523" transform="translate(-566.79 -476.22)" />
</svg>