<svg id="Layer_1" data-name="Layer 1" xmlns="http://www.w3.org/2000/svg" viewBox="0 0 496 496">
    <title>ic-service-web-design</title>
    <path fill="#0dbe04" d="M504,8H8V408H184v24a72,72,0,0,0,144,0V408H504ZM488,24V72H24V24ZM312,376H288V256h24ZM272,256V376H240V256Zm-60.69-16L256,195.31,300.69,240ZM200,256h24V376H200ZM312,392v16H200V392ZM256,172.69l-72,72V296H56V120H456V296H328V244.69ZM256,488a56.06,56.06,0,0,1-56-56v-8H312v8A56.06,56.06,0,0,1,256,488Zm72-96V312H472V104H40V312H184v80H24V88H488V392Z"
        transform="translate(-8 -8)" />
    <rect fill="#0dbe04" x="32" y="32" width="16" height="16" />
    <rect fill="#0dbe04" x="64" y="32" width="16" height="16" />
    <rect fill="#0dbe04" x="96" y="32" width="16" height="16" />
    <rect fill="#0dbe04" x="240" y="128" width="16" height="24" />
    <rect fill="#0dbe04" x="198" y="149.4" width="16" height="24" transform="translate(-61.1 116.63) rotate(-30)" />
    <rect fill="#0dbe04" x="161.37" y="186.04" width="16" height="24" transform="translate(-94.82 237.7) rotate(-60)" />
    <rect fill="#0dbe04" x="136" y="232" width="24" height="16" />
    <rect fill="#0dbe04" x="336" y="232" width="24" height="16" />
    <rect fill="#0dbe04" x="330.64" y="189.99" width="24" height="16" transform="translate(-61.09 189.8) rotate(-29.99)" />
    <rect fill="#0dbe04" x="293.96" y="153.4" width="24" height="16" transform="translate(5.23 337.71) rotate(-60.01)" />
</svg>