<svg id="Layer_1" data-name="Layer 1" xmlns="http://www.w3.org/2000/svg" viewBox="0 0 374.64 546.87"><defs><style>.cls-1{fill:none;stroke:#cc06e3;stroke-miterlimit:10;stroke-width:17px;}</style></defs><title>ic-service-mobile-design</title><path class="cls-1" d="M909.84,56.42V444.48a24.6,24.6,0,0,1-24.6,24.6H645a24.6,24.6,0,0,1-24.6-24.6V42.6A24.6,24.6,0,0,1,645,18H885.24" transform="translate(-611.85 69.29)"/><path class="cls-1" d="M736.34,255.64a61.74,61.74,0,1,1,56.82.37" transform="translate(-611.85 69.29)"/><polygon class="cls-1" points="153.24 275.15 75.36 410.04 231.12 410.04 153.24 275.15"/><path class="cls-1" d="M844.44,143.15l-23.66,10.6a7.54,7.54,0,0,1-10.57-7.82l3.23-25.72a7.54,7.54,0,0,1,1.42-3.55L944-57.74a7.54,7.54,0,0,1,10.55-1.57l20.43,15.12a7.54,7.54,0,0,1,1.57,10.55L847.42,140.75A7.54,7.54,0,0,1,844.44,143.15Z" transform="translate(-611.85 69.29)"/><line class="cls-1" x1="308.03" y1="36.66" x2="340.58" y2="60.75"/><line class="cls-1" x1="291.65" y1="70.25" x2="324.2" y2="94.34"/><line class="cls-1" x1="8.5" y1="466.37" x2="297.99" y2="466.37"/><line class="cls-1" x1="8.5" y1="125.29" x2="245.15" y2="125.29"/><circle class="cls-1" cx="153.24" cy="502.37" r="16.87"/></svg>