<svg id="Layer_1" data-name="Layer 1" xmlns="http://www.w3.org/2000/svg" viewBox="0 0 91.38 106.39">
    <defs>
        <style>
            .cls-1 {
                fill: none;
                stroke: #f05b28;
                stroke-linecap: round;
                stroke-miterlimit: 10;
                stroke-width: 3px;
            }
        </style>
    </defs>
    <title>ic-service-technical</title>
    <path class="cls-1" d="M1250.61,501.28a21.93,21.93,0,0,1-14.78,30.57" transform="translate(-1189.52 -487.11)"
    />
    <path class="cls-1" d="M1207,503c-2.36,0-3.32,1.93-3.32,4.3v3.47c0,2.36,1,4.3,3.32,4.3h2.32a40,40,0,0,1-.47-4.51,21.89,21.89,0,0,1,21.92-21.92"
        transform="translate(-1189.52 -487.11)" />
    <path class="cls-1" d="M1252.63,516.17h1.61c1.65,0,3-1.93,3-4.3v-3.47c0-2.36-1.35-4.3-3-4.3" transform="translate(-1189.52 -487.11)"
    />
    <rect class="cls-1" x="36.07" y="42.65" width="10.3" height="4.65" rx="2.33" ry="2.33" />
    <path class="cls-1" d="M1255.49,556a19.6,19.6,0,0,0-14.09-10.49c-.71,5.29-5.23,5.8-10.71,5.8s-10-.52-10.71-5.8A19.6,19.6,0,0,0,1205.89,556l-13.94,27.76h41.42"
        transform="translate(-1189.52 -487.11)" />
    <rect class="cls-1" x="54.72" y="75.44" width="35.16" height="21.24" />
    <line class="cls-1" x1="54.72" y1="104.89" x2="89.88" y2="104.89" />
    <path class="cls-1" d="M1210.86,501.28s20.1,5.32,30.1-6.4" transform="translate(-1189.52 -487.11)" />
</svg>