<svg id="Layer_1" data-name="Layer 1" xmlns="http://www.w3.org/2000/svg" viewBox="0 0 392.32 297.92">
    <title>ic-service-no-bug</title>
    <path fill="#f05b28" d="M737.64,552.6h87.84a9.84,9.84,0,1,0,0-19.68H737.64v-24h20.24a34.62,34.62,0,0,0,34.56-34.56V438.6a9.84,9.84,0,1,0-19.68,0v35.76a15,15,0,0,1-15,15H737.48a37.79,37.79,0,0,0-37.6-35.76H578.44a37.68,37.68,0,0,0-37.6,35.76H520.52a15,15,0,0,1-15-15V438.6a9.84,9.84,0,0,0-19.68,0v35.76a34.62,34.62,0,0,0,34.56,34.56h20.24v24H452.84a9.84,9.84,0,0,0,0,19.68h87.84v16.48c0,2.48.16,4.88.32,7.28H520.44a34.62,34.62,0,0,0-34.56,34.56v35.76a9.84,9.84,0,1,0,19.68,0V610.92a15,15,0,0,1,15-15h24.24a91.89,91.89,0,0,0,87.68,64.88h13.44A91.9,91.9,0,0,0,733.56,596H757.8a15,15,0,0,1,15,15v35.76a9.84,9.84,0,1,0,19.68,0V610.92a34.62,34.62,0,0,0-34.56-34.56H737.32c.16-2.4.32-4.8.32-7.28ZM560.28,569.16V491.48a18.2,18.2,0,0,1,18.16-18.16h50.88V641.16a72.22,72.22,0,0,1-69-72ZM649,641.08V473.32h50.88A18.2,18.2,0,0,1,718,491.48v77.68a72.1,72.1,0,0,1-69,71.92Zm0,0"
        transform="translate(-443 -362.92)" />
    <path fill="#f05b28" d="M576.68,425.4a9.84,9.84,0,1,0,19.68,0,42.88,42.88,0,0,1,85.76,0,9.84,9.84,0,1,0,19.68,0,62.56,62.56,0,0,0-125.12,0Zm0,0"
        transform="translate(-443 -362.92)" />
</svg>