<svg id="Layer_1" data-name="Layer 1" xmlns="http://www.w3.org/2000/svg" viewBox="0 0 113.42 63.07">
    <defs>
        <style>
            .cls-1 {
                fill: none;
                stroke: #f05b28;
                stroke-miterlimit: 10;
                stroke-width: 2px;
            }
        </style>
    </defs>
    <title>ic-service-ios</title>
    <path class="cls-1" d="M608.82,562.11a11.37,11.37,0,0,1,7.46-3.85,11.24,11.24,0,0,1-2.64,8.12,9.38,9.38,0,0,1-7.51,3.6,10.68,10.68,0,0,1,2.69-7.87Zm14.5,44.7c-2.11,3.1-4.3,6.18-7.76,6.24s-4.48-2-8.36-2-5.1,2-8.3,2.08-5.87-3.35-8-6.44c-4.35-6.31-7.68-17.85-3.21-25.63a12.38,12.38,0,0,1,10.48-6.38c3.28-.06,6.37,2.21,8.36,2.21s5.76-2.73,9.7-2.33a11.81,11.81,0,0,1,9.26,5,11.53,11.53,0,0,0-5.47,9.69,11.22,11.22,0,0,0,6.8,10.29,28,28,0,0,1-3.51,7.24Zm0,0"
        transform="translate(-584.56 -555.82)" />
    <path class="cls-1" d="M669.08,606h4.6m-4.05,0h13.24a2.17,2.17,0,0,0,2.3-2.3v-23H657.59v23a2.17,2.17,0,0,0,2.3,2.3h9.74"
        transform="translate(-584.56 -555.82)" />
    <path class="cls-1" d="M693.54,603.74a3.53,3.53,0,0,0,3.44-3.45V584.2a3.45,3.45,0,0,0-6.89,0v16.09a3.53,3.53,0,0,0,3.45,3.45Zm0,0"
        transform="translate(-584.56 -555.82)" />
    <path class="cls-1" d="M649.22,603.74a3.53,3.53,0,0,0,3.45-3.45V584.2a3.45,3.45,0,0,0-6.89,0v16.09a3.53,3.53,0,0,0,3.44,3.45Zm0,0"
        transform="translate(-584.56 -555.82)" />
    <path class="cls-1" d="M682.41,558.17a1.1,1.1,0,0,0-1.6,0l-3.09,3.08-.14.14a13.62,13.62,0,0,0-6.16-1.38h-.07a13.62,13.62,0,0,0-6.16,1.38l-.14-.14L662,558.17a1.13,1.13,0,1,0-1.6,1.6l3,3a12.45,12.45,0,0,0-2.59,2.33,13.5,13.5,0,0,0-3.13,8v.09c0,.21,0,.41,0,.62h27.58c0-.21,0-.42,0-.62v-.09a13.5,13.5,0,0,0-3.13-8,12.43,12.43,0,0,0-2.59-2.33l3-3a1.1,1.1,0,0,0,0-1.6Z"
        transform="translate(-584.56 -555.82)" />
    <path fill="#f05b28" d="M665.63,569.77a1.72,1.72,0,1,1,1.72-1.72,1.72,1.72,0,0,1-1.72,1.72Z" transform="translate(-584.56 -555.82)"
    />
    <path fill="#f05b28" d="M677.13,569.77a1.72,1.72,0,1,1,1.72-1.72,1.72,1.72,0,0,1-1.72,1.72Z" transform="translate(-584.56 -555.82)"
    />
    <path class="cls-1" d="M677.13,569.77" transform="translate(-584.56 -555.82)" />
    <line class="cls-1" x1="50.55" x2="50.55" y2="63.07" />
    <path class="cls-1" d="M673.68,606v8a3.53,3.53,0,0,0,3.44,3.44h0a3.53,3.53,0,0,0,3.45-3.44v-8" transform="translate(-584.56 -555.82)"
    />
    <path class="cls-1" d="M662.19,606v8a3.45,3.45,0,0,0,6.89,0v-8" transform="translate(-584.56 -555.82)" />
    <path class="cls-1" d="M677.12,617.53" transform="translate(-584.56 -555.82)" />
</svg>