<svg id="Layer_1" data-name="Layer 1" xmlns="http://www.w3.org/2000/svg" viewBox="0 0 208.67 234.9">
    <title>ic-service-tailored-support</title>
    <path fill="#05cd39" d="M1059.65,536.1a5,5,0,0,0-5,5v62.32H1013.2V516.83h46.45a5,5,0,0,0,0-10h-51.47a5,5,0,0,0-5,5v2.54l-32-32a17.1,17.1,0,0,0-18.05-3.91,53.08,53.08,0,0,0-11.4-84.93,5,5,0,0,0-7.42,4.41v44.68h-36V397.95a5,5,0,0,0-7.42-4.41,53.08,53.08,0,0,0-8.79,87.28V493.9h-9.07A17.09,17.09,0,0,0,856,511v.25a17,17,0,0,0,5,12.05,17,17,0,0,0-5,12.05v.25a17,17,0,0,0,5,12.05,17,17,0,0,0-5,12.05v.24A17,17,0,0,0,861,572,17,17,0,0,0,856,584v.25a17.09,17.09,0,0,0,17.07,17.07H883A34,34,0,0,0,916,627.83h.59a34,34,0,0,0,33.08-26.51h40.07a5,5,0,1,0,0-10H950.54V549.87a5,5,0,0,0-10,0v44.06a23.9,23.9,0,0,1-23.87,23.87H916a23.92,23.92,0,0,1-22.7-16.47h7.9a17.09,17.09,0,0,0,17.07-17.07V584a17,17,0,0,0-5-12.05,17,17,0,0,0,5-12.05v-.24a17,17,0,0,0-5-12.05,17,17,0,0,0,5-12.05v-.25a17,17,0,0,0-5-12.05,17,17,0,0,0,5-12.05V511a17.09,17.09,0,0,0-17.07-17.07h-9.07V478.42a5,5,0,0,0-2-4,43,43,0,0,1-1.89-67v40.18a5,5,0,0,0,5,5h46a5,5,0,0,0,5-5V407.47a43,43,0,0,1-1.89,67,5,5,0,0,0-2,4v10.53l-13.37,13.37a17.07,17.07,0,0,0,0,24.14l.17.17a17.09,17.09,0,0,0,24.14,0l10-10a5,5,0,0,0-7.1-7.1l-10,10a7,7,0,0,1-9.94,0l-.17-.17a7,7,0,0,1,0-9.94l19.92-19.92a7,7,0,0,1,9.94,0h0l39.06,39.06v79.91a5,5,0,0,0,5,5h51.47a5,5,0,0,0,5-5V541.12a5,5,0,0,0-5-5Zm-151.37-.78v.24a7,7,0,0,1-7,7H873.07a7,7,0,0,1-7-7v-.24a7,7,0,0,1,7-7h28.18a7,7,0,0,1,7,7Zm0,24.35v.24a7,7,0,0,1-7,7H873.07a7,7,0,0,1-7-7v-.24a7,7,0,0,1,7-7h28.18a7,7,0,0,1,7,7Zm0,24.59a7,7,0,0,1-7,7H873.07a7,7,0,0,1-7-7V584a7,7,0,0,1,7-7h28.18a7,7,0,0,1,7,7Zm0-73.29v.25a7,7,0,0,1-7,7H873.07a7,7,0,0,1-7-7V511a7,7,0,0,1,7-7h28.18a7,7,0,0,1,7,7Zm0,0"
        transform="translate(-856 -392.93)" />
</svg>