<svg id="Layer_1" data-name="Layer 1" xmlns="http://www.w3.org/2000/svg" viewBox="0 0 512 511.99"><defs><style>.cls-1{fill:#ccc;}.cls-2{fill:#bbb;}.cls-3{fill:#333;}.cls-4{fill:#ff6000;}.cls-5{fill:#666;}</style></defs><title>ic-service-web-1</title><rect class="cls-1" x="177.52" y="252.01" width="187.14" height="8"/><polygon class="cls-1" points="364.66 441.46 284.02 441.46 284.02 70.55 364.66 70.55 364.66 78.55 292.02 78.55 292.02 433.46 364.66 433.46 364.66 441.46"/><path class="cls-2" d="M1813.73,186.73h0A58.27,58.27,0,0,0,1755.46,245h0a58.26,58.26,0,0,0,58.26,58.26h0A58.25,58.25,0,0,0,1872,245h0A58.27,58.27,0,0,0,1813.73,186.73Z" transform="translate(-1360 11)"/><path class="cls-3" d="M1813.73-11h0a58.27,58.27,0,0,0-58.27,58.26h0a58.26,58.26,0,0,0,58.26,58.26h0A58.26,58.26,0,0,0,1872,47.26h0A58.24,58.24,0,0,0,1813.73-11Z" transform="translate(-1360 11)"/><path class="cls-4" d="M1813.73,384.46h0a58.27,58.27,0,0,0-58.27,58.26h0A58.26,58.26,0,0,0,1813.72,501h0A58.26,58.26,0,0,0,1872,442.74h0A58.27,58.27,0,0,0,1813.73,384.46Z" transform="translate(-1360 11)"/><path class="cls-4" d="M1466,193.57A51.43,51.43,0,1,0,1517.41,245,51.43,51.43,0,0,0,1466,193.57Zm0,82.48a31,31,0,1,1,31-31A31.05,31.05,0,0,1,1466,276Z" transform="translate(-1360 11)"/><path class="cls-5" d="M1571.94,260.87V229.1l-23.52-2.35a83.79,83.79,0,0,0-11.25-27.1l15-18.31-22.46-22.46-18.3,15a84.17,84.17,0,0,0-27.12-11.29l-2.35-23.47H1450l-2.35,23.47a83.78,83.78,0,0,0-27.13,11.29l-18.3-15-22.46,22.46,15,18.31a84.1,84.1,0,0,0-11.26,27.1L1360,229.11v31.77l23.51,2.35a83.78,83.78,0,0,0,11.26,27.11l-15,18.31,22.46,22.46,18.3-15a83.73,83.73,0,0,0,27.14,11.29l2.35,23.47h31.91l2.35-23.47a83.93,83.93,0,0,0,27.13-11.29l18.3,15,22.46-22.46-15-18.32a83.84,83.84,0,0,0,11.24-27.1Zm-106,35.55A51.43,51.43,0,1,1,1517.4,245,51.43,51.43,0,0,1,1466,296.42Z" transform="translate(-1360 11)"/></svg>