<svg id="Layer_1" data-name="Layer 1" xmlns="http://www.w3.org/2000/svg" viewBox="0 0 362.5 514"><defs><style>.cls-1{stroke:#f05b28; fill: #f05b28; stroke-miterlimit:10;stroke-width:2px;}</style></defs><title>ic-service-prototyping</title><path class="cls-1" d="M1505.39,179.67a26,26,0,0,0,26-26V-23.25a26,26,0,0,0-26-26h-88.47a26,26,0,0,0-26,26V30.41a8.29,8.29,0,0,0-6.42,14.13l12.38,12.38h-85.58V-23.25a26,26,0,0,0-26-26h-88.47a26,26,0,0,0-26,26V153.68a26,26,0,0,0,26,26h35.94v54.19h-35.94a26,26,0,0,0-26,26V436.77a26,26,0,0,0,26,26h88.47a26,26,0,0,0,26-26V259.84a26,26,0,0,0-26-26h-35.94V179.67h35.94a26,26,0,0,0,26-26V73.51h85.58l-12.38,12.38a8.29,8.29,0,0,0,5.87,14.16l.55,0v53.66a26,26,0,0,0,26,26h35.94v54.19h-35.94a26,26,0,0,0-26,26V436.77a26,26,0,0,0,26,26h88.47a26,26,0,0,0,26-26V259.84a26,26,0,0,0-26-26h-35.94V179.67Zm-220.06,70.77a9.41,9.41,0,0,1,9.4,9.4V436.77a9.41,9.41,0,0,1-9.4,9.4h-88.47a9.41,9.41,0,0,1-9.4-9.4V259.84a9.41,9.41,0,0,1,9.4-9.4h35.94V284l-12.38-12.38a8.29,8.29,0,1,0-11.73,11.73l26.54,26.54,0,0q.28.27.58.52l.29.21.37.27.35.21.35.21.36.17.37.17.36.13.4.14.37.09.42.1.43.07.37.05c.27,0,.55,0,.82,0s.55,0,.82,0l.37-.05.43-.07.42-.1.37-.09.41-.14.36-.13.37-.17.36-.17.35-.21.35-.21.37-.27.29-.21q.3-.25.58-.52l0,0,26.54-26.54a8.29,8.29,0,0,0-11.73-11.73L1249.39,284V250.44Zm-88.47-87.36a9.41,9.41,0,0,1-9.4-9.4V-23.25a9.41,9.41,0,0,1,9.4-9.4h88.47a9.41,9.41,0,0,1,9.4,9.4V56.92h-29a26,26,0,1,0-32.92,32.92v73.24Zm44.23-88.47a9.4,9.4,0,1,1,9.4-9.4A9.41,9.41,0,0,1,1241.1,74.61Zm53.63,79.07a9.41,9.41,0,0,1-9.4,9.4h-35.94V89.84a26.1,26.1,0,0,0,16.33-16.33h29Zm210.66,96.76a9.41,9.41,0,0,1,9.4,9.4V436.77a9.41,9.41,0,0,1-9.4,9.4h-88.47a9.41,9.41,0,0,1-9.4-9.4V259.84a9.41,9.41,0,0,1,9.4-9.4h35.94V284l-12.38-12.38a8.29,8.29,0,1,0-11.73,11.73l26.54,26.54,0,0q.28.27.58.52l.29.21.37.27.35.21.35.21.36.17.37.17.36.13.4.14.37.09.42.1.43.07.37.05c.27,0,.55,0,.82,0s.55,0,.82,0l.37-.05.43-.07.42-.1.37-.09.41-.14.36-.13.37-.17.36-.17.35-.21.35-.21.37-.27.29-.21q.3-.25.58-.52l0,0,26.54-26.54a8.29,8.29,0,1,0-11.73-11.73L1469.46,284V250.44Zm-88.47-87.36a9.41,9.41,0,0,1-9.4-9.4V86.34l15.26-15.26a8.29,8.29,0,0,0,0-11.73l-15.26-15.26V-23.25a9.41,9.41,0,0,1,9.4-9.4h88.47a9.41,9.41,0,0,1,9.4,9.4V153.68a9.41,9.41,0,0,1-9.4,9.4h-35.94V89.84a26,26,0,1,0-16.59,0v73.24Zm44.23-88.47a9.4,9.4,0,1,1,9.4-9.4A9.41,9.41,0,0,1,1461.16,74.61Z" transform="translate(-1169.88 50.24)"/><path class="cls-1" d="M1461.16,322.32a26,26,0,1,0,26,26A26,26,0,0,0,1461.16,322.32Zm0,35.39a9.4,9.4,0,1,1,9.4-9.4A9.41,9.41,0,0,1,1461.16,357.71Z" transform="translate(-1169.88 50.24)"/><path class="cls-1" d="M1241.1,322.32a26,26,0,1,0,26,26A26,26,0,0,0,1241.1,322.32Zm0,35.39a9.4,9.4,0,1,1,9.4-9.4A9.41,9.41,0,0,1,1241.1,357.71Z" transform="translate(-1169.88 50.24)"/></svg>