<svg xmlns="http://www.w3.org/2000/svg" xmlns:xlink="http://www.w3.org/1999/xlink" preserveAspectRatio="xMidYMid" width="41" height="25" viewBox="0 0 41 25">
  <defs>
    <style>
      .cls-1 {
        fill: #f15b29;
        fill-rule: evenodd;
      }
    </style>
  </defs>
  <path d="M36.535,11.510 C37.491,10.736 38.115,9.574 38.115,8.260 C38.115,5.935 36.202,4.042 33.851,4.042 C31.499,4.042 29.586,5.935 29.586,8.260 C29.586,9.574 30.210,10.736 31.166,11.510 C29.685,12.107 28.453,13.182 27.662,14.540 C26.896,12.631 25.384,11.094 23.477,10.292 C25.050,9.298 26.098,7.560 26.098,5.582 C26.098,2.501 23.562,-0.007 20.447,-0.007 C17.331,-0.007 14.795,2.501 14.795,5.582 C14.795,7.560 15.843,9.298 17.415,10.291 C15.545,11.079 14.050,12.572 13.271,14.430 C12.478,13.124 11.274,12.090 9.833,11.510 C10.789,10.736 11.413,9.574 11.413,8.260 C11.413,5.935 9.500,4.042 7.149,4.042 C4.797,4.042 2.885,5.935 2.885,8.260 C2.885,9.574 3.508,10.736 4.464,11.510 C1.852,12.562 0.004,15.097 0.004,18.053 L0.004,25.006 L40.995,25.006 L40.995,18.053 C40.995,15.097 39.147,12.562 36.535,11.510 ZM7.041,15.488 L5.399,13.083 C5.950,12.892 6.533,12.768 7.150,12.768 C7.701,12.768 8.222,12.875 8.723,13.028 L7.041,15.488 ZM20.447,14.012 L19.056,11.630 C19.503,11.524 19.967,11.462 20.447,11.462 C20.926,11.462 21.390,11.524 21.837,11.630 L20.447,14.012 ZM33.851,15.488 L32.188,13.056 C32.715,12.884 33.267,12.768 33.851,12.768 C34.434,12.768 34.986,12.884 35.513,13.056 L33.851,15.488 Z" class="cls-1"/>
</svg>
