<svg id="Layer_1" data-name="Layer 1" xmlns="http://www.w3.org/2000/svg" viewBox="0 0 93.26 59.76"><defs><style>.cls-1,.cls-2,.cls-3,.cls-4,.cls-5,.cls-6{fill:none;stroke:#f05b28;stroke-width:4px;}.cls-1{stroke-linecap:square;}.cls-1,.cls-2,.cls-5{stroke-miterlimit:10;}.cls-3,.cls-4{stroke-linejoin:round;}.cls-4,.cls-5,.cls-6{stroke-linecap:round;}.cls-6{stroke-linejoin:bevel;}</style></defs><title>ic-ux-ui</title><polyline class="cls-1" points="65.96 57.76 2 57.76 2 2 67.72 2 67.72 12.38"/><line class="cls-2" x1="1.56" y1="12.38" x2="68.15" y2="12.38"/><line class="cls-3" x1="12.1" y1="24.27" x2="52.57" y2="24.27"/><line class="cls-3" x1="12.1" y1="35.8" x2="47.3" y2="35.8"/><line class="cls-3" x1="12.1" y1="47.33" x2="47.3" y2="47.33"/><polygon class="cls-4" points="67.12 43.43 58.34 35.87 75.48 16.21 84.26 23.77 67.12 43.43"/><polygon class="cls-5" points="90.44 16.59 81.66 9.03 75.48 16.21 75.48 16.21 84.26 23.77 90.44 16.59 90.44 16.59"/><polygon class="cls-6" points="55.28 48.3 67.12 43.43 58.34 35.87 55.28 48.3 67.12 43.43 58.34 35.87 55.28 48.3"/></svg>