<svg id="Layer_1" data-name="Layer 1" xmlns="http://www.w3.org/2000/svg" viewBox="0 0 93.26 59.85">
    <defs>
        <style>
            .cls-1 {
                fill: #f05b28;
            }
        </style>
    </defs>
    <title>ic-ux-ui-active</title>
    <rect class="cls-1" width="69.72" height="10.29" />
    <path class="cls-1" d="M730.27,469a4,4,0,0,1-4.13-.67l-2.7-2.33a4,4,0,0,1-1.27-4l3.06-12.43a4,4,0,0,1,.13-.44,6,6,0,0,1,1.17-2.07l15.23-17.47h-69V475h2V475h67.65v-11l-.24.11Zm-48.1-31.58h40.47v4H682.17Zm35.2,27.06h-35.2v-4h35.2Zm0-11.53h-35.2v-4h35.2Z"
        transform="translate(-672.7 -415.2)" />
    <polygon class="cls-1" points="84.46 26.58 84.47 26.59 85.71 25.15 85.77 25.08 85.77 25.07 93.26 16.38 81.44 6.21 73.98 14.89 73.97 14.89 69.65 19.85 69.65 43.57 84.46 26.58"
    />
    <polygon class="cls-1" points="69.65 19.85 69.65 42.22 70.31 42.81 83.08 28.17 71.33 17.93 69.65 19.85" />
    <polygon class="cls-1" points="85.77 25.08 85.77 25.07 93.26 16.38 81.44 6.21 73.98 14.89 73.97 14.89 73.96 14.91 85.71 25.15 85.77 25.08"
    />
    <polygon class="cls-1" points="69.65 19.85 58.6 32.53 69.65 42.22 69.65 19.85" />
    <polygon class="cls-1" points="53.34 47.83 56.04 50.15 67.33 45.51 56.29 35.83 53.34 47.83" />
</svg>