<svg xmlns="http://www.w3.org/2000/svg" xmlns:xlink="http://www.w3.org/1999/xlink" preserveAspectRatio="xMidYMid" width="41" height="43" viewBox="0 0 41 43">
  <defs>
    <style>
      .cls-1 {
        fill: #fff;
        fill-rule: evenodd;
      }
    </style>
  </defs>
  <path d="M25.370,37.576 L25.370,38.833 C25.370,39.832 24.640,40.664 23.691,40.806 L23.383,41.947 C23.216,42.566 22.662,43.000 22.021,43.000 L18.971,43.000 C18.329,43.000 17.775,42.566 17.608,41.947 L17.309,40.806 C16.351,40.655 15.621,39.832 15.621,38.824 L15.621,37.568 C15.621,36.895 16.157,36.356 16.826,36.356 L24.166,36.356 C24.834,36.364 25.370,36.904 25.370,37.576 ZM31.022,20.642 C31.022,23.500 29.897,26.091 28.069,27.994 C26.680,29.446 25.783,31.294 25.484,33.267 C25.352,34.117 24.623,34.745 23.761,34.745 L17.230,34.745 C16.377,34.745 15.638,34.126 15.516,33.276 C15.208,31.304 14.303,29.428 12.914,27.986 C11.120,26.110 10.004,23.562 9.977,20.757 C9.916,14.864 14.575,10.095 20.430,10.051 C26.275,10.007 31.022,14.767 31.022,20.642 ZM21.687,14.227 C21.687,13.572 21.159,13.032 20.500,13.032 C16.316,13.032 12.905,16.457 12.905,20.677 C12.905,21.332 13.432,21.872 14.091,21.872 C14.742,21.872 15.278,21.340 15.278,20.677 C15.278,17.775 17.625,15.422 20.500,15.422 C21.159,15.422 21.687,14.891 21.687,14.227 ZM20.500,6.574 C21.150,6.574 21.687,6.043 21.687,5.380 L21.687,1.194 C21.687,0.540 21.159,0.000 20.500,0.000 C19.841,0.000 19.313,0.531 19.313,1.194 L19.313,5.380 C19.313,6.043 19.850,6.574 20.500,6.574 ZM6.532,20.633 C6.532,19.979 6.004,19.439 5.345,19.439 L1.187,19.439 C0.536,19.439 0.000,19.969 0.000,20.633 C0.000,21.287 0.527,21.827 1.187,21.827 L5.345,21.827 C6.004,21.827 6.532,21.297 6.532,20.633 ZM39.813,19.439 L35.655,19.439 C35.005,19.439 34.468,19.969 34.468,20.633 C34.468,21.287 34.996,21.827 35.655,21.827 L39.813,21.827 C40.464,21.827 41.000,21.297 41.000,20.633 C41.000,19.979 40.473,19.439 39.813,19.439 ZM8.949,30.578 L6.004,33.542 C5.538,34.011 5.538,34.763 6.004,35.232 C6.233,35.462 6.540,35.577 6.839,35.577 C7.138,35.577 7.446,35.462 7.674,35.232 L10.619,32.267 C11.085,31.799 11.085,31.047 10.619,30.578 C10.162,30.109 9.406,30.109 8.949,30.578 ZM31.216,11.042 C31.515,11.042 31.822,10.927 32.051,10.697 L34.996,7.733 C35.462,7.264 35.462,6.512 34.996,6.043 C34.530,5.574 33.783,5.574 33.317,6.043 L30.372,9.008 C29.906,9.476 29.906,10.228 30.372,10.697 C30.609,10.927 30.908,11.042 31.216,11.042 ZM8.949,10.688 C9.178,10.918 9.485,11.033 9.784,11.033 C10.083,11.033 10.391,10.918 10.619,10.688 C11.085,10.219 11.085,9.468 10.619,8.998 L7.674,6.034 C7.208,5.565 6.461,5.565 5.995,6.034 C5.529,6.504 5.529,7.255 5.995,7.724 L8.949,10.688 ZM32.051,30.578 C31.585,30.109 30.838,30.109 30.372,30.578 C29.906,31.047 29.906,31.799 30.372,32.267 L33.317,35.232 C33.545,35.462 33.853,35.577 34.152,35.577 C34.451,35.577 34.759,35.462 34.987,35.232 C35.453,34.763 35.453,34.011 34.987,33.542 L32.051,30.578 Z" class="cls-1"/>
</svg>
