<svg id="Layer_1" data-name="Layer 1" xmlns="http://www.w3.org/2000/svg" viewBox="0 0 62.33 56">
    <defs>
        <style>
            .cls-1,
            .cls-2 {
                stroke: #f05b28;
                stroke-miterlimit: 10;
                stroke-width: 3px;
            }
            .cls-1,
            .cls-2,
            .cls-3 {
                fill: #f05b28;
            }
        </style>
    </defs>
    <title>ic-web-development-active</title>
    <rect class="cls-2" y="39.08" width="62.33" height="9.58" />
    <rect class="cls-1" x="23.45" y="47.17" width="15.42" height="7.33" />
    <line class="cls-2" x1="17.41" y1="54.5" x2="44.93" y2="54.5" />
    <path class="cls-3" d="M580,416.5v35.92h62.33V416.5Zm26,25.35a1.5,1.5,0,1,1-2.12,2.12l-8.31-8.31,8.31-8.31a1.5,1.5,0,0,1,2.12,2.12l-6.19,6.19Zm8.23-17.16-3.4,22a1.5,1.5,0,0,1-1.48,1.27l-.23,0a1.5,1.5,0,0,1-1.25-1.71l3.4-22a1.5,1.5,0,0,1,3,.46Zm4.13,19.7a1.5,1.5,0,1,1-2.12-2.12l6.19-6.19-6.19-6.19a1.5,1.5,0,1,1,2.12-2.12l8.31,8.31Z"
        transform="translate(-580 -416.5)" />
</svg>