<svg xmlns="http://www.w3.org/2000/svg" viewBox="0 0 97.29 95.34"><defs><style>.cls-1,.cls-3{fill:#fff;}.cls-1,.cls-4{stroke:#8dbf86;stroke-miterlimit:10;}.cls-1{stroke-width:1.9px;}.cls-2{fill:#8dbf86;}.cls-4{fill:none;stroke-width:2px;}</style></defs><title>4</title><g id="Layer_2" data-name="Layer 2"><g id="objects"><g id="_4" data-name="4"><rect class="cls-1" x="0.95" y="0.95" width="95.39" height="93.45" rx="2.71" ry="2.71"/><path class="cls-2" d="M5.13.71h87A4.19,4.19,0,0,1,96.34,4.9V10a0,0,0,0,1,0,0H.95a0,0,0,0,1,0,0V4.9A4.19,4.19,0,0,1,5.13.71Z"/><circle class="cls-3" cx="6.68" cy="5.19" r="2.79"/><circle class="cls-3" cx="16.94" cy="5.19" r="2.79"/><circle class="cls-3" cx="27.2" cy="5.19" r="2.79"/><line class="cls-4" x1="21.53" y1="23.45" x2="75.76" y2="23.45"/><line class="cls-4" x1="21.53" y1="36.41" x2="75.76" y2="36.41"/><line class="cls-4" x1="21.53" y1="49.37" x2="75.76" y2="49.37"/><line class="cls-4" x1="34.08" y1="62.33" x2="75.76" y2="62.33"/><line class="cls-4" x1="34.08" y1="75.28" x2="75.76" y2="75.28"/></g></g></g></svg>