<svg xmlns="http://www.w3.org/2000/svg" viewBox="0 0 94.19 91.22"><defs><style>.cls-1{fill:#c2ddbe;}</style></defs><title>6</title><g id="Layer_2" data-name="Layer 2"><g id="objects"><g id="_6" data-name="6"><circle class="cls-1" cx="40.15" cy="0.98" r="0.98"/><path class="cls-1" d="M53.86,1A1,1,0,1,0,55.49.26l-1-.18A1,1,0,0,0,53.86,1Z"/><path class="cls-1" d="M59.73,2a1,1,0,0,0,.82-.48c-.6-.18-1.19-.35-1.8-.51h0A1,1,0,0,0,59.73,2Z"/><circle class="cls-1" cx="49.94" cy="0.98" r="0.98"/><path class="cls-1" d="M35.25,2a1,1,0,0,0,1-1,1,1,0,0,0-.06-.31c-.63.14-1.25.3-1.87.47A1,1,0,0,0,35.25,2Z"/><circle class="cls-1" cx="45.04" cy="0.98" r="0.98"/><circle class="cls-1" cx="49.94" cy="6.23" r="0.98"/><circle class="cls-1" cx="54.84" cy="6.23" r="0.98"/><circle class="cls-1" cx="35.25" cy="6.23" r="0.98"/><path class="cls-1" d="M68.55,6.23a1,1,0,1,0,1.95,0,1,1,0,0,0-.17-.52l-.8-.46h0A1,1,0,0,0,68.55,6.23Z"/><path class="cls-1" d="M30.36,5.25a1,1,0,1,0,1,1A1,1,0,0,0,30.36,5.25Z"/><circle class="cls-1" cx="25.46" cy="6.23" r="0.98"/><circle class="cls-1" cx="40.15" cy="6.23" r="0.98"/><circle class="cls-1" cx="64.63" cy="6.23" r="0.98"/><circle class="cls-1" cx="59.73" cy="6.23" r="0.98"/><circle class="cls-1" cx="45.04" cy="6.23" r="0.98"/><circle class="cls-1" cx="64.63" cy="11.48" r="0.98"/><circle class="cls-1" cx="25.46" cy="11.48" r="0.98"/><circle class="cls-1" cx="59.73" cy="11.48" r="0.98"/><circle class="cls-1" cx="20.56" cy="11.48" r="0.98"/><ellipse class="cls-1" cx="69.53" cy="11.48" rx="0.97" ry="0.98"/><path class="cls-1" d="M78.34,11.48a1,1,0,0,0,1,1h.07c-.35-.33-.69-.65-1-1Z"/><circle class="cls-1" cx="40.15" cy="11.48" r="0.98"/><circle class="cls-1" cx="45.04" cy="11.48" r="0.98"/><path class="cls-1" d="M15.67,12.46a1,1,0,0,0,.53-1.78c-.47.4-.94.81-1.4,1.23A1,1,0,0,0,15.67,12.46Z"/><circle class="cls-1" cx="35.25" cy="11.48" r="0.98"/><path class="cls-1" d="M54.84,10.5a1,1,0,1,0,1,1A1,1,0,0,0,54.84,10.5Z"/><ellipse class="cls-1" cx="30.35" cy="11.48" rx="0.97" ry="0.98"/><circle class="cls-1" cx="74.42" cy="11.48" r="0.98"/><circle class="cls-1" cx="49.94" cy="11.48" r="0.98"/><circle class="cls-1" cx="35.25" cy="16.73" r="0.98"/><path class="cls-1" d="M30.36,15.75a1,1,0,1,0,1,1A1,1,0,0,0,30.36,15.75Z"/><circle class="cls-1" cx="74.42" cy="16.73" r="0.98"/><circle class="cls-1" cx="59.73" cy="16.73" r="0.98"/><circle class="cls-1" cx="40.15" cy="16.73" r="0.98"/><circle class="cls-1" cx="79.32" cy="16.73" r="0.98"/><circle class="cls-1" cx="45.04" cy="16.73" r="0.98"/><circle class="cls-1" cx="54.84" cy="16.73" r="0.98"/><circle class="cls-1" cx="49.94" cy="16.73" r="0.98"/><path class="cls-1" d="M84.17,17.7c-.3-.38-.59-.76-.9-1.13a.94.94,0,0,0,0,.16A1,1,0,0,0,84.17,17.7Z"/><path class="cls-1" d="M15.67,15.75a1,1,0,1,0,1,1A1,1,0,0,0,15.67,15.75Z"/><path class="cls-1" d="M69.53,17.71a1,1,0,1,0-1-1A1,1,0,0,0,69.53,17.71Z"/><path class="cls-1" d="M10.77,17.71a1,1,0,0,0,1-1A1,1,0,0,0,11,15.8c-.38.44-.76.89-1.13,1.34A1,1,0,0,0,10.77,17.71Z"/><circle class="cls-1" cx="64.63" cy="16.73" r="0.98"/><circle class="cls-1" cx="25.46" cy="16.73" r="0.98"/><circle class="cls-1" cx="20.56" cy="16.73" r="0.98"/><ellipse class="cls-1" cx="15.67" cy="21.98" rx="0.98" ry="0.98"/><path class="cls-1" d="M84.22,21a1,1,0,1,0,1,1A1,1,0,0,0,84.22,21Z"/><circle class="cls-1" cx="49.94" cy="21.98" r="0.98"/><ellipse class="cls-1" cx="54.84" cy="21.98" rx="0.97" ry="0.98"/><path class="cls-1" d="M69.53,21a1,1,0,1,0,1,1A1,1,0,0,0,69.53,21Z"/><circle class="cls-1" cx="40.15" cy="21.98" r="0.98"/><circle class="cls-1" cx="45.04" cy="21.98" r="0.98"/><circle class="cls-1" cx="10.77" cy="21.98" r="0.98"/><path class="cls-1" d="M6.85,22a1,1,0,0,0-.11-.43q-.44.7-.86,1.41A1,1,0,0,0,6.85,22Z"/><circle class="cls-1" cx="35.25" cy="21.98" r="0.98"/><circle class="cls-1" cx="59.73" cy="21.98" r="0.98"/><circle class="cls-1" cx="74.42" cy="21.98" r="0.98"/><ellipse class="cls-1" cx="30.35" cy="21.98" rx="0.97" ry="0.98"/><circle class="cls-1" cx="20.56" cy="21.98" r="0.98"/><circle class="cls-1" cx="25.46" cy="21.98" r="0.98"/><circle class="cls-1" cx="64.63" cy="21.98" r="0.98"/><circle class="cls-1" cx="79.32" cy="21.98" r="0.98"/><circle class="cls-1" cx="84.21" cy="27.23" r="0.98"/><circle class="cls-1" cx="74.42" cy="27.23" r="0.98"/><path class="cls-1" d="M69.53,28.21a1,1,0,1,0-1-1A1,1,0,0,0,69.53,28.21Z"/><circle class="cls-1" cx="59.73" cy="27.23" r="0.98"/><path class="cls-1" d="M88.13,27.23a1,1,0,0,0,1,1,1,1,0,0,0,.94-.77c-.16-.35-.31-.71-.48-1.06a1,1,0,0,0-.46-.13A1,1,0,0,0,88.13,27.23Z"/><circle class="cls-1" cx="64.63" cy="27.23" r="0.98"/><circle class="cls-1" cx="79.32" cy="27.23" r="0.98"/><circle class="cls-1" cx="25.46" cy="27.23" r="0.98"/><circle class="cls-1" cx="35.25" cy="27.23" r="0.98"/><circle class="cls-1" cx="5.87" cy="27.23" r="0.98"/><circle class="cls-1" cx="49.94" cy="27.23" r="0.98"/><circle class="cls-1" cx="10.77" cy="27.23" r="0.98"/><circle class="cls-1" cx="20.56" cy="27.23" r="0.98"/><circle class="cls-1" cx="15.67" cy="27.23" r="0.98"/><circle class="cls-1" cx="30.35" cy="27.23" r="0.98"/><circle class="cls-1" cx="40.15" cy="27.23" r="0.98"/><circle class="cls-1" cx="54.84" cy="27.23" r="0.98"/><circle class="cls-1" cx="45.04" cy="27.23" r="0.98"/><path class="cls-1" d="M69.52,33.46a1,1,0,1,0-1-1A1,1,0,0,0,69.52,33.46Z"/><circle class="cls-1" cx="40.15" cy="32.48" r="0.98"/><circle class="cls-1" cx="10.77" cy="32.48" r="0.98"/><path class="cls-1" d="M2,32.48a1,1,0,0,0-.15-.5q-.23.69-.44,1.39A1,1,0,0,0,2,32.48Z"/><circle class="cls-1" cx="79.32" cy="32.48" r="0.98"/><circle class="cls-1" cx="74.42" cy="32.48" r="0.98"/><path class="cls-1" d="M15.66,33.46a1,1,0,1,0-1-1A1,1,0,0,0,15.66,33.46Z"/><circle class="cls-1" cx="45.04" cy="32.48" r="0.98"/><path class="cls-1" d="M84.22,31.5a1,1,0,1,0,0,2,1,1,0,0,0,0-2Z"/><circle class="cls-1" cx="5.87" cy="32.48" r="0.98"/><circle class="cls-1" cx="54.84" cy="32.48" r="0.98"/><circle class="cls-1" cx="35.25" cy="32.48" r="0.98"/><circle class="cls-1" cx="20.56" cy="32.48" r="0.98"/><circle class="cls-1" cx="64.63" cy="32.48" r="0.98"/><circle class="cls-1" cx="59.73" cy="32.48" r="0.98"/><path class="cls-1" d="M30.35,31.5a1,1,0,1,0,1,1A1,1,0,0,0,30.35,31.5Z"/><circle class="cls-1" cx="25.46" cy="32.48" r="0.98"/><circle class="cls-1" cx="89.11" cy="32.48" r="0.98"/><circle class="cls-1" cx="49.94" cy="32.48" r="0.98"/><circle class="cls-1" cx="79.32" cy="37.73" r="0.98"/><path class="cls-1" d="M84.21,36.75a1,1,0,1,0,1,1A1,1,0,0,0,84.21,36.75Z"/><circle class="cls-1" cx="89.11" cy="37.73" r="0.98"/><path class="cls-1" d="M93.46,38.52c-.08-.45-.15-.89-.24-1.33a.92.92,0,0,0,.24,1.33Z"/><path class="cls-1" d="M1,38.71a1,1,0,1,0,0-2,1,1,0,0,0-.52.17c-.1.45-.18.91-.27,1.37A1,1,0,0,0,1,38.71Z"/><circle class="cls-1" cx="5.87" cy="37.73" r="0.98"/><circle class="cls-1" cx="35.25" cy="37.73" r="0.98"/><path class="cls-1" d="M15.67,38.71a1,1,0,1,0-1-1A1,1,0,0,0,15.67,38.71Z"/><circle class="cls-1" cx="69.53" cy="37.73" r="0.98"/><circle class="cls-1" cx="74.42" cy="37.73" r="0.98"/><circle class="cls-1" cx="59.73" cy="37.73" r="0.98"/><circle class="cls-1" cx="10.77" cy="37.73" r="0.98"/><circle class="cls-1" cx="45.04" cy="37.73" r="0.98"/><circle class="cls-1" cx="40.15" cy="37.73" r="0.98"/><circle class="cls-1" cx="64.63" cy="37.73" r="0.98"/><circle class="cls-1" cx="20.56" cy="37.73" r="0.98"/><circle class="cls-1" cx="49.94" cy="37.73" r="0.98"/><circle class="cls-1" cx="54.84" cy="37.73" r="0.98"/><circle class="cls-1" cx="30.35" cy="37.73" r="0.98"/><circle class="cls-1" cx="25.46" cy="37.73" r="0.98"/><ellipse class="cls-1" cx="59.73" cy="42.98" rx="0.98" ry="0.98"/><circle class="cls-1" cx="54.84" cy="42.98" r="0.97"/><ellipse class="cls-1" cx="25.46" cy="42.98" rx="0.98" ry="0.98"/><path class="cls-1" d="M15.66,42a1,1,0,0,0,0,2,1,1,0,1,0,0-2Z"/><ellipse class="cls-1" cx="45.04" cy="42.98" rx="0.98" ry="0.98"/><circle class="cls-1" cx="30.35" cy="42.98" r="0.97"/><ellipse class="cls-1" cx="20.56" cy="42.98" rx="0.98" ry="0.98"/><ellipse class="cls-1" cx="49.94" cy="42.98" rx="0.98" ry="0.98"/><ellipse class="cls-1" cx="40.15" cy="42.98" rx="0.98" ry="0.98"/><ellipse class="cls-1" cx="35.25" cy="42.98" rx="0.98" ry="0.98"/><ellipse class="cls-1" cx="64.63" cy="42.98" rx="0.98" ry="0.98"/><ellipse class="cls-1" cx="79.32" cy="42.98" rx="0.98" ry="0.98"/><path class="cls-1" d="M84.21,42a1,1,0,1,0,1,1A1,1,0,0,0,84.21,42Z"/><ellipse class="cls-1" cx="5.87" cy="42.98" rx="0.98" ry="0.98"/><ellipse class="cls-1" cx="10.77" cy="42.98" rx="0.98" ry="0.98"/><ellipse class="cls-1" cx="74.42" cy="42.98" rx="0.98" ry="0.98"/><path class="cls-1" d="M93,43a1,1,0,0,0,1,1l.1,0c0-.64-.08-1.29-.15-1.92A1,1,0,0,0,93,43Z"/><ellipse class="cls-1" cx="89.11" cy="42.98" rx="0.98" ry="0.98"/><path class="cls-1" d="M69.53,44a1,1,0,1,0-1-1A1,1,0,0,0,69.53,44Z"/><circle class="cls-1" cx="0.98" cy="42.98" r="0.98"/><path class="cls-1" d="M1,47.25a1,1,0,1,0,1,1A1,1,0,0,0,1,47.25Z"/><path class="cls-1" d="M84.21,47.25a1,1,0,1,0,1,1A1,1,0,0,0,84.21,47.25Z"/><circle class="cls-1" cx="54.84" cy="48.23" r="0.98"/><circle class="cls-1" cx="5.87" cy="48.23" r="0.98"/><circle class="cls-1" cx="35.25" cy="48.23" r="0.98"/><circle class="cls-1" cx="64.63" cy="48.23" r="0.98"/><circle class="cls-1" cx="59.73" cy="48.23" r="0.98"/><circle class="cls-1" cx="10.77" cy="48.23" r="0.98"/><path class="cls-1" d="M69.53,49.21a1,1,0,1,0-1-1A1,1,0,0,0,69.53,49.21Z"/><path class="cls-1" d="M15.67,47.25a1,1,0,1,0,1,1A1,1,0,0,0,15.67,47.25Z"/><circle class="cls-1" cx="45.04" cy="48.23" r="0.98"/><path class="cls-1" d="M94,47.25a1,1,0,1,0,0,2l.14,0c0-.63,0-1.26,0-1.89A.93.93,0,0,0,94,47.25Z"/><path class="cls-1" d="M30.36,47.25a1,1,0,1,0,1,1A1,1,0,0,0,30.36,47.25Z"/><circle class="cls-1" cx="49.94" cy="48.23" r="0.98"/><circle class="cls-1" cx="89.11" cy="48.23" r="0.98"/><circle class="cls-1" cx="79.32" cy="48.23" r="0.98"/><circle class="cls-1" cx="74.42" cy="48.23" r="0.98"/><circle class="cls-1" cx="20.56" cy="48.23" r="0.98"/><circle class="cls-1" cx="40.15" cy="48.23" r="0.98"/><circle class="cls-1" cx="25.46" cy="48.23" r="0.98"/><path class="cls-1" d="M5.87,52.51a1,1,0,1,0,1,1A1,1,0,0,0,5.87,52.51Z"/><path class="cls-1" d="M20.56,52.51a1,1,0,1,0,1,1A1,1,0,0,0,20.56,52.51Z"/><path class="cls-1" d="M45,54.46a1,1,0,1,0-1-1A1,1,0,0,0,45,54.46Z"/><path class="cls-1" d="M40.15,54.46a1,1,0,1,0-1-1A1,1,0,0,0,40.15,54.46Z"/><path class="cls-1" d="M10.77,52.51a1,1,0,1,0,1,1A1,1,0,0,0,10.77,52.51Z"/><path class="cls-1" d="M15.67,52.51a1,1,0,1,0,1,1A1,1,0,0,0,15.67,52.51Z"/><path class="cls-1" d="M1,54.46a1,1,0,1,0,0-2,1,1,0,1,0,0,2Z"/><path class="cls-1" d="M79.32,52.51a1,1,0,1,0,1,1A1,1,0,0,0,79.32,52.51Z"/><path class="cls-1" d="M54.84,54.46a1,1,0,1,0-1-1A1,1,0,0,0,54.84,54.46Z"/><path class="cls-1" d="M59.73,52.51a1,1,0,1,0,1,1A1,1,0,0,0,59.73,52.51Z"/><path class="cls-1" d="M64.63,52.51a1,1,0,1,0,1,1A1,1,0,0,0,64.63,52.51Z"/><path class="cls-1" d="M35.25,52.51a1,1,0,1,0,1,1A1,1,0,0,0,35.25,52.51Z"/><path class="cls-1" d="M49.94,52.51a1,1,0,1,0,1,1A1,1,0,0,0,49.94,52.51Z"/><path class="cls-1" d="M93,53.49a1,1,0,0,0,.58.88c.1-.6.17-1.21.25-1.83A1,1,0,0,0,93,53.49Z"/><path class="cls-1" d="M74.42,52.51a1,1,0,1,0,1,1A1,1,0,0,0,74.42,52.51Z"/><path class="cls-1" d="M89.11,52.51a1,1,0,1,0,1,1A1,1,0,0,0,89.11,52.51Z"/><path class="cls-1" d="M69.53,54.46a1,1,0,1,0-1-1A1,1,0,0,0,69.53,54.46Z"/><path class="cls-1" d="M84.21,52.51a1,1,0,0,0,0,2,1,1,0,1,0,0-2Z"/><path class="cls-1" d="M25.46,52.51a1,1,0,1,0,1,1A1,1,0,0,0,25.46,52.51Z"/><path class="cls-1" d="M30.35,52.51a1,1,0,1,0,1,1A1,1,0,0,0,30.35,52.51Z"/><path class="cls-1" d="M45,59.71a1,1,0,1,0-1-1A1,1,0,0,0,45,59.71Z"/><path class="cls-1" d="M5.87,57.76a1,1,0,1,0,1,1A1,1,0,0,0,5.87,57.76Z"/><path class="cls-1" d="M20.56,57.76a1,1,0,1,0,1,1A1,1,0,0,0,20.56,57.76Z"/><path class="cls-1" d="M89.11,57.76a1,1,0,1,0,1,1A1,1,0,0,0,89.11,57.76Z"/><path class="cls-1" d="M10.77,57.76a1,1,0,1,0,1,1A1,1,0,0,0,10.77,57.76Z"/><path class="cls-1" d="M59.73,57.76a1,1,0,1,0,1,1A1,1,0,0,0,59.73,57.76Z"/><path class="cls-1" d="M64.63,57.76a1,1,0,1,0,1,1A1,1,0,0,0,64.63,57.76Z"/><path class="cls-1" d="M15.67,57.76a1,1,0,1,0,1,1A1,1,0,0,0,15.67,57.76Z"/><path class="cls-1" d="M79.32,57.76a1,1,0,1,0,1,1A1,1,0,0,0,79.32,57.76Z"/><path class="cls-1" d="M2,58.73a1,1,0,0,0-1-1,1,1,0,0,0-.28.05q.22.94.48,1.86A1,1,0,0,0,2,58.73Z"/><path class="cls-1" d="M54.84,57.76a1,1,0,1,0,1,1A1,1,0,0,0,54.84,57.76Z"/><path class="cls-1" d="M30.35,57.76a1,1,0,1,0,1,1A1,1,0,0,0,30.35,57.76Z"/><path class="cls-1" d="M35.25,57.76a1,1,0,1,0,1,1A1,1,0,0,0,35.25,57.76Z"/><path class="cls-1" d="M74.42,57.76a1,1,0,1,0,1,1A1,1,0,0,0,74.42,57.76Z"/><path class="cls-1" d="M25.46,57.76a1,1,0,1,0,1,1A1,1,0,0,0,25.46,57.76Z"/><path class="cls-1" d="M49.94,57.76a1,1,0,1,0,1,1A1,1,0,0,0,49.94,57.76Z"/><path class="cls-1" d="M69.53,59.71a1,1,0,1,0-1-1A1,1,0,0,0,69.53,59.71Z"/><path class="cls-1" d="M84.21,59.71a1,1,0,1,0-1-1A1,1,0,0,0,84.21,59.71Z"/><path class="cls-1" d="M40.15,59.71a1,1,0,1,0-1-1A1,1,0,0,0,40.15,59.71Z"/><path class="cls-1" d="M49.94,63a1,1,0,1,0,1,1A1,1,0,0,0,49.94,63Z"/><path class="cls-1" d="M45,65a1,1,0,1,0-1-1A1,1,0,0,0,45,65Z"/><path class="cls-1" d="M54.84,63a1,1,0,1,0,1,1A1,1,0,0,0,54.84,63Z"/><path class="cls-1" d="M30.35,63a1,1,0,0,0,0,2,1,1,0,1,0,0-2Z"/><path class="cls-1" d="M20.56,63a1,1,0,1,0,1,1A1,1,0,0,0,20.56,63Z"/><path class="cls-1" d="M84.22,63a1,1,0,1,0,1,1A1,1,0,0,0,84.22,63Z"/><path class="cls-1" d="M69.52,63a1,1,0,0,0,0,2,1,1,0,1,0,0-2Z"/><path class="cls-1" d="M64.63,63a1,1,0,1,0,1,1A1,1,0,0,0,64.63,63Z"/><path class="cls-1" d="M89.11,63a1,1,0,1,0,1,1A1,1,0,0,0,89.11,63Z"/><path class="cls-1" d="M25.46,63a1,1,0,1,0,1,1A1,1,0,0,0,25.46,63Z"/><path class="cls-1" d="M59.73,63a1,1,0,1,0,1,1A1,1,0,0,0,59.73,63Z"/><path class="cls-1" d="M10.77,63a1,1,0,1,0,1,1A1,1,0,0,0,10.77,63Z"/><path class="cls-1" d="M5.87,63a1,1,0,1,0,1,1A1,1,0,0,0,5.87,63Z"/><path class="cls-1" d="M35.25,63a1,1,0,1,0,1,1A1,1,0,0,0,35.25,63Z"/><path class="cls-1" d="M79.32,63a1,1,0,1,0,1,1A1,1,0,0,0,79.32,63Z"/><path class="cls-1" d="M15.67,63a1,1,0,1,0,1,1A1,1,0,0,0,15.67,63Z"/><path class="cls-1" d="M40.15,65a1,1,0,1,0-1-1A1,1,0,0,0,40.15,65Z"/><path class="cls-1" d="M74.42,63a1,1,0,1,0,1,1A1,1,0,0,0,74.42,63Z"/><circle class="cls-1" cx="35.25" cy="69.24" r="0.98"/><path class="cls-1" d="M30.36,68.26a1,1,0,1,0,0,2,1,1,0,0,0,0-2Z"/><circle class="cls-1" cx="74.42" cy="69.24" r="0.98"/><circle class="cls-1" cx="25.46" cy="69.24" r="0.98"/><path class="cls-1" d="M69.53,68.26a1,1,0,1,0,1,1A1,1,0,0,0,69.53,68.26Z"/><ellipse class="cls-1" cx="54.84" cy="69.24" rx="0.97" ry="0.98"/><circle class="cls-1" cx="59.73" cy="69.24" r="0.98"/><circle class="cls-1" cx="64.63" cy="69.24" r="0.98"/><circle class="cls-1" cx="49.94" cy="69.24" r="0.98"/><circle class="cls-1" cx="20.56" cy="69.24" r="0.98"/><path class="cls-1" d="M15.67,68.26a1,1,0,1,0,1,1A1,1,0,0,0,15.67,68.26Z"/><path class="cls-1" d="M88.13,69.24a1,1,0,0,0,.17.52c.27-.49.53-1,.79-1.5A1,1,0,0,0,88.13,69.24Z"/><circle class="cls-1" cx="79.32" cy="69.24" r="0.98"/><ellipse class="cls-1" cx="84.21" cy="69.24" rx="0.97" ry="0.98"/><circle class="cls-1" cx="45.04" cy="69.24" r="0.98"/><circle class="cls-1" cx="10.77" cy="69.24" r="0.98"/><circle class="cls-1" cx="40.15" cy="69.24" r="0.98"/><path class="cls-1" d="M6.85,69.24a1,1,0,0,0-1-1,1,1,0,0,0-.94.78c.2.37.41.74.61,1.11a1,1,0,0,0,.33.07A1,1,0,0,0,6.85,69.24Z"/><circle class="cls-1" cx="45.04" cy="74.49" r="0.98"/><circle class="cls-1" cx="30.35" cy="74.49" r="0.98"/><path class="cls-1" d="M15.66,73.51a1,1,0,1,0,1,1A1,1,0,0,0,15.66,73.51Z"/><circle class="cls-1" cx="20.56" cy="74.49" r="0.98"/><circle class="cls-1" cx="10.77" cy="74.49" r="0.98"/><circle class="cls-1" cx="40.15" cy="74.49" r="0.98"/><circle class="cls-1" cx="25.46" cy="74.49" r="0.98"/><circle class="cls-1" cx="74.42" cy="74.49" r="0.98"/><circle class="cls-1" cx="49.94" cy="74.49" r="0.98"/><path class="cls-1" d="M54.84,73.51a1,1,0,1,0,1,1A1,1,0,0,0,54.84,73.51Z"/><path class="cls-1" d="M84.22,73.51a1,1,0,1,0,0,2,.93.93,0,0,0,.48-.15l.44-.61a.94.94,0,0,0,0-.22A1,1,0,0,0,84.22,73.51Z"/><circle class="cls-1" cx="59.73" cy="74.49" r="0.98"/><circle class="cls-1" cx="35.25" cy="74.49" r="0.98"/><path class="cls-1" d="M69.52,73.51a1,1,0,1,0,1,1A1,1,0,0,0,69.52,73.51Z"/><circle class="cls-1" cx="64.63" cy="74.49" r="0.98"/><circle class="cls-1" cx="79.32" cy="74.49" r="0.98"/><circle class="cls-1" cx="45.04" cy="79.74" r="0.98"/><circle class="cls-1" cx="40.15" cy="79.74" r="0.98"/><circle class="cls-1" cx="49.94" cy="79.74" r="0.98"/><circle class="cls-1" cx="54.84" cy="79.74" r="0.98"/><circle class="cls-1" cx="25.46" cy="79.74" r="0.98"/><circle class="cls-1" cx="35.25" cy="79.74" r="0.98"/><path class="cls-1" d="M30.35,78.76a1,1,0,1,0,1,1A1,1,0,0,0,30.35,78.76Z"/><circle class="cls-1" cx="20.56" cy="79.74" r="0.98"/><circle class="cls-1" cx="59.73" cy="79.74" r="0.98"/><circle class="cls-1" cx="74.42" cy="79.74" r="0.98"/><circle class="cls-1" cx="79.32" cy="79.74" r="0.98"/><ellipse class="cls-1" cx="15.67" cy="79.74" rx="0.98" ry="0.98"/><circle class="cls-1" cx="64.63" cy="79.74" r="0.98"/><path class="cls-1" d="M69.53,78.76a1,1,0,1,0,1,1A1,1,0,0,0,69.53,78.76Z"/><circle class="cls-1" cx="45.04" cy="84.99" r="0.98"/><circle class="cls-1" cx="20.56" cy="84.99" r="0.98"/><circle class="cls-1" cx="54.84" cy="84.99" r="0.98"/><circle class="cls-1" cx="49.94" cy="84.99" r="0.98"/><circle class="cls-1" cx="35.25" cy="84.99" r="0.98"/><circle class="cls-1" cx="25.46" cy="84.99" r="0.98"/><path class="cls-1" d="M30.35,84a1,1,0,1,0,1,1A1,1,0,0,0,30.35,84Z"/><circle class="cls-1" cx="64.63" cy="84.99" r="0.98"/><circle class="cls-1" cx="40.15" cy="84.99" r="0.98"/><path class="cls-1" d="M74.42,84a1,1,0,0,0-1,1,1,1,0,0,0,.41.78c.5-.35,1-.7,1.49-1.07A1,1,0,0,0,74.42,84Z"/><circle class="cls-1" cx="59.73" cy="84.99" r="0.98"/><path class="cls-1" d="M69.52,84a1,1,0,1,0,1,1A1,1,0,0,0,69.52,84Z"/><circle class="cls-1" cx="40.15" cy="90.24" r="0.98"/><path class="cls-1" d="M26,89.42a1,1,0,0,0-.19-.1Z"/><circle class="cls-1" cx="45.04" cy="90.24" r="0.98"/><circle class="cls-1" cx="59.73" cy="90.24" r="0.98"/><circle class="cls-1" cx="49.94" cy="90.24" r="0.98"/><path class="cls-1" d="M54.84,89.26a1,1,0,1,0,1,1A1,1,0,0,0,54.84,89.26Z"/><path class="cls-1" d="M64.63,89.26a1,1,0,0,0-1,1A1,1,0,0,0,64,91c.52-.2,1-.41,1.54-.63a.91.91,0,0,0,0-.13A1,1,0,0,0,64.63,89.26Z"/><path class="cls-1" d="M30.35,89.26a1,1,0,1,0,1,1A1,1,0,0,0,30.35,89.26Z"/><circle class="cls-1" cx="35.25" cy="90.24" r="0.98"/></g></g></g></svg>