<svg xmlns="http://www.w3.org/2000/svg" viewBox="0 0 64.67 118.67"><defs><style>.cls-1{fill:#fff;}.cls-1,.cls-2{stroke:#e83d02;stroke-miterlimit:10;stroke-width:2px;}.cls-2{fill:none;}.cls-3{fill:#e83d02;}</style></defs><title>1</title><g id="Layer_2" data-name="Layer 2"><g id="objects"><rect class="cls-1" x="1" y="1" width="62.67" height="116.67" rx="10.22" ry="10.22"/><line class="cls-2" x1="1.25" y1="19.15" x2="53.58" y2="19.15"/><line class="cls-2" x1="10.58" y1="101.49" x2="63.92" y2="101.49"/><line class="cls-2" x1="27.42" y1="109.49" x2="37.25" y2="109.49"/><line class="cls-2" x1="27.42" y1="10.15" x2="37.25" y2="10.15"/><polyline class="cls-2" points="21.49 69.12 11.12 58.75 21.49 48.38"/><polyline class="cls-2" points="43.18 69.12 53.55 58.75 43.18 48.38"/><line class="cls-2" x1="37" y1="49.18" x2="27.08" y2="70.29"/><circle class="cls-3" cx="8.66" cy="27.07" r="1.92"/><circle class="cls-3" cx="16.3" cy="27.07" r="1.92"/><circle class="cls-3" cx="8.66" cy="33.77" r="1.92"/><circle class="cls-3" cx="16.3" cy="33.77" r="1.92"/><circle class="cls-3" cx="8.66" cy="40.46" r="1.92"/><circle class="cls-3" cx="23.94" cy="27.07" r="1.92"/><circle class="cls-3" cx="56" cy="94.22" r="1.92"/><circle class="cls-3" cx="48.37" cy="94.22" r="1.92"/><circle class="cls-3" cx="56" cy="87.52" r="1.92"/><circle class="cls-3" cx="48.37" cy="87.52" r="1.92"/><circle class="cls-3" cx="56" cy="80.83" r="1.92"/><circle class="cls-3" cx="40.73" cy="94.22" r="1.92"/></g></g></svg>