<svg xmlns="http://www.w3.org/2000/svg" viewBox="0 0 33.07 35.24"><defs><style>.cls-1{fill:#e83d02;}</style></defs><title>4</title><g id="Layer_2" data-name="Layer 2"><g id="objects"><path class="cls-1" d="M17.19,0A39.84,39.84,0,0,1,24.5,3.64a22.85,22.85,0,0,1,6.11,5.52,14.33,14.33,0,0,1,1.93,3.73A9.9,9.9,0,0,1,33,17.08a12.64,12.64,0,0,1-3.47,7.42,25.35,25.35,0,0,1-6.43,4.92,45.91,45.91,0,0,1-7.4,3.12A64.83,64.83,0,0,1,0,35.24a64.58,64.58,0,0,0,15.57-3.18,45.31,45.31,0,0,0,7.19-3.3,24.49,24.49,0,0,0,6-4.92,11.52,11.52,0,0,0,3-6.84,10.31,10.31,0,0,0-2.37-6.94,21.26,21.26,0,0,0-5.83-4.94,38,38,0,0,0-7.06-3.25Z"/></g></g></svg>