<svg xmlns="http://www.w3.org/2000/svg" viewBox="0 0 33.07 35.24"><defs><style>.cls-1{fill:#e83d02;}</style></defs><title>6</title><g id="Layer_2" data-name="Layer 2"><g id="objects"><path class="cls-1" d="M15.88,35.24A39.84,39.84,0,0,1,8.57,31.6a22.85,22.85,0,0,1-6.11-5.52A14.33,14.33,0,0,1,.53,22.35a9.9,9.9,0,0,1-.48-4.19,12.64,12.64,0,0,1,3.47-7.42A25.35,25.35,0,0,1,9.94,5.82a45.91,45.91,0,0,1,7.4-3.12A64.83,64.83,0,0,1,33.07,0,64.58,64.58,0,0,0,17.5,3.18a45.29,45.29,0,0,0-7.19,3.3,24.49,24.49,0,0,0-6,4.92,11.52,11.52,0,0,0-3,6.84,10.31,10.31,0,0,0,2.37,6.94A21.26,21.26,0,0,0,9.5,30.11a38,38,0,0,0,7.06,3.25Z"/></g></g></svg>