<svg xmlns="http://www.w3.org/2000/svg" viewBox="0 0 77 76.71"><defs><style>.cls-1{fill:none;}.cls-2{fill:#f5ad94;}</style></defs><title>7</title><g id="Layer_2" data-name="Layer 2"><g id="objects"><circle class="cls-1" cx="1" cy="45.56" r="1"/><circle class="cls-1" cx="1" cy="41.1" r="1"/><path class="cls-1" d="M1,37.65a1,1,0,0,1,0-2,1,1,0,0,1,0,2Z"/><circle class="cls-1" cx="1" cy="32.19" r="1"/><path class="cls-1" d="M1,28.73a1,1,0,1,1,1-1A1,1,0,0,1,1,28.73Z"/><circle class="cls-1" cx="6" cy="54.47" r="1"/><path class="cls-1" d="M6,51a1,1,0,1,1,1-1A1,1,0,0,1,6,51Z"/><circle class="cls-1" cx="6" cy="45.56" r="1"/><circle class="cls-1" cx="6" cy="41.1" r="1"/><path class="cls-1" d="M6,37.65a1,1,0,1,1,1-1A1,1,0,0,1,6,37.65Z"/><circle class="cls-1" cx="6" cy="32.19" r="1"/><path class="cls-1" d="M6,28.73a1,1,0,1,1,1-1A1,1,0,0,1,6,28.73Z"/><path class="cls-1" d="M6,24.28a1,1,0,0,1,0-2,1,1,0,0,1,0,2Z"/><circle class="cls-1" cx="6" cy="18.82" r="1"/><path class="cls-1" d="M11,64.38a1,1,0,1,1,1-1A1,1,0,0,1,11,64.38Z"/><path class="cls-1" d="M11,59.93a1,1,0,1,1,1-1A1,1,0,0,1,11,59.93Z"/><circle class="cls-1" cx="11" cy="54.47" r="1"/><path class="cls-1" d="M11,51a1,1,0,1,1,1-1A1,1,0,0,1,11,51Z"/><circle class="cls-1" cx="11" cy="45.56" r="1"/><path class="cls-1" d="M11,42.1a1,1,0,1,1,1-1A1,1,0,0,1,11,42.1Z"/><path class="cls-1" d="M11,37.65a1,1,0,1,1,1-1A1,1,0,0,1,11,37.65Z"/><circle class="cls-1" cx="11" cy="32.19" r="1"/><path class="cls-1" d="M11,28.73a1,1,0,1,1,1-1A1,1,0,0,1,11,28.73Z"/><path class="cls-1" d="M11,24.28a1,1,0,1,1,1-1A1,1,0,0,1,11,24.28Z"/><circle class="cls-1" cx="11" cy="18.82" r="1"/><path class="cls-1" d="M11,15.37a1,1,0,1,1,1-1A1,1,0,0,1,11,15.37Z"/><circle class="cls-1" cx="16" cy="67.84" r="1"/><circle class="cls-1" cx="16" cy="63.38" r="1"/><path class="cls-1" d="M16,59.93a1,1,0,1,1,1-1A1,1,0,0,1,16,59.93Z"/><circle class="cls-1" cx="16" cy="54.47" r="1"/><path class="cls-1" d="M16,51a1,1,0,1,1,1-1A1,1,0,0,1,16,51Z"/><circle class="cls-1" cx="16" cy="45.56" r="1"/><circle class="cls-1" cx="16" cy="41.1" r="1"/><path class="cls-1" d="M16,37.65a1,1,0,1,1,1-1A1,1,0,0,1,16,37.65Z"/><circle class="cls-1" cx="16" cy="32.19" r="1"/><path class="cls-1" d="M16,28.73a1,1,0,1,1,1-1A1,1,0,0,1,16,28.73Z"/><path class="cls-1" d="M16,24.28a1,1,0,1,1,1-1A1,1,0,0,1,16,24.28Z"/><circle class="cls-1" cx="16" cy="18.82" r="1"/><path class="cls-1" d="M16,15.37a1,1,0,1,1,1-1A1,1,0,0,1,16,15.37Z"/><circle class="cls-1" cx="16" cy="9.91" r="1"/><circle class="cls-1" cx="21" cy="67.84" r="1"/><circle class="cls-1" cx="21" cy="63.38" r="1"/><path class="cls-1" d="M21,59.93a1,1,0,1,1,1-1A1,1,0,0,1,21,59.93Z"/><circle class="cls-1" cx="21" cy="54.47" r="1"/><path class="cls-1" d="M21,51a1,1,0,1,1,1-1A1,1,0,0,1,21,51Z"/><circle class="cls-1" cx="21" cy="45.56" r="1"/><circle class="cls-1" cx="21" cy="41.1" r="1"/><path class="cls-1" d="M21,37.65a1,1,0,1,1,1-1A1,1,0,0,1,21,37.65Z"/><circle class="cls-1" cx="21" cy="32.19" r="1"/><path class="cls-1" d="M21,28.73a1,1,0,1,1,1-1A1,1,0,0,1,21,28.73Z"/><path class="cls-1" d="M21,24.28a1,1,0,1,1,1-1A1,1,0,0,1,21,24.28Z"/><circle class="cls-1" cx="21" cy="18.82" r="1"/><path class="cls-1" d="M21,15.37a1,1,0,1,1,1-1A1,1,0,0,1,21,15.37Z"/><circle class="cls-1" cx="21" cy="9.91" r="1"/><circle class="cls-1" cx="21" cy="5.45" r="1"/><path class="cls-1" d="M26,73.3a1,1,0,1,1,1-1A1,1,0,0,1,26,73.3Z"/><circle class="cls-1" cx="26" cy="67.84" r="1"/><path class="cls-1" d="M26,64.38a1,1,0,1,1,1-1A1,1,0,0,1,26,64.38Z"/><path class="cls-1" d="M26,59.93a1,1,0,1,1,1-1A1,1,0,0,1,26,59.93Z"/><path class="cls-1" d="M26,55.47a1,1,0,1,1,1-1A1,1,0,0,1,26,55.47Z"/><path class="cls-1" d="M26,51a1,1,0,1,1,1-1A1,1,0,0,1,26,51Z"/><circle class="cls-1" cx="26" cy="45.56" r="1"/><circle class="cls-1" cx="26" cy="41.1" r="1"/><path class="cls-1" d="M26,37.65a1,1,0,0,1,0-2,1,1,0,0,1,0,2Z"/><circle class="cls-1" cx="26" cy="32.19" r="1"/><path class="cls-1" d="M26,28.73a1,1,0,1,1,1-1A1,1,0,0,1,26,28.73Z"/><path class="cls-1" d="M26,24.28a1,1,0,1,1,1-1A1,1,0,0,1,26,24.28Z"/><circle class="cls-1" cx="26" cy="18.82" r="1"/><path class="cls-1" d="M26,15.37a1,1,0,1,1,1-1A1,1,0,0,1,26,15.37Z"/><circle class="cls-1" cx="26" cy="9.91" r="1"/><circle class="cls-1" cx="26" cy="5.45" r="1"/><path class="cls-1" d="M26,2a1,1,0,1,1,1-1A1,1,0,0,1,26,2Z"/><path class="cls-1" d="M31,73.3a1,1,0,1,1,1-1A1,1,0,0,1,31,73.3Z"/><circle class="cls-1" cx="31" cy="67.84" r="1"/><circle class="cls-1" cx="31" cy="63.38" r="1"/><circle class="cls-1" cx="31" cy="58.93" r="1"/><circle class="cls-1" cx="31" cy="54.47" r="1"/><path class="cls-1" d="M31,51a1,1,0,1,1,1-1A1,1,0,0,1,31,51Z"/><circle class="cls-1" cx="31" cy="45.56" r="1"/><circle class="cls-1" cx="31" cy="41.1" r="1"/><path class="cls-1" d="M31,37.65a1,1,0,1,1,1-1A1,1,0,0,1,31,37.65Z"/><circle class="cls-1" cx="31" cy="32.19" r="1"/><path class="cls-1" d="M31,28.73a1,1,0,1,1,1-1A1,1,0,0,1,31,28.73Z"/><path class="cls-1" d="M31,24.28a1,1,0,0,1,0-2,1,1,0,0,1,0,2Z"/><circle class="cls-1" cx="31" cy="18.82" r="1"/><path class="cls-1" d="M31,15.37a1,1,0,1,1,1-1A1,1,0,0,1,31,15.37Z"/><path class="cls-1" d="M31,10.91a1,1,0,1,1,1-1A1,1,0,0,1,31,10.91Z"/><circle class="cls-1" cx="31" cy="5.45" r="1"/><path class="cls-1" d="M31,2a1,1,0,1,1,1-1A1,1,0,0,1,31,2Z"/><path class="cls-1" d="M36,73.3a1,1,0,0,1,0-2,1,1,0,0,1,0,2Z"/><path class="cls-1" d="M36,68.84a1,1,0,1,1,1-1A1,1,0,0,1,36,68.84Z"/><circle class="cls-1" cx="36" cy="63.38" r="1"/><circle class="cls-1" cx="36" cy="58.93" r="1"/><circle class="cls-1" cx="36" cy="54.47" r="1"/><path class="cls-1" d="M36,51a1,1,0,1,1,1-1A1,1,0,0,1,36,51Z"/><circle class="cls-1" cx="36" cy="45.56" r="1"/><circle class="cls-1" cx="36" cy="41.1" r="1"/><path class="cls-1" d="M36,37.65a1,1,0,1,1,1-1A1,1,0,0,1,36,37.65Z"/><circle class="cls-1" cx="36" cy="32.19" r="1"/><path class="cls-1" d="M36,28.73a1,1,0,1,1,1-1A1,1,0,0,1,36,28.73Z"/><path class="cls-1" d="M36,24.28a1,1,0,1,1,1-1A1,1,0,0,1,36,24.28Z"/><path class="cls-1" d="M36,19.82a1,1,0,1,1,1-1A1,1,0,0,1,36,19.82Z"/><path class="cls-1" d="M36,15.37a1,1,0,1,1,1-1A1,1,0,0,1,36,15.37Z"/><circle class="cls-1" cx="36" cy="9.91" r="1"/><circle class="cls-1" cx="36" cy="5.45" r="1"/><path class="cls-1" d="M36,2a1,1,0,1,1,1-1A1,1,0,0,1,36,2Z"/><path class="cls-1" d="M41,73.3a1,1,0,0,1,0-2,1,1,0,0,1,0,2Z"/><circle class="cls-1" cx="41" cy="67.84" r="1"/><circle class="cls-1" cx="41" cy="63.38" r="1"/><circle class="cls-1" cx="41" cy="58.93" r="1"/><path class="cls-1" d="M41,55.47a1,1,0,1,1,1-1A1,1,0,0,1,41,55.47Z"/><path class="cls-1" d="M41,51a1,1,0,1,1,1-1A1,1,0,0,1,41,51Z"/><circle class="cls-1" cx="41" cy="45.56" r="1"/><circle class="cls-1" cx="41" cy="41.1" r="1"/><path class="cls-1" d="M41,37.65a1,1,0,1,1,1-1A1,1,0,0,1,41,37.65Z"/><circle class="cls-1" cx="41" cy="32.19" r="1"/><path class="cls-1" d="M41,28.73a1,1,0,1,1,1-1A1,1,0,0,1,41,28.73Z"/><path class="cls-1" d="M41,24.28a1,1,0,0,1,0-2,1,1,0,0,1,0,2Z"/><path class="cls-1" d="M41,19.82a1,1,0,1,1,1-1A1,1,0,0,1,41,19.82Z"/><path class="cls-1" d="M41,15.37a1,1,0,1,1,1-1A1,1,0,0,1,41,15.37Z"/><path class="cls-1" d="M41,10.91a1,1,0,1,1,1-1A1,1,0,0,1,41,10.91Z"/><circle class="cls-1" cx="41" cy="5.45" r="1"/><path class="cls-1" d="M41,2a1,1,0,0,1,0-2,1,1,0,0,1,1,1A1,1,0,0,1,41,2Z"/><path class="cls-1" d="M46,73.3a1,1,0,1,1,1-1A1,1,0,0,1,46,73.3Z"/><path class="cls-1" d="M46,68.84a1,1,0,1,1,1-1A1,1,0,0,1,46,68.84Z"/><path class="cls-1" d="M46,64.38a1,1,0,1,1,1-1A1,1,0,0,1,46,64.38Z"/><circle class="cls-1" cx="46" cy="58.93" r="1"/><circle class="cls-1" cx="46" cy="54.47" r="1"/><path class="cls-1" d="M46,51a1,1,0,1,1,1-1A1,1,0,0,1,46,51Z"/><circle class="cls-1" cx="46" cy="45.56" r="1"/><path class="cls-1" d="M46,42.1a1,1,0,1,1,1-1A1,1,0,0,1,46,42.1Z"/><path class="cls-1" d="M46,37.65a1,1,0,1,1,1-1A1,1,0,0,1,46,37.65Z"/><circle class="cls-1" cx="46" cy="32.19" r="1"/><path class="cls-1" d="M46,28.73a1,1,0,1,1,1-1A1,1,0,0,1,46,28.73Z"/><path class="cls-1" d="M46,24.28a1,1,0,1,1,1-1A1,1,0,0,1,46,24.28Z"/><path class="cls-1" d="M46,19.82a1,1,0,1,1,1-1A1,1,0,0,1,46,19.82Z"/><path class="cls-1" d="M46,15.37a1,1,0,1,1,1-1A1,1,0,0,1,46,15.37Z"/><circle class="cls-1" cx="46" cy="9.91" r="1"/><circle class="cls-1" cx="46" cy="5.45" r="1"/><path class="cls-1" d="M46,2a1,1,0,1,1,1-1A1,1,0,0,1,46,2Z"/><path class="cls-1" d="M51,73.3a1,1,0,1,1,1-1A1,1,0,0,1,51,73.3Z"/><circle class="cls-1" cx="51" cy="67.84" r="1"/><circle class="cls-1" cx="51" cy="63.38" r="1"/><circle class="cls-1" cx="51" cy="58.93" r="1"/><circle class="cls-1" cx="51" cy="54.47" r="1"/><path class="cls-1" d="M51,51a1,1,0,1,1,1-1A1,1,0,0,1,51,51Z"/><circle class="cls-1" cx="51" cy="45.56" r="1"/><circle class="cls-1" cx="51" cy="41.1" r="1"/><path class="cls-1" d="M51,37.65a1,1,0,0,1,0-2,1,1,0,0,1,0,2Z"/><path class="cls-1" d="M51,33.19a1,1,0,1,1,1-1A1,1,0,0,1,51,33.19Z"/><path class="cls-1" d="M51,28.73a1,1,0,1,1,1-1A1,1,0,0,1,51,28.73Z"/><path class="cls-1" d="M51,24.28a1,1,0,1,1,1-1A1,1,0,0,1,51,24.28Z"/><circle class="cls-1" cx="51" cy="18.82" r="1"/><path class="cls-1" d="M51,15.37a1,1,0,1,1,1-1A1,1,0,0,1,51,15.37Z"/><circle class="cls-1" cx="51" cy="9.91" r="1"/><circle class="cls-1" cx="51" cy="5.45" r="1"/><circle class="cls-1" cx="56" cy="67.84" r="1"/><circle class="cls-1" cx="56" cy="63.38" r="1"/><circle class="cls-1" cx="56" cy="58.93" r="1"/><path class="cls-1" d="M56,55.47a1,1,0,1,1,1-1A1,1,0,0,1,56,55.47Z"/><path class="cls-1" d="M56,51a1,1,0,1,1,1-1A1,1,0,0,1,56,51Z"/><circle class="cls-1" cx="56" cy="45.56" r="1"/><circle class="cls-1" cx="56" cy="41.1" r="1"/><path class="cls-1" d="M56,37.65a1,1,0,1,1,1-1A1,1,0,0,1,56,37.65Z"/><path class="cls-1" d="M56,33.19a1,1,0,1,1,1-1A1,1,0,0,1,56,33.19Z"/><path class="cls-1" d="M56,28.73a1,1,0,1,1,1-1A1,1,0,0,1,56,28.73Z"/><path class="cls-1" d="M56,24.28a1,1,0,1,1,1-1A1,1,0,0,1,56,24.28Z"/><circle class="cls-1" cx="56" cy="18.82" r="1"/><path class="cls-1" d="M56,15.37a1,1,0,1,1,1-1A1,1,0,0,1,56,15.37Z"/><circle class="cls-1" cx="56" cy="9.91" r="1"/><path class="cls-1" d="M56,6.45a1,1,0,1,1,1-1A1,1,0,0,1,56,6.45Z"/><circle class="cls-1" cx="61" cy="67.84" r="1"/><circle class="cls-1" cx="61" cy="63.38" r="1"/><circle class="cls-1" cx="61" cy="58.93" r="1"/><circle class="cls-1" cx="61" cy="54.47" r="1"/><path class="cls-1" d="M61,51a1,1,0,1,1,1-1A1,1,0,0,1,61,51Z"/><circle class="cls-1" cx="61" cy="45.56" r="1"/><path class="cls-1" d="M61,42.1a1,1,0,1,1,1-1A1,1,0,0,1,61,42.1Z"/><path class="cls-1" d="M61,37.65a1,1,0,1,1,1-1A1,1,0,0,1,61,37.65Z"/><path class="cls-1" d="M61,33.19a1,1,0,1,1,1-1A1,1,0,0,1,61,33.19Z"/><path class="cls-1" d="M61,28.73a1,1,0,1,1,1-1A1,1,0,0,1,61,28.73Z"/><path class="cls-1" d="M61,24.28a1,1,0,1,1,1-1A1,1,0,0,1,61,24.28Z"/><circle class="cls-1" cx="61" cy="18.82" r="1"/><path class="cls-1" d="M61,15.37a1,1,0,1,1,1-1A1,1,0,0,1,61,15.37Z"/><circle class="cls-1" cx="61" cy="9.91" r="1"/><path class="cls-1" d="M66,64.38a1,1,0,1,1,1-1A1,1,0,0,1,66,64.38Z"/><circle class="cls-1" cx="66" cy="58.93" r="1"/><circle class="cls-1" cx="66" cy="54.47" r="1"/><path class="cls-1" d="M66,51a1,1,0,1,1,1-1A1,1,0,0,1,66,51Z"/><circle class="cls-1" cx="66" cy="45.56" r="1"/><circle class="cls-1" cx="66" cy="41.1" r="1"/><path class="cls-1" d="M66,37.65a1,1,0,0,1,0-2,1,1,0,0,1,0,2Z"/><path class="cls-1" d="M66,33.19a1,1,0,1,1,1-1A1,1,0,0,1,66,33.19Z"/><path class="cls-1" d="M66,28.73a1,1,0,1,1,1-1A1,1,0,0,1,66,28.73Z"/><path class="cls-1" d="M66,24.28a1,1,0,0,1,0-2,1,1,0,0,1,0,2Z"/><circle class="cls-1" cx="66" cy="18.82" r="1"/><path class="cls-1" d="M66,15.37a1,1,0,1,1,1-1A1,1,0,0,1,66,15.37Z"/><path class="cls-1" d="M71,55.47a1,1,0,1,1,1-1A1,1,0,0,1,71,55.47Z"/><path class="cls-1" d="M71,51a1,1,0,1,1,1-1A1,1,0,0,1,71,51Z"/><circle class="cls-1" cx="71" cy="45.56" r="1"/><circle class="cls-1" cx="71" cy="41.1" r="1"/><path class="cls-1" d="M71,37.65a1,1,0,1,1,1-1A1,1,0,0,1,71,37.65Z"/><path class="cls-1" d="M71,33.19a1,1,0,1,1,1-1A1,1,0,0,1,71,33.19Z"/><path class="cls-1" d="M71,28.73a1,1,0,1,1,1-1A1,1,0,0,1,71,28.73Z"/><path class="cls-1" d="M71,24.28a1,1,0,1,1,1-1A1,1,0,0,1,71,24.28Z"/><circle class="cls-1" cx="71" cy="18.82" r="1"/><circle class="cls-1" cx="76" cy="41.1" r="1"/><path class="cls-1" d="M76,37.65a1,1,0,1,1,1-1A1,1,0,0,1,76,37.65Z"/><circle class="cls-1" cx="76" cy="32.19" r="1"/><path class="cls-2" d="M36,0a1,1,0,1,0,1,1A1,1,0,0,0,36,0Z"/><path class="cls-2" d="M21.86,1.49l-1,.48A.94.94,0,0,0,21,2,1,1,0,0,0,21.86,1.49Z"/><path class="cls-2" d="M26,0a1,1,0,1,0,1,1A1,1,0,0,0,26,0Z"/><path class="cls-2" d="M31,0a1,1,0,1,0,1,1A1,1,0,0,0,31,0Z"/><path class="cls-2" d="M50,1a1,1,0,0,0,2,0,1,1,0,0,0-.25-.64L50.82,0A1,1,0,0,0,50,1Z"/><path class="cls-2" d="M41,0a1,1,0,1,0,1,1A1,1,0,0,0,41,0Z"/><path class="cls-2" d="M46,0a1,1,0,1,0,1,1A1,1,0,0,0,46,0Z"/><circle class="cls-2" cx="41" cy="5.45" r="1"/><path class="cls-2" d="M61,6.45a1,1,0,0,0,.89-.56q-.78-.59-1.59-1.15A1,1,0,0,0,61,6.45Z"/><circle class="cls-2" cx="21" cy="5.45" r="1"/><path class="cls-2" d="M16,6.45a1,1,0,0,0,.38-1.92c-.46.31-.92.63-1.37,1A1,1,0,0,0,16,6.45Z"/><circle class="cls-2" cx="26" cy="5.45" r="1"/><circle class="cls-2" cx="36" cy="5.45" r="1"/><circle class="cls-2" cx="31" cy="5.45" r="1"/><path class="cls-2" d="M56,4.45a1,1,0,1,0,1,1A1,1,0,0,0,56,4.45Z"/><circle class="cls-2" cx="51" cy="5.45" r="1"/><circle class="cls-2" cx="46" cy="5.45" r="1"/><circle class="cls-2" cx="21" cy="9.91" r="1"/><circle class="cls-2" cx="36" cy="9.91" r="1"/><circle class="cls-2" cx="51" cy="9.91" r="1"/><path class="cls-2" d="M31,8.91a1,1,0,1,0,1,1A1,1,0,0,0,31,8.91Z"/><circle class="cls-2" cx="56" cy="9.91" r="1"/><circle class="cls-2" cx="26" cy="9.91" r="1"/><circle class="cls-2" cx="16" cy="9.91" r="1"/><circle class="cls-2" cx="61" cy="9.91" r="1"/><path class="cls-2" d="M11,10.91a1,1,0,0,0,0-2l-.11,0c-.29.28-.58.57-.87.86a.93.93,0,0,0,0,.12A1,1,0,0,0,11,10.91Z"/><path class="cls-2" d="M65,9.91a1,1,0,0,0,1,1,1,1,0,0,0,.87-.53Q66.22,9.69,65.55,9A1,1,0,0,0,65,9.91Z"/><path class="cls-2" d="M41,8.91a1,1,0,1,0,1,1A1,1,0,0,0,41,8.91Z"/><circle class="cls-2" cx="46" cy="9.91" r="1"/><path class="cls-2" d="M41,13.36a1,1,0,1,0,1,1A1,1,0,0,0,41,13.36Z"/><path class="cls-2" d="M66,13.36a1,1,0,1,0,1,1A1,1,0,0,0,66,13.36Z"/><path class="cls-2" d="M21,13.36a1,1,0,1,0,1,1A1,1,0,0,0,21,13.36Z"/><path class="cls-2" d="M7,14.37a1,1,0,0,0-.3-.72q-.59.79-1.15,1.6a1,1,0,0,0,.45.12A1,1,0,0,0,7,14.37Z"/><path class="cls-2" d="M56,13.36a1,1,0,1,0,1,1A1,1,0,0,0,56,13.36Z"/><path class="cls-2" d="M70.85,15.34c-.26-.39-.54-.76-.81-1.14a1,1,0,0,0,0,.17A1,1,0,0,0,70.85,15.34Z"/><path class="cls-2" d="M26,13.36a1,1,0,1,0,1,1A1,1,0,0,0,26,13.36Z"/><path class="cls-2" d="M61,13.36a1,1,0,1,0,1,1A1,1,0,0,0,61,13.36Z"/><path class="cls-2" d="M16,13.36a1,1,0,1,0,1,1A1,1,0,0,0,16,13.36Z"/><path class="cls-2" d="M51,13.36a1,1,0,1,0,1,1A1,1,0,0,0,51,13.36Z"/><path class="cls-2" d="M46,13.36a1,1,0,1,0,1,1A1,1,0,0,0,46,13.36Z"/><path class="cls-2" d="M11,13.36a1,1,0,1,0,1,1A1,1,0,0,0,11,13.36Z"/><path class="cls-2" d="M36,13.36a1,1,0,1,0,1,1A1,1,0,0,0,36,13.36Z"/><path class="cls-2" d="M31,13.36a1,1,0,1,0,1,1A1,1,0,0,0,31,13.36Z"/><circle class="cls-2" cx="66" cy="18.82" r="1"/><circle class="cls-2" cx="51" cy="18.82" r="1"/><circle class="cls-2" cx="31" cy="18.82" r="1"/><circle class="cls-2" cx="21" cy="18.82" r="1"/><path class="cls-2" d="M36,17.82a1,1,0,1,0,1,1A1,1,0,0,0,36,17.82Z"/><circle class="cls-2" cx="71" cy="18.82" r="1"/><circle class="cls-2" cx="56" cy="18.82" r="1"/><path class="cls-2" d="M46,17.82a1,1,0,1,0,1,1A1,1,0,0,0,46,17.82Z"/><circle class="cls-2" cx="61" cy="18.82" r="1"/><circle class="cls-2" cx="16" cy="18.82" r="1"/><path class="cls-2" d="M41,17.82a1,1,0,1,0,1,1A1,1,0,0,0,41,17.82Z"/><circle class="cls-2" cx="26" cy="18.82" r="1"/><circle class="cls-2" cx="11" cy="18.82" r="1"/><circle class="cls-2" cx="6" cy="18.82" r="1"/><path class="cls-2" d="M11,22.28a1,1,0,1,0,1,1A1,1,0,0,0,11,22.28Z"/><path class="cls-2" d="M75,23.46a1,1,0,0,0,.14.34Z"/><path class="cls-2" d="M6,22.28a1,1,0,1,0,1,1A1,1,0,0,0,6,22.28Z"/><path class="cls-2" d="M2,23.28a1,1,0,0,0-.34-.74q-.35.86-.66,1.74A1,1,0,0,0,2,23.28Z"/><path class="cls-2" d="M71,22.28a1,1,0,1,0,1,1A1,1,0,0,0,71,22.28Z"/><path class="cls-2" d="M56,22.28a1,1,0,1,0,1,1A1,1,0,0,0,56,22.28Z"/><path class="cls-2" d="M21,22.28a1,1,0,1,0,1,1A1,1,0,0,0,21,22.28Z"/><path class="cls-2" d="M66,22.28a1,1,0,1,0,1,1A1,1,0,0,0,66,22.28Z"/><path class="cls-2" d="M46,22.28a1,1,0,1,0,1,1A1,1,0,0,0,46,22.28Z"/><path class="cls-2" d="M36,22.28a1,1,0,1,0,1,1A1,1,0,0,0,36,22.28Z"/><path class="cls-2" d="M26,22.28a1,1,0,1,0,1,1A1,1,0,0,0,26,22.28Z"/><path class="cls-2" d="M61,22.28a1,1,0,1,0,1,1A1,1,0,0,0,61,22.28Z"/><path class="cls-2" d="M16,22.28a1,1,0,1,0,1,1A1,1,0,0,0,16,22.28Z"/><path class="cls-2" d="M31,22.28a1,1,0,1,0,1,1A1,1,0,0,0,31,22.28Z"/><path class="cls-2" d="M51,22.28a1,1,0,1,0,1,1A1,1,0,0,0,51,22.28Z"/><path class="cls-2" d="M41,22.28a1,1,0,1,0,1,1A1,1,0,0,0,41,22.28Z"/><path class="cls-2" d="M41,26.73a1,1,0,1,0,1,1A1,1,0,0,0,41,26.73Z"/><path class="cls-2" d="M26,26.73a1,1,0,1,0,1,1A1,1,0,0,0,26,26.73Z"/><path class="cls-2" d="M66,26.73a1,1,0,1,0,1,1A1,1,0,0,0,66,26.73Z"/><path class="cls-2" d="M21,26.73a1,1,0,1,0,1,1A1,1,0,0,0,21,26.73Z"/><path class="cls-2" d="M51,26.73a1,1,0,0,0,0,2,1,1,0,0,0,0-2Z"/><path class="cls-2" d="M36,26.73a1,1,0,0,0,0,2,1,1,0,0,0,0-2Z"/><path class="cls-2" d="M75,27.73a1,1,0,0,0,1,1,1,1,0,0,0,.56-.19q-.21-.9-.45-1.79l-.11,0A1,1,0,0,0,75,27.73Z"/><path class="cls-2" d="M71,26.73a1,1,0,0,0,0,2,1,1,0,0,0,0-2Z"/><path class="cls-2" d="M11,26.73a1,1,0,1,0,1,1A1,1,0,0,0,11,26.73Z"/><path class="cls-2" d="M56,26.73a1,1,0,0,0,0,2,1,1,0,0,0,0-2Z"/><path class="cls-2" d="M61,26.73a1,1,0,1,0,1,1A1,1,0,0,0,61,26.73Z"/><path class="cls-2" d="M46,26.73a1,1,0,1,0,1,1A1,1,0,0,0,46,26.73Z"/><path class="cls-2" d="M16,26.73a1,1,0,0,0,0,2,1,1,0,0,0,0-2Z"/><path class="cls-2" d="M1,26.73a1,1,0,1,0,1,1A1,1,0,0,0,1,26.73Z"/><path class="cls-2" d="M31,26.73a1,1,0,1,0,1,1A1,1,0,0,0,31,26.73Z"/><path class="cls-2" d="M6,26.73a1,1,0,1,0,1,1A1,1,0,0,0,6,26.73Z"/><circle class="cls-2" cx="26" cy="32.19" r="1"/><circle class="cls-2" cx="46" cy="32.19" r="1"/><circle class="cls-2" cx="16" cy="32.19" r="1"/><path class="cls-2" d="M66,31.19a1,1,0,1,0,1,1A1,1,0,0,0,66,31.19Z"/><path class="cls-2" d="M51,31.19a1,1,0,1,0,1,1A1,1,0,0,0,51,31.19Z"/><path class="cls-2" d="M71,31.19a1,1,0,1,0,1,1A1,1,0,0,0,71,31.19Z"/><circle class="cls-2" cx="11" cy="32.19" r="1"/><circle class="cls-2" cx="76" cy="32.19" r="1"/><circle class="cls-2" cx="1" cy="32.19" r="1"/><circle class="cls-2" cx="36" cy="32.19" r="1"/><circle class="cls-2" cx="6" cy="32.19" r="1"/><path class="cls-2" d="M56,31.19a1,1,0,1,0,1,1A1,1,0,0,0,56,31.19Z"/><circle class="cls-2" cx="41" cy="32.19" r="1"/><path class="cls-2" d="M61,31.19a1,1,0,1,0,1,1A1,1,0,0,0,61,31.19Z"/><circle class="cls-2" cx="21" cy="32.19" r="1"/><circle class="cls-2" cx="31" cy="32.19" r="1"/><path class="cls-2" d="M66,35.65a1,1,0,1,0,1,1A1,1,0,0,0,66,35.65Z"/><path class="cls-2" d="M76,35.65a1,1,0,1,0,1,1A1,1,0,0,0,76,35.65Z"/><path class="cls-2" d="M46,35.65a1,1,0,1,0,1,1A1,1,0,0,0,46,35.65Z"/><path class="cls-2" d="M71,35.65a1,1,0,1,0,1,1A1,1,0,0,0,71,35.65Z"/><path class="cls-2" d="M51,35.65a1,1,0,1,0,1,1A1,1,0,0,0,51,35.65Z"/><path class="cls-2" d="M56,35.65a1,1,0,1,0,1,1A1,1,0,0,0,56,35.65Z"/><path class="cls-2" d="M41,35.65a1,1,0,1,0,1,1A1,1,0,0,0,41,35.65Z"/><path class="cls-2" d="M36,35.65a1,1,0,1,0,1,1A1,1,0,0,0,36,35.65Z"/><path class="cls-2" d="M61,35.65a1,1,0,1,0,1,1A1,1,0,0,0,61,35.65Z"/><path class="cls-2" d="M31,35.65a1,1,0,1,0,1,1A1,1,0,0,0,31,35.65Z"/><path class="cls-2" d="M1,35.65a1,1,0,1,0,1,1A1,1,0,0,0,1,35.65Z"/><path class="cls-2" d="M21,35.65a1,1,0,1,0,1,1A1,1,0,0,0,21,35.65Z"/><path class="cls-2" d="M6,35.65a1,1,0,1,0,1,1A1,1,0,0,0,6,35.65Z"/><path class="cls-2" d="M11,35.65a1,1,0,1,0,1,1A1,1,0,0,0,11,35.65Z"/><path class="cls-2" d="M16,35.65a1,1,0,1,0,1,1A1,1,0,0,0,16,35.65Z"/><path class="cls-2" d="M26,35.65a1,1,0,1,0,1,1A1,1,0,0,0,26,35.65Z"/><circle class="cls-2" cx="21" cy="41.1" r="1"/><circle class="cls-2" cx="31" cy="41.1" r="1"/><circle class="cls-2" cx="76" cy="41.1" r="1"/><circle class="cls-2" cx="6" cy="41.1" r="1"/><circle class="cls-2" cx="51" cy="41.1" r="1"/><path class="cls-2" d="M11,40.1a1,1,0,1,0,1,1A1,1,0,0,0,11,40.1Z"/><circle class="cls-2" cx="36" cy="41.1" r="1"/><circle class="cls-2" cx="1" cy="41.1" r="1"/><circle class="cls-2" cx="71" cy="41.1" r="1"/><path class="cls-2" d="M61,40.1a1,1,0,1,0,1,1A1,1,0,0,0,61,40.1Z"/><circle class="cls-2" cx="41" cy="41.1" r="1"/><circle class="cls-2" cx="16" cy="41.1" r="1"/><circle class="cls-2" cx="66" cy="41.1" r="1"/><path class="cls-2" d="M46,40.1a1,1,0,1,0,1,1A1,1,0,0,0,46,40.1Z"/><circle class="cls-2" cx="26" cy="41.1" r="1"/><circle class="cls-2" cx="56" cy="41.1" r="1"/><circle class="cls-2" cx="56" cy="45.56" r="1"/><circle class="cls-2" cx="71" cy="45.56" r="1"/><circle class="cls-2" cx="21" cy="45.56" r="1"/><circle class="cls-2" cx="66" cy="45.56" r="1"/><circle class="cls-2" cx="1" cy="45.56" r="1"/><circle class="cls-2" cx="6" cy="45.56" r="1"/><path class="cls-2" d="M76,44.56a1,1,0,0,0,0,2,1,1,0,0,0,.5-.15c.11-.46.22-.93.31-1.4A1,1,0,0,0,76,44.56Z"/><circle class="cls-2" cx="51" cy="45.56" r="1"/><circle class="cls-2" cx="61" cy="45.56" r="1"/><circle class="cls-2" cx="26" cy="45.56" r="1"/><circle class="cls-2" cx="11" cy="45.56" r="1"/><circle class="cls-2" cx="41" cy="45.56" r="1"/><circle class="cls-2" cx="46" cy="45.56" r="1"/><circle class="cls-2" cx="16" cy="45.56" r="1"/><circle class="cls-2" cx="36" cy="45.56" r="1"/><circle class="cls-2" cx="31" cy="45.56" r="1"/><path class="cls-2" d="M46,49a1,1,0,1,0,1,1A1,1,0,0,0,46,49Z"/><path class="cls-2" d="M16,49a1,1,0,1,0,1,1A1,1,0,0,0,16,49Z"/><path class="cls-2" d="M71,49a1,1,0,1,0,1,1A1,1,0,0,0,71,49Z"/><path class="cls-2" d="M11,49a1,1,0,1,0,1,1A1,1,0,0,0,11,49Z"/><path class="cls-2" d="M2,50a1,1,0,0,0-1-1,1,1,0,0,0-.43.11q.29.94.63,1.86A1,1,0,0,0,2,50Z"/><path class="cls-2" d="M21,49a1,1,0,1,0,1,1A1,1,0,0,0,21,49Z"/><path class="cls-2" d="M75,50a1,1,0,0,0,.25.64c.19-.53.37-1.06.54-1.61A1,1,0,0,0,75,50Z"/><path class="cls-2" d="M56,49a1,1,0,1,0,1,1A1,1,0,0,0,56,49Z"/><path class="cls-2" d="M31,49a1,1,0,1,0,1,1A1,1,0,0,0,31,49Z"/><path class="cls-2" d="M66,49a1,1,0,1,0,1,1A1,1,0,0,0,66,49Z"/><path class="cls-2" d="M61,49a1,1,0,1,0,1,1A1,1,0,0,0,61,49Z"/><path class="cls-2" d="M41,49a1,1,0,1,0,1,1A1,1,0,0,0,41,49Z"/><path class="cls-2" d="M6,49a1,1,0,1,0,1,1A1,1,0,0,0,6,49Z"/><path class="cls-2" d="M51,49a1,1,0,1,0,1,1A1,1,0,0,0,51,49Z"/><path class="cls-2" d="M26,49a1,1,0,1,0,1,1A1,1,0,0,0,26,49Z"/><path class="cls-2" d="M36,49a1,1,0,1,0,1,1A1,1,0,0,0,36,49Z"/><path class="cls-2" d="M41,53.47a1,1,0,1,0,1,1A1,1,0,0,0,41,53.47Z"/><path class="cls-2" d="M71,53.47a1,1,0,1,0,1,1A1,1,0,0,0,71,53.47Z"/><circle class="cls-2" cx="61" cy="54.47" r="1"/><circle class="cls-2" cx="21" cy="54.47" r="1"/><circle class="cls-2" cx="11" cy="54.47" r="1"/><circle class="cls-2" cx="6" cy="54.47" r="1"/><circle class="cls-2" cx="36" cy="54.47" r="1"/><path class="cls-2" d="M26,53.47a1,1,0,1,0,1,1A1,1,0,0,0,26,53.47Z"/><circle class="cls-2" cx="51" cy="54.47" r="1"/><path class="cls-2" d="M56,53.47a1,1,0,1,0,1,1A1,1,0,0,0,56,53.47Z"/><circle class="cls-2" cx="31" cy="54.47" r="1"/><circle class="cls-2" cx="46" cy="54.47" r="1"/><circle class="cls-2" cx="16" cy="54.47" r="1"/><circle class="cls-2" cx="66" cy="54.47" r="1"/><path class="cls-2" d="M26,57.93a1,1,0,1,0,1,1A1,1,0,0,0,26,57.93Z"/><circle class="cls-2" cx="61" cy="58.93" r="1"/><circle class="cls-2" cx="36" cy="58.93" r="1"/><circle class="cls-2" cx="51" cy="58.93" r="1"/><path class="cls-2" d="M70,58.93a1,1,0,0,0,.53.87q.56-.8,1.08-1.64a1,1,0,0,0-.61-.23A1,1,0,0,0,70,58.93Z"/><circle class="cls-2" cx="41" cy="58.93" r="1"/><path class="cls-2" d="M21,57.93a1,1,0,1,0,1,1A1,1,0,0,0,21,57.93Z"/><circle class="cls-2" cx="56" cy="58.93" r="1"/><path class="cls-2" d="M7,58.93a1,1,0,0,0-1.95-.26q.4.63.83,1.24l.12,0A1,1,0,0,0,7,58.93Z"/><path class="cls-2" d="M16,57.93a1,1,0,1,0,1,1A1,1,0,0,0,16,57.93Z"/><circle class="cls-2" cx="46" cy="58.93" r="1"/><circle class="cls-2" cx="66" cy="58.93" r="1"/><circle class="cls-2" cx="31" cy="58.93" r="1"/><path class="cls-2" d="M11,57.93a1,1,0,1,0,1,1A1,1,0,0,0,11,57.93Z"/><circle class="cls-2" cx="51" cy="63.38" r="1"/><circle class="cls-2" cx="56" cy="63.38" r="1"/><path class="cls-2" d="M26,62.38a1,1,0,1,0,1,1A1,1,0,0,0,26,62.38Z"/><circle class="cls-2" cx="31" cy="63.38" r="1"/><path class="cls-2" d="M46,62.38a1,1,0,1,0,1,1A1,1,0,0,0,46,62.38Z"/><path class="cls-2" d="M66,62.38a1,1,0,1,0,1,1A1,1,0,0,0,66,62.38Z"/><circle class="cls-2" cx="61" cy="63.38" r="1"/><circle class="cls-2" cx="36" cy="63.38" r="1"/><circle class="cls-2" cx="16" cy="63.38" r="1"/><path class="cls-2" d="M11,62.38a1,1,0,1,0,1,1A1,1,0,0,0,11,62.38Z"/><circle class="cls-2" cx="41" cy="63.38" r="1"/><circle class="cls-2" cx="21" cy="63.38" r="1"/><path class="cls-2" d="M36,66.84a1,1,0,1,0,1,1A1,1,0,0,0,36,66.84Z"/><circle class="cls-2" cx="16" cy="67.84" r="1"/><circle class="cls-2" cx="61" cy="67.84" r="1"/><circle class="cls-2" cx="31" cy="67.84" r="1"/><circle class="cls-2" cx="21" cy="67.84" r="1"/><circle class="cls-2" cx="41" cy="67.84" r="1"/><path class="cls-2" d="M46,66.84a1,1,0,1,0,1,1A1,1,0,0,0,46,66.84Z"/><circle class="cls-2" cx="26" cy="67.84" r="1"/><circle class="cls-2" cx="51" cy="67.84" r="1"/><circle class="cls-2" cx="56" cy="67.84" r="1"/><path class="cls-2" d="M31,71.3a1,1,0,1,0,1,1A1,1,0,0,0,31,71.3Z"/><path class="cls-2" d="M36,71.3a1,1,0,1,0,1,1A1,1,0,0,0,36,71.3Z"/><path class="cls-2" d="M51,71.3a1,1,0,1,0,1,1A1,1,0,0,0,51,71.3Z"/><path class="cls-2" d="M41,71.3a1,1,0,1,0,1,1A1,1,0,0,0,41,71.3Z"/><path class="cls-2" d="M26,71.3a1,1,0,1,0,1,1A1,1,0,0,0,26,71.3Z"/><path class="cls-2" d="M46,71.3a1,1,0,1,0,1,1A1,1,0,0,0,46,71.3Z"/><path class="cls-2" d="M22,72.3a1,1,0,0,0-2,0q.79.41,1.59.79A1,1,0,0,0,22,72.3Z"/><path class="cls-2" d="M56,71.3a1,1,0,0,0-1,1,1,1,0,0,0,.2.57q.88-.42,1.73-.89A1,1,0,0,0,56,71.3Z"/><path class="cls-2" d="M31,75.75a1,1,0,0,0-.59.22c.47.09.95.18,1.42.25A1,1,0,0,0,31,75.75Z"/><path class="cls-2" d="M36,75.75a1,1,0,0,0-1,.85q1,.08,2,.11A1,1,0,0,0,36,75.75Z"/><path class="cls-2" d="M45.27,76.09l1.17-.23a1,1,0,0,0-.43-.11A1,1,0,0,0,45.27,76.09Z"/><path class="cls-2" d="M41,75.75a1,1,0,0,0-1,.94q1,0,1.95-.14A1,1,0,0,0,41,75.75Z"/></g></g></svg>