<svg xmlns="http://www.w3.org/2000/svg" viewBox="0 0 147 101.29"><defs><style>.cls-1{fill:#b8ddf7;}.cls-2{fill:#fff;}.cls-2,.cls-3,.cls-4,.cls-5{stroke:#59afec;stroke-miterlimit:10;}.cls-2,.cls-4,.cls-5{stroke-width:2px;}.cls-3,.cls-5{fill:#59afec;}.cls-3{stroke-width:1.68px;}.cls-4{fill:none;}</style></defs><title>1</title><g id="Layer_2" data-name="Layer 2"><g id="objects"><circle class="cls-1" cx="57.06" cy="93.78" r="7.51"/><circle class="cls-1" cx="110.3" cy="93.78" r="7.51"/><path class="cls-1" d="M117,82.64H49.89L39.09,36H147l-6.47,27.94A24.13,24.13,0,0,1,117,82.64Z"/><path class="cls-2" d="M111.46,76H44.32L33.53,29.33h107.9L135,57.27A24.13,24.13,0,0,1,111.46,76Z"/><circle class="cls-3" cx="51.55" cy="89.78" r="7.51"/><circle class="cls-3" cx="104.79" cy="89.78" r="7.51"/><path class="cls-4" d="M42.46,67.89,30.33,14.19A11.12,11.12,0,0,0,19.48,5.52h-9"/><line class="cls-4" x1="48.16" y1="42.97" x2="61.51" y2="42.97"/><line class="cls-4" x1="54.84" y1="36.29" x2="54.84" y2="49.64"/><line class="cls-4" x1="48.16" y1="61.22" x2="61.51" y2="61.22"/><line class="cls-4" x1="54.84" y1="54.54" x2="54.84" y2="67.89"/><line class="cls-4" x1="66.35" y1="42.97" x2="79.7" y2="42.97"/><line class="cls-4" x1="73.03" y1="36.29" x2="73.03" y2="49.64"/><line class="cls-4" x1="66.35" y1="61.22" x2="79.7" y2="61.22"/><line class="cls-4" x1="73.03" y1="54.54" x2="73.03" y2="67.89"/><line class="cls-4" x1="83.93" y1="42.97" x2="97.28" y2="42.97"/><line class="cls-4" x1="90.61" y1="36.29" x2="90.61" y2="49.64"/><line class="cls-4" x1="83.93" y1="61.22" x2="97.28" y2="61.22"/><line class="cls-4" x1="90.61" y1="54.54" x2="90.61" y2="67.89"/><line class="cls-4" x1="101.52" y1="42.97" x2="114.86" y2="42.97"/><line class="cls-4" x1="108.19" y1="36.29" x2="108.19" y2="49.64"/><line class="cls-4" x1="119" y1="42.97" x2="132.35" y2="42.97"/><line class="cls-4" x1="125.68" y1="36.29" x2="125.68" y2="49.64"/><line class="cls-4" x1="101.52" y1="61.22" x2="114.86" y2="61.22"/><line class="cls-4" x1="108.19" y1="54.54" x2="108.19" y2="67.89"/><rect class="cls-5" x="1" y="1" width="22.14" height="7.45" rx="3.72" ry="3.72"/></g></g></svg>