<svg xmlns="http://www.w3.org/2000/svg" viewBox="0 0 34.76 34.76"><defs><style>.cls-1{fill:#fff;}.cls-1,.cls-2{stroke:#59afec;stroke-miterlimit:10;stroke-width:2px;}.cls-2{fill:none;}</style></defs><title>2</title><g id="Layer_2" data-name="Layer 2"><g id="objects"><path class="cls-1" d="M19.51,1.15A16.44,16.44,0,0,0,17.38,1a16.44,16.44,0,0,0-2.13.15l-1,2.94a13.57,13.57,0,0,0-4,1.65L7.42,4.4a16.45,16.45,0,0,0-3,3l1.34,2.82a13.57,13.57,0,0,0-1.65,4l-2.94,1A16.44,16.44,0,0,0,1,17.38a16.44,16.44,0,0,0,.15,2.13l2.94,1a13.57,13.57,0,0,0,1.65,4L4.4,27.34a16.45,16.45,0,0,0,3,3L10.23,29a13.57,13.57,0,0,0,4,1.65l1,2.94a16.44,16.44,0,0,0,2.13.15,16.44,16.44,0,0,0,2.13-.15l1-2.94a13.57,13.57,0,0,0,4-1.65l2.82,1.34a16.45,16.45,0,0,0,3-3L29,24.53a13.57,13.57,0,0,0,1.65-4l2.94-1a16.44,16.44,0,0,0,.15-2.13,16.44,16.44,0,0,0-.15-2.13l-2.94-1a13.57,13.57,0,0,0-1.65-4l1.34-2.82a16.45,16.45,0,0,0-3-3L24.53,5.74a13.57,13.57,0,0,0-4-1.65Z"/><circle class="cls-2" cx="17.38" cy="17.38" r="6.84"/></g></g></svg>