<svg xmlns="http://www.w3.org/2000/svg" viewBox="0 0 70.96 70.96"><defs><style>.cls-1{fill:#82c9df;}</style></defs><title>4</title><g id="Layer_2" data-name="Layer 2"><g id="objects"><path class="cls-1" d="M6.28,15.26l9-9A35.71,35.71,0,0,0,6.28,15.26Z"/><path class="cls-1" d="M25.79,1.31q-.79.22-1.57.48L1.79,24.22q-.26.78-.48,1.57Z"/><path class="cls-1" d="M32.43.23,32.3.11l-.94.1L.2,31.37c0,.4-.08.8-.12,1.2Z"/><path class="cls-1" d="M38,.23,37.8,0l-.67,0L0,37.13c0,.34,0,.68.07,1Z"/><path class="cls-1" d="M43,.77,42.1.58.58,42.1c.06.3.12.61.18.91Z"/><path class="cls-1" d="M47.34,2l-.81-.28L1.72,46.53c.09.27.18.54.28.81Z"/><path class="cls-1" d="M51.25,3.65l-.73-.35L3.29,50.51l.35.73Z"/><path class="cls-1" d="M54.78,5.67l-.66-.42L5.24,54.12l.42.66Z"/><path class="cls-1" d="M58,8l-.61-.48L7.53,57.39,8,58Z"/><path class="cls-1" d="M60.35,10.13,10.13,60.35l.55.54L60.9,10.67Z"/><path class="cls-1" d="M63.49,13.64,63,13,13,63l.61.48Z"/><path class="cls-1" d="M65.77,16.92l-.42-.66L16.26,65.34l.66.42Z"/><path class="cls-1" d="M67.71,20.54l-.35-.74L19.8,67.36l.74.35Z"/><path class="cls-1" d="M69.27,24.53q-.13-.41-.28-.81L23.72,69l.81.28Z"/><path class="cls-1" d="M70.4,29c-.06-.3-.11-.61-.18-.91L28.06,70.22l.91.18Z"/><path class="cls-1" d="M71,34c0-.34,0-.68-.06-1l-38,38L34,71Z"/><path class="cls-1" d="M70.74,39.74q.07-.6.12-1.21L38.53,70.86l1.21-.12Z"/><path class="cls-1" d="M69.1,46.94q.27-.79.5-1.59L45.35,69.6q.8-.23,1.59-.5Z"/><path class="cls-1" d="M64.36,56.16l-8.2,8.2A35.71,35.71,0,0,0,64.36,56.16Z"/></g></g></svg>