<svg xmlns="http://www.w3.org/2000/svg" viewBox="0 0 112.86 54.64"><defs><style>.cls-1{fill:#e7cadb;}</style></defs><title>2</title><g id="Layer_2" data-name="Layer 2"><g id="objects"><g id="_2" data-name="2"><path class="cls-1" d="M96.54,20.32h-14A16.25,16.25,0,0,0,72.28,24,16.25,16.25,0,0,0,62,20.32H48A16.23,16.23,0,0,0,39.15,23a16.23,16.23,0,0,0-8.87-2.63h-14A16.32,16.32,0,0,0,0,36.64v18H112.86v-18A16.32,16.32,0,0,0,96.54,20.32Z"/><path class="cls-1" d="M89.56,20.85a8.82,8.82,0,0,0,8.8-8.8V8.8a8.8,8.8,0,1,0-17.59,0v3.26A8.82,8.82,0,0,0,89.56,20.85Z"/><path class="cls-1" d="M23,20.85a8.82,8.82,0,0,0,8.8-8.8V8.8a8.8,8.8,0,0,0-17.59,0v3.26A8.82,8.82,0,0,0,23,20.85Z"/><path class="cls-1" d="M56.3,20.85a8.82,8.82,0,0,0,8.8-8.8V8.8a8.8,8.8,0,0,0-17.59,0v3.26A8.82,8.82,0,0,0,56.3,20.85Z"/></g></g></g></svg>