<svg xmlns="http://www.w3.org/2000/svg" viewBox="0 0 151.21 34.32"><defs><style>.cls-1{fill:#c988ae;}</style></defs><title>3</title><g id="Layer_2" data-name="Layer 2"><g id="objects"><g id="_3" data-name="3"><polygon class="cls-1" points="151.21 33.97 151.21 32.82 149.7 34.32 150.85 34.32 151.21 33.97"/><polygon class="cls-1" points="151.21 27.88 151.21 26.73 143.61 34.32 144.76 34.32 151.21 27.88"/><polygon class="cls-1" points="151.21 21.79 151.21 20.64 137.52 34.32 138.67 34.32 151.21 21.79"/><polygon class="cls-1" points="151.21 15.7 151.21 14.54 131.43 34.32 132.58 34.32 151.21 15.7"/><polygon class="cls-1" points="151.21 9.6 151.21 8.45 125.34 34.32 126.49 34.32 151.21 9.6"/><polygon class="cls-1" points="151.21 3.51 151.21 2.36 119.25 34.32 120.4 34.32 151.21 3.51"/><polygon class="cls-1" points="148.63 0 147.48 0 113.16 34.32 114.31 34.32 148.63 0"/><polygon class="cls-1" points="142.54 0 141.38 0 107.07 34.32 108.22 34.32 142.54 0"/><polygon class="cls-1" points="136.44 0 135.29 0 100.98 34.32 102.13 34.32 136.44 0"/><polygon class="cls-1" points="130.35 0 129.2 0 94.89 34.32 96.04 34.32 130.35 0"/><polygon class="cls-1" points="124.26 0 123.11 0 88.8 34.32 89.95 34.32 124.26 0"/><polygon class="cls-1" points="118.17 0 117.02 0 82.7 34.32 83.85 34.32 118.17 0"/><polygon class="cls-1" points="112.08 0 110.93 0 76.61 34.32 77.76 34.32 112.08 0"/><polygon class="cls-1" points="105.99 0 104.84 0 70.52 34.32 71.67 34.32 105.99 0"/><polygon class="cls-1" points="99.9 0 98.75 0 64.43 34.32 65.58 34.32 99.9 0"/><polygon class="cls-1" points="93.81 0 92.66 0 58.34 34.32 59.49 34.32 93.81 0"/><polygon class="cls-1" points="87.72 0 86.57 0 52.25 34.32 53.4 34.32 87.72 0"/><polygon class="cls-1" points="81.63 0 80.48 0 46.16 34.32 47.31 34.32 81.63 0"/><polygon class="cls-1" points="75.54 0 74.39 0 40.07 34.32 41.22 34.32 75.54 0"/><polygon class="cls-1" points="69.44 0 68.29 0 33.98 34.32 35.13 34.32 69.44 0"/><polygon class="cls-1" points="63.35 0 62.2 0 27.89 34.32 29.04 34.32 63.35 0"/><polygon class="cls-1" points="57.26 0 56.11 0 21.79 34.32 22.95 34.32 57.26 0"/><polygon class="cls-1" points="51.17 0 50.02 0 15.7 34.32 16.85 34.32 51.17 0"/><polygon class="cls-1" points="45.08 0 43.93 0 9.61 34.32 10.76 34.32 45.08 0"/><polygon class="cls-1" points="38.99 0 37.84 0 3.52 34.32 4.67 34.32 38.99 0"/><polygon class="cls-1" points="32.9 0 31.75 0 0 31.75 0 32.9 32.9 0"/><polygon class="cls-1" points="26.81 0 25.66 0 0 25.66 0 26.81 26.81 0"/><polygon class="cls-1" points="20.72 0 19.57 0 0 19.57 0 20.72 20.72 0"/><polygon class="cls-1" points="14.63 0 13.48 0 0 13.48 0 14.63 14.63 0"/><polygon class="cls-1" points="8.54 0 7.38 0 0 7.38 0 8.54 8.54 0"/><polygon class="cls-1" points="0 1.29 0 2.44 2.44 0 1.29 0 0 1.29"/></g></g></g></svg>