<svg xmlns="http://www.w3.org/2000/svg" viewBox="0 0 108.14 59.84"><defs><style>.cls-1{fill:#fff;stroke-width:2px;}.cls-1,.cls-2{stroke:#e83d7f;stroke-miterlimit:10;}.cls-2{fill:none;}</style></defs><title>3_1</title><g id="Layer_2" data-name="Layer 2"><g id="objects"><g id="_3" data-name="3"><path class="cls-1" d="M106.93,58.7c.13-1.53.21-3.07.21-4.63s-.08-3.1-.21-4.63L97.06,47a43.26,43.26,0,0,0-2.21-8.26l7.31-7.07a53,53,0,0,0-4.63-8l-9.77,2.79a43.85,43.85,0,0,0-6-6l2.79-9.77A53,53,0,0,0,76.5,6l-7.07,7.31a43.26,43.26,0,0,0-8.26-2.21L58.7,1.21C57.17,1.08,55.63,1,54.07,1s-3.1.08-4.63.21L47,11.07a43.26,43.26,0,0,0-8.26,2.21L31.64,6a53,53,0,0,0-8,4.63l2.79,9.77a43.85,43.85,0,0,0-6,6l-9.77-2.79a53,53,0,0,0-4.63,8l7.31,7.07A43.26,43.26,0,0,0,11.07,47L1.21,49.44C1.08,51,1,52.51,1,54.07s.08,3.1.21,4.63"/><path class="cls-2" d="M22.93,59.34a31.14,31.14,0,0,1,62.27,0Z"/></g></g></g></svg>