<svg xmlns="http://www.w3.org/2000/svg" viewBox="0 0 106.14 57.7"><defs><style>.cls-1{fill:#edc0d3;}</style></defs><title>4_1</title><g id="Layer_2" data-name="Layer 2"><g id="objects"><path class="cls-1" d="M105.93,57.7c.13-1.53.21-3.07.21-4.63s-.08-3.1-.21-4.63L96.06,46a43.26,43.26,0,0,0-2.21-8.26l7.31-7.07a53,53,0,0,0-4.63-8l-9.77,2.79a43.85,43.85,0,0,0-6-6L83.5,9.61A53,53,0,0,0,75.5,5l-7.07,7.31a43.26,43.26,0,0,0-8.26-2.21L57.7.21C56.17.08,54.63,0,53.07,0S50,.08,48.44.21L46,10.07a43.26,43.26,0,0,0-8.26,2.21L30.64,5a53,53,0,0,0-8,4.63l2.79,9.77a43.85,43.85,0,0,0-6,6L9.61,22.63a53,53,0,0,0-4.63,8l7.31,7.07A43.26,43.26,0,0,0,10.07,46L.21,48.44C.08,50,0,51.51,0,53.07s.08,3.1.21,4.63"/></g></g></svg>