<svg xmlns="http://www.w3.org/2000/svg" viewBox="0 0 141.56 76.29"><defs><style>.cls-1{fill:#f5abc7;}</style></defs><title>5</title><g id="Layer_2" data-name="Layer 2"><g id="objects"><g id="_5" data-name="5"><polygon class="cls-1" points="141.56 75.71 140.99 76.29 141.56 76.29 141.56 75.71"/><polygon class="cls-1" points="141.56 70.09 141.56 68.93 134.2 76.29 135.36 76.29 141.56 70.09"/><polygon class="cls-1" points="141.56 63.3 141.56 62.14 127.41 76.29 128.57 76.29 141.56 63.3"/><polygon class="cls-1" points="141.56 56.51 141.56 55.35 120.63 76.29 121.79 76.29 141.56 56.51"/><polygon class="cls-1" points="141.56 49.73 141.56 48.56 113.84 76.29 115 76.29 141.56 49.73"/><polygon class="cls-1" points="141.56 42.94 141.56 41.78 107.05 76.29 108.21 76.29 141.56 42.94"/><polygon class="cls-1" points="141.56 36.15 141.56 34.99 100.27 76.29 101.43 76.29 141.56 36.15"/><polygon class="cls-1" points="141.56 29.36 141.56 28.2 93.48 76.29 94.64 76.29 141.56 29.36"/><polygon class="cls-1" points="141.56 22.58 141.56 21.42 86.69 76.29 87.85 76.29 141.56 22.58"/><polygon class="cls-1" points="141.56 15.79 141.56 14.63 79.9 76.29 81.06 76.29 141.56 15.79"/><polygon class="cls-1" points="141.56 9 141.56 7.84 73.12 76.29 74.28 76.29 141.56 9"/><polygon class="cls-1" points="141.56 2.22 141.56 1.05 66.33 76.29 67.49 76.29 141.56 2.22"/><polygon class="cls-1" points="136.99 0 135.83 0 59.54 76.29 60.7 76.29 136.99 0"/><polygon class="cls-1" points="130.2 0 129.04 0 52.76 76.29 53.92 76.29 130.2 0"/><polygon class="cls-1" points="123.42 0 122.25 0 45.97 76.29 47.13 76.29 123.42 0"/><polygon class="cls-1" points="116.63 0 115.47 0 39.18 76.29 40.34 76.29 116.63 0"/><polygon class="cls-1" points="109.84 0 108.68 0 32.39 76.29 33.55 76.29 109.84 0"/><polygon class="cls-1" points="103.06 0 101.89 0 25.61 76.29 26.77 76.29 103.06 0"/><polygon class="cls-1" points="96.27 0 95.11 0 18.82 76.29 19.98 76.29 96.27 0"/><polygon class="cls-1" points="89.48 0 88.32 0 12.03 76.29 13.19 76.29 89.48 0"/><polygon class="cls-1" points="82.69 0 81.53 0 5.25 76.29 6.41 76.29 82.69 0"/><polygon class="cls-1" points="75.91 0 74.75 0 0 74.75 0 75.91 75.91 0"/><polygon class="cls-1" points="69.12 0 67.96 0 0 67.96 0 69.12 69.12 0"/><polygon class="cls-1" points="62.33 0 61.17 0 0 61.17 0 62.33 62.33 0"/><polygon class="cls-1" points="55.54 0 54.38 0 0 54.38 0 55.54 55.54 0"/><polygon class="cls-1" points="48.76 0 47.6 0 0 47.6 0 48.76 48.76 0"/><polygon class="cls-1" points="41.97 0 40.81 0 0 40.81 0 41.97 41.97 0"/><polygon class="cls-1" points="35.18 0 34.02 0 0 34.02 0 35.18 35.18 0"/><polygon class="cls-1" points="28.4 0 27.23 0 0 27.23 0 28.4 28.4 0"/><polygon class="cls-1" points="21.61 0 20.45 0 0 20.45 0 21.61 21.61 0"/><polygon class="cls-1" points="14.82 0 13.66 0 0 13.66 0 14.82 14.82 0"/><polygon class="cls-1" points="8.03 0 6.87 0 0 6.87 0 8.03 8.03 0"/><polygon class="cls-1" points="0 0.09 0 1.25 1.25 0 0.09 0 0 0.09"/></g></g></g></svg>